<svg id="e89af392-f986-47dc-8ffd-195528f8f6d2" data-name="Layer 1" xmlns="http://www.w3.org/2000/svg" width="100" height="100" viewBox="0 0 100 100"><title>icons</title><polygon points="25.33 80.32 25.33 73.87 21.92 73.87 21.92 80.32 21.92 83.74 25.33 83.74 31.78 83.74 31.78 80.32 25.33 80.32" fill="#2c3439"/><polygon points="25.33 30.88 31.78 30.88 31.78 27.47 25.33 27.47 21.92 27.47 21.92 30.88 21.92 37.34 25.33 37.34 25.33 30.88" fill="#2c3439"/><polygon points="74.67 30.88 74.67 37.34 78.08 37.34 78.08 30.88 78.08 27.47 74.67 27.47 68.22 27.47 68.22 30.88 74.67 30.88" fill="#2c3439"/><polygon points="74.67 80.22 68.22 80.22 68.22 83.64 74.67 83.64 78.08 83.64 78.08 80.22 78.08 73.77 74.67 73.77 74.67 80.22" fill="#2c3439"/><path d="M49.82,80.3a12,12,0,0,1-7.3-2.53C37.21,73.81,34,66,33.17,59.93c-.12-.88-.21-1.82-.28-2.79v-.49l-.09-1.55H67.16l0,1.51c0,1.09-.08,2.53-.26,4-.06.54-.14,1.08-.23,1.62A26.38,26.38,0,0,1,61.75,73.5c-2.76,3.67-6.42,6.09-10,6.65A12.23,12.23,0,0,1,49.82,80.3ZM35.92,58c0,.5.1,1,.17,1.49.72,5.24,3.59,12.45,8.19,15.87a9,9,0,0,0,7,1.84c2.87-.44,5.83-2.45,8.13-5.51a23.23,23.23,0,0,0,4.34-10c.09-.48.16-1,.22-1.45.09-.75.14-1.51.18-2.21Z" fill="#2c3439"/><path d="M67.17,50.46H32.83l.07-1.54A15.36,15.36,0,0,1,48.29,34.28h3.42A15.36,15.36,0,0,1,67.1,48.92ZM36,47.52H64A12.41,12.41,0,0,0,51.71,37.23H48.29A12.41,12.41,0,0,0,36,47.52Z" fill="#2c3439"/><path d="M22.65,90.34l-.47-2.91c2.74-.45,10.34-2.05,12.59-4,2.89-2.52,2.69-7.68,2-12.88l2.93-.36c.5,4,1.44,11.56-3,15.46C33.43,88.5,23.75,90.16,22.65,90.34Z" fill="#2c3439"/><path d="M77.15,90.34c-1.09-.18-10.77-1.84-14.05-4.7-4.36-3.81-3.56-10.26-3-14.53l2.92.36c-.6,4.83-.89,9.38,2.05,12,2.24,2,9.85,3.56,12.59,4Z" fill="#2c3439"/><path d="M71.63,50.53a2.15,2.15,0,0,0-1.87,1.1H29.41a2.14,2.14,0,1,0-.13,2.3H69.89a2.14,2.14,0,1,0,1.74-3.4Z" fill="#ef8c23"/><path d="M85.68,7.37a1.84,1.84,0,0,0-3.19,0L78,15.14l-4.49,7.77a1.84,1.84,0,0,0,1.59,2.75h18a1.84,1.84,0,0,0,1.59-2.75l-4.49-7.77Z" fill="#ef8c23"/><path d="M72.62,25.26a2.88,2.88,0,0,1,0-2.87l9-15.54a2.85,2.85,0,0,1,2.49-1.44h0a2.84,2.84,0,0,1,2.48,1.44l9,15.54a2.87,2.87,0,0,1-2.48,4.31h-18A2.85,2.85,0,0,1,72.62,25.26ZM83.39,7.89l-9,15.54a.76.76,0,0,0,0,.79.78.78,0,0,0,.69.41h18a.78.78,0,0,0,.69-.41.76.76,0,0,0,0-.79l-9-15.54a.8.8,0,0,0-1.39,0Z" fill="#2c3439"/><path d="M83,21.18a1.08,1.08,0,1,1,1.06,1.15A1.06,1.06,0,0,1,83,21.18Zm.49-2.61-.15-8.79,1.75,0-.36,8.79Z" fill="#2c3439"/></svg>