<svg id="f6127e16-3a85-41e5-8f00-50d6cd554d09" data-name="Layer 1" xmlns="http://www.w3.org/2000/svg" width="100" height="100" viewBox="0 0 100 100"><title>icons</title><path d="M41.06,49.29H58.94a0,0,0,0,1,0,0v2.35a.47.47,0,0,1-.47.47H41.53a.47.47,0,0,1-.47-.47V49.29A0,0,0,0,1,41.06,49.29Z" fill="#ef8c23"/><path d="M23.92,39.77a.31.31,0,0,1,.17,0,.17.17,0,0,1-.17,0s0,0,0,0Z" fill="#ef8c23"/><path d="M23.92,39.77v0h-.17l.06,0S23.88,39.78,23.92,39.77Z" fill="#ef8c23"/><path d="M70.5,49.6H30.59a5.76,5.76,0,0,1-5.75-5.75v-87.7a5.76,5.76,0,0,1,5.75-5.75H70.5a5.76,5.76,0,0,1,5.75,5.75v87.7A5.76,5.76,0,0,1,70.5,49.6ZM30.59-47.6a3.76,3.76,0,0,0-3.75,3.75v87.7a3.76,3.76,0,0,0,3.75,3.75H70.5a3.76,3.76,0,0,0,3.75-3.75v-87.7A3.76,3.76,0,0,0,70.5-47.6Z" fill="#2c3439"/><line x1="57.45" y1="60.06" x2="77.59" y2="85" fill="none" stroke="#ef8c23" stroke-miterlimit="10" stroke-width="2"/><path d="M82.21,71.39a1.89,1.89,0,0,0-3.26,0l-4.6,8-4.59,8a1.88,1.88,0,0,0,1.63,2.83H89.77a1.89,1.89,0,0,0,1.63-2.83l-4.6-8Z" fill="#ef8c23"/><path d="M68.84,89.72a2.87,2.87,0,0,1,0-2.94L78,70.86a2.91,2.91,0,0,1,2.55-1.47h0a2.93,2.93,0,0,1,2.55,1.47l9.19,15.92a3,3,0,0,1-2.55,4.42H71.39A2.9,2.9,0,0,1,68.84,89.72Zm11-17.79L70.68,87.85a.75.75,0,0,0,0,.81.79.79,0,0,0,.71.41H89.77a.82.82,0,0,0,.71-1.22L81.29,71.93a.83.83,0,0,0-.71-.42A.79.79,0,0,0,79.87,71.93Z" fill="#2c3439"/><path d="M79.47,85.55a1.1,1.1,0,0,1,1.12-1.15,1.07,1.07,0,0,1,1.09,1.17,1.08,1.08,0,0,1-1.12,1.15A1.1,1.1,0,0,1,79.47,85.55Zm.5-2.68-.15-9,1.8,0-.37,9Z" fill="#2c3439"/><path d="M50,63.41A12.53,12.53,0,1,1,62.53,50.88,12.54,12.54,0,0,1,50,63.41Zm0-22.08a9.55,9.55,0,1,0,9.55,9.55A9.56,9.56,0,0,0,50,41.33Z" fill="#ef8c23"/><rect x="45.06" y="70.94" width="8.47" height="11.76" fill="#2c3439"/><rect x="46.24" y="67.06" width="6.12" height="3.88" fill="#2c3439"/><rect x="46.94" y="82.35" width="4.71" height="2.24" fill="#2c3439"/><path d="M49.37,83.29s-2,25.77.59,30.24" fill="none" stroke="#2c3439" stroke-miterlimit="10" stroke-width="2"/></svg>