<?xml version="1.0" encoding="utf-8"?>
<!-- Generator: Adobe Illustrator 26.0.1, SVG Export Plug-In . SVG Version: 6.00 Build 0)  -->
<svg version="1.1" id="Layer_1" xmlns="http://www.w3.org/2000/svg" xmlns:xlink="http://www.w3.org/1999/xlink" x="0px" y="0px"
	 width="100px" height="100px" viewBox="0 0 100 100" style="enable-background:new 0 0 100 100;" xml:space="preserve">
<style type="text/css">
	.st0{fill:#2C3439;}
	.st1{fill:#EE8B22;}
	.st2{fill:#EE8B22;stroke:#2C3439;stroke-miterlimit:10;}
	.st3{fill:#FFFFFF;stroke:#2C3439;stroke-miterlimit:10;}
</style>
<g>
	<g>
		<g>
			<g>
				<path class="st0" d="M55.3,6.5H38.1c-2.1,0-3.8-1.7-3.8-3.8V1.3h24.8v1.4C59.1,4.8,57.4,6.5,55.3,6.5z"/>
			</g>
		</g>
	</g>
	<g>
		<path class="st0" d="M66.5,99.2H26.9c-3.1,0-5.7-2.6-5.7-5.7v-87c0-3.1,2.6-5.7,5.7-5.7h39.6c3.1,0,5.7,2.6,5.7,5.7v87
			C72.2,96.7,69.7,99.2,66.5,99.2z M26.9,2.8c-2.1,0-3.7,1.7-3.7,3.7v87c0,2.1,1.7,3.7,3.7,3.7h39.6c2.1,0,3.7-1.7,3.7-3.7v-87
			c0-2.1-1.7-3.7-3.7-3.7H26.9z"/>
	</g>
</g>
<g>
	<g>
		<g>
			<path class="st1" d="M44.7,42.5c0.5-0.9,1.9-0.9,2.4,0l3.4,5.9l3.4,5.9c0.5,0.9-0.1,2.1-1.2,2.1h-6.8h-6.8
				c-1.1,0-1.8-1.2-1.2-2.1l3.4-5.9L44.7,42.5z"/>
		</g>
		<g>
			<path class="st0" d="M52.7,57.3H39.1c-0.8,0-1.5-0.4-1.9-1.1c-0.4-0.7-0.4-1.5,0-2.2L44,42.1c0.4-0.7,1.1-1.1,1.9-1.1
				c0,0,0,0,0,0c0.8,0,1.5,0.4,1.9,1.1L54.6,54c0.4,0.7,0.4,1.5,0,2.2C54.2,56.8,53.5,57.3,52.7,57.3z M45.9,42.6
				c-0.1,0-0.4,0-0.5,0.3l-6.8,11.9c-0.2,0.3-0.1,0.5,0,0.6c0.1,0.1,0.2,0.3,0.5,0.3h13.7c0.3,0,0.5-0.2,0.5-0.3
				c0.1-0.1,0.2-0.3,0-0.6l-6.8-11.9C46.3,42.6,46,42.6,45.9,42.6z"/>
		</g>
	</g>
	<g>
		<g>
			<path class="st0" d="M45.9,53.9c-0.5,0-0.8-0.4-0.8-0.9c0-0.5,0.3-0.9,0.8-0.9c0.5,0,0.8,0.4,0.8,0.9
				C46.7,53.5,46.4,53.9,45.9,53.9z M45.4,51.1l-0.3-6.7l1.3,0l-0.1,6.7L45.4,51.1z"/>
		</g>
	</g>
</g>
<path class="st2" d="M70.5,14.2c1,1.2,4.3,5.5,2.3,11.1c-0.9,2.6-3.8,5.6-6.5,6.4c-1.7,0.5-3.9,0.7-6.5-0.2c-1.5-0.5-3-1.4-4.2-2.5
	l-8.1-7c-0.7-0.6-1.1-1.5-0.9-2.5c0.1-0.6,0.4-1.2,1.2-1.5c0.8-0.3,1.7-0.1,2.3,0.4c1.3,1,3.9,3.1,5.5,4.6c0,0,0.1,0,0,0L45.3,10.1
	c-0.4-0.4-0.6-0.9-0.7-1.5c-0.1-0.7,0-1.6,0.9-2.1c0.9-0.5,2-0.2,2.7,0.6l6.4,7.7l-7.2-8.9c-0.6-0.7-0.8-1.6-0.7-2.4
	c0.1-0.7,0.5-1.4,1.4-1.5c0.9-0.2,1.9,0.3,2.5,1l7.6,9.5l-6.5-8.7c-0.6-0.8-0.4-2.1,0.5-2.6c0.3-0.2,0.6-0.3,1.1-0.2
	c0.6,0,1.1,0.3,1.5,0.8l8,9.7l-5.6-7.6c-0.8-1.1-0.5-2.5,0.8-2.9c0.3-0.1,0.7-0.2,1.2,0C59.6,1,60,1.2,60.3,1.6
	c1.5,1.8,7.6,9.4,9.5,11.6C70,13.6,70.3,13.9,70.5,14.2z"/>
<path class="st3" d="M76.7,25.9L68,34.6c-0.9,0.9-2.5,0.9-3.4,0l-0.8-0.8c-0.9-0.9-0.9-2.5,0-3.4l8.7-8.7c0.9-0.9,2.5-0.9,3.4,0
	l0.8,0.8C77.7,23.4,77.7,24.9,76.7,25.9z"/>
</svg>
