<?xml version="1.0" encoding="utf-8"?>
<!-- Generator: Adobe Illustrator 26.0.1, SVG Export Plug-In . SVG Version: 6.00 Build 0)  -->
<svg version="1.1" id="Layer_1" xmlns="http://www.w3.org/2000/svg" xmlns:xlink="http://www.w3.org/1999/xlink" x="0px" y="0px"
	 width="100px" height="100px" viewBox="0 0 100 100" style="enable-background:new 0 0 100 100;" xml:space="preserve">
<style type="text/css">
	.st0{fill:#2C3439;}
	.st1{fill:#E2E2E2;}
	.st2{fill:#EE8B22;}
</style>
<g>
	<g>
		<g>
			<g>
				<path class="st0" d="M55.4,6.8H38.4c-2.1,0-3.8-1.7-3.8-3.8V1.6h24.6V3C59.2,5.1,57.5,6.8,55.4,6.8z"/>
			</g>
		</g>
	</g>
</g>
<g>
	<g>
		<path class="st0" d="M66.6,98.9H27.2c-3.1,0-5.7-2.5-5.7-5.7V6.8c0-3.1,2.5-5.7,5.7-5.7h39.3c3.1,0,5.7,2.5,5.7,5.7v86.4
			C72.2,96.3,69.7,98.9,66.6,98.9z M27.2,3.1c-2,0-3.7,1.7-3.7,3.7v86.4c0,2,1.7,3.7,3.7,3.7h39.3c2,0,3.7-1.7,3.7-3.7V6.8
			c0-2-1.7-3.7-3.7-3.7H27.2z"/>
	</g>
</g>
<g>
	<g>
		<circle class="st1" cx="44.2" cy="3.2" r="0.1"/>
	</g>
	<g>
		<circle class="st1" cx="44.5" cy="3.2" r="0.1"/>
	</g>
	<g>
		<circle class="st1" cx="44.8" cy="3.2" r="0.1"/>
	</g>
	<g>
		<circle class="st1" cx="45.1" cy="3.2" r="0.1"/>
	</g>
	<g>
		<circle class="st1" cx="45.4" cy="3.2" r="0.1"/>
	</g>
	<g>
		<circle class="st1" cx="45.7" cy="3.2" r="0.1"/>
	</g>
	<g>
		<circle class="st1" cx="46" cy="3.2" r="0.1"/>
	</g>
	<g>
		<circle class="st1" cx="46.3" cy="3.2" r="0.1"/>
	</g>
	<g>
		<circle class="st1" cx="46.6" cy="3.2" r="0.1"/>
	</g>
	<g>
		<circle class="st1" cx="46.9" cy="3.2" r="0.1"/>
	</g>
	<g>
		<circle class="st1" cx="47.1" cy="3.2" r="0.1"/>
	</g>
	<g>
		<circle class="st1" cx="47.4" cy="3.2" r="0.1"/>
	</g>
	<g>
		<circle class="st1" cx="47.8" cy="3.2" r="0.1"/>
	</g>
	<g>
		<circle class="st1" cx="48" cy="3.2" r="0.1"/>
	</g>
	<g>
		<circle class="st1" cx="48.3" cy="3.2" r="0.1"/>
	</g>
	<g>
		<circle class="st1" cx="48.6" cy="3.2" r="0.1"/>
	</g>
	<g>
		<circle class="st1" cx="48.9" cy="3.2" r="0.1"/>
	</g>
	<g>
		<circle class="st1" cx="49.2" cy="3.2" r="0.1"/>
	</g>
	<g>
		<circle class="st1" cx="49.5" cy="3.2" r="0.1"/>
	</g>
	<g>
		<circle class="st1" cx="49.8" cy="3.2" r="0.1"/>
	</g>
</g>
<g>
	<path class="st2" d="M32.5,18.4l3.1-5.5l-3.4,0.6c-0.2,0-0.4,0-0.6-0.1c-0.1-0.1-0.2-0.2-0.3-0.4c0-0.2,0-0.3,0.1-0.5
		c0.1-0.1,0.3-0.2,0.5-0.3l4.4-0.8c0.6-0.1,0.9,0.1,1,0.6c0,0.3,0,0.5,0,0.6c-0.1,0.2-0.2,0.5-0.4,0.8L34,18.7l4.1-0.8
		c0.2,0,0.4,0,0.6,0c0.1,0.1,0.2,0.2,0.3,0.4c0,0.2,0,0.3-0.1,0.5s-0.3,0.2-0.5,0.3l-5,0.9c-0.3,0.1-0.6,0-0.8-0.1
		c-0.2-0.1-0.3-0.3-0.4-0.6c0-0.1,0-0.2,0-0.3c0-0.1,0-0.2,0.1-0.2c0-0.1,0.1-0.2,0.2-0.3C32.4,18.6,32.4,18.4,32.5,18.4z"/>
</g>
<g>
	<path class="st2" d="M38.1,29.9l1.5-1.8h-1.3c-0.1,0-0.2,0-0.2-0.1c0,0-0.1-0.1-0.1-0.2c0-0.1,0-0.1,0.1-0.2c0,0,0.1-0.1,0.2-0.1
		h1.7c0.2,0,0.3,0.1,0.3,0.3c0,0.1,0,0.2-0.1,0.2c0,0.1-0.1,0.2-0.2,0.3l-1.4,1.7h1.6c0.1,0,0.2,0,0.2,0.1c0,0,0.1,0.1,0.1,0.2
		c0,0.1,0,0.1-0.1,0.2c0,0-0.1,0.1-0.2,0.1h-2c-0.1,0-0.2,0-0.3-0.1c-0.1-0.1-0.1-0.1-0.1-0.2c0,0,0-0.1,0-0.1c0,0,0-0.1,0-0.1
		c0,0,0-0.1,0.1-0.1C38.1,29.9,38.1,29.9,38.1,29.9z"/>
</g>
<g>
	<path class="st2" d="M46,16.6l1.5-1.8h-1.3c-0.1,0-0.2,0-0.2-0.1c0,0-0.1-0.1-0.1-0.2c0-0.1,0-0.1,0.1-0.2c0,0,0.1-0.1,0.2-0.1h1.7
		c0.2,0,0.3,0.1,0.3,0.3c0,0.1,0,0.2-0.1,0.2c0,0.1-0.1,0.2-0.2,0.3l-1.4,1.7h1.6c0.1,0,0.2,0,0.2,0.1c0,0,0.1,0.1,0.1,0.2
		c0,0.1,0,0.1-0.1,0.2c0,0-0.1,0.1-0.2,0.1h-2c-0.1,0-0.2,0-0.3-0.1c-0.1-0.1-0.1-0.1-0.1-0.2c0,0,0-0.1,0-0.1c0,0,0-0.1,0-0.1
		c0,0,0-0.1,0.1-0.1C45.9,16.7,46,16.7,46,16.6z"/>
</g>
<g>
	<path class="st2" d="M46.1,34.5l1.5-1.8h-1.3c-0.1,0-0.2,0-0.2-0.1c0,0-0.1-0.1-0.1-0.2c0-0.1,0-0.1,0.1-0.2c0,0,0.1-0.1,0.2-0.1
		H48c0.2,0,0.3,0.1,0.3,0.3c0,0.1,0,0.2-0.1,0.2c0,0.1-0.1,0.2-0.2,0.3l-1.4,1.7h1.6c0.1,0,0.2,0,0.2,0.1c0,0,0.1,0.1,0.1,0.2
		c0,0.1,0,0.1-0.1,0.2c0,0-0.1,0.1-0.2,0.1h-2c-0.1,0-0.2,0-0.3-0.1c-0.1-0.1-0.1-0.1-0.1-0.2c0,0,0-0.1,0-0.1c0,0,0-0.1,0-0.1
		c0,0,0-0.1,0.1-0.1C46.1,34.5,46.1,34.5,46.1,34.5z"/>
</g>
<g>
	<path class="st2" d="M51.9,14.6l4.7-2.3l-2.6-1.2c-0.2-0.1-0.3-0.2-0.4-0.3c-0.1-0.1-0.1-0.2,0-0.4c0.1-0.1,0.2-0.2,0.3-0.3
		c0.1,0,0.3,0,0.5,0.1l3.4,1.5c0.4,0.2,0.6,0.5,0.4,0.9c-0.1,0.2-0.2,0.3-0.3,0.4c-0.1,0.1-0.4,0.2-0.7,0.4l-4.4,2.1l3.1,1.4
		c0.2,0.1,0.3,0.2,0.4,0.3c0.1,0.1,0.1,0.2,0,0.4c-0.1,0.1-0.2,0.2-0.3,0.3c-0.1,0-0.3,0-0.5-0.1l-3.9-1.7c-0.3-0.1-0.4-0.3-0.5-0.4
		c-0.1-0.2-0.1-0.4,0-0.6c0-0.1,0.1-0.1,0.1-0.2c0,0,0.1-0.1,0.2-0.1c0.1,0,0.1-0.1,0.2-0.1C51.7,14.7,51.8,14.6,51.9,14.6z"/>
</g>
<g>
	<path class="st2" d="M40.6,11.6l2.4-4l-2.5,0.4c-0.2,0-0.3,0-0.4-0.1c-0.1-0.1-0.2-0.2-0.2-0.3c0-0.1,0-0.2,0.1-0.3
		c0.1-0.1,0.2-0.2,0.4-0.2l3.3-0.5c0.4-0.1,0.7,0.1,0.7,0.5c0,0.2,0,0.3,0,0.5c-0.1,0.1-0.2,0.3-0.3,0.6l-2.2,3.8l3.1-0.5
		c0.2,0,0.3,0,0.4,0c0.1,0.1,0.2,0.2,0.2,0.3c0,0.1,0,0.3-0.1,0.4s-0.2,0.2-0.4,0.2l-3.7,0.6c-0.3,0-0.5,0-0.6-0.1
		c-0.1-0.1-0.2-0.2-0.3-0.4c0-0.1,0-0.1,0-0.2c0-0.1,0-0.1,0.1-0.2c0-0.1,0.1-0.1,0.1-0.2C40.5,11.7,40.5,11.6,40.6,11.6z"/>
</g>
<g>
	<path class="st2" d="M43.7,24l3-3.6h-2.6c-0.2,0-0.3,0-0.4-0.1c-0.1-0.1-0.1-0.2-0.1-0.3c0-0.1,0-0.2,0.1-0.3s0.2-0.1,0.4-0.1h3.3
		c0.4,0,0.6,0.2,0.6,0.6c0,0.2,0,0.3-0.1,0.5c-0.1,0.1-0.2,0.3-0.4,0.6l-2.8,3.3h3.1c0.2,0,0.3,0,0.4,0.1c0.1,0.1,0.1,0.2,0.1,0.3
		c0,0.1,0,0.3-0.1,0.3c-0.1,0.1-0.2,0.1-0.4,0.1h-3.8c-0.3,0-0.5-0.1-0.6-0.2c-0.1-0.1-0.2-0.3-0.2-0.5c0-0.1,0-0.1,0-0.2
		c0-0.1,0-0.1,0.1-0.2c0,0,0.1-0.1,0.1-0.2C43.6,24.1,43.7,24.1,43.7,24z"/>
</g>
<g>
	<path class="st2" d="M57.5,30.8l3-3.6h-2.6c-0.2,0-0.3,0-0.4-0.1c-0.1-0.1-0.1-0.2-0.1-0.3c0-0.1,0-0.2,0.1-0.3s0.2-0.1,0.4-0.1
		h3.3c0.4,0,0.6,0.2,0.6,0.6c0,0.2,0,0.3-0.1,0.5c-0.1,0.1-0.2,0.3-0.4,0.6l-2.8,3.3h3.1c0.2,0,0.3,0,0.4,0.1
		c0.1,0.1,0.1,0.2,0.1,0.3c0,0.1,0,0.3-0.1,0.3c-0.1,0.1-0.2,0.1-0.4,0.1h-3.8c-0.3,0-0.5-0.1-0.6-0.2c-0.1-0.1-0.2-0.3-0.2-0.5
		c0-0.1,0-0.1,0-0.2c0-0.1,0-0.1,0.1-0.2c0,0,0.1-0.1,0.1-0.2C57.4,30.9,57.4,30.9,57.5,30.8z"/>
</g>
<g>
	<path class="st2" d="M46.6,6.4l0.5-1.3l-0.7,0.2c-0.1,0-0.1,0-0.1,0c0,0-0.1,0-0.1-0.1c0,0,0-0.1,0-0.1c0,0,0.1-0.1,0.1-0.1l1-0.3
		c0.1,0,0.2,0,0.2,0.1c0,0.1,0,0.1,0,0.1c0,0,0,0.1-0.1,0.2l-0.5,1.2l0.9-0.3c0.1,0,0.1,0,0.1,0c0,0,0.1,0,0.1,0.1c0,0,0,0.1,0,0.1
		c0,0-0.1,0.1-0.1,0.1l-1.1,0.3c-0.1,0-0.1,0-0.2,0c0,0-0.1-0.1-0.1-0.1c0,0,0,0,0-0.1c0,0,0,0,0-0.1C46.5,6.5,46.5,6.4,46.6,6.4
		C46.6,6.4,46.6,6.4,46.6,6.4z"/>
</g>
<g>
	<path class="st2" d="M49,7.2l0.3-0.7l-0.4,0.1c0,0-0.1,0-0.1,0c0,0,0,0,0,0c0,0,0,0,0-0.1c0,0,0,0,0.1,0l0.5-0.2
		c0.1,0,0.1,0,0.1,0.1c0,0,0,0.1,0,0.1c0,0,0,0.1,0,0.1l-0.3,0.6l0.5-0.1c0,0,0.1,0,0.1,0c0,0,0,0,0,0c0,0,0,0,0,0.1c0,0,0,0-0.1,0
		l-0.6,0.2c0,0-0.1,0-0.1,0c0,0,0,0-0.1-0.1c0,0,0,0,0,0C49,7.3,49,7.3,49,7.2C49,7.3,49,7.3,49,7.2C49,7.3,49,7.2,49,7.2z"/>
</g>
<g>
	<path class="st2" d="M47,10.8l0.3-0.7l-0.4,0.1c0,0-0.1,0-0.1,0c0,0,0,0,0,0c0,0,0,0,0-0.1c0,0,0,0,0.1,0l0.5-0.2
		c0.1,0,0.1,0,0.1,0.1c0,0,0,0.1,0,0.1c0,0,0,0.1,0,0.1l-0.3,0.6l0.5-0.1c0,0,0.1,0,0.1,0c0,0,0,0,0,0c0,0,0,0,0,0.1c0,0,0,0-0.1,0
		L47.1,11c0,0-0.1,0-0.1,0c0,0,0,0-0.1-0.1c0,0,0,0,0,0C47,10.9,47,10.9,47,10.8C47,10.8,47,10.8,47,10.8C47,10.8,47,10.8,47,10.8z"
		/>
</g>
<g>
	<path class="st2" d="M49.4,8.8l1.7-0.6l-0.8-0.5c-0.1,0-0.1-0.1-0.1-0.1c0,0,0-0.1,0-0.1c0,0,0.1-0.1,0.1-0.1c0,0,0.1,0,0.2,0
		l1.1,0.7c0.1,0.1,0.2,0.2,0.1,0.3c0,0.1-0.1,0.1-0.1,0.1s-0.1,0.1-0.3,0.1l-1.6,0.5l1,0.6c0.1,0,0.1,0.1,0.1,0.1c0,0,0,0.1,0,0.1
		c0,0-0.1,0.1-0.1,0.1c0,0-0.1,0-0.2,0l-1.2-0.7c-0.1-0.1-0.1-0.1-0.2-0.2c0-0.1,0-0.1,0-0.2c0,0,0,0,0-0.1c0,0,0,0,0.1,0
		S49.2,8.9,49.4,8.8C49.3,8.9,49.3,8.8,49.4,8.8z"/>
</g>
<g>
	<path class="st2" d="M48.2,4.3l0.6-0.2l-0.3-0.2c0,0,0,0,0,0c0,0,0,0,0,0s0,0,0,0c0,0,0,0,0.1,0L49,4c0.1,0,0.1,0.1,0,0.1
		c0,0,0,0,0,0c0,0,0,0-0.1,0l-0.6,0.2l0.4,0.2c0,0,0,0,0,0c0,0,0,0,0,0s0,0,0,0c0,0,0,0-0.1,0l-0.4-0.3c0,0,0,0-0.1-0.1s0,0,0-0.1
		C48.1,4.3,48.1,4.3,48.2,4.3C48.1,4.3,48.1,4.3,48.2,4.3C48.1,4.3,48.2,4.3,48.2,4.3C48.2,4.3,48.2,4.3,48.2,4.3z"/>
</g>
<g>
	<path class="st2" d="M45.7,4.2L46.3,4L46,3.8c0,0,0,0,0,0c0,0,0,0,0,0s0,0,0,0c0,0,0,0,0.1,0l0.4,0.2c0.1,0,0.1,0.1,0,0.1
		c0,0,0,0,0,0c0,0,0,0-0.1,0l-0.6,0.2l0.4,0.2c0,0,0,0,0,0c0,0,0,0,0,0s0,0,0,0c0,0,0,0-0.1,0l-0.4-0.3c0,0,0,0-0.1-0.1s0,0,0-0.1
		C45.6,4.2,45.6,4.2,45.7,4.2C45.6,4.2,45.6,4.2,45.7,4.2C45.6,4.2,45.6,4.2,45.7,4.2C45.6,4.2,45.6,4.2,45.7,4.2z"/>
</g>
<g>
	<path class="st2" d="M47.2,3.8l0.3-0.1l-0.1-0.1c0,0,0,0,0,0c0,0,0,0,0,0c0,0,0,0,0,0c0,0,0,0,0,0l0.2,0.1c0,0,0,0,0,0.1
		c0,0,0,0,0,0c0,0,0,0,0,0L47.2,3.8L47.4,4c0,0,0,0,0,0s0,0,0,0c0,0,0,0,0,0c0,0,0,0,0,0L47.2,3.8C47.2,3.9,47.2,3.9,47.2,3.8
		C47.2,3.9,47.2,3.9,47.2,3.8C47.2,3.9,47.2,3.9,47.2,3.8C47.2,3.9,47.2,3.9,47.2,3.8C47.2,3.9,47.2,3.8,47.2,3.8
		C47.2,3.8,47.2,3.8,47.2,3.8z"/>
</g>
<g>
	<path class="st2" d="M45,6.4l0.6-0.2L45.3,6c0,0,0,0,0,0c0,0,0,0,0,0s0,0,0,0c0,0,0,0,0.1,0l0.4,0.2c0.1,0,0.1,0.1,0,0.1
		c0,0,0,0,0,0c0,0,0,0-0.1,0L45,6.5l0.4,0.2c0,0,0,0,0,0c0,0,0,0,0,0s0,0,0,0c0,0,0,0-0.1,0l-0.4-0.3c0,0,0,0-0.1-0.1s0,0,0-0.1
		C44.9,6.4,44.9,6.4,45,6.4C44.9,6.4,44.9,6.4,45,6.4C44.9,6.4,44.9,6.4,45,6.4C44.9,6.4,44.9,6.4,45,6.4z"/>
</g>
<g>
	<path class="st2" d="M30.1,23l1.7-0.6L31,21.9c-0.1,0-0.1-0.1-0.1-0.1c0,0,0-0.1,0-0.1c0,0,0.1-0.1,0.1-0.1c0,0,0.1,0,0.2,0
		l1.1,0.7c0.1,0.1,0.2,0.2,0.1,0.3c0,0.1-0.1,0.1-0.1,0.1s-0.1,0.1-0.3,0.1l-1.6,0.5l1,0.6c0.1,0,0.1,0.1,0.1,0.1c0,0,0,0.1,0,0.1
		c0,0-0.1,0.1-0.1,0.1c0,0-0.1,0-0.2,0L30,23.5c-0.1-0.1-0.1-0.1-0.2-0.2c0-0.1,0-0.1,0-0.2c0,0,0,0,0-0.1c0,0,0,0,0.1,0
		S30,23,30.1,23C30.1,23,30.1,23,30.1,23z"/>
</g>
<g>
	<path class="st2" d="M60,20.8l-0.3,0.1l-0.4-1.5l0.3-0.1l1.7,0.6l-0.3-1l0.3-0.1l0.4,1.4l-0.3,0.1l-1.7-0.6L60,20.8z"/>
</g>
<g>
	<path class="st2" d="M53.1,30.7l0,0.3l-1.5,0l0-0.3l1.1-1.5l-1,0l0-0.3l1.4,0l0,0.3L52,30.6L53.1,30.7z"/>
</g>
</svg>
