<svg id="a807fa41-1108-487e-bdd2-076a01e95c21" data-name="Layer 1" xmlns="http://www.w3.org/2000/svg" width="100" height="100" viewBox="0 0 100 100"><title>icons</title><path d="M88.7,59.43a32.46,32.46,0,0,1-9.63,22.24,3.79,3.79,0,0,1-4,1.07,3.73,3.73,0,0,1-2.77-3.09,3.83,3.83,0,0,1,1.16-3.54,23.87,23.87,0,0,0,6.44-11.22c2.29-9.28.14-17.45-6.43-24.42A3.95,3.95,0,1,1,79,34.84a32.61,32.61,0,0,1,8.5,14.58A35.88,35.88,0,0,1,88.7,59.43Z" fill="#ef8c23"/><path d="M76.27,84.39a5.85,5.85,0,0,1-1.63-.24,5.22,5.22,0,0,1-3.8-4.23,5.3,5.3,0,0,1,1.56-4.84,22.54,22.54,0,0,0,6.07-10.54,23.63,23.63,0,0,0-6.08-23.06,5.45,5.45,0,0,1-.71-6.89,5.36,5.36,0,0,1,4-2.37A5.44,5.44,0,0,1,80,33.8,34.32,34.32,0,0,1,88.91,49a37.18,37.18,0,0,1,1.26,10.4v0a33.76,33.76,0,0,1-10,23.23A5.29,5.29,0,0,1,76.27,84.39Zm-.1-49.26h-.24a2.48,2.48,0,0,0-1.81,1.09,2.52,2.52,0,0,0,.41,3.24c6.91,7.33,9.19,16,6.79,25.77a25.37,25.37,0,0,1-6.83,11.9,2.41,2.41,0,0,0-.76,2.24,2.28,2.28,0,0,0,1.74,2A2.33,2.33,0,0,0,78,80.64a30.9,30.9,0,0,0,9.21-21.22,34.46,34.46,0,0,0-1.15-9.6A31.41,31.41,0,0,0,78,35.88,2.52,2.52,0,0,0,76.17,35.13Z" fill="#2c3439"/><path d="M74.57,58.29A18.83,18.83,0,0,1,69,71.71a3.94,3.94,0,0,1-6.63-1.63,3.79,3.79,0,0,1,1-3.89,11.18,11.18,0,0,0,0-15.74,4,4,0,0,1-1.2-3A3.75,3.75,0,0,1,64.66,44a3.67,3.67,0,0,1,4.17.72,18.37,18.37,0,0,1,5.42,10.13A17.41,17.41,0,0,1,74.57,58.29Z" fill="#ef8c23"/><path d="M66.16,74.39a5.21,5.21,0,0,1-1.35-.17,5.42,5.42,0,0,1-2.47-9.06,9.31,9.31,0,0,0,2.59-4.67,9.46,9.46,0,0,0-2.56-9,5.37,5.37,0,0,1-1.59-4,5.4,5.4,0,0,1,9.07-3.79,19.87,19.87,0,0,1,5.84,10.92A19.23,19.23,0,0,1,76,58.3h0a20.26,20.26,0,0,1-6,14.43A5.47,5.47,0,0,1,66.16,74.39ZM66.3,45.1a2.79,2.79,0,0,0-1.08.24,2.28,2.28,0,0,0-1.51,2.23,2.48,2.48,0,0,0,.79,1.87,12.63,12.63,0,0,1-.06,17.77,2.48,2.48,0,0,0,1.1,4.16,2.48,2.48,0,0,0,2.43-.7,17.19,17.19,0,0,0,5.13-12.4,16.54,16.54,0,0,0-.29-3.17,17,17,0,0,0-5-9.34A2.14,2.14,0,0,0,66.3,45.1Z" fill="#2c3439"/><path d="M58.09,89l-27-17.43v-.8s-.12-24.21-.12-24.45v-.8L58.09,27.64ZM34,69.91,55.15,83.56V33.08l-21.27,14v.25Z" fill="#2c3439"/><path d="M34,73.15H19.82V43.44H34ZM22.76,70.21H31.1V46.38H22.76Z" fill="#2c3439"/><path d="M34,73.15H19.82V43.44H34ZM22.76,70.21H31.1V46.38H22.76Z" fill="#2c3439"/><path d="M22.76,69.13H16.39a6.57,6.57,0,0,1-6.56-6.56V54a6.57,6.57,0,0,1,6.56-6.56h6.37ZM16.39,50.4A3.63,3.63,0,0,0,12.77,54v8.55a3.63,3.63,0,0,0,3.62,3.62h3.43V50.4Z" fill="#2c3439"/><path d="M85.68,7.37a1.84,1.84,0,0,0-3.19,0L78,15.14l-4.49,7.77a1.84,1.84,0,0,0,1.59,2.75h18a1.84,1.84,0,0,0,1.59-2.75l-4.49-7.77Z" fill="#ef8c23"/><path d="M72.62,25.26a2.88,2.88,0,0,1,0-2.87l9-15.54a2.85,2.85,0,0,1,2.49-1.44h0a2.84,2.84,0,0,1,2.48,1.44l9,15.54a2.87,2.87,0,0,1-2.48,4.31h-18A2.85,2.85,0,0,1,72.62,25.26ZM83.39,7.89l-9,15.54a.76.76,0,0,0,0,.79.78.78,0,0,0,.69.41h18a.78.78,0,0,0,.69-.41.76.76,0,0,0,0-.79l-9-15.54a.8.8,0,0,0-1.39,0Z" fill="#2c3439"/><path d="M83,21.18a1.08,1.08,0,1,1,1.06,1.15A1.06,1.06,0,0,1,83,21.18Zm.49-2.61-.15-8.79,1.75,0-.36,8.79Z" fill="#2c3439"/></svg>