<svg id="ff913739-f2eb-4b5e-bad2-aa0fb150f437" data-name="Layer 1" xmlns="http://www.w3.org/2000/svg" width="100" height="100" viewBox="0 0 100 100"><title>icons</title><path d="M39.26,88.88A2.62,2.62,0,0,1,38.11,88a1.8,1.8,0,0,1,0-1.92,1.78,1.78,0,0,1,1.63-1c2.79,0,5.58,0,8.37,0,.37,0,.48-.09.48-.47,0-3.07,0-6.13,0-9.2,0-.37-.09-.49-.48-.51a15.32,15.32,0,0,1-7-2.07,16.09,16.09,0,0,1-6.59-7.23A17.06,17.06,0,0,1,33,58.9a1.89,1.89,0,0,1,2.51-2,1.82,1.82,0,0,1,1.26,1.66A13,13,0,0,0,38,64a12.67,12.67,0,0,0,6.74,6.38,15.6,15.6,0,0,0,6.46.83,11.62,11.62,0,0,0,6.42-2.1,12.81,12.81,0,0,0,3.65-3.86,13.5,13.5,0,0,0,2-6.91,1.9,1.9,0,0,1,1.91-1.84A1.93,1.93,0,0,1,67,58.4a16.93,16.93,0,0,1-4,10.85,16.42,16.42,0,0,1-6.28,4.6,13.27,13.27,0,0,1-3.87,1c-.42,0-.52.19-.51.59,0,3.07,0,6.13,0,9.2,0,.42.12.49.51.49,2.77,0,5.54,0,8.32,0a1.78,1.78,0,0,1,1.63.92,1.81,1.81,0,0,1,0,2,2.62,2.62,0,0,1-1.12.85Z" fill="#2c3439"/><rect x="40.87" y="28.55" width="18.8" height="35.05" rx="9.4" fill="#ef8c23"/><path d="M50.27,65.15a11,11,0,0,1-11-11V38a11,11,0,0,1,21.91,0V54.2A11,11,0,0,1,50.27,65.15Zm0-35.05A7.86,7.86,0,0,0,42.42,38V54.2a7.85,7.85,0,1,0,15.7,0V38A7.86,7.86,0,0,0,50.27,30.1Z" fill="#2c3439"/><path d="M85.68,7.37a1.84,1.84,0,0,0-3.19,0L78,15.14l-4.49,7.77a1.84,1.84,0,0,0,1.59,2.75h18a1.84,1.84,0,0,0,1.59-2.75l-4.49-7.77Z" fill="#ef8c23"/><path d="M72.62,25.26a2.88,2.88,0,0,1,0-2.87l9-15.54a2.85,2.85,0,0,1,2.49-1.44h0a2.84,2.84,0,0,1,2.48,1.44l9,15.54a2.87,2.87,0,0,1-2.48,4.31h-18A2.85,2.85,0,0,1,72.62,25.26ZM83.39,7.89l-9,15.54a.76.76,0,0,0,0,.79.78.78,0,0,0,.69.41h18a.78.78,0,0,0,.69-.41.76.76,0,0,0,0-.79l-9-15.54a.8.8,0,0,0-1.39,0Z" fill="#2c3439"/><path d="M83,21.18a1.08,1.08,0,1,1,1.06,1.15A1.06,1.06,0,0,1,83,21.18Zm.49-2.61-.15-8.79,1.75,0-.36,8.79Z" fill="#2c3439"/></svg>