<svg id="b4499433-4156-4b54-9b58-ed0498bb8631" data-name="Layer 1" xmlns="http://www.w3.org/2000/svg" width="100" height="100" viewBox="0 0 100 100"><title>icons</title><rect x="46.95" y="61.29" width="5.16" height="27.25" rx="2.58" fill="#ef8c23"/><rect x="46.95" y="61.29" width="5.16" height="27.25" rx="2.58" fill="#ef8c23"/><path d="M49.52,89.92a4,4,0,0,1-4-4V63.87a4,4,0,1,1,7.93,0V86A4,4,0,0,1,49.52,89.92Zm0-27.24a1.19,1.19,0,0,0-1.19,1.19V86a1.19,1.19,0,0,0,2.38,0V63.87A1.19,1.19,0,0,0,49.52,62.68Z" fill="#2c3439"/><path d="M18.05,51.06a30.66,30.66,0,0,1,9.1-21,3.58,3.58,0,0,1,3.79-1A3.53,3.53,0,0,1,33.55,32a3.62,3.62,0,0,1-1.09,3.34,22.55,22.55,0,0,0-6.09,10.6c-2.16,8.77-.13,16.49,6.08,23.08a3.73,3.73,0,1,1-5.23,5.32,30.94,30.94,0,0,1-8-13.78A33.73,33.73,0,0,1,18.05,51.06Z" fill="#ef8c23"/><path d="M29.88,76.8a5.13,5.13,0,0,1-3.64-1.52,32.34,32.34,0,0,1-8.39-14.39,35.25,35.25,0,0,1-1.19-9.83v0a31.93,31.93,0,0,1,9.49-22,5.12,5.12,0,1,1,7.29,7.2,21.24,21.24,0,0,0-5.72,10A22.3,22.3,0,0,0,33.46,68a5.12,5.12,0,0,1-3.08,8.76A4.18,4.18,0,0,1,29.88,76.8ZM19.44,51.07a32.15,32.15,0,0,0,1.09,9.08A29.68,29.68,0,0,0,28.2,73.32a2.34,2.34,0,0,0,1.91.69,2.3,2.3,0,0,0,1.71-1,2.37,2.37,0,0,0-.38-3.06C24.91,63,22.75,54.8,25,45.57a24.07,24.07,0,0,1,6.45-11.24,2.25,2.25,0,0,0,.72-2.12,2.15,2.15,0,0,0-1.64-1.84,2.22,2.22,0,0,0-2.41.65A29.22,29.22,0,0,0,19.44,51.07Z" fill="#2c3439"/><path d="M31.4,52.14a17.74,17.74,0,0,1,5.24-12.67A3.72,3.72,0,0,1,42.91,41,3.59,3.59,0,0,1,42,44.68a10.17,10.17,0,0,0-2.81,5.09,10.35,10.35,0,0,0,2.77,9.78,3.73,3.73,0,0,1,1.13,2.79,3.56,3.56,0,0,1-2.29,3.33A3.47,3.47,0,0,1,36.82,65a17.34,17.34,0,0,1-5.12-9.57A17,17,0,0,1,31.4,52.14Z" fill="#ef8c23"/><path d="M39.22,67.38A4.77,4.77,0,0,1,35.86,66a18.83,18.83,0,0,1-5.52-10.32A18,18,0,0,1,30,52.13h0a19.2,19.2,0,0,1,5.64-13.63,5.13,5.13,0,0,1,5-1.4,5,5,0,0,1,3.62,3.53,5,5,0,0,1-1.29,5,8.81,8.81,0,0,0-2.44,4.41,8.94,8.94,0,0,0,2.41,8.53,5,5,0,0,1,1.51,3.81A4.9,4.9,0,0,1,41.29,67,5.41,5.41,0,0,1,39.22,67.38ZM32.79,52.16a15.56,15.56,0,0,0,.27,3A16.13,16.13,0,0,0,37.78,64a2.07,2.07,0,0,0,2.45.4,2.16,2.16,0,0,0,1.43-2.11,2.32,2.32,0,0,0-.75-1.76A12,12,0,0,1,41,43.71a2.2,2.2,0,0,0,.6-2.33,2.24,2.24,0,0,0-1.64-1.6,2.37,2.37,0,0,0-2.3.66A16.44,16.44,0,0,0,32.79,52.16Z" fill="#2c3439"/><path d="M82,53.21a30.64,30.64,0,0,1-9.1,21,3.58,3.58,0,0,1-3.79,1,3.53,3.53,0,0,1-2.61-2.92A3.63,3.63,0,0,1,67.54,69a22.5,22.5,0,0,0,6.09-10.6c2.16-8.77.13-16.49-6.08-23.07A3.77,3.77,0,0,1,67,30.51,3.73,3.73,0,0,1,72.78,30a30.86,30.86,0,0,1,8,13.77A33.78,33.78,0,0,1,82,53.21Z" fill="#ef8c23"/><path d="M70.21,76.8a5.53,5.53,0,0,1-1.54-.23,4.92,4.92,0,0,1-3.59-4A5,5,0,0,1,66.56,68a21.33,21.33,0,0,0,5.72-10,22.31,22.31,0,0,0-5.74-21.79,5.17,5.17,0,0,1-.67-6.52A5.13,5.13,0,0,1,73.76,29a32.4,32.4,0,0,1,8.39,14.39,35.25,35.25,0,0,1,1.19,9.83v0a31.92,31.92,0,0,1-9.49,21.95A5,5,0,0,1,70.21,76.8Zm-.1-46.55h-.22a2.33,2.33,0,0,0-1.71,1,2.38,2.38,0,0,0,.38,3.07C75.09,41.28,77.25,49.47,75,58.7A24.1,24.1,0,0,1,68.53,70a2.23,2.23,0,0,0-.72,2.11,2.17,2.17,0,0,0,1.64,1.85,2.22,2.22,0,0,0,2.41-.66,29.21,29.21,0,0,0,8.7-20,32.07,32.07,0,0,0-1.09-9.07A29.62,29.62,0,0,0,71.8,31,2.38,2.38,0,0,0,70.11,30.25Z" fill="#2c3439"/><path d="M68.6,52.13a17.78,17.78,0,0,1-5.24,12.68,3.72,3.72,0,0,1-6.27-1.53A3.6,3.6,0,0,1,58,59.59a10.17,10.17,0,0,0,2.81-5.09,10.36,10.36,0,0,0-2.77-9.78A3.73,3.73,0,0,1,57,41.94a3.56,3.56,0,0,1,2.29-3.33,3.46,3.46,0,0,1,3.94.68,17.38,17.38,0,0,1,5.12,9.57A17.08,17.08,0,0,1,68.6,52.13Z" fill="#ef8c23"/><path d="M60.66,67.35a5.1,5.1,0,0,1-1.28-.16,5.12,5.12,0,0,1-2.33-8.57,8.73,8.73,0,0,0,2.44-4.41,8.94,8.94,0,0,0-2.41-8.53,5,5,0,0,1-1.51-3.81,5.1,5.1,0,0,1,8.57-3.58A18.77,18.77,0,0,1,69.66,48.6,18,18,0,0,1,70,52.14h0a19.2,19.2,0,0,1-5.64,13.63A5.18,5.18,0,0,1,60.66,67.35Zm.12-27.68a2.64,2.64,0,0,0-1,.22A2.16,2.16,0,0,0,58.34,42a2.33,2.33,0,0,0,.75,1.77A12,12,0,0,1,59,60.56a2.19,2.19,0,0,0-.61,2.33,2.25,2.25,0,0,0,1.64,1.61,2.38,2.38,0,0,0,2.3-.67,16.27,16.27,0,0,0,4.84-11.72,15.53,15.53,0,0,0-.27-3,16.2,16.2,0,0,0-4.72-8.83A2,2,0,0,0,60.78,39.67Z" fill="#2c3439"/><path d="M53.2,52.16a3.77,3.77,0,1,1-3.76-3.79A3.76,3.76,0,0,1,53.2,52.16Z" fill="#ef8c23"/><path d="M49.42,57.3h0a5.16,5.16,0,0,1-3.62-8.81A5.08,5.08,0,0,1,49.45,47a5.16,5.16,0,1,1,0,10.32Zm0-7.55a2.43,2.43,0,0,0-2.38,2.39,2.39,2.39,0,0,0,2.37,2.38h0a2.36,2.36,0,0,0,1.68-.69,2.34,2.34,0,0,0,.7-1.68h0a2.39,2.39,0,0,0-2.37-2.4Z" fill="#2c3439"/><path d="M85.68,7.37a1.84,1.84,0,0,0-3.19,0L78,15.14l-4.49,7.77a1.84,1.84,0,0,0,1.59,2.75h18a1.84,1.84,0,0,0,1.59-2.75l-4.49-7.77Z" fill="#ef8c23"/><path d="M72.62,25.26a2.88,2.88,0,0,1,0-2.87l9-15.54a2.85,2.85,0,0,1,2.49-1.44h0a2.84,2.84,0,0,1,2.48,1.44l9,15.54a2.87,2.87,0,0,1-2.48,4.31h-18A2.85,2.85,0,0,1,72.62,25.26ZM83.39,7.89l-9,15.54a.76.76,0,0,0,0,.79.78.78,0,0,0,.69.41h18a.78.78,0,0,0,.69-.41.76.76,0,0,0,0-.79l-9-15.54a.8.8,0,0,0-1.39,0Z" fill="#2c3439"/><path d="M83,21.18a1.08,1.08,0,1,1,1.06,1.15A1.06,1.06,0,0,1,83,21.18Zm.49-2.61-.15-8.79,1.75,0-.36,8.79Z" fill="#2c3439"/></svg>