<svg id="e35dd62d-e172-4150-b6fe-8368cc66215c" data-name="Layer 1" xmlns="http://www.w3.org/2000/svg" width="100" height="100" viewBox="0 0 100 100"><title>icons</title><path d="M64.47,68.22l-9.74-9.73a1,1,0,0,1,0-1.64l9.77-9.77a3,3,0,0,0,0-4.39L51.77,29.93a3.36,3.36,0,0,0-.41-.34,2.88,2.88,0,0,0-3.1-.19,2.84,2.84,0,0,0-1.62,2.66q0,3.93,0,7.86v8a1,1,0,0,1-.75,1,1,1,0,0,1-1-.36q-2.6-2.61-5.2-5.21a3,3,0,1,0-4.24,4.29L37.71,50l6.88,6.87A1,1,0,0,1,44.9,58a1.59,1.59,0,0,1-.48.58c-3,3-6,6-9,9a3,3,0,1,0,4.24,4.29l.78-.78q2.23-2.25,4.48-4.48a.94.94,0,0,1,1.47,0,1.16,1.16,0,0,1,.22.79c0,5.23,0,10.45,0,15.68a3.26,3.26,0,0,0,.28,1.41,3,3,0,0,0,4.92.81Q58.18,79,64.5,72.67A3,3,0,0,0,64.47,68.22Zm-12-28.43.08-.07c.34.36.67.73,1,1.09,1.27,1.29,2.56,2.57,3.85,3.85.15.15.2.23,0,.41-1.62,1.6-3.22,3.21-4.83,4.82l-.15.13Zm5,30.85-4.88,4.87-.12.08V65.37c.14,0,.19.13.27.2l4.66,4.66C57.5,70.35,57.67,70.42,57.45,70.64Z" fill="#ef8c23"/><path d="M49.63,87.74a5.26,5.26,0,0,1-.78-.07,4.45,4.45,0,0,1-3.26-2.51,4.72,4.72,0,0,1-.41-2V68.46l-3.85,3.85-.63.63a4.47,4.47,0,1,1-6.28-6.35l5.75-5.76,3.16-3.16L38.16,52.5l-2.11-2.1-1.64-1.65a4.48,4.48,0,0,1,0-6.32A4.42,4.42,0,0,1,37.5,41.1h0a4.49,4.49,0,0,1,3.17,1.31c1.42,1.4,2.82,2.81,4.23,4.23l.24.24V37.67c0-1.87,0-3.75,0-5.62a4.28,4.28,0,0,1,2.4-3.94,4.34,4.34,0,0,1,4.57.27,4,4,0,0,1,.64.53L65.56,41.67a4.46,4.46,0,0,1,0,6.44L56,57.67l9.52,9.53a4.45,4.45,0,0,1,0,6.5Q59.2,80,52.85,86.38A4.56,4.56,0,0,1,49.63,87.74ZM45.7,64.85h.12a2.38,2.38,0,0,1,1.72.89,2.6,2.6,0,0,1,.55,1.71V83.13a1.9,1.9,0,0,0,.14.79,1.51,1.51,0,0,0,1.13.89,1.65,1.65,0,0,0,1.45-.49L63.48,71.65a1.57,1.57,0,0,0,0-2.4l-9.73-9.74a2.41,2.41,0,0,1,0-3.69l9.76-9.76a1.57,1.57,0,0,0,0-2.34L50.74,31a.69.69,0,0,0-.18-.16,1.44,1.44,0,0,0-1.63-.11,1.4,1.4,0,0,0-.84,1.37c0,1.87,0,3.74,0,5.61V48a2.42,2.42,0,0,1-4.22,1.7l-1-1q-2.1-2.11-4.21-4.22A1.64,1.64,0,0,0,37.54,44h0a1.54,1.54,0,0,0-1.08.46,1.56,1.56,0,0,0,0,2.25l1.62,1.63,2.11,2.11,5.4,5.39a2.45,2.45,0,0,1,.65,2.72,2.88,2.88,0,0,1-.73,1l-3.31,3.3-5.74,5.75a1.54,1.54,0,0,0,0,2.24,1.56,1.56,0,0,0,2.24,0c.2-.19.4-.39.59-.59l4.66-4.65A2.5,2.5,0,0,1,45.7,64.85ZM51.06,78,51,75.59V63.83l1.53.09a1.73,1.73,0,0,1,1.27.68l4.61,4.61a1.65,1.65,0,0,1,.6,1.2,1.69,1.69,0,0,1-.54,1.27c-1.18,1.16-2.35,2.34-3.53,3.51l-1.49,1.49Zm.51-3.58s0,0,0,.05ZM53.9,68.8v3.33l1.67-1.66C55,69.91,54.45,69.36,53.9,68.8Zm-2.36-2.38h0ZM51.06,53,51,50V39.13l1.64-1.43,1.28,1.37c.22.24.44.48.68.71q1.9,1.94,3.84,3.85A1.73,1.73,0,0,1,59,44.87a1.71,1.71,0,0,1-.55,1.23l-3.67,3.66L53.41,51.1Zm2.84-9.75v3.33l1.67-1.67Z" fill="#2c3439"/><path d="M85.68,7.37a1.84,1.84,0,0,0-3.19,0L78,15.14l-4.49,7.77a1.84,1.84,0,0,0,1.59,2.75h18a1.84,1.84,0,0,0,1.59-2.75l-4.49-7.77Z" fill="#ef8c23"/><path d="M72.62,25.26a2.88,2.88,0,0,1,0-2.87l9-15.54a2.85,2.85,0,0,1,2.49-1.44h0a2.84,2.84,0,0,1,2.48,1.44l9,15.54a2.87,2.87,0,0,1-2.48,4.31h-18A2.85,2.85,0,0,1,72.62,25.26ZM83.39,7.89l-9,15.54a.76.76,0,0,0,0,.79.78.78,0,0,0,.69.41h18a.78.78,0,0,0,.69-.41.76.76,0,0,0,0-.79l-9-15.54a.8.8,0,0,0-1.39,0Z" fill="#2c3439"/><path d="M83,21.18a1.08,1.08,0,1,1,1.06,1.15A1.06,1.06,0,0,1,83,21.18Zm.49-2.61-.15-8.79,1.75,0-.36,8.79Z" fill="#2c3439"/></svg>