<svg id="b7c869c9-1944-4fbd-bc02-3e7b1359f756" data-name="Layer 1" xmlns="http://www.w3.org/2000/svg" width="100" height="100" viewBox="0 0 100 100"><title>icons</title><path d="M12.27,47.7a4.38,4.38,0,0,1,1.37-3.05A51.29,51.29,0,0,1,34.25,32.08,50.23,50.23,0,0,1,52.42,29.7a50.89,50.89,0,0,1,34,15,4.29,4.29,0,1,1-6,6.1A42.6,42.6,0,0,0,64,40.58,42,42,0,0,0,46.8,38.36,42.53,42.53,0,0,0,19.65,50.75a4.15,4.15,0,0,1-4.72,1A4.25,4.25,0,0,1,12.27,47.7Z" fill="#ef8c23"/><path d="M51.23,45.24A35.21,35.21,0,0,1,75.34,55.68,4.12,4.12,0,0,1,76.51,60a4.07,4.07,0,0,1-3.36,3,4.15,4.15,0,0,1-3.84-1.25,25.83,25.83,0,0,0-12.16-7c-10.07-2.48-18.93-.15-26.49,7a4.28,4.28,0,1,1-6.1-6,35.38,35.38,0,0,1,15.81-9.21A38.51,38.51,0,0,1,51.23,45.24Z" fill="#ef8c23"/><path d="M50,60.56a20.38,20.38,0,0,1,14.55,6,4.27,4.27,0,0,1-1.76,7.19,4.1,4.1,0,0,1-4.23-1.09,12.13,12.13,0,0,0-17.07-.05,4.24,4.24,0,0,1-3.2,1.3,4.06,4.06,0,0,1-3.82-2.63,4,4,0,0,1,.79-4.52,19.91,19.91,0,0,1,11-5.87A18.93,18.93,0,0,1,50,60.56Z" fill="#ef8c23"/><path d="M50,86.88a5.62,5.62,0,1,1,5.66-5.6A5.61,5.61,0,0,1,50,86.88Z" fill="#ef8c23"/><path d="M12.27,47.7a4.38,4.38,0,0,1,1.37-3.05A51.29,51.29,0,0,1,34.25,32.08,50.23,50.23,0,0,1,52.42,29.7a50.89,50.89,0,0,1,34,15,4.29,4.29,0,1,1-6,6.1A42.6,42.6,0,0,0,64,40.58,42,42,0,0,0,46.8,38.36,42.53,42.53,0,0,0,19.65,50.75a4.15,4.15,0,0,1-4.72,1A4.25,4.25,0,0,1,12.27,47.7Z" fill="#ef8c23"/><path d="M83.46,53.68a6,6,0,0,1-4.25-1.79,41.15,41.15,0,0,0-15.71-9.8A40.48,40.48,0,0,0,46.92,40,41.09,41.09,0,0,0,20.77,51.89a5.88,5.88,0,0,1-10.09-4.18v-.05a6,6,0,0,1,1.84-4.14,53.18,53.18,0,0,1,21.24-13A52,52,0,0,1,52.5,28.11a52.59,52.59,0,0,1,35,15.41,6,6,0,0,1,1.84,4.25,5.89,5.89,0,0,1-5.82,5.91Zm-33.32-17a44.7,44.7,0,0,1,31.32,13,2.83,2.83,0,0,0,2,.86h0a2.7,2.7,0,0,0,2.66-2.69,2.82,2.82,0,0,0-.89-2A49.45,49.45,0,0,0,52.34,31.29a48.83,48.83,0,0,0-17.6,2.31,49.93,49.93,0,0,0-20,12.18,2.89,2.89,0,0,0-.9,1.95,2.66,2.66,0,0,0,1.63,2.52,2.59,2.59,0,0,0,3-.64A44.27,44.27,0,0,1,46.67,36.77C47.82,36.68,49,36.63,50.14,36.63Z" fill="#2c3439"/><path d="M51.23,45.24A35.21,35.21,0,0,1,75.34,55.68,4.12,4.12,0,0,1,76.51,60a4.07,4.07,0,0,1-3.36,3,4.15,4.15,0,0,1-3.84-1.25,25.83,25.83,0,0,0-12.16-7c-10.07-2.48-18.93-.15-26.49,7a4.28,4.28,0,1,1-6.1-6,35.38,35.38,0,0,1,15.81-9.21A38.51,38.51,0,0,1,51.23,45.24Z" fill="#ef8c23"/><path d="M72.34,64.71a5.8,5.8,0,0,1-4.15-1.8,24.38,24.38,0,0,0-11.42-6.58c-9.48-2.33-17.9-.11-25,6.6a5.92,5.92,0,0,1-7.48.76,5.82,5.82,0,0,1-2.57-4.3,5.93,5.93,0,0,1,1.72-4.76A37.07,37.07,0,0,1,39.94,45a40.23,40.23,0,0,1,11.29-1.37h0a36.63,36.63,0,0,1,25.19,10.9,5.88,5.88,0,0,1-3,10.06A6,6,0,0,1,72.34,64.71ZM49.6,52.24a33.13,33.13,0,0,1,7.93,1,27.69,27.69,0,0,1,12.91,7.4,2.6,2.6,0,0,0,2.42.83A2.49,2.49,0,0,0,75,59.58a2.54,2.54,0,0,0-.75-2.76,33.54,33.54,0,0,0-23-10A37.36,37.36,0,0,0,40.8,48.08a34,34,0,0,0-15.12,8.81,2.69,2.69,0,1,0,3.89,3.72C35.48,55,42.2,52.24,49.6,52.24Z" fill="#2c3439"/><path d="M50,60.56a20.38,20.38,0,0,1,14.55,6,4.27,4.27,0,0,1-1.76,7.19,4.1,4.1,0,0,1-4.23-1.09,12.13,12.13,0,0,0-17.07-.05,4.24,4.24,0,0,1-3.2,1.3,4.06,4.06,0,0,1-3.82-2.63,4,4,0,0,1,.79-4.52,19.91,19.91,0,0,1,11-5.87A18.93,18.93,0,0,1,50,60.56Z" fill="#ef8c23"/><path d="M61.51,75.55a5.75,5.75,0,0,1-4.07-1.73,10.53,10.53,0,0,0-14.86,0,5.84,5.84,0,0,1-4.37,1.73A5.63,5.63,0,0,1,33,71.91a5.57,5.57,0,0,1,1.11-6.23,21.57,21.57,0,0,1,11.84-6.34A19.48,19.48,0,0,1,50,59h0a22.06,22.06,0,0,1,15.65,6.47,5.93,5.93,0,0,1,1.61,5.71,5.78,5.78,0,0,1-4,4.15A6.05,6.05,0,0,1,61.51,75.55Zm-11.7-8a15.67,15.67,0,0,1,3.22.34,13.43,13.43,0,0,1,6.63,3.65,2.55,2.55,0,0,0,2.68.7,2.59,2.59,0,0,0,1.84-1.88,2.75,2.75,0,0,0-.76-2.65A18.9,18.9,0,0,0,50,62.16a16.58,16.58,0,0,0-3.45.31A18.51,18.51,0,0,0,36.4,67.89a2.37,2.37,0,0,0-.46,2.81,2.49,2.49,0,0,0,2.42,1.64,2.7,2.7,0,0,0,2-.86A13.33,13.33,0,0,1,49.81,67.55Z" fill="#2c3439"/><path d="M50,86.88a5.62,5.62,0,1,1,5.66-5.6A5.61,5.61,0,0,1,50,86.88Z" fill="#ef8c23"/><path d="M50,88.47h0a7.09,7.09,0,0,1-5.09-2.12A7.21,7.21,0,0,1,50,74.05h0a7.24,7.24,0,0,1,7.2,7.24A7.24,7.24,0,0,1,50,88.47Zm0-3.18h0a4,4,0,0,0,4.05-4,4,4,0,0,0-1.18-2.85A3.89,3.89,0,0,0,50,77.23a4,4,0,1,0,0,8.06Z" fill="#2c3439"/><path d="M85.68,7.37a1.84,1.84,0,0,0-3.19,0L78,15.14l-4.49,7.77a1.84,1.84,0,0,0,1.59,2.75h18a1.84,1.84,0,0,0,1.59-2.75l-4.49-7.77Z" fill="#ef8c23"/><path d="M72.62,25.26a2.88,2.88,0,0,1,0-2.87l9-15.54a2.85,2.85,0,0,1,2.49-1.44h0a2.84,2.84,0,0,1,2.48,1.44l9,15.54a2.87,2.87,0,0,1-2.48,4.31h-18A2.85,2.85,0,0,1,72.62,25.26ZM83.39,7.89l-9,15.54a.76.76,0,0,0,0,.79.78.78,0,0,0,.69.41h18a.78.78,0,0,0,.69-.41.76.76,0,0,0,0-.79l-9-15.54a.8.8,0,0,0-1.39,0Z" fill="#2c3439"/><path d="M83,21.18a1.08,1.08,0,1,1,1.06,1.15A1.06,1.06,0,0,1,83,21.18Zm.49-2.61-.15-8.79,1.75,0-.36,8.79Z" fill="#2c3439"/></svg>