<svg id="b8743813-7dd2-4333-8198-3c5decb47a46" data-name="Layer 1" xmlns="http://www.w3.org/2000/svg" width="100" height="100" viewBox="0 0 100 100"><title>icons</title><path d="M36.49,77.59h27a1,1,0,0,1,1,1v8.19A1.55,1.55,0,0,1,63,88.36H37a1.55,1.55,0,0,1-1.55-1.55V78.62A1,1,0,0,1,36.49,77.59Z" fill="#ef8c23"/><path d="M61.17,89.88H38.83A4.9,4.9,0,0,1,33.93,85V39.8A3.78,3.78,0,0,1,37.7,36H62.3a3.78,3.78,0,0,1,3.77,3.77V85A4.9,4.9,0,0,1,61.17,89.88ZM37.7,39.08a.71.71,0,0,0-.71.72V85a1.84,1.84,0,0,0,1.84,1.84H61.17A1.84,1.84,0,0,0,63,85V39.8a.71.71,0,0,0-.71-.72Z" fill="#2c3439"/><path d="M57.58,39.08H42.42a3.37,3.37,0,0,1-3.37-3.37V30.78a3.37,3.37,0,0,1,3.37-3.37H57.58A3.37,3.37,0,0,1,61,30.78v4.93A3.37,3.37,0,0,1,57.58,39.08ZM42.42,30.46a.32.32,0,0,0-.32.32v4.93a.32.32,0,0,0,.32.32H57.58a.32.32,0,0,0,.32-.32V30.78a.32.32,0,0,0-.32-.32Z" fill="#2c3439"/><path d="M85.68,7.37a1.84,1.84,0,0,0-3.19,0L78,15.14l-4.49,7.77a1.84,1.84,0,0,0,1.59,2.75h18a1.84,1.84,0,0,0,1.59-2.75l-4.49-7.77Z" fill="#ef8c23"/><path d="M72.62,25.26a2.88,2.88,0,0,1,0-2.87l9-15.54a2.85,2.85,0,0,1,2.49-1.44h0a2.84,2.84,0,0,1,2.48,1.44l9,15.54a2.87,2.87,0,0,1-2.48,4.31h-18A2.85,2.85,0,0,1,72.62,25.26ZM83.39,7.89l-9,15.54a.76.76,0,0,0,0,.79.78.78,0,0,0,.69.41h18a.78.78,0,0,0,.69-.41.76.76,0,0,0,0-.79l-9-15.54a.8.8,0,0,0-1.39,0Z" fill="#2c3439"/><path d="M83,21.18a1.08,1.08,0,1,1,1.06,1.15A1.06,1.06,0,0,1,83,21.18Zm.49-2.61-.15-8.79,1.75,0-.36,8.79Z" fill="#2c3439"/></svg>