<?xml version="1.0" encoding="utf-8"?>
<!-- Generator: Adobe Illustrator 26.0.1, SVG Export Plug-In . SVG Version: 6.00 Build 0)  -->
<svg version="1.1" id="a807fa41-1108-487e-bdd2-076a01e95c21"
	 xmlns="http://www.w3.org/2000/svg" xmlns:xlink="http://www.w3.org/1999/xlink" x="0px" y="0px" width="100px" height="100px"
	 viewBox="0 0 100 100" style="enable-background:new 0 0 100 100;" xml:space="preserve">
<style type="text/css">
	.st0{fill:#EF8C23;}
	.st1{fill:#2C3439;}
</style>
<g>
	<path class="st0" d="M85.7,7.4c-0.5-0.9-1.6-1.2-2.5-0.7c-0.3,0.2-0.5,0.4-0.7,0.7L78,15.1l-4.5,7.8c-0.5,0.9-0.2,2,0.7,2.5
		c0.3,0.2,0.6,0.2,0.9,0.2h18c1,0,1.8-0.8,1.8-1.8c0-0.3-0.1-0.6-0.2-0.9l-4.5-7.8L85.7,7.4z"/>
</g>
<g>
	<path class="st1" d="M72.6,25.3c-0.5-0.9-0.5-2,0-2.9l9-15.5c0.5-0.9,1.5-1.4,2.5-1.4l0,0c1,0,2,0.5,2.5,1.4l9,15.5
		c0.8,1.4,0.3,3.1-1,3.9c-0.4,0.3-0.9,0.4-1.4,0.4h-18C74.1,26.7,73.1,26.2,72.6,25.3z M83.4,7.9l-9,15.5c-0.1,0.2-0.1,0.5,0,0.8
		c0.1,0.3,0.4,0.4,0.7,0.4h18c0.3,0,0.6-0.2,0.7-0.4c0.1-0.2,0.1-0.5,0-0.8l-9-15.5c-0.2-0.4-0.7-0.5-1.1-0.3
		C83.6,7.7,83.5,7.8,83.4,7.9L83.4,7.9z"/>
</g>
<g>
	<path class="st1" d="M83,21.2c0-0.6,0.6-1,1.1-1s1,0.6,1,1.1c0,0.6-0.5,1-1.1,1C83.5,22.3,83,21.9,83,21.2C83,21.2,83,21.2,83,21.2
		z M83.5,18.6l-0.2-8.8h1.8l-0.4,8.8H83.5z"/>
</g>
<g>
	<path class="st1" d="M49.3,79.3c-15.9,0-28.9-13-28.9-28.9s13-28.9,28.9-28.9s28.9,13,28.9,28.9S65.3,79.3,49.3,79.3z M49.3,22.6
		C34,22.6,21.5,35,21.5,50.3c0,15.3,12.5,27.8,27.8,27.8c15.3,0,27.8-12.5,27.8-27.8C77.1,35,64.7,22.6,49.3,22.6z"/>
</g>
<g>
	<polygon class="st0" points="47.6,17.7 38,52.1 50.6,52.1 37.3,88.8 69.2,43.6 54.3,43.4 64.4,18.7 	"/>
	<path class="st1" d="M35.3,92.6l14.5-39.9H37.3l9.9-35.5l18,1L55.1,42.8L70.3,43L35.3,92.6z M38.8,51.5h12.7L39.3,85l28.9-40.9
		L53.4,44l10.2-24.8L48,18.3L38.8,51.5z"/>
</g>
</svg>
