<svg id="ac5fc368-2847-4597-8f62-7a3414f002c0" data-name="Layer 1" xmlns="http://www.w3.org/2000/svg" width="100" height="100" viewBox="0 0 100 100"><title>icons</title><path d="M90.62,57H9.38V14.8A4.81,4.81,0,0,1,14.19,10H85.81a4.81,4.81,0,0,1,4.81,4.81ZM11.38,55H88.62V14.8A2.81,2.81,0,0,0,85.81,12H14.19a2.81,2.81,0,0,0-2.81,2.81Z" fill="#2c3439"/><path d="M96.19,84.65,88.85,57c-25.43-.06-71.52-.13-77.7,0L3.81,84.65l-1.93-.51,7.6-28.68.19-.19c.41-.41.41-.41,40.4-.36,19.79,0,39.56.07,39.56.07h.76l7.73,29.16Z" fill="#2c3439"/><polygon points="89.77 72.34 10.49 72.22 13.41 59.75 86.59 60.1 89.77 72.34" fill="#ef8c23"/><path d="M91.06,73.34,9.23,73.22l3.39-14.47,74.74.36Zm-79.3-2.12,76.71.12L85.81,61.1,14.2,60.76Z" fill="#2c3439"/><path d="M55.22,82.5H40.66V73.65H55.22ZM42.16,81H53.72V75.15H42.16Z" fill="#2c3439"/><path d="M2.9,85.15H97.12a0,0,0,0,1,0,0v2.36a1.5,1.5,0,0,1-1.5,1.5H4.4a1.5,1.5,0,0,1-1.5-1.5V85.15a0,0,0,0,1,0,0Z" fill="#ef8c23"/><path d="M95.63,90H4.39a2.5,2.5,0,0,1-2.49-2.5V84.15H98.12v3.36A2.5,2.5,0,0,1,95.63,90ZM3.89,86.15v1.36a.5.5,0,0,0,.5.5H95.63a.5.5,0,0,0,.5-.5V86.15Z" fill="#2c3439"/><polygon points="76.85 62.01 73.94 62.01 73.94 61.67 76.5 61.67 76.53 37.13 76.88 37.13 76.85 62.01" fill="#2c3439"/><path d="M76.71,35.06A10.44,10.44,0,0,0,78.33,38L76.7,37.4,75.08,38A10.52,10.52,0,0,0,76.71,35.06Z" fill="#2c3439"/><path d="M78.72,14.84a1.42,1.42,0,0,0-2.45,0l-3.44,6-3.45,6A1.42,1.42,0,0,0,70.6,28.9H84.39a1.41,1.41,0,0,0,1.22-2.12l-3.44-6Z" fill="#ef8c23"/><path d="M68.69,28.59a2.19,2.19,0,0,1,0-2.21l6.89-11.94a2.21,2.21,0,0,1,1.92-1.11h0a2.19,2.19,0,0,1,1.91,1.11L86.3,26.38a2.2,2.2,0,0,1-1.91,3.31H70.6A2.18,2.18,0,0,1,68.69,28.59ZM77,15.24,70.07,27.18a.62.62,0,0,0,.53.92H84.39a.64.64,0,0,0,.54-.31.61.61,0,0,0,0-.61L78,15.24a.62.62,0,0,0-1.07,0Z" fill="#2c3439"/><path d="M76.67,25.45a.83.83,0,1,1,.82.89A.83.83,0,0,1,76.67,25.45Zm.37-2-.11-6.76,1.35,0L78,23.46Z" fill="#2c3439"/></svg>