<svg id="ef938817-390a-42a1-9d3d-56f8bedf2493" data-name="Layer 1" xmlns="http://www.w3.org/2000/svg" width="100" height="100" viewBox="0 0 100 100"><title>icons</title><path d="M90.62,57H9.38V14.8A4.81,4.81,0,0,1,14.19,10H85.81a4.82,4.82,0,0,1,4.81,4.81ZM11.38,55H88.62V14.8A2.81,2.81,0,0,0,85.81,12H14.19a2.81,2.81,0,0,0-2.81,2.81Z" fill="#2c3439"/><path d="M96.19,84.65,88.85,57c-25.43-.06-71.52-.13-77.7,0L3.81,84.65l-1.93-.51,7.6-28.68.19-.19c.41-.41.41-.41,40.4-.36,19.79,0,39.56.07,39.56.07h.76l7.73,29.16Z" fill="#2c3439"/><path d="M91.06,73.34,9.23,73.22l3.39-14.47,74.74.36ZM11.75,71.22l76.72.12L85.81,61.1,14.2,60.76Z" fill="#2c3439"/><rect x="41.23" y="75.46" width="13.06" height="7.35" fill="#ef8c23"/><path d="M55.29,83.81H40.23V74.46H55.29Zm-13.06-2H53.29V76.46H42.23Z" fill="#2c3439"/><rect x="41.23" y="75.46" width="13.06" height="7.35" fill="#ef8c23"/><path d="M55.29,83.81H40.23V74.46H55.29Zm-13.06-2H53.29V76.46H42.23Z" fill="#2c3439"/><path d="M2.9,85.15H97.12a0,0,0,0,1,0,0v2.36a1.5,1.5,0,0,1-1.5,1.5H4.39a1.5,1.5,0,0,1-1.5-1.5V85.15a0,0,0,0,1,0,0Z" fill="#ef8c23"/><path d="M95.63,90H4.39a2.5,2.5,0,0,1-2.49-2.5V84.15H98.12v3.36A2.5,2.5,0,0,1,95.63,90ZM3.89,86.15v1.36a.5.5,0,0,0,.5.5H95.63a.5.5,0,0,0,.5-.5V86.15Z" fill="#2c3439"/><polygon points="52.41 78.6 49.5 78.6 49.5 78.26 52.06 78.26 52.09 53.71 52.43 53.71 52.41 78.6" fill="#2c3439"/><path d="M52.26,51.65a10.27,10.27,0,0,0,1.63,2.92L52.26,54l-1.63.59A10.17,10.17,0,0,0,52.26,51.65Z" fill="#2c3439"/><path d="M53.54,29.66a1.41,1.41,0,0,0-2.44,0l-3.45,6-3.45,6a1.42,1.42,0,0,0,1.23,2.12H59.22a1.42,1.42,0,0,0,1.22-2.12l-3.45-6Z" fill="#ef8c23"/><path d="M43.51,43.41a2.19,2.19,0,0,1,0-2.21l6.9-11.94a2.18,2.18,0,0,1,1.91-1.1h0a2.18,2.18,0,0,1,1.91,1.1l6.9,11.94a2.22,2.22,0,0,1-1.91,3.32H45.42A2.2,2.2,0,0,1,43.51,43.41Zm8.28-13.35L44.89,42a.62.62,0,0,0,0,.62.61.61,0,0,0,.53.3h13.8a.61.61,0,0,0,.53-.3.62.62,0,0,0,0-.62l-6.9-11.94a.61.61,0,0,0-1.06,0Z" fill="#2c3439"/><path d="M51.49,40.28a.83.83,0,0,1,.84-.87.88.88,0,0,1,0,1.75A.83.83,0,0,1,51.49,40.28Zm.38-2-.12-6.76,1.35,0-.28,6.75Z" fill="#2c3439"/></svg>