<svg id="b6f6fb76-d3ad-4a0a-a5b4-66807017c591" data-name="Layer 1" xmlns="http://www.w3.org/2000/svg" width="100" height="100" viewBox="0 0 100 100"><title>icons</title><path d="M60.72,86.8H40.05l-.45-.24a3.36,3.36,0,0,1-1.42-1.26,3,3,0,0,1,0-3.1,3,3,0,0,1,2.65-1.54h6.51q0-3.19,0-6.39a15.09,15.09,0,0,1-6-2,15.83,15.83,0,0,1-6.43-7.07,16.61,16.61,0,0,1-1.52-6.54A3.2,3.2,0,0,1,34.64,56a3.08,3.08,0,0,1,2.83-.45,3,3,0,0,1,2.08,2.76,10.37,10.37,0,0,0,1,4.28,9.87,9.87,0,0,0,5.3,5,12.82,12.82,0,0,0,5.21.65,9.12,9.12,0,0,0,5-1.63,10.31,10.31,0,0,0,2.87-3,10.68,10.68,0,0,0,1.58-5.48,3.07,3.07,0,0,1,6.14.11A16.2,16.2,0,0,1,66.1,62a16.45,16.45,0,0,1-3.45,6.75,16,16,0,0,1-6.14,4.49,13.52,13.52,0,0,1-3,.89q0,3.25,0,6.5H60a3.08,3.08,0,0,1,2.62,4.72,3.32,3.32,0,0,1-1.41,1.19ZM40.76,84H60a.9.9,0,0,0,.19-.12c.1-.18.07-.23,0-.32s-.12-.16-.27-.16H52.53a1.79,1.79,0,0,1-1.36-.5,1.86,1.86,0,0,1-.49-1.34c0-2.72,0-5.46,0-8.19A1.77,1.77,0,0,1,52.4,71.5a10.49,10.49,0,0,0,3-.78A13.24,13.24,0,0,0,60.53,67a13.92,13.92,0,0,0,3.29-8.81.35.35,0,0,0-.32-.31c-.14,0-.15,0-.17.07a.35.35,0,0,0-.11.23,13.53,13.53,0,0,1-2,6.87,13,13,0,0,1-3.65,3.85A11.89,11.89,0,0,1,51.09,71a15.17,15.17,0,0,1-6.33-.85A12.67,12.67,0,0,1,38,63.8a13,13,0,0,1-1.24-5.41.25.25,0,0,0-.15-.2.36.36,0,0,0-.32,0,.5.5,0,0,0-.13.39,13.81,13.81,0,0,0,1.26,5.47,13.12,13.12,0,0,0,5.33,5.85,12.44,12.44,0,0,0,5.59,1.66,1.71,1.71,0,0,1,1.74,1.85q0,4.09,0,8.19A1.85,1.85,0,0,1,49.61,83a1.8,1.8,0,0,1-1.33.49c-2.2,0-4.4,0-6.59,0h-.88c-.13,0-.17,0-.25.16s-.09.14,0,.33Z" fill="#2c3439"/><path d="M40.41,85.42a2.41,2.41,0,0,1-1-.81,1.6,1.6,0,0,1,0-1.72,1.58,1.58,0,0,1,1.45-.84h7.47c.34,0,.43-.07.43-.42,0-2.74,0-5.47,0-8.21,0-.33-.08-.44-.42-.46a13.57,13.57,0,0,1-6.22-1.85,14.4,14.4,0,0,1-5.89-6.46,15.34,15.34,0,0,1-1.38-6A1.69,1.69,0,0,1,37,56.87a1.6,1.6,0,0,1,1.12,1.48,11.55,11.55,0,0,0,1.11,4.84,11.28,11.28,0,0,0,6,5.7,13.83,13.83,0,0,0,5.77.74,10.52,10.52,0,0,0,5.74-1.87,11.79,11.79,0,0,0,3.26-3.45,12.13,12.13,0,0,0,1.79-6.17,1.69,1.69,0,0,1,1.7-1.65A1.73,1.73,0,0,1,65.2,58.2a14.78,14.78,0,0,1-.44,3.5,15.16,15.16,0,0,1-3.17,6.19A14.5,14.5,0,0,1,56,72a11.47,11.47,0,0,1-3.45.89c-.38,0-.46.16-.46.52q0,4.11,0,8.21c0,.38.11.44.45.44H60a1.61,1.61,0,0,1,1.46.83,1.64,1.64,0,0,1,0,1.79,2.25,2.25,0,0,1-1,.76Z" fill="#ef8c23"/><path d="M60.55,86.11H40.23l-.3-.16a2.72,2.72,0,0,1-1.15-1,2.3,2.3,0,0,1,0-2.41,2.26,2.26,0,0,1,2.05-1.19H48c0-2.61,0-5.17,0-7.72a14.35,14.35,0,0,1-6.3-1.93A15,15,0,0,1,35.56,65a15.69,15.69,0,0,1-1.45-6.28,2.5,2.5,0,0,1,.94-2.12,2.41,2.41,0,0,1,2.2-.34,2.32,2.32,0,0,1,1.61,2.12,10.89,10.89,0,0,0,1,4.56,10.52,10.52,0,0,0,5.66,5.36,13.27,13.27,0,0,0,5.49.69,9.72,9.72,0,0,0,5.35-1.75A10.94,10.94,0,0,0,59.46,64a11.29,11.29,0,0,0,1.68-5.83,2.39,2.39,0,0,1,2.42-2.32,2.42,2.42,0,0,1,2.34,2.4,16,16,0,0,1-3.78,10.14,15.31,15.31,0,0,1-5.87,4.29,12.2,12.2,0,0,1-3.49.92c0,2.65,0,5.23,0,7.81H60A2.38,2.38,0,0,1,62,85a2.5,2.5,0,0,1-1.13.93Zm-20-1.39H60.2a1.49,1.49,0,0,0,.59-.41,1,1,0,0,0,0-1.08.94.94,0,0,0-.87-.49H57.58c-1.69,0-3.37,0-5,0a1.27,1.27,0,0,1-.87-.3,1.14,1.14,0,0,1-.29-.84c0-2.73,0-5.47,0-8.2a1.09,1.09,0,0,1,1.09-1.22,11.2,11.2,0,0,0,3.25-.83,14,14,0,0,0,5.35-3.92,14.52,14.52,0,0,0,3-5.9,14.83,14.83,0,0,0,.42-3.34,1,1,0,0,0-1.66-.75,1,1,0,0,0-.32.71,12.6,12.6,0,0,1-1.9,6.52,12.42,12.42,0,0,1-3.45,3.65,11.17,11.17,0,0,1-6.11,2,14.57,14.57,0,0,1-6-.79,12.08,12.08,0,0,1-6.38-6,12.45,12.45,0,0,1-1.17-5.13.92.92,0,0,0-.63-.84,1,1,0,0,0-1,.13,1.12,1.12,0,0,0-.4,1,14.56,14.56,0,0,0,1.32,5.74,13.82,13.82,0,0,0,5.61,6.16,13,13,0,0,0,5.9,1.75,1,1,0,0,1,1.08,1.15c0,2.74,0,5.47,0,8.21a1.09,1.09,0,0,1-.28.83,1.16,1.16,0,0,1-.84.29q-3.3,0-6.59,0h-.88a.88.88,0,0,0-.85.5.92.92,0,0,0,0,1A1.44,1.44,0,0,0,40.58,84.72Z" fill="#2c3439"/><rect x="41.85" y="31.54" width="16.79" height="31.3" rx="8.4" fill="#ef8c23"/><path d="M50.24,64.11a9.67,9.67,0,0,1-9.66-9.66V39.94a9.67,9.67,0,0,1,19.33,0V54.45A9.68,9.68,0,0,1,50.24,64.11Zm0-31.3a7.13,7.13,0,0,0-7.12,7.13V54.45a7.13,7.13,0,1,0,14.25,0V39.94A7.14,7.14,0,0,0,50.24,32.81Z" fill="#2c3439"/><path d="M85,12a1.88,1.88,0,0,0-3.26,0l-4.6,8-4.59,8a1.88,1.88,0,0,0,1.63,2.82H92.52a1.88,1.88,0,0,0,1.63-2.82l-4.6-8Z" fill="#ef8c23"/><path d="M71.59,30.31a2.92,2.92,0,0,1,0-2.94l9.19-15.92A2.92,2.92,0,0,1,83.33,10h0a2.92,2.92,0,0,1,2.55,1.47l9.19,15.92a2.94,2.94,0,0,1-2.55,4.41H74.14A2.91,2.91,0,0,1,71.59,30.31Zm11-17.8L73.43,28.43a.82.82,0,0,0,0,.82.81.81,0,0,0,.71.41H92.52a.81.81,0,0,0,.71-.41.82.82,0,0,0,0-.82L84,12.51a.82.82,0,0,0-1.42,0Z" fill="#2c3439"/><path d="M82.22,26.13A1.11,1.11,0,0,1,83.34,25a1.17,1.17,0,0,1,0,2.33A1.11,1.11,0,0,1,82.22,26.13Zm.51-2.68-.16-9,1.8,0-.37,9Z" fill="#2c3439"/></svg>