<svg id="beab077a-6e36-48a4-9480-05392a3faa69" data-name="Layer 1" xmlns="http://www.w3.org/2000/svg" width="100" height="100" viewBox="0 0 100 100"><title>icons</title><path d="M62.91,65.86l-8.69-8.7a.88.88,0,0,1,0-1.46L62.94,47a2.68,2.68,0,0,0,0-3.92L51.58,31.68a2.67,2.67,0,0,0-.36-.31,2.61,2.61,0,0,0-2.78-.16A2.52,2.52,0,0,0,47,33.58c0,2.33,0,4.67,0,7s0,4.79,0,7.19a.86.86,0,0,1-.67.93.89.89,0,0,1-.88-.33q-2.31-2.33-4.64-4.64A2.69,2.69,0,1,0,37,47.56l2,2,6.14,6.13a.92.92,0,0,1,.28,1.05,1.54,1.54,0,0,1-.43.52l-8,8a2.69,2.69,0,1,0,3.79,3.82l.7-.69,4-4a.84.84,0,0,1,1.31,0,1,1,0,0,1,.2.7c0,4.67,0,9.33,0,14a2.8,2.8,0,0,0,.25,1.25,2.69,2.69,0,0,0,4.39.73L62.94,69.83A2.68,2.68,0,0,0,62.91,65.86ZM52.18,40.48l.08-.07c.3.33.6.66.91,1l3.44,3.43c.14.14.18.21,0,.37l-4.31,4.3-.14.11ZM56.65,68l-4.36,4.35-.11.07V63.31c.14,0,.18.11.25.18l4.16,4.16C56.69,67.75,56.85,67.82,56.65,68Z" fill="#ef8c23"/><path d="M49.67,83.27a4,4,0,0,1-.69-.06A3.93,3.93,0,0,1,46.07,81a4.21,4.21,0,0,1-.37-1.81V66.06L42.27,69.5l-.57.56a4,4,0,1,1-5.61-5.67l5.13-5.13L44,56.43l-4.61-4.61-1.88-1.88c-.49-.49-1-1-1.46-1.47a4,4,0,0,1,2.76-6.83h0a4,4,0,0,1,2.82,1.18q1.9,1.88,3.78,3.77l.22.22V33.57a3.82,3.82,0,0,1,2.15-3.51,3.88,3.88,0,0,1,4.08.23,3.64,3.64,0,0,1,.56.48q5.7,5.69,11.39,11.38a4,4,0,0,1,0,5.75l-8.52,8.53,8.5,8.51a4,4,0,0,1,0,5.8Q58.21,76.4,52.54,82.06A4,4,0,0,1,49.67,83.27ZM46.16,62.84h.11a2.17,2.17,0,0,1,1.54.8,2.34,2.34,0,0,1,.48,1.52v14a1.78,1.78,0,0,0,.12.71,1.38,1.38,0,0,0,1,.79,1.45,1.45,0,0,0,1.29-.44L62,68.91a1.4,1.4,0,0,0,0-2.14l-8.69-8.69a2.14,2.14,0,0,1,0-3.29L62,46.07a1.4,1.4,0,0,0,0-2.09L50.66,32.6a1.14,1.14,0,0,0-.16-.15,1.32,1.32,0,0,0-1.46-.1,1.29,1.29,0,0,0-.75,1.23v14.2a2.16,2.16,0,0,1-3.77,1.52l-.87-.88c-1.25-1.26-2.5-2.52-3.77-3.76a1.43,1.43,0,0,0-1-.43h0a1.37,1.37,0,0,0-1,.42,1.38,1.38,0,0,0,0,2l1.45,1.46L41.26,50l4.82,4.82a2.17,2.17,0,0,1,.58,2.42,2.42,2.42,0,0,1-.65.91l-3,3-5.12,5.13a1.38,1.38,0,0,0,0,2,1.39,1.39,0,0,0,2,0l.53-.53,4.15-4.15A2.23,2.23,0,0,1,46.16,62.84Zm4.78,11.77,0-2.18V61.94l1.37.08a1.53,1.53,0,0,1,1.13.6l4.11,4.11A1.47,1.47,0,0,1,58,67.81a1.5,1.5,0,0,1-.48,1.13l-3.15,3.13L53.08,73.4Zm.46-3.19,0,0Zm2.08-5v3L55,67.86Zm-2.11-2.12h0Zm-.42-12-.06-2.63V39.89l1.46-1.27,1.14,1.22c.2.21.4.43.6.63,1.14,1.15,2.29,2.29,3.43,3.43A1.57,1.57,0,0,1,58,45a1.53,1.53,0,0,1-.49,1.09l-3.27,3.26-1.22,1.2Zm2.53-8.7v3L55,45Z" fill="#2c3439"/><path d="M82.32,8.1a1.88,1.88,0,0,0-3.26,0l-4.59,8-4.6,8a1.88,1.88,0,0,0,1.63,2.82H89.88A1.88,1.88,0,0,0,91.51,24l-4.59-8Z" fill="#ef8c23"/><path d="M69,26.43a2.92,2.92,0,0,1,0-2.94L78.14,7.57a2.91,2.91,0,0,1,2.55-1.48h0a2.9,2.9,0,0,1,2.55,1.48l9.19,15.92a2.94,2.94,0,0,1-2.55,4.41H71.5A2.92,2.92,0,0,1,69,26.43ZM80,8.63,70.79,24.55a.82.82,0,0,0,0,.82.81.81,0,0,0,.71.41H89.88a.81.81,0,0,0,.71-.41.8.8,0,0,0,0-.82L81.4,8.63a.8.8,0,0,0-.71-.41A.81.81,0,0,0,80,8.63Z" fill="#2c3439"/><path d="M79.59,22.25a1.11,1.11,0,1,1,1.09,1.17A1.09,1.09,0,0,1,79.59,22.25Zm.5-2.68-.15-9,1.8,0-.38,9Z" fill="#2c3439"/></svg>