<svg id="bfb218f5-de91-44af-8477-57ae4f20cfc1" data-name="Layer 1" xmlns="http://www.w3.org/2000/svg" width="100" height="100" viewBox="0 0 100 100"><title>icons</title><path d="M53.18,99.18H46.82a4.27,4.27,0,0,1-4.26-4.27V5.09A4.27,4.27,0,0,1,46.82.82h6.36a4.27,4.27,0,0,1,4.26,4.27V94.91A4.27,4.27,0,0,1,53.18,99.18ZM46.82,2.82a2.27,2.27,0,0,0-2.26,2.27V94.91a2.27,2.27,0,0,0,2.26,2.27h6.36a2.27,2.27,0,0,0,2.26-2.27V5.09a2.27,2.27,0,0,0-2.26-2.27Z" fill="#2c3439"/><rect x="47.88" y="8.71" width="4.24" height="27.88" rx="2.12" fill="#ef8c23"/><path d="M50,37.59a3.12,3.12,0,0,1-3.12-3.12V10.82a3.12,3.12,0,0,1,6.24,0V34.47A3.12,3.12,0,0,1,50,37.59ZM50,9.71a1.12,1.12,0,0,0-1.12,1.11V34.47a1.12,1.12,0,0,0,2.24,0V10.82A1.12,1.12,0,0,0,50,9.71Z" fill="#2c3439"/><circle cx="50" cy="44.06" r="2.44" fill="#ef8c23"/><path d="M50,47.5a3.44,3.44,0,1,1,3.44-3.44A3.44,3.44,0,0,1,50,47.5Zm0-4.88a1.44,1.44,0,1,0,1.44,1.44A1.44,1.44,0,0,0,50,42.62Z" fill="#2c3439"/><circle cx="50" cy="52.97" r="2.44" fill="#ef8c23"/><path d="M50,56.41A3.44,3.44,0,1,1,53.44,53,3.44,3.44,0,0,1,50,56.41Zm0-4.88A1.44,1.44,0,1,0,51.44,53,1.45,1.45,0,0,0,50,51.53Z" fill="#2c3439"/><line x1="56.74" y1="63.59" x2="76.88" y2="88.53" fill="none" stroke="#ef8c23" stroke-miterlimit="10" stroke-width="2"/><path d="M81.5,74.92a1.89,1.89,0,0,0-3.26,0l-4.59,8-4.6,8a1.89,1.89,0,0,0,1.63,2.83H89.06a1.88,1.88,0,0,0,1.63-2.83l-4.59-8Z" fill="#ef8c23"/><path d="M68.13,93.25a2.92,2.92,0,0,1,0-2.94l9.19-15.92a2.92,2.92,0,0,1,2.55-1.47h0a2.91,2.91,0,0,1,2.55,1.47l9.19,15.92a3,3,0,0,1-2.55,4.42H70.68A2.91,2.91,0,0,1,68.13,93.25Zm11-17.79L70,91.37a.82.82,0,0,0,0,.82.79.79,0,0,0,.71.41H89.06a.79.79,0,0,0,.71-.41.82.82,0,0,0,0-.82L80.58,75.46a.82.82,0,0,0-.71-.42A.8.8,0,0,0,79.16,75.46Z" fill="#2c3439"/><path d="M78.76,89.08a1.1,1.1,0,0,1,1.13-1.15A1.07,1.07,0,0,1,81,89.1a1.09,1.09,0,0,1-1.12,1.15A1.11,1.11,0,0,1,78.76,89.08Zm.51-2.68-.16-9,1.8,0-.37,9Z" fill="#2c3439"/><path d="M49.29,66.94A12.53,12.53,0,1,1,61.82,54.41,12.54,12.54,0,0,1,49.29,66.94Zm0-22.08a9.55,9.55,0,1,0,9.55,9.55A9.56,9.56,0,0,0,49.29,44.86Z" fill="#ef8c23"/></svg>