<svg id="aedc6e8a-6191-4189-905f-72503440cc27" data-name="Layer 1" xmlns="http://www.w3.org/2000/svg" xmlns:xlink="http://www.w3.org/1999/xlink" width="100" height="100" viewBox="0 0 100 100"><defs><clipPath id="f6d7f130-34fd-446f-98a4-dbe5512aeb02"><circle cx="57.27" cy="18.34" r="2.13" fill="none"/></clipPath><clipPath id="bf08901f-98d2-4307-9b1c-12f58cd656d6"><circle cx="57.27" cy="18.34" r="1.79" fill="none"/></clipPath><clipPath id="bb3efbec-687f-4e47-ae42-0de7cff1ebf7"><circle cx="57.27" cy="18.34" r="1.48" fill="none"/></clipPath><clipPath id="abb71f2c-f82c-49b7-9421-d9d7c67047bd"><path d="M57.27,20.32a2,2,0,1,1,2-2A2,2,0,0,1,57.27,20.32Zm0-3a1,1,0,1,0,1,1A1,1,0,0,0,57.27,17.35Z" fill="none"/></clipPath><clipPath id="abbb0ecb-28a4-4e6e-accc-f2c2f1a5f073"><circle cx="57.27" cy="18.34" r="0.99" fill="none"/></clipPath><clipPath id="b2fce5e7-735c-4998-b60c-bb5826f8980f"><path d="M57.27,19.83a1.5,1.5,0,0,1-1.05-2.55,1.54,1.54,0,0,1,2.11,0,1.5,1.5,0,0,1-1.06,2.55Zm0-2a.45.45,0,0,0-.34.14.5.5,0,0,0-.14.35.48.48,0,0,0,.14.34.49.49,0,0,0,.69,0,.48.48,0,0,0,.14-.34.5.5,0,0,0-.14-.35A.47.47,0,0,0,57.27,17.85Z" fill="none"/></clipPath></defs><title>icons</title><path d="M29.91,14.35H70.09a0,0,0,0,1,0,0v2.28a6.15,6.15,0,0,1-6.15,6.15H36.06a6.15,6.15,0,0,1-6.15-6.15V14.35A0,0,0,0,1,29.91,14.35Z" fill="#2c3439"/><path d="M90.76,91.91H9.24V22.79a8.64,8.64,0,0,1,8.64-8.64H82.12a8.64,8.64,0,0,1,8.64,8.64Zm-79.52-2H88.76V22.79a6.65,6.65,0,0,0-6.64-6.64H17.88a6.65,6.65,0,0,0-6.64,6.64Z" fill="#2c3439"/><path d="M97.76,92.24H2.24a1,1,0,1,1,0-2H97.76a1,1,0,0,1,0,2Z" fill="#2c3439"/><g clip-path="url(#f6d7f130-34fd-446f-98a4-dbe5512aeb02)"><rect x="55.14" y="16.21" width="4.26" height="0.03" fill="#f69453"/><rect x="55.14" y="16.24" width="4.26" height="0.03" fill="#f69352"/><rect x="55.14" y="16.27" width="4.26" height="0.03" fill="#f69351"/><rect x="55.14" y="16.3" width="4.26" height="0.03" fill="#f69251"/><rect x="55.14" y="16.33" width="4.26" height="0.03" fill="#f69250"/><rect x="55.14" y="16.37" width="4.26" height="0.03" fill="#f6914f"/><rect x="55.14" y="16.4" width="4.26" height="0.03" fill="#f6914e"/><rect x="55.14" y="16.43" width="4.26" height="0.03" fill="#f6904d"/><rect x="55.14" y="16.46" width="4.26" height="0.03" fill="#f6904c"/><rect x="55.14" y="16.5" width="4.26" height="0.03" fill="#f68f4c"/><rect x="55.14" y="16.53" width="4.26" height="0.03" fill="#f68f4b"/><rect x="55.14" y="16.56" width="4.26" height="0.03" fill="#f68e4a"/><rect x="55.14" y="16.59" width="4.26" height="0.03" fill="#f68e49"/><rect x="55.14" y="16.63" width="4.26" height="0.03" fill="#f68d48"/><rect x="55.14" y="16.66" width="4.26" height="0.03" fill="#f68d47"/><rect x="55.14" y="16.69" width="4.26" height="0.03" fill="#f68d47"/><rect x="55.14" y="16.72" width="4.26" height="0.03" fill="#f68c46"/><rect x="55.14" y="16.75" width="4.26" height="0.03" fill="#f68c45"/><rect x="55.14" y="16.79" width="4.26" height="0.03" fill="#f68b44"/><rect x="55.14" y="16.82" width="4.26" height="0.03" fill="#f58b43"/><rect x="55.14" y="16.85" width="4.26" height="0.03" fill="#f58a42"/><rect x="55.14" y="16.88" width="4.26" height="0.03" fill="#f58a42"/><rect x="55.14" y="16.92" width="4.26" height="0.03" fill="#f58941"/><rect x="55.14" y="16.95" width="4.26" height="0.03" fill="#f58940"/><rect x="55.14" y="16.98" width="4.26" height="0.03" fill="#f5883f"/><rect x="55.14" y="17.01" width="4.26" height="0.03" fill="#f5883e"/><rect x="55.14" y="17.05" width="4.26" height="0.03" fill="#f5873d"/><rect x="55.14" y="17.08" width="4.26" height="0.03" fill="#f5873d"/><rect x="55.14" y="17.11" width="4.26" height="0.03" fill="#f5863c"/><rect x="55.14" y="17.14" width="4.26" height="0.03" fill="#f5863b"/><rect x="55.14" y="17.17" width="4.26" height="0.03" fill="#f5853a"/><rect x="55.14" y="17.21" width="4.26" height="0.03" fill="#f58539"/><rect x="55.14" y="17.24" width="4.26" height="0.03" fill="#f58539"/><rect x="55.14" y="17.27" width="4.26" height="0.03" fill="#f58438"/><rect x="55.14" y="17.3" width="4.26" height="0.03" fill="#f58437"/><rect x="55.14" y="17.34" width="4.26" height="0.03" fill="#f58336"/><rect x="55.14" y="17.37" width="4.26" height="0.03" fill="#f58335"/><rect x="55.14" y="17.4" width="4.26" height="0.03" fill="#f48235"/><rect x="55.14" y="17.43" width="4.26" height="0.03" fill="#f48234"/><rect x="55.14" y="17.46" width="4.26" height="0.03" fill="#f48133"/><rect x="55.14" y="17.5" width="4.26" height="0.03" fill="#f48132"/><rect x="55.14" y="17.53" width="4.26" height="0.03" fill="#f48032"/><rect x="55.14" y="17.56" width="4.26" height="0.03" fill="#f48031"/><rect x="55.14" y="17.59" width="4.26" height="0.03" fill="#f47f30"/><rect x="55.14" y="17.63" width="4.26" height="0.03" fill="#f47f2f"/><rect x="55.14" y="17.66" width="4.26" height="0.03" fill="#f47e2e"/><rect x="55.14" y="17.69" width="4.26" height="0.03" fill="#f47e2e"/><rect x="55.14" y="17.72" width="4.26" height="0.03" fill="#f47d2d"/><rect x="55.14" y="17.76" width="4.26" height="0.03" fill="#f47d2c"/><rect x="55.14" y="17.79" width="4.26" height="0.03" fill="#f47c2b"/><rect x="55.14" y="17.82" width="4.26" height="0.03" fill="#f47c2a"/><rect x="55.14" y="17.85" width="4.26" height="0.03" fill="#f47c2a"/><rect x="55.14" y="17.88" width="4.26" height="0.03" fill="#f47b29"/><rect x="55.14" y="17.92" width="4.26" height="0.03" fill="#f47b28"/><rect x="55.14" y="17.95" width="4.26" height="0.03" fill="#f37a27"/><rect x="55.14" y="17.98" width="4.26" height="0.03" fill="#f37a27"/><rect x="55.14" y="18.01" width="4.26" height="0.03" fill="#f37926"/><rect x="55.14" y="18.05" width="4.26" height="0.03" fill="#f37925"/><rect x="55.14" y="18.08" width="4.26" height="0.03" fill="#f37825"/><rect x="55.14" y="18.11" width="4.26" height="0.03" fill="#f37824"/><rect x="55.14" y="18.14" width="4.26" height="0.03" fill="#f37723"/><rect x="55.14" y="18.17" width="4.26" height="0.03" fill="#f37723"/><rect x="55.14" y="18.21" width="4.26" height="0.03" fill="#f37622"/><rect x="55.14" y="18.24" width="4.26" height="0.03" fill="#f37622"/><rect x="55.14" y="18.27" width="4.26" height="0.03" fill="#f37521"/><rect x="55.14" y="18.3" width="4.26" height="0.03" fill="#f37521"/><rect x="55.14" y="18.34" width="4.26" height="0.06" fill="#f37521"/><rect x="55.14" y="18.39" width="4.26" height="0.06" fill="#f17421"/><rect x="55.14" y="18.45" width="4.26" height="0.06" fill="#f07422"/><rect x="55.14" y="18.5" width="4.26" height="0.06" fill="#ef7322"/><rect x="55.14" y="18.56" width="4.26" height="0.06" fill="#ee7322"/><rect x="55.14" y="18.62" width="4.26" height="0.06" fill="#ed7223"/><rect x="55.14" y="18.67" width="4.26" height="0.06" fill="#ec7223"/><rect x="55.14" y="18.73" width="4.26" height="0.06" fill="#eb7123"/><rect x="55.14" y="18.78" width="4.26" height="0.06" fill="#ea7124"/><rect x="55.14" y="18.84" width="4.26" height="0.06" fill="#ea7024"/><rect x="55.14" y="18.9" width="4.26" height="0.06" fill="#e97024"/><rect x="55.14" y="18.95" width="4.26" height="0.06" fill="#e86f24"/><rect x="55.14" y="19.01" width="4.26" height="0.06" fill="#e76e25"/><rect x="55.14" y="19.06" width="4.26" height="0.06" fill="#e76e25"/><rect x="55.14" y="19.12" width="4.26" height="0.06" fill="#e66d25"/><rect x="55.14" y="19.18" width="4.26" height="0.06" fill="#e56d25"/><rect x="55.14" y="19.23" width="4.26" height="0.06" fill="#e46c25"/><rect x="55.14" y="19.29" width="4.26" height="0.06" fill="#e36c26"/><rect x="55.14" y="19.35" width="4.26" height="0.06" fill="#e36b26"/><rect x="55.14" y="19.4" width="4.26" height="0.06" fill="#e26b26"/><rect x="55.14" y="19.46" width="4.26" height="0.06" fill="#e16a26"/><rect x="55.14" y="19.51" width="4.26" height="0.06" fill="#e06a27"/><rect x="55.14" y="19.57" width="4.26" height="0.06" fill="#e06927"/><rect x="55.14" y="19.63" width="4.26" height="0.06" fill="#df6927"/><rect x="55.14" y="19.68" width="4.26" height="0.06" fill="#de6827"/><rect x="55.14" y="19.74" width="4.26" height="0.06" fill="#dd6827"/><rect x="55.14" y="19.79" width="4.26" height="0.06" fill="#dd6728"/><rect x="55.14" y="19.85" width="4.26" height="0.06" fill="#dc6728"/><rect x="55.14" y="19.91" width="4.26" height="0.06" fill="#db6628"/><rect x="55.14" y="19.96" width="4.26" height="0.06" fill="#da6628"/><rect x="55.14" y="20.02" width="4.26" height="0.06" fill="#d96529"/><rect x="55.14" y="20.07" width="4.26" height="0.06" fill="#d96529"/><rect x="55.14" y="20.13" width="4.26" height="0.06" fill="#d86429"/><rect x="55.14" y="20.19" width="4.26" height="0.06" fill="#d76429"/><rect x="55.14" y="20.24" width="4.26" height="0.06" fill="#d66329"/><rect x="55.14" y="20.3" width="4.26" height="0.06" fill="#d6632a"/><rect x="55.14" y="20.35" width="4.26" height="0.06" fill="#d5622a"/><rect x="55.14" y="20.41" width="4.26" height="0.06" fill="#d4622a"/></g><g clip-path="url(#bf08901f-98d2-4307-9b1c-12f58cd656d6)"><rect x="55.31" y="16.37" width="3.92" height="3.92" fill="#657076"/><circle cx="57.27" cy="18.34" r="1.79" fill="#657076"/><circle cx="57.27" cy="18.34" r="1.77" fill="#667077"/><circle cx="57.27" cy="18.34" r="1.76" fill="#677178"/><circle cx="57.27" cy="18.34" r="1.74" fill="#687278"/><circle cx="57.27" cy="18.34" r="1.72" fill="#697379"/><circle cx="57.27" cy="18.34" r="1.71" fill="#69747a"/><circle cx="57.27" cy="18.34" r="1.69" fill="#6a747b"/><circle cx="57.27" cy="18.34" r="1.67" fill="#6b757c"/><circle cx="57.27" cy="18.34" r="1.66" fill="#6c767c"/><circle cx="57.27" cy="18.34" r="1.64" fill="#6d777d"/><circle cx="57.27" cy="18.34" r="1.63" fill="#6d787e"/><circle cx="57.27" cy="18.34" r="1.61" fill="#6e787f"/><circle cx="57.27" cy="18.34" r="1.59" fill="#6f7980"/><circle cx="57.27" cy="18.34" r="1.58" fill="#707a80"/><circle cx="57.27" cy="18.34" r="1.56" fill="#717b81"/><circle cx="57.27" cy="18.34" r="1.55" fill="#727c82"/><circle cx="57.27" cy="18.34" r="1.53" fill="#727c83"/><circle cx="57.27" cy="18.34" r="1.51" fill="#737d84"/><circle cx="57.27" cy="18.34" r="1.5" fill="#747e84"/><circle cx="57.27" cy="18.34" r="1.48" fill="#757f85"/><circle cx="57.27" cy="18.34" r="1.46" fill="#768086"/><circle cx="57.27" cy="18.34" r="1.45" fill="#778087"/><circle cx="57.27" cy="18.34" r="1.43" fill="#778188"/><circle cx="57.27" cy="18.34" r="1.42" fill="#788288"/><circle cx="57.27" cy="18.34" r="1.4" fill="#798389"/><circle cx="57.27" cy="18.34" r="1.38" fill="#7a848a"/><circle cx="57.27" cy="18.34" r="1.37" fill="#7b858b"/><circle cx="57.27" cy="18.34" r="1.35" fill="#7c858c"/><circle cx="57.27" cy="18.34" r="1.33" fill="#7d868c"/><circle cx="57.27" cy="18.34" r="1.32" fill="#7e878d"/><circle cx="57.27" cy="18.34" r="1.3" fill="#7e888e"/><circle cx="57.27" cy="18.34" r="1.29" fill="#7f898f"/><circle cx="57.27" cy="18.34" r="1.27" fill="#808a90"/><circle cx="57.27" cy="18.34" r="1.25" fill="#818a90"/><circle cx="57.27" cy="18.34" r="1.24" fill="#828b91"/><circle cx="57.27" cy="18.34" r="1.22" fill="#838c92"/><circle cx="57.27" cy="18.34" r="1.21" fill="#838c92"/><circle cx="57.27" cy="18.34" r="1.19" fill="#848d93"/><circle cx="57.27" cy="18.34" r="1.17" fill="#868e94"/><circle cx="57.27" cy="18.34" r="1.15" fill="#878f95"/><circle cx="57.27" cy="18.34" r="1.13" fill="#889095"/><circle cx="57.27" cy="18.34" r="1.11" fill="#8a9196"/><circle cx="57.27" cy="18.34" r="1.09" fill="#8b9297"/><circle cx="57.27" cy="18.34" r="1.08" fill="#8d9498"/><circle cx="57.27" cy="18.34" r="1.06" fill="#8e9598"/><circle cx="57.27" cy="18.34" r="1.04" fill="#909699"/><circle cx="57.27" cy="18.34" r="1.02" fill="#91979a"/><circle cx="57.27" cy="18.34" r="1" fill="#92989b"/><circle cx="57.27" cy="18.34" r="0.98" fill="#94999b"/><circle cx="57.27" cy="18.34" r="0.97" fill="#959a9c"/><circle cx="57.27" cy="18.34" r="0.95" fill="#969b9d"/><circle cx="57.27" cy="18.34" r="0.93" fill="#989c9e"/><circle cx="57.27" cy="18.34" r="0.91" fill="#999d9e"/><circle cx="57.27" cy="18.34" r="0.89" fill="#9a9e9f"/><circle cx="57.27" cy="18.34" r="0.87" fill="#9c9fa0"/><circle cx="57.27" cy="18.34" r="0.85" fill="#9da0a0"/><circle cx="57.27" cy="18.34" r="0.84" fill="#9ea1a1"/><circle cx="57.27" cy="18.34" r="0.82" fill="#a0a2a2"/><circle cx="57.27" cy="18.34" r="0.8" fill="#a1a3a2"/><circle cx="57.27" cy="18.34" r="0.78" fill="#a2a4a3"/><circle cx="57.27" cy="18.34" r="0.76" fill="#a3a4a3"/><circle cx="57.27" cy="18.34" r="0.74" fill="#a4a5a4"/><circle cx="57.27" cy="18.34" r="0.73" fill="#a5a6a5"/><circle cx="57.27" cy="18.34" r="0.71" fill="#a6a7a5"/><circle cx="57.27" cy="18.34" r="0.69" fill="#a7a8a6"/><circle cx="57.27" cy="18.34" r="0.67" fill="#a8a8a6"/><circle cx="57.27" cy="18.34" r="0.65" fill="#a9a9a6"/><circle cx="57.27" cy="18.34" r="0.63" fill="#a9a9a6"/><circle cx="57.27" cy="18.34" r="0.6" fill="#a9a9a7"/><circle cx="57.27" cy="18.34" r="0.57" fill="#aaaaa8"/><circle cx="57.27" cy="18.34" r="0.54" fill="#aaaaa9"/><circle cx="57.27" cy="18.34" r="0.51" fill="#aaabab"/><circle cx="57.27" cy="18.34" r="0.48" fill="#ababac"/><circle cx="57.27" cy="18.34" r="0.45" fill="#abacad"/><circle cx="57.27" cy="18.34" r="0.41" fill="#abacad"/><circle cx="57.27" cy="18.34" r="0.38" fill="#acacae"/><circle cx="57.27" cy="18.34" r="0.35" fill="#acadaf"/><circle cx="57.27" cy="18.34" r="0.32" fill="#acadb0"/><circle cx="57.27" cy="18.34" r="0.29" fill="#acaeb1"/><circle cx="57.27" cy="18.34" r="0.26" fill="#adaeb2"/><circle cx="57.27" cy="18.34" r="0.23" fill="#adaeb3"/><circle cx="57.27" cy="18.34" r="0.2" fill="#adafb4"/><circle cx="57.27" cy="18.34" r="0.17" fill="#adafb5"/><circle cx="57.27" cy="18.34" r="0.13" fill="#adafb5"/><circle cx="57.27" cy="18.34" r="0.1" fill="#adb0b6"/><circle cx="57.27" cy="18.34" r="0.07" fill="#aeb0b7"/><circle cx="57.27" cy="18.34" r="0.04" fill="#aeb0b7"/></g><g clip-path="url(#bb3efbec-687f-4e47-ae42-0de7cff1ebf7)"><rect x="55.79" y="16.85" width="2.97" height="2.97" fill="#f37521"/></g><g clip-path="url(#abb71f2c-f82c-49b7-9421-d9d7c67047bd)"><rect x="56.29" y="17.35" width="0.02" height="1.97" fill="#f58438"/><rect x="56.31" y="17.35" width="0.03" height="1.97" fill="#f58437"/><rect x="56.34" y="17.35" width="0.03" height="1.97" fill="#f58336"/><rect x="56.37" y="17.35" width="0.03" height="1.97" fill="#f58335"/><rect x="56.4" y="17.35" width="0.03" height="1.97" fill="#f48235"/><rect x="56.43" y="17.35" width="0.03" height="1.97" fill="#f48234"/><rect x="56.46" y="17.35" width="0.03" height="1.97" fill="#f48133"/><rect x="56.49" y="17.35" width="0.03" height="1.97" fill="#f48132"/><rect x="56.52" y="17.35" width="0.03" height="1.97" fill="#f48032"/><rect x="56.55" y="17.35" width="0.03" height="1.97" fill="#f48031"/><rect x="56.58" y="17.35" width="0.03" height="1.97" fill="#f47f30"/><rect x="56.61" y="17.35" width="0.03" height="1.97" fill="#f47f2f"/><rect x="56.64" y="17.35" width="0.03" height="1.97" fill="#f47e2e"/><rect x="56.67" y="17.35" width="0.03" height="1.97" fill="#f47e2e"/><rect x="56.7" y="17.35" width="0.03" height="1.97" fill="#f47d2d"/><rect x="56.73" y="17.35" width="0.03" height="1.97" fill="#f47d2c"/><rect x="56.76" y="17.35" width="0.03" height="1.97" fill="#f47c2b"/><rect x="56.79" y="17.35" width="0.03" height="1.97" fill="#f47c2a"/><rect x="56.82" y="17.35" width="0.03" height="1.97" fill="#f47c2a"/><rect x="56.85" y="17.35" width="0.03" height="1.97" fill="#f47b29"/><rect x="56.88" y="17.35" width="0.03" height="1.97" fill="#f47b28"/><rect x="56.91" y="17.35" width="0.03" height="1.97" fill="#f37a27"/><rect x="56.94" y="17.35" width="0.03" height="1.97" fill="#f37a27"/><rect x="56.97" y="17.35" width="0.03" height="1.97" fill="#f37926"/><rect x="57" y="17.35" width="0.03" height="1.97" fill="#f37925"/><rect x="57.03" y="17.35" width="0.03" height="1.97" fill="#f37825"/><rect x="57.06" y="17.35" width="0.03" height="1.97" fill="#f37824"/><rect x="57.09" y="17.35" width="0.03" height="1.97" fill="#f37723"/><rect x="57.12" y="17.35" width="0.03" height="1.97" fill="#f37723"/><rect x="57.15" y="17.35" width="0.03" height="1.97" fill="#f37622"/><rect x="57.18" y="17.35" width="0.03" height="1.97" fill="#f37622"/><rect x="57.21" y="17.35" width="0.03" height="1.97" fill="#f37521"/><rect x="57.24" y="17.35" width="0.03" height="1.97" fill="#f37521"/><rect x="57.27" y="17.35" width="0.05" height="1.97" fill="#f37521"/><rect x="57.33" y="17.35" width="0.05" height="1.97" fill="#f17421"/><rect x="57.38" y="17.35" width="0.05" height="1.97" fill="#f07422"/><rect x="57.43" y="17.35" width="0.05" height="1.97" fill="#ef7322"/><rect x="57.48" y="17.35" width="0.05" height="1.97" fill="#ee7322"/><rect x="57.54" y="17.35" width="0.05" height="1.97" fill="#ed7223"/><rect x="57.59" y="17.35" width="0.05" height="1.97" fill="#ec7223"/><rect x="57.64" y="17.35" width="0.05" height="1.97" fill="#eb7123"/><rect x="57.69" y="17.35" width="0.05" height="1.97" fill="#ea7124"/><rect x="57.74" y="17.35" width="0.05" height="1.97" fill="#ea7024"/><rect x="57.8" y="17.35" width="0.05" height="1.97" fill="#e97024"/><rect x="57.85" y="17.35" width="0.05" height="1.97" fill="#e86f24"/><rect x="57.9" y="17.35" width="0.05" height="1.97" fill="#e76e25"/><rect x="57.95" y="17.35" width="0.05" height="1.97" fill="#e76e25"/><rect x="58.01" y="17.35" width="0.05" height="1.97" fill="#e66d25"/><rect x="58.06" y="17.35" width="0.05" height="1.97" fill="#e56d25"/><rect x="58.11" y="17.35" width="0.05" height="1.97" fill="#e46c25"/><rect x="58.16" y="17.35" width="0.05" height="1.97" fill="#e36c26"/><rect x="58.21" y="17.35" width="0.04" height="1.97" fill="#e36b26"/><rect x="55.29" y="16.35" width="0.03" height="3.97" fill="#f69453"/><rect x="55.32" y="16.35" width="0.03" height="3.97" fill="#f69352"/><rect x="55.35" y="16.35" width="0.03" height="3.97" fill="#f69351"/><rect x="55.38" y="16.35" width="0.03" height="3.97" fill="#f69251"/><rect x="55.41" y="16.35" width="0.03" height="3.97" fill="#f69250"/><rect x="55.44" y="16.35" width="0.03" height="3.97" fill="#f6914f"/><rect x="55.47" y="16.35" width="0.03" height="3.97" fill="#f6914e"/><rect x="55.5" y="16.35" width="0.03" height="3.97" fill="#f6904d"/><rect x="55.53" y="16.35" width="0.03" height="3.97" fill="#f6904c"/><rect x="55.56" y="16.35" width="0.03" height="3.97" fill="#f68f4c"/><rect x="55.59" y="16.35" width="0.03" height="3.97" fill="#f68f4b"/><rect x="55.62" y="16.35" width="0.03" height="3.97" fill="#f68e4a"/><rect x="55.65" y="16.35" width="0.03" height="3.97" fill="#f68e49"/><rect x="55.68" y="16.35" width="0.03" height="3.97" fill="#f68d48"/><rect x="55.71" y="16.35" width="0.03" height="3.97" fill="#f68d47"/><rect x="55.74" y="16.35" width="0.03" height="3.97" fill="#f68d47"/><rect x="55.77" y="16.35" width="0.03" height="3.97" fill="#f68c46"/><rect x="55.8" y="16.35" width="0.03" height="3.97" fill="#f68c45"/><rect x="55.83" y="16.35" width="0.03" height="3.97" fill="#f68b44"/><rect x="55.86" y="16.35" width="0.03" height="3.97" fill="#f58b43"/><rect x="55.89" y="16.35" width="0.03" height="3.97" fill="#f58a42"/><rect x="55.92" y="16.35" width="0.03" height="3.97" fill="#f58a42"/><rect x="55.95" y="16.35" width="0.03" height="3.97" fill="#f58941"/><rect x="55.98" y="16.35" width="0.03" height="3.97" fill="#f58940"/><rect x="56.01" y="16.35" width="0.03" height="3.97" fill="#f5883f"/><rect x="56.04" y="16.35" width="0.03" height="3.97" fill="#f5883e"/><rect x="56.07" y="16.35" width="0.03" height="3.97" fill="#f5873d"/><rect x="56.1" y="16.35" width="0.03" height="3.97" fill="#f5873d"/><rect x="56.13" y="16.35" width="0.03" height="3.97" fill="#f5863c"/><rect x="56.16" y="16.35" width="0.03" height="3.97" fill="#f5863b"/><rect x="56.19" y="16.35" width="0.03" height="3.97" fill="#f5853a"/><rect x="56.22" y="16.35" width="0.03" height="3.97" fill="#f58539"/><rect x="56.25" y="16.35" width="0.03" height="3.97" fill="#f58539"/><rect x="56.28" y="16.35" width="0.03" height="3.97" fill="#f58438"/><rect x="56.31" y="16.35" width="0.03" height="3.97" fill="#f58437"/><rect x="56.34" y="16.35" width="0.03" height="3.97" fill="#f58336"/><rect x="56.37" y="16.35" width="0.03" height="3.97" fill="#f58335"/><rect x="56.4" y="16.35" width="0.03" height="3.97" fill="#f48235"/><rect x="56.43" y="16.35" width="0.03" height="3.97" fill="#f48234"/><rect x="56.46" y="16.35" width="0.03" height="3.97" fill="#f48133"/><rect x="56.49" y="16.35" width="0.03" height="3.97" fill="#f48132"/><rect x="56.52" y="16.35" width="0.03" height="3.97" fill="#f48032"/><rect x="56.55" y="16.35" width="0.03" height="3.97" fill="#f48031"/><rect x="56.58" y="16.35" width="0.03" height="3.97" fill="#f47f30"/><rect x="56.61" y="16.35" width="0.03" height="3.97" fill="#f47f2f"/><rect x="56.64" y="16.35" width="0.03" height="3.97" fill="#f47e2e"/><rect x="56.67" y="16.35" width="0.03" height="3.97" fill="#f47e2e"/><rect x="56.7" y="16.35" width="0.03" height="3.97" fill="#f47d2d"/><rect x="56.73" y="16.35" width="0.03" height="3.97" fill="#f47d2c"/><rect x="56.76" y="16.35" width="0.03" height="3.97" fill="#f47c2b"/><rect x="56.79" y="16.35" width="0.03" height="3.97" fill="#f47c2a"/><rect x="56.82" y="16.35" width="0.03" height="3.97" fill="#f47c2a"/><rect x="56.85" y="16.35" width="0.03" height="3.97" fill="#f47b29"/><rect x="56.88" y="16.35" width="0.03" height="3.97" fill="#f47b28"/><rect x="56.91" y="16.35" width="0.03" height="3.97" fill="#f37a27"/><rect x="56.94" y="16.35" width="0.03" height="3.97" fill="#f37a27"/><rect x="56.97" y="16.35" width="0.03" height="3.97" fill="#f37926"/><rect x="57" y="16.35" width="0.03" height="3.97" fill="#f37925"/><rect x="57.03" y="16.35" width="0.03" height="3.97" fill="#f37825"/><rect x="57.06" y="16.35" width="0.03" height="3.97" fill="#f37824"/><rect x="57.09" y="16.35" width="0.03" height="3.97" fill="#f37723"/><rect x="57.12" y="16.35" width="0.03" height="3.97" fill="#f37723"/><rect x="57.15" y="16.35" width="0.03" height="3.97" fill="#f37622"/><rect x="57.18" y="16.35" width="0.03" height="3.97" fill="#f37622"/><rect x="57.21" y="16.35" width="0.03" height="3.97" fill="#f37521"/><rect x="57.24" y="16.35" width="0.03" height="3.97" fill="#f37521"/><rect x="57.27" y="16.35" width="0.05" height="3.97" fill="#f37521"/><rect x="57.33" y="16.35" width="0.05" height="3.97" fill="#f17421"/><rect x="57.38" y="16.35" width="0.05" height="3.97" fill="#f07422"/><rect x="57.43" y="16.35" width="0.05" height="3.97" fill="#ef7322"/><rect x="57.48" y="16.35" width="0.05" height="3.97" fill="#ee7322"/><rect x="57.54" y="16.35" width="0.05" height="3.97" fill="#ed7223"/><rect x="57.59" y="16.35" width="0.05" height="3.97" fill="#ec7223"/><rect x="57.64" y="16.35" width="0.05" height="3.97" fill="#eb7123"/><rect x="57.69" y="16.35" width="0.05" height="3.97" fill="#ea7124"/><rect x="57.74" y="16.35" width="0.05" height="3.97" fill="#ea7024"/><rect x="57.8" y="16.35" width="0.05" height="3.97" fill="#e97024"/><rect x="57.85" y="16.35" width="0.05" height="3.97" fill="#e86f24"/><rect x="57.9" y="16.35" width="0.05" height="3.97" fill="#e76e25"/><rect x="57.95" y="16.35" width="0.05" height="3.97" fill="#e76e25"/><rect x="58.01" y="16.35" width="0.05" height="3.97" fill="#e66d25"/><rect x="58.06" y="16.35" width="0.05" height="3.97" fill="#e56d25"/><rect x="58.11" y="16.35" width="0.05" height="3.97" fill="#e46c25"/><rect x="58.16" y="16.35" width="0.05" height="3.97" fill="#e36c26"/><rect x="58.21" y="16.35" width="0.05" height="3.97" fill="#e36b26"/><rect x="58.27" y="16.35" width="0.05" height="3.97" fill="#e26b26"/><rect x="58.32" y="16.35" width="0.05" height="3.97" fill="#e16a26"/><rect x="58.37" y="16.35" width="0.05" height="3.97" fill="#e06a27"/><rect x="58.42" y="16.35" width="0.05" height="3.97" fill="#e06927"/><rect x="58.48" y="16.35" width="0.05" height="3.97" fill="#df6927"/><rect x="58.53" y="16.35" width="0.05" height="3.97" fill="#de6827"/><rect x="58.58" y="16.35" width="0.05" height="3.97" fill="#dd6827"/><rect x="58.63" y="16.35" width="0.05" height="3.97" fill="#dd6728"/><rect x="58.68" y="16.35" width="0.05" height="3.97" fill="#dc6728"/><rect x="58.74" y="16.35" width="0.05" height="3.97" fill="#db6628"/><rect x="58.79" y="16.35" width="0.05" height="3.97" fill="#da6628"/><rect x="58.84" y="16.35" width="0.05" height="3.97" fill="#d96529"/><rect x="58.89" y="16.35" width="0.05" height="3.97" fill="#d96529"/><rect x="58.94" y="16.35" width="0.05" height="3.97" fill="#d86429"/><rect x="59" y="16.35" width="0.05" height="3.97" fill="#d76429"/><rect x="59.05" y="16.35" width="0.05" height="3.97" fill="#d66329"/><rect x="59.1" y="16.35" width="0.05" height="3.97" fill="#d6632a"/><rect x="59.15" y="16.35" width="0.05" height="3.97" fill="#d5622a"/><rect x="59.21" y="16.35" width="0.05" height="3.97" fill="#d4622a"/></g><g clip-path="url(#abbb0ecb-28a4-4e6e-accc-f2c2f1a5f073)"><polygon points="57.59 19.42 58.36 18.65 58.36 19.42 57.59 19.42" fill="#f69453"/><polygon points="57.42 19.42 58.36 18.48 58.36 18.65 57.59 19.42 57.42 19.42" fill="#f69453"/><polygon points="57.25 19.42 58.36 18.31 58.36 18.48 57.42 19.42 57.25 19.42" fill="#f69352"/><polygon points="57.08 19.42 58.36 18.14 58.36 18.31 57.25 19.42 57.08 19.42" fill="#f69351"/><polygon points="56.91 19.42 58.36 17.98 58.36 18.14 57.08 19.42 56.91 19.42" fill="#f69251"/><polygon points="56.75 19.42 58.36 17.81 58.36 17.98 56.91 19.42 56.75 19.42" fill="#f69250"/><polygon points="56.58 19.42 58.36 17.64 58.36 17.81 56.75 19.42 56.58 19.42" fill="#f6914f"/><polygon points="56.41 19.42 58.36 17.47 58.36 17.64 56.58 19.42 56.41 19.42" fill="#f6914e"/><polygon points="56.24 19.42 58.36 17.3 58.36 17.47 56.41 19.42 56.24 19.42" fill="#f6904d"/><polygon points="56.19 19.31 58.24 17.25 58.36 17.25 58.36 17.3 56.24 19.42 56.19 19.42 56.19 19.31" fill="#f6904c"/><polygon points="56.19 19.14 58.08 17.25 58.24 17.25 56.19 19.31 56.19 19.14" fill="#f68f4c"/><polygon points="56.19 18.97 57.91 17.25 58.08 17.25 56.19 19.14 56.19 18.97" fill="#f68f4b"/><polygon points="56.19 18.8 57.74 17.25 57.91 17.25 56.19 18.97 56.19 18.8" fill="#f68e4a"/><polygon points="56.19 18.63 57.57 17.25 57.74 17.25 56.19 18.8 56.19 18.63" fill="#f68e49"/><polygon points="56.19 18.46 57.4 17.25 57.57 17.25 56.19 18.63 56.19 18.46" fill="#f68d48"/><polygon points="56.19 18.3 57.23 17.25 57.4 17.25 56.19 18.46 56.19 18.3" fill="#f68d47"/><polygon points="56.19 18.13 57.07 17.25 57.23 17.25 56.19 18.3 56.19 18.13" fill="#f68d47"/><polygon points="56.19 17.96 56.9 17.25 57.07 17.25 56.19 18.13 56.19 17.96" fill="#f68c46"/><polygon points="56.19 17.79 56.73 17.25 56.9 17.25 56.19 17.96 56.19 17.79" fill="#f68c45"/><polygon points="56.19 17.62 56.56 17.25 56.73 17.25 56.19 17.79 56.19 17.62" fill="#f68b44"/><polygon points="56.19 17.45 56.39 17.25 56.56 17.25 56.19 17.62 56.19 17.45" fill="#f58b43"/><polygon points="56.19 17.29 56.23 17.25 56.39 17.25 56.19 17.45 56.19 17.29" fill="#f58a42"/><polygon points="56.23 17.25 56.19 17.29 56.19 17.25 56.23 17.25" fill="#f58a42"/></g><g clip-path="url(#b2fce5e7-735c-4998-b60c-bb5826f8980f)"><polygon points="57.76 17.87 57.74 17.85 57.76 17.85 57.76 17.87" fill="#f58336"/><polygon points="57.76 17.9 57.71 17.85 57.74 17.85 57.76 17.87 57.76 17.9" fill="#f58335"/><polygon points="57.76 17.93 57.68 17.85 57.71 17.85 57.76 17.9 57.76 17.93" fill="#f48235"/><polygon points="57.76 17.96 57.65 17.85 57.68 17.85 57.76 17.93 57.76 17.96" fill="#f48234"/><polygon points="57.76 18 57.62 17.85 57.65 17.85 57.76 17.96 57.76 18" fill="#f48133"/><polygon points="57.76 18.03 57.58 17.85 57.62 17.85 57.76 18 57.76 18.03" fill="#f48132"/><polygon points="57.76 18.06 57.55 17.85 57.58 17.85 57.76 18.03 57.76 18.06" fill="#f48032"/><polygon points="57.76 18.09 57.52 17.85 57.55 17.85 57.76 18.06 57.76 18.09" fill="#f48031"/><polygon points="57.76 18.12 57.49 17.85 57.52 17.85 57.76 18.09 57.76 18.12" fill="#f47f30"/><polygon points="57.76 18.16 57.46 17.85 57.49 17.85 57.76 18.12 57.76 18.16" fill="#f47f2f"/><polygon points="57.76 18.19 57.42 17.85 57.46 17.85 57.76 18.16 57.76 18.19" fill="#f47e2e"/><polygon points="57.76 18.22 57.39 17.85 57.42 17.85 57.76 18.19 57.76 18.22" fill="#f47e2e"/><polygon points="57.76 18.25 57.36 17.85 57.39 17.85 57.76 18.22 57.76 18.25" fill="#f47d2d"/><polygon points="57.76 18.28 57.33 17.85 57.36 17.85 57.76 18.25 57.76 18.28" fill="#f47d2c"/><polygon points="57.76 18.32 57.3 17.85 57.33 17.85 57.76 18.28 57.76 18.32" fill="#f47c2b"/><polygon points="57.76 18.35 57.27 17.85 57.3 17.85 57.76 18.32 57.76 18.35" fill="#f47c2a"/><polygon points="57.76 18.38 57.23 17.85 57.27 17.85 57.76 18.35 57.76 18.38" fill="#f47c2a"/><polygon points="57.76 18.41 57.2 17.85 57.23 17.85 57.76 18.38 57.76 18.41" fill="#f47b29"/><polygon points="57.76 18.44 57.17 17.85 57.2 17.85 57.76 18.41 57.76 18.44" fill="#f47b28"/><polygon points="57.76 18.47 57.14 17.85 57.17 17.85 57.76 18.44 57.76 18.47" fill="#f37a27"/><polygon points="57.76 18.51 57.1 17.85 57.14 17.85 57.76 18.47 57.76 18.51" fill="#f37a27"/><polygon points="57.76 18.54 57.07 17.85 57.1 17.85 57.76 18.51 57.76 18.54" fill="#f37926"/><polygon points="57.76 18.57 57.04 17.85 57.07 17.85 57.76 18.54 57.76 18.57" fill="#f37925"/><polygon points="57.76 18.6 57.01 17.85 57.04 17.85 57.76 18.57 57.76 18.6" fill="#f37825"/><polygon points="57.76 18.63 56.98 17.85 57.01 17.85 57.76 18.6 57.76 18.63" fill="#f37824"/><polygon points="57.76 18.67 56.95 17.85 56.98 17.85 57.76 18.63 57.76 18.67" fill="#f37723"/><polygon points="57.76 18.7 56.91 17.85 56.95 17.85 57.76 18.67 57.76 18.7" fill="#f37723"/><polygon points="57.76 18.73 56.88 17.85 56.91 17.85 57.76 18.7 57.76 18.73" fill="#f37622"/><polygon points="57.76 18.76 56.85 17.85 56.88 17.85 57.76 18.73 57.76 18.76" fill="#f37622"/><polygon points="57.76 18.79 56.82 17.85 56.85 17.85 57.76 18.76 57.76 18.79" fill="#f37521"/><polygon points="57.76 18.82 56.79 17.85 56.82 17.85 57.76 18.79 57.76 18.82" fill="#f37521"/><polygon points="57.75 18.87 56.78 17.9 56.78 17.85 56.79 17.85 57.76 18.82 57.76 18.87 57.75 18.87" fill="#f37521"/><polygon points="57.7 18.87 56.78 17.96 56.78 17.9 57.75 18.87 57.7 18.87" fill="#f17421"/><polygon points="57.64 18.87 56.78 18.01 56.78 17.96 57.7 18.87 57.64 18.87" fill="#f07422"/><polygon points="57.58 18.87 56.78 18.07 56.78 18.01 57.64 18.87 57.58 18.87" fill="#ef7322"/><polygon points="57.53 18.87 56.78 18.12 56.78 18.07 57.58 18.87 57.53 18.87" fill="#ee7322"/><polygon points="57.47 18.87 56.78 18.18 56.78 18.12 57.53 18.87 57.47 18.87" fill="#ed7223"/><polygon points="57.42 18.87 56.78 18.23 56.78 18.18 57.47 18.87 57.42 18.87" fill="#ec7223"/><polygon points="57.36 18.87 56.78 18.29 56.78 18.23 57.42 18.87 57.36 18.87" fill="#eb7123"/><polygon points="57.31 18.87 56.78 18.34 56.78 18.29 57.36 18.87 57.31 18.87" fill="#ea7124"/><polygon points="57.25 18.87 56.78 18.4 56.78 18.34 57.31 18.87 57.25 18.87" fill="#ea7024"/><polygon points="57.2 18.87 56.78 18.46 56.78 18.4 57.25 18.87 57.2 18.87" fill="#e97024"/><polygon points="57.14 18.87 56.78 18.51 56.78 18.46 57.2 18.87 57.14 18.87" fill="#e86f24"/><polygon points="57.09 18.87 56.78 18.57 56.78 18.51 57.14 18.87 57.09 18.87" fill="#e76e25"/><polygon points="57.03 18.87 56.78 18.62 56.78 18.57 57.09 18.87 57.03 18.87" fill="#e76e25"/><polygon points="56.98 18.87 56.78 18.68 56.78 18.62 57.03 18.87 56.98 18.87" fill="#e66d25"/><polygon points="56.92 18.87 56.78 18.73 56.78 18.68 56.98 18.87 56.92 18.87" fill="#e56d25"/><polygon points="56.86 18.87 56.78 18.79 56.78 18.73 56.92 18.87 56.86 18.87" fill="#e46c25"/><polygon points="56.81 18.87 56.78 18.84 56.78 18.79 56.86 18.87 56.81 18.87" fill="#e36c26"/><polygon points="56.78 18.84 56.81 18.87 56.78 18.87 56.78 18.84" fill="#e36b26"/><polygon points="58.76 17.72 57.77 16.72 58.76 16.72 58.76 17.72" fill="#f69453"/><polygon points="58.76 17.75 57.73 16.72 57.77 16.72 58.76 17.72 58.76 17.75" fill="#f69453"/><polygon points="58.76 17.78 57.7 16.72 57.73 16.72 58.76 17.75 58.76 17.78" fill="#f69352"/><polygon points="58.76 17.82 57.67 16.72 57.7 16.72 58.76 17.78 58.76 17.82" fill="#f69351"/><polygon points="58.76 17.85 57.64 16.72 57.67 16.72 58.76 17.82 58.76 17.85" fill="#f69251"/><polygon points="58.76 17.88 57.6 16.72 57.64 16.72 58.76 17.85 58.76 17.88" fill="#f69250"/><polygon points="58.76 17.91 57.57 16.72 57.6 16.72 58.76 17.88 58.76 17.91" fill="#f6914f"/><polygon points="58.76 17.94 57.54 16.72 57.57 16.72 58.76 17.91 58.76 17.94" fill="#f6914e"/><polygon points="58.76 17.98 57.51 16.72 57.54 16.72 58.76 17.94 58.76 17.98" fill="#f6904d"/><polygon points="58.76 18.01 57.48 16.72 57.51 16.72 58.76 17.98 58.76 18.01" fill="#f6904c"/><polygon points="58.76 18.04 57.45 16.72 57.48 16.72 58.76 18.01 58.76 18.04" fill="#f68f4c"/><polygon points="58.76 18.07 57.41 16.72 57.45 16.72 58.76 18.04 58.76 18.07" fill="#f68f4b"/><polygon points="58.76 18.1 57.38 16.72 57.41 16.72 58.76 18.07 58.76 18.1" fill="#f68e4a"/><polygon points="58.76 18.13 57.35 16.72 57.38 16.72 58.76 18.1 58.76 18.13" fill="#f68e49"/><polygon points="58.76 18.17 57.32 16.72 57.35 16.72 58.76 18.13 58.76 18.17" fill="#f68d48"/><polygon points="58.76 18.2 57.29 16.72 57.32 16.72 58.76 18.17 58.76 18.2" fill="#f68d47"/><polygon points="58.76 18.23 57.26 16.72 57.29 16.72 58.76 18.2 58.76 18.23" fill="#f68d47"/><polygon points="58.76 18.26 57.22 16.72 57.26 16.72 58.76 18.23 58.76 18.26" fill="#f68c46"/><polygon points="58.76 18.29 57.19 16.72 57.22 16.72 58.76 18.26 58.76 18.29" fill="#f68c45"/><polygon points="58.76 18.33 57.16 16.72 57.19 16.72 58.76 18.29 58.76 18.33" fill="#f68b44"/><polygon points="58.76 18.36 57.13 16.72 57.16 16.72 58.76 18.33 58.76 18.36" fill="#f58b43"/><polygon points="58.76 18.39 57.09 16.72 57.13 16.72 58.76 18.36 58.76 18.39" fill="#f58a42"/><polygon points="58.76 18.42 57.06 16.72 57.09 16.72 58.76 18.39 58.76 18.42" fill="#f58a42"/><polygon points="58.76 18.45 57.03 16.72 57.06 16.72 58.76 18.42 58.76 18.45" fill="#f58941"/><polygon points="58.76 18.48 57 16.72 57.03 16.72 58.76 18.45 58.76 18.48" fill="#f58940"/><polygon points="58.76 18.52 56.97 16.72 57 16.72 58.76 18.48 58.76 18.52" fill="#f5883f"/><polygon points="58.76 18.55 56.94 16.72 56.97 16.72 58.76 18.52 58.76 18.55" fill="#f5883e"/><polygon points="58.76 18.58 56.9 16.72 56.94 16.72 58.76 18.55 58.76 18.58" fill="#f5873d"/><polygon points="58.76 18.61 56.87 16.72 56.9 16.72 58.76 18.58 58.76 18.61" fill="#f5873d"/><polygon points="58.76 18.64 56.84 16.72 56.87 16.72 58.76 18.61 58.76 18.64" fill="#f5863c"/><polygon points="58.76 18.68 56.81 16.72 56.84 16.72 58.76 18.64 58.76 18.68" fill="#f5863b"/><polygon points="58.76 18.71 56.78 16.72 56.81 16.72 58.76 18.68 58.76 18.71" fill="#f5853a"/><polygon points="58.76 18.74 56.74 16.72 56.78 16.72 58.76 18.71 58.76 18.74" fill="#f58539"/><polygon points="58.76 18.77 56.71 16.72 56.74 16.72 58.76 18.74 58.76 18.77" fill="#f58539"/><polygon points="58.76 18.8 56.68 16.72 56.71 16.72 58.76 18.77 58.76 18.8" fill="#f58438"/><polygon points="58.76 18.84 56.65 16.72 56.68 16.72 58.76 18.8 58.76 18.84" fill="#f58437"/><polygon points="58.76 18.87 56.62 16.72 56.65 16.72 58.76 18.84 58.76 18.87" fill="#f58336"/><polygon points="58.76 18.9 56.59 16.72 56.62 16.72 58.76 18.87 58.76 18.9" fill="#f58335"/><polygon points="58.76 18.93 56.55 16.72 56.59 16.72 58.76 18.9 58.76 18.93" fill="#f48235"/><polygon points="58.76 18.96 56.52 16.72 56.55 16.72 58.76 18.93 58.76 18.96" fill="#f48234"/><polygon points="58.76 19 56.49 16.72 56.52 16.72 58.76 18.96 58.76 19" fill="#f48133"/><polygon points="58.76 19.03 56.46 16.72 56.49 16.72 58.76 19 58.76 19.03" fill="#f48132"/><polygon points="58.76 19.06 56.42 16.72 56.46 16.72 58.76 19.03 58.76 19.06" fill="#f48032"/><polygon points="58.76 19.09 56.39 16.72 56.42 16.72 58.76 19.06 58.76 19.09" fill="#f48031"/><polygon points="58.76 19.12 56.36 16.72 56.39 16.72 58.76 19.09 58.76 19.12" fill="#f47f30"/><polygon points="58.76 19.16 56.33 16.72 56.36 16.72 58.76 19.12 58.76 19.16" fill="#f47f2f"/><polygon points="58.76 19.19 56.3 16.72 56.33 16.72 58.76 19.16 58.76 19.19" fill="#f47e2e"/><polygon points="58.76 19.22 56.27 16.72 56.3 16.72 58.76 19.19 58.76 19.22" fill="#f47e2e"/><polygon points="58.76 19.25 56.23 16.72 56.27 16.72 58.76 19.22 58.76 19.25" fill="#f47d2d"/><polygon points="58.76 19.28 56.2 16.72 56.23 16.72 58.76 19.25 58.76 19.28" fill="#f47d2c"/><polygon points="58.76 19.32 56.17 16.72 56.2 16.72 58.76 19.28 58.76 19.32" fill="#f47c2b"/><polygon points="58.76 19.35 56.14 16.72 56.17 16.72 58.76 19.32 58.76 19.35" fill="#f47c2a"/><polygon points="58.76 19.38 56.11 16.72 56.14 16.72 58.76 19.35 58.76 19.38" fill="#f47c2a"/><polygon points="58.76 19.41 56.07 16.72 56.11 16.72 58.76 19.38 58.76 19.41" fill="#f47b29"/><polygon points="58.76 19.44 56.04 16.72 56.07 16.72 58.76 19.41 58.76 19.44" fill="#f47b28"/><polygon points="58.76 19.47 56.01 16.72 56.04 16.72 58.76 19.44 58.76 19.47" fill="#f37a27"/><polygon points="58.76 19.51 55.98 16.72 56.01 16.72 58.76 19.47 58.76 19.51" fill="#f37a27"/><polygon points="58.76 19.54 55.95 16.72 55.98 16.72 58.76 19.51 58.76 19.54" fill="#f37926"/><polygon points="58.76 19.57 55.91 16.72 55.95 16.72 58.76 19.54 58.76 19.57" fill="#f37925"/><polygon points="58.76 19.6 55.88 16.72 55.91 16.72 58.76 19.57 58.76 19.6" fill="#f37825"/><polygon points="58.76 19.63 55.85 16.72 55.88 16.72 58.76 19.6 58.76 19.63" fill="#f37824"/><polygon points="58.76 19.67 55.82 16.72 55.85 16.72 58.76 19.63 58.76 19.67" fill="#f37723"/><polygon points="58.76 19.7 55.79 16.72 55.82 16.72 58.76 19.67 58.76 19.7" fill="#f37723"/><polygon points="58.76 19.73 55.78 16.75 55.78 16.72 55.79 16.72 58.76 19.7 58.76 19.73" fill="#f37622"/><polygon points="58.76 19.76 55.78 16.78 55.78 16.75 58.76 19.73 58.76 19.76" fill="#f37622"/><polygon points="58.76 19.79 55.78 16.82 55.78 16.78 58.76 19.76 58.76 19.79" fill="#f37521"/><polygon points="58.76 19.82 55.78 16.85 55.78 16.82 58.76 19.79 58.76 19.82" fill="#f37521"/><polygon points="58.71 19.82 55.78 16.9 55.78 16.85 58.76 19.82 58.71 19.82" fill="#f37521"/><polygon points="58.65 19.82 55.78 16.96 55.78 16.9 58.71 19.82 58.65 19.82" fill="#f17421"/><polygon points="58.6 19.82 55.78 17.01 55.78 16.96 58.65 19.82 58.6 19.82" fill="#f07422"/><polygon points="58.54 19.82 55.78 17.07 55.78 17.01 58.6 19.82 58.54 19.82" fill="#ef7322"/><polygon points="58.49 19.82 55.78 17.12 55.78 17.07 58.54 19.82 58.49 19.82" fill="#ee7322"/><polygon points="58.43 19.82 55.78 17.18 55.78 17.12 58.49 19.82 58.43 19.82" fill="#ed7223"/><polygon points="58.38 19.82 55.78 17.23 55.78 17.18 58.43 19.82 58.38 19.82" fill="#ec7223"/><polygon points="58.32 19.82 55.78 17.29 55.78 17.23 58.38 19.82 58.32 19.82" fill="#eb7123"/><polygon points="58.27 19.82 55.78 17.34 55.78 17.29 58.32 19.82 58.27 19.82" fill="#ea7124"/><polygon points="58.21 19.82 55.78 17.4 55.78 17.34 58.27 19.82 58.21 19.82" fill="#ea7024"/><polygon points="58.15 19.82 55.78 17.46 55.78 17.4 58.21 19.82 58.15 19.82" fill="#e97024"/><polygon points="58.1 19.82 55.78 17.51 55.78 17.46 58.15 19.82 58.1 19.82" fill="#e86f24"/><polygon points="58.04 19.82 55.78 17.57 55.78 17.51 58.1 19.82 58.04 19.82" fill="#e76e25"/><polygon points="57.99 19.82 55.78 17.62 55.78 17.57 58.04 19.82 57.99 19.82" fill="#e76e25"/><polygon points="57.93 19.82 55.78 17.68 55.78 17.62 57.99 19.82 57.93 19.82" fill="#e66d25"/><polygon points="57.88 19.82 55.78 17.73 55.78 17.68 57.93 19.82 57.88 19.82" fill="#e56d25"/><polygon points="57.82 19.82 55.78 17.79 55.78 17.73 57.88 19.82 57.82 19.82" fill="#e46c25"/><polygon points="57.77 19.82 55.78 17.84 55.78 17.79 57.82 19.82 57.77 19.82" fill="#e36c26"/><polygon points="57.71 19.82 55.78 17.9 55.78 17.84 57.77 19.82 57.71 19.82" fill="#e36b26"/><polygon points="57.66 19.82 55.78 17.95 55.78 17.9 57.71 19.82 57.66 19.82" fill="#e26b26"/><polygon points="57.6 19.82 55.78 18.01 55.78 17.95 57.66 19.82 57.6 19.82" fill="#e16a26"/><polygon points="57.55 19.82 55.78 18.07 55.78 18.01 57.6 19.82 57.55 19.82" fill="#e06a27"/><polygon points="57.49 19.82 55.78 18.12 55.78 18.07 57.55 19.82 57.49 19.82" fill="#e06927"/><polygon points="57.43 19.82 55.78 18.18 55.78 18.12 57.49 19.82 57.43 19.82" fill="#df6927"/><polygon points="57.38 19.82 55.78 18.23 55.78 18.18 57.43 19.82 57.38 19.82" fill="#de6827"/><polygon points="57.32 19.82 55.78 18.29 55.78 18.23 57.38 19.82 57.32 19.82" fill="#dd6827"/><polygon points="57.27 19.82 55.78 18.34 55.78 18.29 57.32 19.82 57.27 19.82" fill="#dd6728"/><polygon points="57.21 19.82 55.78 18.4 55.78 18.34 57.27 19.82 57.21 19.82" fill="#dc6728"/><polygon points="57.16 19.82 55.78 18.45 55.78 18.4 57.21 19.82 57.16 19.82" fill="#db6628"/><polygon points="57.1 19.82 55.78 18.51 55.78 18.45 57.16 19.82 57.1 19.82" fill="#da6628"/><polygon points="57.05 19.82 55.78 18.56 55.78 18.51 57.1 19.82 57.05 19.82" fill="#d96529"/><polygon points="56.99 19.82 55.78 18.62 55.78 18.56 57.05 19.82 56.99 19.82" fill="#d96529"/><polygon points="56.94 19.82 55.78 18.68 55.78 18.62 56.99 19.82 56.94 19.82" fill="#d86429"/><polygon points="56.88 19.82 55.78 18.73 55.78 18.68 56.94 19.82 56.88 19.82" fill="#d76429"/><polygon points="56.83 19.82 55.78 18.79 55.78 18.73 56.88 19.82 56.83 19.82" fill="#d66329"/><polygon points="56.77 19.82 55.78 18.84 55.78 18.79 56.83 19.82 56.77 19.82" fill="#d6632a"/><polygon points="56.71 19.82 55.78 18.9 55.78 18.84 56.77 19.82 56.71 19.82" fill="#d5622a"/><polygon points="56.66 19.82 55.78 18.95 55.78 18.9 56.71 19.82 56.66 19.82" fill="#d4622a"/><polygon points="55.78 18.95 56.66 19.82 55.78 19.82 55.78 18.95" fill="#d4622a"/></g><polygon points="69.12 24.96 44.08 45.12 43.4 44.28 69.8 23.03 69.12 24.96" fill="#ef8c23"/><path d="M38.87,48.62a31.47,31.47,0,0,0,3.81-9.39l1.7,5,4.47,2.72A31,31,0,0,0,38.87,48.62Z" fill="#ef8c23"/><path d="M29.26,44.56a1.41,1.41,0,0,1,2.45,0l3.44,6,3.45,6a1.41,1.41,0,0,1-1.22,2.12H23.59a1.41,1.41,0,0,1-1.22-2.12l3.44-6Z" fill="#ef8c23"/><path d="M37.38,59.41H23.59a2.21,2.21,0,0,1-1.91-3.31l6.89-11.94a2.2,2.2,0,0,1,1.91-1.11h0a2.18,2.18,0,0,1,1.92,1.11L39.29,56.1a2.21,2.21,0,0,1-1.91,3.31Zm-6.9-14.76A.61.61,0,0,0,30,45L23.06,56.9a.58.58,0,0,0,0,.61.6.6,0,0,0,.53.31H37.38a.6.6,0,0,0,.53-.31.58.58,0,0,0,0-.61L31,45A.62.62,0,0,0,30.48,44.65Z" fill="#2c3439"/><path d="M30.5,56.05a.87.87,0,1,1,.81-.88A.81.81,0,0,1,30.5,56.05ZM30,53.18l-.28-6.75,1.35,0-.11,6.75Z" fill="#2c3439"/><path d="M58.24,30.94A13.59,13.59,0,1,1,71.82,17.35,13.6,13.6,0,0,1,58.24,30.94Zm0-25.18A11.59,11.59,0,1,0,69.82,17.35,11.6,11.6,0,0,0,58.24,5.76Z" fill="#ef8c23"/></svg>