<?xml version="1.0" encoding="utf-8"?>
<!-- Generator: Adobe Illustrator 26.0.1, SVG Export Plug-In . SVG Version: 6.00 Build 0)  -->
<svg version="1.1" id="Layer_1" xmlns="http://www.w3.org/2000/svg" xmlns:xlink="http://www.w3.org/1999/xlink" x="0px" y="0px"
	 width="100px" height="100px" viewBox="0 0 100 100" style="enable-background:new 0 0 100 100;" xml:space="preserve">
<style type="text/css">
	.st0{fill:#2C3439;}
	.st1{fill-rule:evenodd;clip-rule:evenodd;fill:#EE8B22;}
</style>
<g>
	<g>
		<g>
			<g>
				<g>
					<path class="st0" d="M56.6,6.1H39.2c-2.1,0-3.8-1.7-3.8-3.8V0.9h25v1.4C60.4,4.4,58.7,6.1,56.6,6.1z"/>
				</g>
			</g>
		</g>
		<g>
			<path class="st0" d="M67.9,99.6H27.9c-3.2,0-5.8-2.6-5.8-5.8V6.2c0-3.2,2.6-5.8,5.8-5.8h39.9c3.2,0,5.8,2.6,5.8,5.8v87.7
				C73.6,97,71,99.6,67.9,99.6z M27.9,2.4c-2.1,0-3.8,1.7-3.8,3.8v87.7c0,2.1,1.7,3.8,3.8,3.8h39.9c2.1,0,3.8-1.7,3.8-3.8V6.2
				c0-2.1-1.7-3.8-3.8-3.8H27.9z"/>
		</g>
	</g>
	<g>
		<path class="st1" d="M25.4,68.7C25.3,68.7,25.3,68.8,25.4,68.7C25.4,68.8,25.5,68.8,25.4,68.7z"/>
	</g>
	<g>
		<path class="st1" d="M25.4,69.1C25.3,69.2,25.4,69.3,25.4,69.1C25.5,69.2,25.4,69.1,25.4,69.1z"/>
	</g>
	<g>
		<path class="st1" d="M52.1,68c0.1,0,0.1,0,0.2,0c0-0.1,0-0.1,0-0.2c-0.1,0-0.1,0-0.2,0C52.1,67.9,52.1,67.9,52.1,68z"/>
	</g>
	<g>
		<path class="st1" d="M27.8,69.6C27.8,69.6,27.8,69.8,27.8,69.6C27.9,69.7,27.9,69.6,27.8,69.6z"/>
	</g>
	<g>
		<path class="st1" d="M53.3,67.7c0-0.1,0-0.2-0.1-0.2C53.2,67.6,53.2,67.7,53.3,67.7z"/>
	</g>
	<g>
		<circle class="st1" cx="28.6" cy="70.6" r="0.1"/>
	</g>
	<g>
		<path class="st1" d="M28.6,68.6c0,0.2,0.1,0.2,0.2,0.3C28.8,68.8,28.7,68.7,28.6,68.6z"/>
	</g>
	<g>
		<path class="st1" d="M29.1,70.7C29,70.7,29.1,70.8,29.1,70.7C29.2,70.8,29.1,70.6,29.1,70.7z"/>
	</g>
	<g>
		<path class="st1" d="M29.6,71.6C29.5,71.6,29.6,71.7,29.6,71.6C29.7,71.6,29.6,71.5,29.6,71.6z"/>
	</g>
	<g>
		<path class="st1" d="M54.8,67.4C54.4,67.8,55.1,67.6,54.8,67.4L54.8,67.4z"/>
	</g>
	<g>
		<path class="st1" d="M55.9,70.9C55.9,70.9,56,71.1,55.9,70.9C56,71,56,70.9,55.9,70.9z"/>
	</g>
	<g>
		<path class="st1" d="M31.1,70.8C31.1,70.8,31.2,70.9,31.1,70.8C31.2,70.9,31.2,70.7,31.1,70.8z"/>
	</g>
	<g>
		<path class="st1" d="M57,76C57,76,56.9,76.1,57,76C57.1,76.1,57.1,76,57,76z"/>
	</g>
	<g>
		<path class="st1" d="M56.5,69.2C56.5,69.2,56.6,69.3,56.5,69.2C56.6,69.2,56.6,69.1,56.5,69.2z"/>
	</g>
	<g>
		<path class="st1" d="M31.8,72.6C31.7,72.6,31.7,72.7,31.8,72.6C31.8,72.7,31.9,72.6,31.8,72.6z"/>
	</g>
	<g>
		<path class="st1" d="M57.3,76.5C57.6,76.7,57.1,76.1,57.3,76.5L57.3,76.5z"/>
	</g>
	<g>
		<path class="st1" d="M57.5,75.1c0-0.1,0-0.3-0.1-0.3C57.4,74.9,57.4,75.1,57.5,75.1z"/>
	</g>
	<g>
		<path class="st1" d="M57.6,76.1c0,0.1,0,0.2,0.1,0.2C57.7,76.2,57.7,76.1,57.6,76.1z"/>
	</g>
	<g>
		<path class="st1" d="M57.8,75.9c0-0.1,0-0.3-0.1-0.3C57.7,75.7,57.7,75.9,57.8,75.9z"/>
	</g>
	<g>
		<path class="st1" d="M57.8,73.4C57.8,73.4,57.8,73.5,57.8,73.4C57.9,73.4,57.8,73.3,57.8,73.4z"/>
	</g>
	<g>
		<path class="st1" d="M57.9,68.5C57.9,68.5,57.8,68.3,57.9,68.5C57.7,68.4,57.8,68.5,57.9,68.5z"/>
	</g>
	<g>
		<path class="st1" d="M33,73.2C33,73.2,33.1,73.1,33,73.2C32.9,73.1,32.8,73.2,33,73.2z"/>
	</g>
	<g>
		<path class="st1" d="M57.9,71C57.8,71,57.9,71.2,57.9,71C58,71.1,57.9,71,57.9,71z"/>
	</g>
	<g>
		<path class="st1" d="M57.9,68.8C57.8,68.8,57.9,68.9,57.9,68.8C58,68.8,57.9,68.7,57.9,68.8z"/>
	</g>
	<g>
		<path class="st1" d="M33.1,72.1c0,0.1,0,0.2,0.1,0.2C33.1,72.3,33.1,72.1,33.1,72.1z"/>
	</g>
	<g>
		<path class="st1" d="M58.2,71.2C58.1,71.2,58.2,71.4,58.2,71.2C58.3,71.3,58.2,71.2,58.2,71.2z"/>
	</g>
	<g>
		<path class="st1" d="M27.1,40.8c0-0.1,0-0.2-0.1-0.2C27,40.6,27,40.8,27.1,40.8z"/>
	</g>
	<g>
		<path class="st1" d="M34,73C34.1,73,34,72.9,34,73C33.9,72.9,34,73.1,34,73z"/>
	</g>
	<g>
		<path class="st1" d="M33.9,70.3C33.9,70.3,34,70.4,33.9,70.3C34.1,70.4,34,70.2,33.9,70.3z"/>
	</g>
	<g>
		<path class="st1" d="M59.5,75C59.6,75,59.5,74.9,59.5,75C59.4,74.9,59.5,75.1,59.5,75z"/>
	</g>
	<g>
		<path class="st1" d="M34.1,71.9C34.4,71.6,33.8,71.7,34.1,71.9L34.1,71.9z"/>
	</g>
	<g>
		<path class="st1" d="M34.4,71.4C34.4,71.3,34.4,71.2,34.4,71.4C34.3,71.3,34.4,71.4,34.4,71.4z"/>
	</g>
	<g>
		<path class="st1" d="M34.8,71.2C34.8,71.2,34.9,71.3,34.8,71.2C34.9,71.2,34.9,71.1,34.8,71.2z"/>
	</g>
	<g>
		<path class="st1" d="M35,70.8C35,70.8,35,70.9,35,70.8C35.1,70.9,35.1,70.7,35,70.8z"/>
	</g>
	<g>
		<path class="st1" d="M35.8,72.9C35.5,73.4,36.1,73.2,35.8,72.9L35.8,72.9z"/>
	</g>
	<g>
		<path class="st1" d="M35.9,72.1C35.8,72.2,35.9,72.3,35.9,72.1C36,72.2,35.9,72.1,35.9,72.1z"/>
	</g>
	<g>
		<path class="st1" d="M37.8,70c0,0.1,0,0.2,0.1,0.2C37.9,70.1,37.9,70,37.8,70z"/>
	</g>
	<g>
		<path class="st1" d="M37.9,70.7c0,0.1,0,0.2,0.1,0.2c-0.1-0.1,0.1-0.5-0.1-0.5C37.9,70.5,37.9,70.6,37.9,70.7z"/>
	</g>
	<g>
		<path class="st1" d="M29.8,31.3c0-0.1,0-0.2-0.1-0.2C29.7,31.2,29.7,31.3,29.8,31.3z"/>
	</g>
	<g>
		<path class="st1" d="M40,26.3C40.1,26.3,40.1,26.2,40,26.3C40,26.2,39.9,26.3,40,26.3z"/>
	</g>
	<g>
		<path class="st1" d="M38.1,71.6c0-0.1,0-0.2-0.1-0.2C38,71.4,38,71.6,38.1,71.6z"/>
	</g>
	<g>
		<path class="st1" d="M40.2,24.1C40.2,24,40.2,23.9,40.2,24.1C40.1,24,40.2,24.1,40.2,24.1z"/>
	</g>
	<g>
		<path class="st1" d="M38.3,72.6C38.3,72.6,38.3,72.5,38.3,72.6C38.2,72.6,38.3,72.7,38.3,72.6z"/>
	</g>
	<g>
		<path class="st1" d="M39.3,57.2C39.2,57.2,39.2,57.2,39.3,57.2C39.3,57.3,39.4,57.2,39.3,57.2z"/>
	</g>
	<g>
		<path class="st1" d="M39.5,63.8C39.5,63.8,39.4,63.6,39.5,63.8C39.4,63.7,39.4,63.8,39.5,63.8z"/>
	</g>
	<g>
		<path class="st1" d="M38.3,30.4c0-0.1,0-0.2-0.1-0.2C38.2,30.2,38.2,30.4,38.3,30.4z"/>
	</g>
	<g>
		<path class="st1" d="M39.8,63.5C39.8,63.5,39.7,63.3,39.8,63.5C39.6,63.4,39.7,63.5,39.8,63.5z"/>
	</g>
	<g>
		<path class="st1" d="M39.8,52.9C39.7,52.9,39.7,53,39.8,52.9C39.8,53,39.9,52.9,39.8,52.9z"/>
	</g>
	<g>
		<path class="st1" d="M40.3,52.9C40.5,53.4,40.5,52.5,40.3,52.9L40.3,52.9z"/>
	</g>
	<g>
		<path class="st1" d="M40.4,71.7c0-0.1,0-0.2-0.1-0.2C40.4,71.5,40.4,71.7,40.4,71.7z"/>
	</g>
	<g>
		<path class="st1" d="M40.4,61.2c0,0.1,0,0.2,0.1,0.2C40.4,61.4,40.4,61.3,40.4,61.2z"/>
	</g>
	<g>
		<path class="st1" d="M40.4,59.7C40.5,59.7,40.4,59.5,40.4,59.7C40.3,59.6,40.4,59.7,40.4,59.7z"/>
	</g>
	<g>
		<path class="st1" d="M40.5,67.6C40.6,67.5,40.5,67.4,40.5,67.6C40.4,67.5,40.5,67.6,40.5,67.6z"/>
	</g>
	<g>
		<path class="st1" d="M40.9,70.1C41,70.1,40.9,70,40.9,70.1C40.8,70,40.9,70.1,40.9,70.1z"/>
	</g>
	<g>
		<path class="st1" d="M41.1,43.2C41.2,43.1,41.1,43,41.1,43.2C41,43.1,41.1,43.2,41.1,43.2z"/>
	</g>
	<g>
		<path class="st1" d="M41.4,44.1c0-0.1,0-0.2-0.1-0.2C41.3,44,41.3,44.1,41.4,44.1z"/>
	</g>
	<g>
		<path class="st1" d="M57.5,64.7C57.5,64.7,57.4,64.6,57.5,64.7C57.3,64.7,57.4,64.8,57.5,64.7z"/>
	</g>
	<g>
		<path class="st1" d="M42.2,60.2c-0.1,0-0.1,0-0.2,0c0,0.1,0,0.1,0,0.2c0.1,0,0.1,0,0.2,0C42.2,60.3,42.2,60.2,42.2,60.2z"/>
	</g>
	<g>
		<path class="st1" d="M40.8,30.4C40.7,30.4,40.6,30.4,40.8,30.4C40.8,30.5,40.9,30.4,40.8,30.4z"/>
	</g>
	<g>
		<path class="st1" d="M42.8,67C42.8,67,42.8,67.1,42.8,67C42.9,67.1,42.8,66.9,42.8,67z"/>
	</g>
	<g>
		<path class="st1" d="M42.9,67.5c0.3,0.1,0.2-0.2,0.3-0.3C42.9,67.1,43,67.4,42.9,67.5z"/>
	</g>
	<g>
		<path class="st1" d="M43,61.4C43,61.5,43,61.6,43,61.4C43.1,61.5,43,61.4,43,61.4z"/>
	</g>
	<g>
		<path class="st1" d="M43.6,39.6C43.6,39.5,43.5,39.4,43.6,39.6C43.4,39.5,43.5,39.6,43.6,39.6z"/>
	</g>
	<g>
		<path class="st1" d="M69.4,73.8C69.3,73.9,69.4,74,69.4,73.8C69.5,73.9,69.4,73.8,69.4,73.8z"/>
	</g>
	<g>
		<path class="st1" d="M44.8,71.1c-0.1,0-0.1,0.2,0,0.2C44.9,71.2,44.9,71.2,44.8,71.1z"/>
	</g>
	<g>
		<path class="st1" d="M45,68.3C45,68.3,44.9,68.4,45,68.3C45.1,68.4,45.1,68.4,45,68.3z"/>
	</g>
	<g>
		<path class="st1" d="M45.1,65.3C45.1,65.3,45.1,65.2,45.1,65.3C45,65.3,45.1,65.4,45.1,65.3z"/>
	</g>
	<g>
		<path class="st1" d="M70.7,57C70.7,56.9,70.7,56.9,70.7,57C70.6,56.9,70.7,57,70.7,57z"/>
	</g>
	<g>
		<path class="st1" d="M46.6,71.9C46.6,71.9,46.5,71.8,46.6,71.9C46.5,71.9,46.5,72,46.6,71.9z"/>
	</g>
	<g>
		<path class="st1" d="M47,40.6C47,40.6,46.9,40.5,47,40.6C46.8,40.6,46.9,40.7,47,40.6z"/>
	</g>
	<g>
		<path class="st1" d="M71.6,51.6C71.6,51.6,71.5,51.5,71.6,51.6C71.5,51.6,71.5,51.6,71.6,51.6z"/>
	</g>
	<g>
		<path class="st1" d="M46.1,32.4C46.1,32.4,46.1,32.3,46.1,32.4C46,32.3,46.1,32.5,46.1,32.4z"/>
	</g>
	<g>
		<path class="st1" d="M47.5,46.9c0-0.1,0-0.2-0.1-0.2C47.5,46.7,47.5,46.9,47.5,46.9z"/>
	</g>
	<g>
		<path class="st1" d="M72,66.4c0-0.1,0-0.1-0.1-0.1C72,66.3,72,66.4,72,66.4z"/>
	</g>
	<g>
		<path class="st1" d="M47.8,38.5C47.9,38.5,47.8,38.3,47.8,38.5C47.7,38.4,47.8,38.5,47.8,38.5z"/>
	</g>
	<g>
		<path class="st1" d="M48.4,53.3c0-0.1,0-0.2-0.1-0.2C48.4,53.2,48.3,53.3,48.4,53.3z"/>
	</g>
	<g>
		<path class="st1" d="M48.8,52.7c0,0.1-0.2,0.1-0.2,0.2C48.8,53,49.1,52.7,48.8,52.7z"/>
	</g>
	<g>
		<path class="st1" d="M49.1,39.5C49.1,39.5,49,39.5,49.1,39.5C49.2,39.6,49.2,39.5,49.1,39.5z"/>
	</g>
	<g>
		<path class="st1" d="M49.2,72.1C48.9,72.5,49.5,72.4,49.2,72.1L49.2,72.1z"/>
	</g>
	<g>
		<path class="st1" d="M49.5,53.4c0.1,0,0.1-0.2,0-0.2C49.5,53.3,49.4,53.3,49.5,53.4z"/>
	</g>
	<g>
		<path class="st1" d="M49.5,51.8C49.5,51.8,49.4,51.7,49.5,51.8C49.4,51.7,49.4,51.9,49.5,51.8z"/>
	</g>
	<g>
		<path class="st1" d="M49.6,52.9c0-0.1,0-0.2-0.1-0.2C49.5,52.8,49.5,52.9,49.6,52.9z"/>
	</g>
	<g>
		<path class="st1" d="M49.6,46.6c0-0.1,0-0.3-0.1-0.3C49.5,46.4,49.5,46.5,49.6,46.6z"/>
	</g>
	<g>
		<path class="st1" d="M49.5,39C49.5,39,49.5,39.1,49.5,39C49.6,39,49.5,38.9,49.5,39z"/>
	</g>
	<g>
		<path class="st1" d="M73.3,64.3c0,0.1,0,0.1,0.1,0.1C73.3,64.3,73.4,64.3,73.3,64.3z"/>
	</g>
	<g>
		<path class="st1" d="M73.3,53C73.3,53,73.3,53.1,73.3,53C73.4,53,73.3,53,73.3,53z"/>
	</g>
	<g>
		<path class="st1" d="M49.7,57.4C49.7,57.3,49.6,57.2,49.7,57.4C49.6,57.3,49.6,57.4,49.7,57.4z"/>
	</g>
	<g>
		<path class="st1" d="M49.8,68.6c0-0.1,0-0.3-0.1-0.3C49.7,68.5,49.7,68.6,49.8,68.6z"/>
	</g>
	<g>
		<path class="st1" d="M49.8,61.7C49.8,61.7,49.7,61.6,49.8,61.7C49.7,61.7,49.7,61.8,49.8,61.7z"/>
	</g>
	<g>
		<path class="st1" d="M73.6,54.1C73.6,54.1,73.6,54,73.6,54.1C73.5,54.1,73.6,54.2,73.6,54.1z"/>
	</g>
	<g>
		<path class="st1" d="M50.2,53.3C50.1,53.3,50.1,53.4,50.2,53.3C50.2,53.4,50.3,53.3,50.2,53.3z"/>
	</g>
	<g>
		<path class="st1" d="M73.7,66.5c0,0.1,0,0.1,0.1,0.1C73.7,66.6,73.7,66.5,73.7,66.5z"/>
	</g>
	<g>
		<path class="st1" d="M50.8,63.5C50.7,63.5,50.8,63.6,50.8,63.5C50.9,63.6,50.8,63.4,50.8,63.5z"/>
	</g>
	<g>
		<path class="st1" d="M49.5,28.2C49.8,27.7,49.2,27.9,49.5,28.2L49.5,28.2z"/>
	</g>
	<g>
		<path class="st1" d="M49.9,32.5C50,32.5,50,32.4,49.9,32.5C49.8,32.4,49.8,32.5,49.9,32.5z"/>
	</g>
	<g>
		<path class="st1" d="M49.9,32.1c0-0.1,0-0.3-0.1-0.3C49.8,31.9,49.8,32.1,49.9,32.1z"/>
	</g>
	<g>
		<path class="st1" d="M51.3,37.7C51.3,37.7,51.4,37.9,51.3,37.7C51.5,37.8,51.4,37.7,51.3,37.7z"/>
	</g>
	<g>
		<path class="st1" d="M51.4,38.2C51.4,38.2,51.5,38.3,51.4,38.2C51.6,38.3,51.5,38.1,51.4,38.2z"/>
	</g>
	<g>
		<path class="st1" d="M51.7,63.8C51.7,63.8,51.8,63.9,51.7,63.8C51.9,63.8,51.8,63.7,51.7,63.8z"/>
	</g>
	<g>
		<path class="st1" d="M52,48.9C52,48.9,51.9,49,52,48.9C52.1,49,52.1,48.9,52,48.9z"/>
	</g>
	<g>
		<path class="st1" d="M51.9,39.9C51.9,40,52,40.1,51.9,39.9C52.1,40,52,39.9,51.9,39.9z"/>
	</g>
	<g>
		<path class="st1" d="M52,68.4C52,68.5,52.1,68.6,52,68.4C52.1,68.5,52.1,68.4,52,68.4z"/>
	</g>
	<g>
		<path class="st1" d="M52.3,61.2C52.3,61.3,52.4,61.4,52.3,61.2C52.4,61.3,52.4,61.2,52.3,61.2z"/>
	</g>
	<g>
		<path class="st1" d="M52.3,53.3c0,0.1,0,0.2,0.1,0.2C52.4,53.4,52.4,53.3,52.3,53.3z"/>
	</g>
	<g>
		<path class="st1" d="M52.5,71.5C52.5,71.5,52.6,71.6,52.5,71.5C52.6,71.5,52.6,71.4,52.5,71.5z"/>
	</g>
	<g>
		<path class="st1" d="M52.9,49.3c0.1,0,0.1-0.1,0-0.2C52.8,49.1,52.8,49.3,52.9,49.3z"/>
	</g>
	<g>
		<path class="st1" d="M53.2,55.8c0,0.1,0,0.2,0.1,0.2C53.3,55.9,53.3,55.8,53.2,55.8z"/>
	</g>
	<g>
		<path class="st1" d="M53.3,51.1C53.3,51.1,53.2,51,53.3,51.1C53.2,51.1,53.2,51.2,53.3,51.1z"/>
	</g>
	<g>
		<path class="st1" d="M53.3,52c0,0.1,0,0.2,0.1,0.2C53.4,52.1,53.4,52,53.3,52z"/>
	</g>
	<g>
		<path class="st1" d="M52.2,29.7c-0.1,0-0.1,0-0.2,0c0,0.1,0,0.1,0,0.2c0.1,0,0.1,0,0.2,0C52.2,29.8,52.2,29.8,52.2,29.7z"/>
	</g>
	<g>
		<path class="st1" d="M53.6,67.9C53.6,67.9,53.6,68,53.6,67.9C53.7,67.9,53.6,67.8,53.6,67.9z"/>
	</g>
	<g>
		<path class="st1" d="M54,52.3c0-0.1,0.1-0.2,0-0.2C53.9,52.1,53.8,52.3,54,52.3z"/>
	</g>
	<g>
		<path class="st1" d="M54.3,54.9C54.2,55,54.3,55.1,54.3,54.9C54.4,55,54.3,54.9,54.3,54.9z"/>
	</g>
	<g>
		<path class="st1" d="M54.8,43c0,0.1,0,0.2,0.1,0.2C54.9,43.1,54.9,43,54.8,43z"/>
	</g>
	<g>
		<path class="st1" d="M53.6,30C53.6,30,53.6,30.1,53.6,30C53.7,30,53.6,29.9,53.6,30z"/>
	</g>
	<g>
		<path class="st1" d="M55.5,60.2C55.5,60.2,55.6,60.3,55.5,60.2C55.7,60.2,55.6,60.1,55.5,60.2z"/>
	</g>
	<g>
		<path class="st1" d="M55.7,52.2C55.7,52.2,55.8,52.4,55.7,52.2C55.8,52.3,55.8,52.2,55.7,52.2z"/>
	</g>
	<g>
		<path class="st1" d="M55.8,45.8c0.1,0,0.1,0.2,0.2,0.2C56.3,45.9,55.9,45.5,55.8,45.8z"/>
	</g>
	<g>
		<path class="st1" d="M55.9,38.1C56,38.1,56,38,55.9,38.1C55.9,38,55.8,38.1,55.9,38.1z"/>
	</g>
	<g>
		<path class="st1" d="M54.6,30.2C54.6,30.1,54.5,30,54.6,30.2C54.4,30.1,54.5,30.2,54.6,30.2z"/>
	</g>
	<g>
		<path class="st1" d="M56.1,39.7C56.1,39.6,56.1,39.5,56.1,39.7C56,39.6,56.1,39.7,56.1,39.7z"/>
	</g>
	<g>
		<path class="st1" d="M56.1,43.7C56.1,43.8,56.2,43.9,56.1,43.7C56.2,43.8,56.2,43.7,56.1,43.7z"/>
	</g>
	<g>
		<path class="st1" d="M56.2,40.1c0.1,0,0.1-0.2,0-0.2C56.2,40.1,56.1,40.1,56.2,40.1z"/>
	</g>
	<g>
		<path class="st1" d="M56.2,46.4c0,0.1,0,0.2,0.1,0.2C56.3,46.5,56.3,46.4,56.2,46.4z"/>
	</g>
	<g>
		<path class="st1" d="M56.3,46.1C56.4,46.1,56.4,46,56.3,46.1C56.3,46,56.2,46.1,56.3,46.1z"/>
	</g>
	<g>
		<path class="st1" d="M56.6,47c0.1,0,0.1-0.2,0-0.2C56.6,47,56.5,47,56.6,47z"/>
	</g>
	<g>
		<path class="st1" d="M55.4,32.4c0-0.1,0-0.2-0.1-0.2C55.4,32.3,55.3,32.4,55.4,32.4z"/>
	</g>
	<g>
		<path class="st1" d="M57.1,44.5C57.1,44.5,57,44.4,57.1,44.5C57,44.4,57,44.6,57.1,44.5z"/>
	</g>
	<g>
		<path class="st1" d="M57.2,46.6c0.1,0,0.1-0.2,0-0.2C57.2,46.5,57,46.5,57.2,46.6z"/>
	</g>
	<g>
		<path class="st1" d="M57.6,73.7c0.1,0,0.1-0.1,0-0.2C57.5,73.5,57.4,73.7,57.6,73.7z"/>
	</g>
	<g>
		<path class="st1" d="M57.6,47C57.6,46.9,57.5,46.8,57.6,47C57.4,46.9,57.5,47,57.6,47z"/>
	</g>
	<g>
		<path class="st1" d="M57.8,40.2C57.7,40.2,57.7,40.3,57.8,40.2C57.8,40.3,57.9,40.3,57.8,40.2z"/>
	</g>
	<g>
		<path class="st1" d="M57.8,49.2C57.7,49.2,57.8,49.3,57.8,49.2C57.9,49.3,57.8,49.1,57.8,49.2z"/>
	</g>
	<g>
		<path class="st1" d="M57.8,47.4C57.7,47.5,57.8,47.6,57.8,47.4C57.9,47.5,57.8,47.4,57.8,47.4z"/>
	</g>
	<g>
		<path class="st1" d="M58.2,44.6c0,0.2,0.1,0.2,0.2,0.3C58.4,44.7,58.3,44.7,58.2,44.6z"/>
	</g>
	<g>
		<path class="st1" d="M58.3,47.3C58.2,47.4,58.3,47.5,58.3,47.3C58.4,47.4,58.3,47.3,58.3,47.3z"/>
	</g>
	<g>
		<path class="st1" d="M58.3,37.6c0-0.1,0-0.2-0.1-0.2C58.3,37.5,58.3,37.6,58.3,37.6z"/>
	</g>
	<g>
		<path class="st1" d="M58.3,48.7c0,0.1,0,0.3,0.1,0.3C58.4,48.9,58.5,48.7,58.3,48.7z"/>
	</g>
	<g>
		<path class="st1" d="M58.4,55C58.4,55.1,58.5,55.2,58.4,55C58.6,55.1,58.5,55,58.4,55z"/>
	</g>
	<g>
		<path class="st1" d="M58.8,57.7c0.1,0,0.1-0.1,0-0.2C58.7,57.6,58.7,57.7,58.8,57.7z"/>
	</g>
	<g>
		<path class="st1" d="M58.8,55.6C58.9,55.6,58.8,55.5,58.8,55.6C58.7,55.5,58.8,55.7,58.8,55.6z"/>
	</g>
	<g>
		<path class="st1" d="M58.8,49.5C58.8,49.5,58.7,49.6,58.8,49.5C58.9,49.6,58.9,49.5,58.8,49.5z"/>
	</g>
	<g>
		<path class="st1" d="M59.3,43.4c0,0.1,0,0.2,0.1,0.2C59.4,43.5,59.4,43.4,59.3,43.4z"/>
	</g>
	<g>
		<path class="st1" d="M59.5,57.5C59.6,57.5,59.6,57.4,59.5,57.5C59.5,57.4,59.4,57.4,59.5,57.5z"/>
	</g>
	<g>
		<path class="st1" d="M59.8,48.5C59.8,48.5,59.9,48.7,59.8,48.5C59.9,48.6,59.9,48.5,59.8,48.5z"/>
	</g>
	<g>
		<path class="st1" d="M59.9,51.3c0.1,0,0.2,0.2,0.3,0C60.1,51.3,60,51.2,59.9,51.3z"/>
	</g>
	<g>
		<path class="st1" d="M59.9,43.1C59.8,43.7,60.2,43.3,59.9,43.1L59.9,43.1z"/>
	</g>
	<g>
		<path class="st1" d="M60.1,49.7C60,49.7,60,49.8,60.1,49.7C60.2,49.8,60.2,49.7,60.1,49.7z"/>
	</g>
	<g>
		<path class="st1" d="M60.2,51.5C60.2,51.5,60.2,51.7,60.2,51.5C60.3,51.6,60.2,51.5,60.2,51.5z"/>
	</g>
	<g>
		<path class="st1" d="M60.4,57.6c0-0.1,0.1-0.2,0-0.2C60.3,57.4,60.3,57.5,60.4,57.6z"/>
	</g>
	<g>
		<path class="st1" d="M60.4,51.9c0.1,0,0.1-0.1,0-0.2C60.3,51.7,60.3,51.9,60.4,51.9z"/>
	</g>
	<g>
		<path class="st1" d="M60.4,43.5C60.4,43.6,60.4,43.7,60.4,43.5C60.5,43.6,60.4,43.5,60.4,43.5z"/>
	</g>
	<g>
		<path class="st1" d="M60.7,50.9c0,0.1,0,0.2,0.1,0.2C60.8,51.1,60.8,50.9,60.7,50.9z"/>
	</g>
	<g>
		<path class="st1" d="M60.8,57.1C60.8,57.1,60.8,57.2,60.8,57.1C60.9,57.1,60.8,57,60.8,57.1z"/>
	</g>
	<g>
		<path class="st1" d="M61.2,50.9C61.1,51,61.2,51.1,61.2,50.9C61.3,51,61.2,50.9,61.2,50.9z"/>
	</g>
	<g>
		<path class="st1" d="M61.9,53.7c0,0.1,0,0.1,0,0.2c0.1,0,0.1,0.1,0.2,0.1C62.1,53.8,62.2,53.6,61.9,53.7z"/>
	</g>
	<g>
		<path class="st1" d="M62.1,54.1C62.1,54.1,62.2,54.2,62.1,54.1C62.3,54.1,62.2,54,62.1,54.1z"/>
	</g>
	<g>
		<path class="st1" d="M39.6,64.7c0-0.2-0.2-0.2-0.3-0.4C39.3,64.5,39.4,64.6,39.6,64.7z"/>
	</g>
</g>
</svg>
