<svg id="a3751a89-6195-4123-a5f6-9f055e848f55" data-name="Layer 1" xmlns="http://www.w3.org/2000/svg" xmlns:xlink="http://www.w3.org/1999/xlink" width="100" height="100" viewBox="0 0 100 100"><defs><clipPath id="fe3dfa55-9701-47b7-98b2-edd01cd94b35"><circle cx="50.09" cy="11.02" r="0.6" fill="none"/></clipPath><clipPath id="e0a86fc7-4f28-42d7-96ea-1d3141d8dfb3"><path d="M50.09,11.92a.9.9,0,0,1-.64-.26.91.91,0,0,1-.27-.64.91.91,0,0,1,1.55-.65A.92.92,0,0,1,51,11a.89.89,0,0,1-.9.9Zm0-1.2a.32.32,0,0,0-.21.08.31.31,0,0,0-.09.22.29.29,0,0,0,.09.21.31.31,0,0,0,.42,0,.29.29,0,0,0,.09-.21.31.31,0,0,0-.09-.22A.34.34,0,0,0,50.09,10.72Z" fill="none"/></clipPath></defs><title>laptop</title><path d="M90.62,57H9.38V14.8A4.81,4.81,0,0,1,14.19,10H85.81a4.81,4.81,0,0,1,4.81,4.81ZM11.38,55H88.62V14.8A2.81,2.81,0,0,0,85.81,12H14.19a2.81,2.81,0,0,0-2.81,2.81Z" fill="#2c3439"/><path d="M70.44,53s-.08-.05-.06-.07S70.46,53,70.44,53Z" fill="#2c3439" fill-rule="evenodd"/><path d="M70.41,53c-.07,0,0-.07,0-.07S70.45,53,70.41,53Z" fill="#2c3439" fill-rule="evenodd"/><polygon points="44.32 17.1 69.37 37.26 70.05 36.42 43.65 15.18 44.32 17.1" fill="#ef8c23"/><path d="M74.58,40.76a31,31,0,0,1-3.81-9.38l-1.7,4.95-4.48,2.72A31.4,31.4,0,0,1,74.58,40.76Z" fill="#ef8c23"/><path d="M56,35a1.42,1.42,0,0,1,2.45,0l3.44,6,3.45,6a1.41,1.41,0,0,1-1.22,2.11H50.29A1.4,1.4,0,0,1,49.07,47l3.44-6Z" fill="#ef8c23"/><path d="M64.08,49.86H50.29a2.21,2.21,0,0,1-1.91-3.31l6.89-11.94a2.17,2.17,0,0,1,1.91-1.11h0a2.18,2.18,0,0,1,1.92,1.11L66,46.55a2.21,2.21,0,0,1-1.91,3.31Zm-6.9-14.77a.63.63,0,0,0-.53.31L49.76,47.34a.62.62,0,0,0,.53.93H64.08a.62.62,0,0,0,.53-.93L57.72,35.4A.61.61,0,0,0,57.18,35.09Z" fill="#2c3439"/><path d="M57.19,46.5a.82.82,0,0,1-.84-.86.83.83,0,1,1,.84.86Zm-.51-2.88-.28-6.75h1.35l-.11,6.75Z" fill="#2c3439"/><path d="M96.19,84.65,88.85,57c-25.43-.06-71.52-.13-77.7,0L3.81,84.65l-1.93-.51,7.6-28.68.19-.19c.41-.41.41-.41,40.4-.36,19.79,0,39.56.07,39.56.07h.76l7.73,29.16Z" fill="#2c3439"/><path d="M91.06,73.34,9.23,73.22l3.39-14.47,74.74.36Zm-79.3-2.12,76.71.12L85.81,61.1,14.2,60.76Z" fill="#2c3439"/><path d="M55.22,82.5H40.66V73.65H55.22ZM42.16,81H53.72V75.15H42.16Z" fill="#2c3439"/><path d="M2.9,85.15H97.12a0,0,0,0,1,0,0v2.36a1.5,1.5,0,0,1-1.5,1.5H4.4a1.5,1.5,0,0,1-1.5-1.5V85.15a0,0,0,0,1,0,0Z" fill="#ef8c23"/><path d="M95.63,90H4.39a2.5,2.5,0,0,1-2.49-2.5V84.15H98.12v3.36A2.5,2.5,0,0,1,95.63,90ZM3.89,86.15v1.36a.5.5,0,0,0,.5.5H95.63a.5.5,0,0,0,.5-.5V86.15Z" fill="#2c3439"/><g clip-path="url(#fe3dfa55-9701-47b7-98b2-edd01cd94b35)"><polygon points="50.28 11.68 50.75 11.21 50.75 11.68 50.28 11.68" fill="#f69453"/><polygon points="50.18 11.68 50.75 11.1 50.75 11.21 50.28 11.68 50.18 11.68" fill="#f69453"/><polygon points="50.07 11.68 50.75 11 50.75 11.1 50.18 11.68 50.07 11.68" fill="#f69352"/><polygon points="49.97 11.68 50.75 10.9 50.75 11 50.07 11.68 49.97 11.68" fill="#f69351"/><polygon points="49.87 11.68 50.75 10.8 50.75 10.9 49.97 11.68 49.87 11.68" fill="#f69251"/><polygon points="49.77 11.68 50.75 10.69 50.75 10.8 49.87 11.68 49.77 11.68" fill="#f69250"/><polygon points="49.66 11.68 50.75 10.59 50.75 10.69 49.77 11.68 49.66 11.68" fill="#f6914f"/><polygon points="49.56 11.68 50.75 10.49 50.75 10.59 49.66 11.68 49.56 11.68" fill="#f6914e"/><polygon points="49.46 11.68 50.75 10.39 50.75 10.49 49.56 11.68 49.46 11.68" fill="#f6904d"/><polygon points="49.43 11.61 50.68 10.36 50.75 10.36 50.75 10.39 49.46 11.68 49.43 11.68 49.43 11.61" fill="#f6904c"/><polygon points="49.43 11.5 50.58 10.36 50.68 10.36 49.43 11.61 49.43 11.5" fill="#f68f4c"/><polygon points="49.43 11.4 50.47 10.36 50.58 10.36 49.43 11.5 49.43 11.4" fill="#f68f4b"/><polygon points="49.43 11.3 50.37 10.36 50.47 10.36 49.43 11.4 49.43 11.3" fill="#f68e4a"/><polygon points="49.43 11.2 50.27 10.36 50.37 10.36 49.43 11.3 49.43 11.2" fill="#f68e49"/><polygon points="49.43 11.09 50.17 10.36 50.27 10.36 49.43 11.2 49.43 11.09" fill="#f68d48"/><polygon points="49.43 10.99 50.06 10.36 50.17 10.36 49.43 11.09 49.43 10.99" fill="#f68d47"/><polygon points="49.43 10.89 49.96 10.36 50.06 10.36 49.43 10.99 49.43 10.89" fill="#f68d47"/><polygon points="49.43 10.79 49.86 10.36 49.96 10.36 49.43 10.89 49.43 10.79" fill="#f68c46"/><polygon points="49.43 10.68 49.76 10.36 49.86 10.36 49.43 10.79 49.43 10.68" fill="#f68c45"/><polygon points="49.43 10.58 49.65 10.36 49.76 10.36 49.43 10.68 49.43 10.58" fill="#f68b44"/><polygon points="49.43 10.48 49.55 10.36 49.65 10.36 49.43 10.58 49.43 10.48" fill="#f58b43"/><polygon points="49.43 10.38 49.45 10.36 49.55 10.36 49.43 10.48 49.43 10.38" fill="#f58a42"/><polygon points="49.45 10.36 49.43 10.38 49.43 10.36 49.45 10.36" fill="#f58a42"/></g><g clip-path="url(#e0a86fc7-4f28-42d7-96ea-1d3141d8dfb3)"><polygon points="50.39 10.73 50.37 10.72 50.39 10.72 50.39 10.73" fill="#f58336"/><polygon points="50.39 10.75 50.35 10.72 50.37 10.72 50.39 10.73 50.39 10.75" fill="#f58335"/><polygon points="50.39 10.77 50.34 10.72 50.35 10.72 50.39 10.75 50.39 10.77" fill="#f48235"/><polygon points="50.39 10.79 50.31 10.72 50.34 10.72 50.39 10.77 50.39 10.79" fill="#f48234"/><polygon points="50.39 10.81 50.3 10.72 50.31 10.72 50.39 10.79 50.39 10.81" fill="#f48133"/><polygon points="50.39 10.83 50.28 10.72 50.3 10.72 50.39 10.81 50.39 10.83" fill="#f48132"/><polygon points="50.39 10.85 50.26 10.72 50.28 10.72 50.39 10.83 50.39 10.85" fill="#f48032"/><polygon points="50.39 10.87 50.24 10.72 50.26 10.72 50.39 10.85 50.39 10.87" fill="#f48031"/><polygon points="50.39 10.89 50.22 10.72 50.24 10.72 50.39 10.87 50.39 10.89" fill="#f47f30"/><polygon points="50.39 10.9 50.2 10.72 50.22 10.72 50.39 10.89 50.39 10.9" fill="#f47f2f"/><polygon points="50.39 10.93 50.18 10.72 50.2 10.72 50.39 10.9 50.39 10.93" fill="#f47e2e"/><polygon points="50.39 10.94 50.16 10.72 50.18 10.72 50.39 10.93 50.39 10.94" fill="#f47e2e"/><polygon points="50.39 10.96 50.14 10.72 50.16 10.72 50.39 10.94 50.39 10.96" fill="#f47d2d"/><polygon points="50.39 10.98 50.12 10.72 50.14 10.72 50.39 10.96 50.39 10.98" fill="#f47d2c"/><polygon points="50.39 11 50.1 10.72 50.12 10.72 50.39 10.98 50.39 11" fill="#f47c2b"/><polygon points="50.39 11.02 50.08 10.72 50.1 10.72 50.39 11 50.39 11.02" fill="#f47c2a"/><polygon points="50.39 11.04 50.06 10.72 50.08 10.72 50.39 11.02 50.39 11.04" fill="#f47c2a"/><polygon points="50.39 11.06 50.04 10.72 50.06 10.72 50.39 11.04 50.39 11.06" fill="#f47b29"/><polygon points="50.39 11.08 50.02 10.72 50.04 10.72 50.39 11.06 50.39 11.08" fill="#f47b28"/><polygon points="50.39 11.1 50.01 10.72 50.02 10.72 50.39 11.08 50.39 11.1" fill="#f37a27"/><polygon points="50.39 11.12 49.98 10.72 50.01 10.72 50.39 11.1 50.39 11.12" fill="#f37a27"/><polygon points="50.39 11.14 49.97 10.72 49.98 10.72 50.39 11.12 50.39 11.14" fill="#f37926"/><polygon points="50.39 11.16 49.95 10.72 49.97 10.72 50.39 11.14 50.39 11.16" fill="#f37925"/><polygon points="50.39 11.18 49.93 10.72 49.95 10.72 50.39 11.16 50.39 11.18" fill="#f37825"/><polygon points="50.39 11.2 49.91 10.72 49.93 10.72 50.39 11.18 50.39 11.2" fill="#f37824"/><polygon points="50.39 11.22 49.89 10.72 49.91 10.72 50.39 11.2 50.39 11.22" fill="#f37723"/><polygon points="50.39 11.24 49.87 10.72 49.89 10.72 50.39 11.22 50.39 11.24" fill="#f37723"/><polygon points="50.39 11.26 49.85 10.72 49.87 10.72 50.39 11.24 50.39 11.26" fill="#f37622"/><polygon points="50.39 11.27 49.83 10.72 49.85 10.72 50.39 11.26 50.39 11.27" fill="#f37622"/><polygon points="50.39 11.29 49.81 10.72 49.83 10.72 50.39 11.27 50.39 11.29" fill="#f37521"/><polygon points="50.39 11.31 49.79 10.72 49.81 10.72 50.39 11.29 50.39 11.31" fill="#f37521"/><polygon points="50.38 11.34 49.79 10.75 49.79 10.72 49.79 10.72 50.39 11.31 50.39 11.34 50.38 11.34" fill="#f37521"/><polygon points="50.34 11.34 49.79 10.79 49.79 10.75 50.38 11.34 50.34 11.34" fill="#f17421"/><polygon points="50.31 11.34 49.79 10.82 49.79 10.79 50.34 11.34 50.31 11.34" fill="#f07422"/><polygon points="50.28 11.34 49.79 10.85 49.79 10.82 50.31 11.34 50.28 11.34" fill="#ef7322"/><polygon points="50.24 11.34 49.79 10.89 49.79 10.85 50.28 11.34 50.24 11.34" fill="#ee7322"/><polygon points="50.21 11.34 49.79 10.92 49.79 10.89 50.24 11.34 50.21 11.34" fill="#ed7223"/><polygon points="50.18 11.34 49.79 10.95 49.79 10.92 50.21 11.34 50.18 11.34" fill="#ec7223"/><polygon points="50.14 11.34 49.79 10.99 49.79 10.95 50.18 11.34 50.14 11.34" fill="#eb7123"/><polygon points="50.11 11.34 49.79 11.02 49.79 10.99 50.14 11.34 50.11 11.34" fill="#ea7124"/><polygon points="50.07 11.34 49.79 11.05 49.79 11.02 50.11 11.34 50.07 11.34" fill="#ea7024"/><polygon points="50.04 11.34 49.79 11.09 49.79 11.05 50.07 11.34 50.04 11.34" fill="#e97024"/><polygon points="50.01 11.34 49.79 11.12 49.79 11.09 50.04 11.34 50.01 11.34" fill="#e86f24"/><polygon points="49.97 11.34 49.79 11.16 49.79 11.12 50.01 11.34 49.97 11.34" fill="#e76e25"/><polygon points="49.94 11.34 49.79 11.19 49.79 11.16 49.97 11.34 49.94 11.34" fill="#e76e25"/><polygon points="49.91 11.34 49.79 11.22 49.79 11.19 49.94 11.34 49.91 11.34" fill="#e66d25"/><polygon points="49.87 11.34 49.79 11.26 49.79 11.22 49.91 11.34 49.87 11.34" fill="#e56d25"/><polygon points="49.84 11.34 49.79 11.29 49.79 11.26 49.87 11.34 49.84 11.34" fill="#e46c25"/><polygon points="49.8 11.34 49.79 11.32 49.79 11.29 49.84 11.34 49.8 11.34" fill="#e36c26"/><polygon points="49.79 11.32 49.8 11.34 49.79 11.34 49.79 11.32" fill="#e36b26"/><polygon points="50.99 10.64 50.39 10.03 50.99 10.03 50.99 10.64" fill="#f69453"/><polygon points="50.99 10.66 50.37 10.03 50.39 10.03 50.99 10.64 50.99 10.66" fill="#f69453"/><polygon points="50.99 10.68 50.35 10.03 50.37 10.03 50.99 10.66 50.99 10.68" fill="#f69352"/><polygon points="50.99 10.7 50.33 10.03 50.35 10.03 50.99 10.68 50.99 10.7" fill="#f69351"/><polygon points="50.99 10.72 50.31 10.03 50.33 10.03 50.99 10.7 50.99 10.72" fill="#f69251"/><polygon points="50.99 10.74 50.29 10.03 50.31 10.03 50.99 10.72 50.99 10.74" fill="#f69250"/><polygon points="50.99 10.76 50.27 10.03 50.29 10.03 50.99 10.74 50.99 10.76" fill="#f6914f"/><polygon points="50.99 10.78 50.25 10.03 50.27 10.03 50.99 10.76 50.99 10.78" fill="#f6914e"/><polygon points="50.99 10.8 50.23 10.03 50.25 10.03 50.99 10.78 50.99 10.8" fill="#f6904d"/><polygon points="50.99 10.81 50.21 10.03 50.23 10.03 50.99 10.8 50.99 10.81" fill="#f6904c"/><polygon points="50.99 10.83 50.19 10.03 50.21 10.03 50.99 10.81 50.99 10.83" fill="#f68f4c"/><polygon points="50.99 10.85 50.17 10.03 50.19 10.03 50.99 10.83 50.99 10.85" fill="#f68f4b"/><polygon points="50.99 10.87 50.15 10.03 50.17 10.03 50.99 10.85 50.99 10.87" fill="#f68e4a"/><polygon points="50.99 10.89 50.13 10.03 50.15 10.03 50.99 10.87 50.99 10.89" fill="#f68e49"/><polygon points="50.99 10.91 50.12 10.03 50.13 10.03 50.99 10.89 50.99 10.91" fill="#f68d48"/><polygon points="50.99 10.93 50.09 10.03 50.12 10.03 50.99 10.91 50.99 10.93" fill="#f68d47"/><polygon points="50.99 10.95 50.08 10.03 50.09 10.03 50.99 10.93 50.99 10.95" fill="#f68d47"/><polygon points="50.99 10.97 50.06 10.03 50.08 10.03 50.99 10.95 50.99 10.97" fill="#f68c46"/><polygon points="50.99 10.99 50.04 10.03 50.06 10.03 50.99 10.97 50.99 10.99" fill="#f68c45"/><polygon points="50.99 11.01 50.02 10.03 50.04 10.03 50.99 10.99 50.99 11.01" fill="#f68b44"/><polygon points="50.99 11.03 50 10.03 50.02 10.03 50.99 11.01 50.99 11.03" fill="#f58b43"/><polygon points="50.99 11.05 49.98 10.03 50 10.03 50.99 11.03 50.99 11.05" fill="#f58a42"/><polygon points="50.99 11.07 49.96 10.03 49.98 10.03 50.99 11.05 50.99 11.07" fill="#f58a42"/><polygon points="50.99 11.09 49.94 10.03 49.96 10.03 50.99 11.07 50.99 11.09" fill="#f58941"/><polygon points="50.99 11.11 49.92 10.03 49.94 10.03 50.99 11.09 50.99 11.11" fill="#f58940"/><polygon points="50.99 11.13 49.9 10.03 49.92 10.03 50.99 11.11 50.99 11.13" fill="#f5883f"/><polygon points="50.99 11.14 49.88 10.03 49.9 10.03 50.99 11.13 50.99 11.14" fill="#f5883e"/><polygon points="50.99 11.16 49.86 10.03 49.88 10.03 50.99 11.14 50.99 11.16" fill="#f5873d"/><polygon points="50.99 11.18 49.84 10.03 49.86 10.03 50.99 11.16 50.99 11.18" fill="#f5873d"/><polygon points="50.99 11.2 49.82 10.03 49.84 10.03 50.99 11.18 50.99 11.2" fill="#f5863c"/><polygon points="50.99 11.22 49.8 10.03 49.82 10.03 50.99 11.2 50.99 11.22" fill="#f5863b"/><polygon points="50.99 11.24 49.78 10.03 49.8 10.03 50.99 11.22 50.99 11.24" fill="#f5853a"/><polygon points="50.99 11.26 49.77 10.03 49.78 10.03 50.99 11.24 50.99 11.26" fill="#f58539"/><polygon points="50.99 11.28 49.75 10.03 49.77 10.03 50.99 11.26 50.99 11.28" fill="#f58539"/><polygon points="50.99 11.3 49.73 10.03 49.75 10.03 50.99 11.28 50.99 11.3" fill="#f58438"/><polygon points="50.99 11.32 49.71 10.03 49.73 10.03 50.99 11.3 50.99 11.32" fill="#f58437"/><polygon points="50.99 11.34 49.69 10.03 49.71 10.03 50.99 11.32 50.99 11.34" fill="#f58336"/><polygon points="50.99 11.36 49.67 10.03 49.69 10.03 50.99 11.34 50.99 11.36" fill="#f58335"/><polygon points="50.99 11.38 49.65 10.03 49.67 10.03 50.99 11.36 50.99 11.38" fill="#f48235"/><polygon points="50.99 11.4 49.63 10.03 49.65 10.03 50.99 11.38 50.99 11.4" fill="#f48234"/><polygon points="50.99 11.42 49.61 10.03 49.63 10.03 50.99 11.4 50.99 11.42" fill="#f48133"/><polygon points="50.99 11.44 49.59 10.03 49.61 10.03 50.99 11.42 50.99 11.44" fill="#f48132"/><polygon points="50.99 11.46 49.57 10.03 49.59 10.03 50.99 11.44 50.99 11.46" fill="#f48032"/><polygon points="50.99 11.47 49.55 10.03 49.57 10.03 50.99 11.46 50.99 11.47" fill="#f48031"/><polygon points="50.99 11.49 49.53 10.03 49.55 10.03 50.99 11.47 50.99 11.49" fill="#f47f30"/><polygon points="50.99 11.51 49.51 10.03 49.53 10.03 50.99 11.49 50.99 11.51" fill="#f47f2f"/><polygon points="50.99 11.53 49.49 10.03 49.51 10.03 50.99 11.51 50.99 11.53" fill="#f47e2e"/><polygon points="50.99 11.55 49.47 10.03 49.49 10.03 50.99 11.53 50.99 11.55" fill="#f47e2e"/><polygon points="50.99 11.57 49.45 10.03 49.47 10.03 50.99 11.55 50.99 11.57" fill="#f47d2d"/><polygon points="50.99 11.59 49.44 10.03 49.45 10.03 50.99 11.57 50.99 11.59" fill="#f47d2c"/><polygon points="50.99 11.61 49.42 10.03 49.44 10.03 50.99 11.59 50.99 11.61" fill="#f47c2b"/><polygon points="50.99 11.63 49.4 10.03 49.42 10.03 50.99 11.61 50.99 11.63" fill="#f47c2a"/><polygon points="50.99 11.65 49.38 10.03 49.4 10.03 50.99 11.63 50.99 11.65" fill="#f47c2a"/><polygon points="50.99 11.67 49.36 10.03 49.38 10.03 50.99 11.65 50.99 11.67" fill="#f47b29"/><polygon points="50.99 11.69 49.34 10.03 49.36 10.03 50.99 11.67 50.99 11.69" fill="#f47b28"/><polygon points="50.99 11.71 49.32 10.03 49.34 10.03 50.99 11.69 50.99 11.71" fill="#f37a27"/><polygon points="50.99 11.73 49.3 10.03 49.32 10.03 50.99 11.71 50.99 11.73" fill="#f37a27"/><polygon points="50.99 11.75 49.28 10.03 49.3 10.03 50.99 11.73 50.99 11.75" fill="#f37926"/><polygon points="50.99 11.77 49.26 10.03 49.28 10.03 50.99 11.75 50.99 11.77" fill="#f37925"/><polygon points="50.99 11.79 49.24 10.03 49.26 10.03 50.99 11.77 50.99 11.79" fill="#f37825"/><polygon points="50.99 11.81 49.22 10.03 49.24 10.03 50.99 11.79 50.99 11.81" fill="#f37824"/><polygon points="50.99 11.82 49.2 10.03 49.22 10.03 50.99 11.81 50.99 11.82" fill="#f37723"/><polygon points="50.99 11.84 49.18 10.03 49.2 10.03 50.99 11.82 50.99 11.84" fill="#f37723"/><polygon points="50.99 11.86 49.18 10.05 49.18 10.03 49.18 10.03 50.99 11.84 50.99 11.86" fill="#f37622"/><polygon points="50.99 11.88 49.18 10.07 49.18 10.05 50.99 11.86 50.99 11.88" fill="#f37622"/><polygon points="50.99 11.9 49.18 10.09 49.18 10.07 50.99 11.88 50.99 11.9" fill="#f37521"/><polygon points="50.99 11.92 49.18 10.11 49.18 10.09 50.99 11.9 50.99 11.92" fill="#f37521"/><polygon points="50.96 11.92 49.18 10.14 49.18 10.11 50.99 11.92 50.96 11.92" fill="#f37521"/><polygon points="50.93 11.92 49.18 10.18 49.18 10.14 50.96 11.92 50.93 11.92" fill="#f17421"/><polygon points="50.89 11.92 49.18 10.21 49.18 10.18 50.93 11.92 50.89 11.92" fill="#f07422"/><polygon points="50.86 11.92 49.18 10.24 49.18 10.21 50.89 11.92 50.86 11.92" fill="#ef7322"/><polygon points="50.83 11.92 49.18 10.28 49.18 10.24 50.86 11.92 50.83 11.92" fill="#ee7322"/><polygon points="50.79 11.92 49.18 10.31 49.18 10.28 50.83 11.92 50.79 11.92" fill="#ed7223"/><polygon points="50.76 11.92 49.18 10.35 49.18 10.31 50.79 11.92 50.76 11.92" fill="#ec7223"/><polygon points="50.73 11.92 49.18 10.38 49.18 10.35 50.76 11.92 50.73 11.92" fill="#eb7123"/><polygon points="50.69 11.92 49.18 10.41 49.18 10.38 50.73 11.92 50.69 11.92" fill="#ea7124"/><polygon points="50.66 11.92 49.18 10.45 49.18 10.41 50.69 11.92 50.66 11.92" fill="#ea7024"/><polygon points="50.62 11.92 49.18 10.48 49.18 10.45 50.66 11.92 50.62 11.92" fill="#e97024"/><polygon points="50.59 11.92 49.18 10.51 49.18 10.48 50.62 11.92 50.59 11.92" fill="#e86f24"/><polygon points="50.56 11.92 49.18 10.55 49.18 10.51 50.59 11.92 50.56 11.92" fill="#e76e25"/><polygon points="50.52 11.92 49.18 10.58 49.18 10.55 50.56 11.92 50.52 11.92" fill="#e76e25"/><polygon points="50.49 11.92 49.18 10.62 49.18 10.58 50.52 11.92 50.49 11.92" fill="#e66d25"/><polygon points="50.45 11.92 49.18 10.65 49.18 10.62 50.49 11.92 50.45 11.92" fill="#e56d25"/><polygon points="50.42 11.92 49.18 10.68 49.18 10.65 50.45 11.92 50.42 11.92" fill="#e46c25"/><polygon points="50.39 11.92 49.18 10.72 49.18 10.68 50.42 11.92 50.39 11.92" fill="#e36c26"/><polygon points="50.35 11.92 49.18 10.75 49.18 10.72 50.39 11.92 50.35 11.92" fill="#e36b26"/><polygon points="50.32 11.92 49.18 10.78 49.18 10.75 50.35 11.92 50.32 11.92" fill="#e26b26"/><polygon points="50.29 11.92 49.18 10.82 49.18 10.78 50.32 11.92 50.29 11.92" fill="#e16a26"/><polygon points="50.25 11.92 49.18 10.85 49.18 10.82 50.29 11.92 50.25 11.92" fill="#e06a27"/><polygon points="50.22 11.92 49.18 10.88 49.18 10.85 50.25 11.92 50.22 11.92" fill="#e06927"/><polygon points="50.19 11.92 49.18 10.92 49.18 10.88 50.22 11.92 50.19 11.92" fill="#df6927"/><polygon points="50.15 11.92 49.18 10.95 49.18 10.92 50.19 11.92 50.15 11.92" fill="#de6827"/><polygon points="50.12 11.92 49.18 10.99 49.18 10.95 50.15 11.92 50.12 11.92" fill="#dd6827"/><polygon points="50.08 11.92 49.18 11.02 49.18 10.99 50.12 11.92 50.08 11.92" fill="#dd6728"/><polygon points="50.05 11.92 49.18 11.05 49.18 11.02 50.08 11.92 50.05 11.92" fill="#dc6728"/><polygon points="50.02 11.92 49.18 11.09 49.18 11.05 50.05 11.92 50.02 11.92" fill="#db6628"/><polygon points="49.98 11.92 49.18 11.12 49.18 11.09 50.02 11.92 49.98 11.92" fill="#da6628"/><polygon points="49.95 11.92 49.18 11.15 49.18 11.12 49.98 11.92 49.95 11.92" fill="#d96529"/><polygon points="49.91 11.92 49.18 11.19 49.18 11.15 49.95 11.92 49.91 11.92" fill="#d96529"/><polygon points="49.88 11.92 49.18 11.22 49.18 11.19 49.91 11.92 49.88 11.92" fill="#d86429"/><polygon points="49.85 11.92 49.18 11.26 49.18 11.22 49.88 11.92 49.85 11.92" fill="#d76429"/><polygon points="49.81 11.92 49.18 11.29 49.18 11.26 49.85 11.92 49.81 11.92" fill="#d66329"/><polygon points="49.78 11.92 49.18 11.32 49.18 11.29 49.81 11.92 49.78 11.92" fill="#d6632a"/><polygon points="49.75 11.92 49.18 11.36 49.18 11.32 49.78 11.92 49.75 11.92" fill="#d5622a"/><polygon points="49.71 11.92 49.18 11.39 49.18 11.36 49.75 11.92 49.71 11.92" fill="#d4622a"/><polygon points="49.18 11.39 49.71 11.92 49.18 11.92 49.18 11.39" fill="#d4622a"/></g><path d="M49.64,19a8.5,8.5,0,1,1,8.5-8.5A8.51,8.51,0,0,1,49.64,19Zm0-15.75a7.25,7.25,0,1,0,7.24,7.25A7.26,7.26,0,0,0,49.64,3.28Z" fill="#ef8c23"/></svg>