<svg id="a3d30d5d-4630-4c21-a507-0d4023aa33a3" data-name="Layer 1" xmlns="http://www.w3.org/2000/svg" width="100" height="100" viewBox="0 0 100 100"><title>icons</title><rect x="39.04" y="6.37" width="18.26" height="1.97" rx="0.98" fill="#2c3439"/><path d="M56.32,8.72H40A1.37,1.37,0,0,1,40,6H56.32a1.37,1.37,0,0,1,0,2.74ZM40,6.76a.59.59,0,0,0-.6.59A.6.6,0,0,0,40,8H56.32a.6.6,0,0,0,.6-.6.59.59,0,0,0-.6-.59Z" fill="#2c3439"/><circle cx="59.96" cy="7.41" r="1.04" fill="#2c3439"/><path d="M60,8.79a1.39,1.39,0,1,1,1.38-1.38A1.38,1.38,0,0,1,60,8.79Zm0-2.08a.7.7,0,1,0,.69.7A.69.69,0,0,0,60,6.71Z" fill="#2c3439"/><path d="M80.48,0h-61a5.84,5.84,0,0,0-5.83,5.83v88.3A5.84,5.84,0,0,0,19.52,100h61a5.84,5.84,0,0,0,5.83-5.83V5.85A5.84,5.84,0,0,0,80.48,0Zm3.33,5.83v88.3a3.34,3.34,0,0,1-3.33,3.33h-61a3.34,3.34,0,0,1-3.33-3.33V5.85a3.34,3.34,0,0,1,3.33-3.33h61A3.34,3.34,0,0,1,83.81,5.85Z" fill="#2c3439"/><circle cx="50" cy="90.6" r="3.56" fill="#2c3439"/><path d="M90,24.3a11.52,11.52,0,0,0-.72-3.57,7.19,7.19,0,0,0-4.75-4.41,12.34,12.34,0,0,0-2.56-.5l-.29,0c-.05,0-.13,0-.17,0A11.41,11.41,0,0,0,85.22,15a7.16,7.16,0,0,0,4.34-4.67,12.15,12.15,0,0,0,.53-2.67l0-.34h0a11.12,11.12,0,0,0,.88,4,7.1,7.1,0,0,0,4.24,3.88,10.56,10.56,0,0,0,2.47.58,8.4,8.4,0,0,0,.85.08s0,0,.05,0l-.05,0a10.75,10.75,0,0,0-4.32,1,7.1,7.1,0,0,0-3.58,4,10.56,10.56,0,0,0-.6,2.54L90,24.3A0,0,0,0,1,90,24.3Z" fill="#ef8c23"/><path d="M87.47,10.75A5.75,5.75,0,0,0,87,8.48,4,4,0,0,0,84.31,6.3a6.69,6.69,0,0,0-1.42-.24c0-.06.06,0,.08,0a5.72,5.72,0,0,0,2.23-.55,4,4,0,0,0,2.09-2.53,6.13,6.13,0,0,0,.26-1.53c.07,0,0,.06,0,.08a5.6,5.6,0,0,0,.62,2.41,4,4,0,0,0,2.62,2,6,6,0,0,0,1.27.22s.07,0,.07,0a6,6,0,0,0-2.13.47A4,4,0,0,0,87.79,9.2a5.76,5.76,0,0,0-.27,1.49S87.53,10.76,87.47,10.75Z" fill="#ef8c23"/><path d="M93.5,10.45a1.81,1.81,0,0,0-.4-1,1.74,1.74,0,0,0-1.24-.57s0,0,0-.05a1.64,1.64,0,0,0,1.65-1.62s0,0,0,0a1.65,1.65,0,0,0,1.59,1.67s0,0,0,0a1.68,1.68,0,0,0-1.64,1.62C93.48,10.53,93.53,10.47,93.5,10.45Z" fill="#ef8c23"/><path d="M97.15,11.34c-.45.08-.58.2-.82.8a.86.86,0,0,0-.82-.81.87.87,0,0,0,.84-.82A.87.87,0,0,0,97.15,11.34Z" fill="#ef8c23"/><path d="M87.47,10.75s0,0,0-.06a.39.39,0,0,1,0,.24C87.44,10.87,87.51,10.8,87.47,10.75Z" fill="#ef8c23"/><path d="M81.48,15.75s.12,0,.17,0a.65.65,0,0,1-.24,0s0,0,0,0Z" fill="#ef8c23"/><path d="M93.55,10.57a.33.33,0,0,1,0,.14.18.18,0,0,1,0-.17A.06.06,0,0,1,93.55,10.57Z" fill="#ef8c23"/><path d="M98.75,15.91a.46.46,0,0,1,.17,0,.23.23,0,0,1-.17,0v0Z" fill="#ef8c23"/><path d="M93.58,7.19l0,0a.17.17,0,0,1,0-.16A.33.33,0,0,1,93.58,7.19Z" fill="#ef8c23"/><path d="M82.8,6.06h-.11a.18.18,0,0,1,.18,0C82.87,6.07,82.82,6,82.8,6.06Z" fill="#ef8c23"/><path d="M90.16,7.33h0V7.21a0,0,0,0,1,0,0Z" fill="#ef8c23"/><path d="M87.6,1.49s0-.07,0-.08,0-.06,0-.1,0,0,0,0Z" fill="#ef8c23"/><path d="M82.8,6.06l.07,0H83l-.08,0Z" fill="#ef8c23"/><path d="M90.16,7.21h0v-.1a0,0,0,0,1,0,0Z" fill="#ef8c23"/><path d="M95.19,8.9l0,0h.1s0,0,0,.05Z" fill="#ef8c23"/><path d="M90.16,7.11h0s0-.08,0-.08S90.16,7.08,90.16,7.11Z" fill="#ef8c23"/><path d="M90,24.38s0,.07,0,.1h0s0-.07,0-.1S90,24.37,90,24.38Z" fill="#ef8c23"/><path d="M87.6,1.31h0s0-.06,0-.11S87.6,1.27,87.6,1.31Z" fill="#ef8c23"/><path d="M95.29,8.91l0-.05s.08,0,.09,0S95.32,8.91,95.29,8.91Z" fill="#ef8c23"/><path d="M98.75,15.91v0H98.6l.05,0S98.72,15.93,98.75,15.91Z" fill="#ef8c23"/><path d="M92.28,6.1h.07s.05,0,0,0h0S92.27,6.14,92.28,6.1Z" fill="#ef8c23"/><path d="M92.18,6.14l-.07,0h.1s.06,0,.05,0Z" fill="#ef8c23"/><path d="M90,24.48c.05,0,0,.06,0,.1a0,0,0,0,1,0,0,.12.12,0,0,1,0-.1Z" fill="#ef8c23"/><path d="M93.55,10.57s0,0,0,0v-.09l0,.07Z" fill="#ef8c23"/><path d="M91.78,8.88s-.06,0,0,0,0,0,.08,0S91.8,8.86,91.78,8.88Z" fill="#ef8c23"/><path d="M90,24.38h0V24.3h0Z" fill="#ef8c23"/><path d="M81.4,15.75v0a.11.11,0,0,1-.12,0Z" fill="#ef8c23"/><path d="M91.78,8.88l0-.05h.07l0,.05Z" fill="#ef8c23"/><path d="M90,24.58h0s0,.06,0,.06S90,24.6,90,24.58Z" fill="#ef8c23"/><path d="M92.26,6.14l-.05,0h.07l0,0Z" fill="#ef8c23"/><path d="M10.16,99.12a11.81,11.81,0,0,0-.72-3.57,7.21,7.21,0,0,0-4.75-4.41,12.47,12.47,0,0,0-2.56-.5l-.29,0c-.05,0-.13,0-.17,0a11.61,11.61,0,0,0,3.73-.73,7.22,7.22,0,0,0,4.35-4.68,11.58,11.58,0,0,0,.52-2.67l0-.34a0,0,0,0,1,0,0,11.12,11.12,0,0,0,.88,4,7.08,7.08,0,0,0,4.24,3.89,10.94,10.94,0,0,0,2.47.57,7.89,7.89,0,0,0,.85.08s0,0,.05,0,0,0-.06,0a10.87,10.87,0,0,0-4.31,1,7.07,7.07,0,0,0-3.58,4,11.07,11.07,0,0,0-.61,2.54c0,.26,0,.53-.08.79C10.18,99.14,10.17,99.14,10.16,99.12Z" fill="#ef8c23"/><path d="M7.66,85.57a5.75,5.75,0,0,0-.52-2.27A4,4,0,0,0,4.5,81.13a6.32,6.32,0,0,0-1.42-.25c0-.06.06,0,.08,0a5.81,5.81,0,0,0,2.23-.55,4,4,0,0,0,2.08-2.53,6.65,6.65,0,0,0,.27-1.52c.07,0,0,.06,0,.07a5.61,5.61,0,0,0,.63,2.41,4,4,0,0,0,2.61,2,6.14,6.14,0,0,0,1.27.22s.08,0,.08,0a6,6,0,0,0-2.14.47A4,4,0,0,0,8,84a5.85,5.85,0,0,0-.28,1.5S7.71,85.58,7.66,85.57Z" fill="#ef8c23"/><path d="M13.69,85.27a1.82,1.82,0,0,0-.41-1,1.7,1.7,0,0,0-1.23-.57s0,0,0,0A1.65,1.65,0,0,0,13.72,82s0,0,0,0a1.66,1.66,0,0,0,1.6,1.67s0,0,0,0a1.67,1.67,0,0,0-1.65,1.62C13.67,85.35,13.72,85.29,13.69,85.27Z" fill="#ef8c23"/><path d="M17.34,86.16c-.45.08-.58.2-.82.8a.86.86,0,0,0-.82-.81.88.88,0,0,0,.84-.82A.86.86,0,0,0,17.34,86.16Z" fill="#ef8c23"/><path d="M7.66,85.57s0,0,0,0a.31.31,0,0,1,0,.23C7.62,85.69,7.7,85.63,7.66,85.57Z" fill="#ef8c23"/><path d="M1.67,90.57c.05,0,.12,0,.17,0a1,1,0,0,1-.24,0s0,0,0,0Z" fill="#ef8c23"/><path d="M13.73,85.39a.17.17,0,0,1,0,.14.16.16,0,0,1,0-.16S13.72,85.38,13.73,85.39Z" fill="#ef8c23"/><path d="M18.94,90.74a.29.29,0,0,1,.16,0,.17.17,0,0,1-.16,0s0,0,0,0Z" fill="#ef8c23"/><path d="M13.76,82l0,0a.19.19,0,0,1,0-.16S13.76,82,13.76,82Z" fill="#ef8c23"/><path d="M3,80.88h-.1a.18.18,0,0,1,.18,0C3.06,80.9,3,80.86,3,80.88Z" fill="#ef8c23"/><path d="M10.35,82.15h0V82s0,0,0,0Z" fill="#ef8c23"/><path d="M7.78,76.31s0-.06,0-.07,0-.07,0-.11h0Z" fill="#ef8c23"/><path d="M3,80.88l.08,0h.1l-.08,0Z" fill="#ef8c23"/><path d="M10.35,82h0v-.1s0,0,0,0Z" fill="#ef8c23"/><path d="M15.38,83.73l0,0h.1s0,0,0,0Z" fill="#ef8c23"/><path d="M10.35,81.93h0s0-.08,0-.08S10.35,81.9,10.35,81.93Z" fill="#ef8c23"/><path d="M10.2,99.2a.12.12,0,0,1,0,.1h0s0-.07,0-.1S10.18,99.19,10.2,99.2Z" fill="#ef8c23"/><path d="M7.79,76.13h0s0-.06,0-.11S7.79,76.09,7.79,76.13Z" fill="#ef8c23"/><path d="M15.48,83.73l0,0s.08,0,.08,0S15.5,83.73,15.48,83.73Z" fill="#ef8c23"/><path d="M18.94,90.74v0h-.16l.06,0S18.91,90.75,18.94,90.74Z" fill="#ef8c23"/><path d="M12.47,80.92h.07s0,0,0,0,0,0-.06,0S12.46,81,12.47,80.92Z" fill="#ef8c23"/><path d="M12.37,81l-.08,0h.1s.06,0,0,0Z" fill="#ef8c23"/><path d="M10.17,99.3c.05,0,0,.07,0,.1s0,0,0,0a.12.12,0,0,1,0-.1Z" fill="#ef8c23"/><path d="M13.73,85.39s0,0,0,0v-.1l0,.08Z" fill="#ef8c23"/><path d="M12,83.7s-.06,0-.06,0,.05,0,.09,0A.06.06,0,0,1,12,83.7Z" fill="#ef8c23"/><path d="M10.2,99.2h0v-.08h0Z" fill="#ef8c23"/><path d="M1.59,90.57v0a.17.17,0,0,1-.13,0Z" fill="#ef8c23"/><path d="M12,83.7l0,0h.07l0,0Z" fill="#ef8c23"/><path d="M10.15,99.4h0s0,.07,0,.06S10.15,99.42,10.15,99.4Z" fill="#ef8c23"/><path d="M12.44,81l0,0h.08l0,0Z" fill="#ef8c23"/></svg>