<svg id="ab7031f6-bac1-4082-b4dc-ed6417286728" data-name="Layer 1" xmlns="http://www.w3.org/2000/svg" width="100" height="100" viewBox="0 0 100 100"><title>icons</title><path d="M60.28,45.57l.76.27c.29.11.52.26.81.36a2.23,2.23,0,0,1,.45.18s.06.06.11.09l.18.06c.25.09.44.23.69.32a1.13,1.13,0,0,1,.24.08s0,.07.08.11.13,0,.18.06a.46.46,0,0,1,.16.11,4.93,4.93,0,0,0,.76.28c.15.06.24.16.39.21l.42.15.7.25,1.47.53a4.35,4.35,0,0,0,.76.28,2.53,2.53,0,0,1,.38.07,1.18,1.18,0,0,0,.35.11c0-.11-.2-.1-.27-.15s0-.07-.09-.1a.64.64,0,0,0-.18-.06,5.08,5.08,0,0,0-.71-.26,2.41,2.41,0,0,1-.37-.07l-.36-.12a3.27,3.27,0,0,1-.69-.3,5.42,5.42,0,0,0-.81-.37,3.51,3.51,0,0,0-.55-.27,3.47,3.47,0,0,1-.55-.26c-.1-.05-.2-.06-.3-.11s-.17-.13-.28-.18-.41-.2-.63-.29a1.43,1.43,0,0,1-.27-.15c-.13-.07-.27-.09-.4-.15a3.79,3.79,0,0,1-.34-.2c-.13-.06-.27-.09-.4-.14l-5.65-2c-.34-.13-.69-.18-1-.31l-1.11-.4-1-.38a1.72,1.72,0,0,1-.49-.19,1.46,1.46,0,0,0-.33-.17c.12.08-.12.22-.11.35l0,.12,0,0,0,0s0,0,0,.06l0,0,0,.06,0,0a1.48,1.48,0,0,0,0,.19.58.58,0,0,0,.14.24v0a1.06,1.06,0,0,0,.06.19,1.28,1.28,0,0,0-.1-.17c0,.08.08.16.12.22s0,0,0,0a.41.41,0,0,0,0,.08c.06.12.11.26.16.39s.07.21.12.33a2.45,2.45,0,0,0,.22.5l0,.09s0,0,0,.06l0,.05a.28.28,0,0,0,0,.09l.07.08,0,.06a6.12,6.12,0,0,0,.31.56c.09.14.16.29.24.43a1.77,1.77,0,0,1,.12.17s0,.12.07.16a.75.75,0,0,1,.07.12.78.78,0,0,0,0,.14,2.61,2.61,0,0,0,.06.27,5,5,0,0,0,.31.61,2.3,2.3,0,0,0,.21.33,1.38,1.38,0,0,1,.24.3,2.55,2.55,0,0,0,.26.38,2.5,2.5,0,0,0,.21.35l.41.45.43.51.27.34c-.32-.49-.64-1-.94-1.46,0,0,0,0,0,0l.15.15a2.73,2.73,0,0,1,.23.25l-.15-.18a3.61,3.61,0,0,0-.25-.3.15.15,0,0,0-.07,0l-.09-.14s0-.07,0-.11a.8.8,0,0,0-.08-.16l-.06-.16s0-.07-.06-.12a1.54,1.54,0,0,0-.08-.19L55,48c-.08-.13-.14-.26-.22-.38-.18-.3-.31-.63-.51-.91a5.33,5.33,0,0,1-.31-.51.8.8,0,0,0-.08-.16l-.09-.13a1.49,1.49,0,0,1-.15-.2c-.09-.17-.14-.34-.22-.51s-.18-.32-.27-.49-.28-.53-.41-.8l0,0a6.75,6.75,0,0,1,.57.63,3.85,3.85,0,0,0,.73.59c.06.09.13.18.19.28a2.2,2.2,0,0,1,.17.25,2.75,2.75,0,0,0,.14.3,4.76,4.76,0,0,1,.31.47c.12.18.21.39.34.56a1.07,1.07,0,0,1,.15.22c0,.1.11.18.15.27a2.53,2.53,0,0,0,.12.23,2,2,0,0,1,.09.26c.05.12.13.21.19.33a2.06,2.06,0,0,0,.17.33,3,3,0,0,1,.15.32,1.42,1.42,0,0,1,.08.18l.07.16a2,2,0,0,1,.23.58,1.9,1.9,0,0,0-.14-.4c0-.12-.09-.23-.12-.36s-.06-.22-.08-.32a1.93,1.93,0,0,0-.11-.34c-.08-.23-.23-.43-.33-.65s-.29-.47-.42-.71-.3-.49-.43-.75a3.9,3.9,0,0,0-.36-.74l-.08-.09a4.87,4.87,0,0,1,.5.4,7.52,7.52,0,0,0,.67.72c.26.22.5.45.73.68a2.69,2.69,0,0,0,.37.3,2.26,2.26,0,0,0,.22.11c.06,0,.06.12.17.1s-.18-.17-.25-.22a2.65,2.65,0,0,1-.34-.33c-.21-.19-.46-.35-.67-.55s-.42-.38-.6-.6-.3-.44-.48-.64-.43-.43-.63-.66a5.52,5.52,0,0,0-.63-.65c-.13-.11-.21-.24-.34-.34l-.38-.29-.27-.34a.3.3,0,0,0-.08-.08h0s.06.06.12.09l.12,0a2.46,2.46,0,0,0,.27.17,2.46,2.46,0,0,1,.27.17s.11,0,.16.06a.09.09,0,0,0,.05.08,1.34,1.34,0,0,1,.18.07.22.22,0,0,0,.1.09s.13,0,.18.06a.09.09,0,0,1,0,.08c.09.05.2.05.28.11s.1.1.21.14a2.4,2.4,0,0,1,.55.34c.35.23.73.43,1.08.66s.52.3.77.46.51.33.77.49l.17,0a.28.28,0,0,1,.1.09s.11,0,.17.07.09.1.15.13l.18.07c.21.15.44.25.65.41s.47.28.7.45.22.14.32.21.24.22.36.32.45.3.68.45.37.33.58.46.13.14.21.2a2,2,0,0,0,.21.1,2.43,2.43,0,0,1,.32.24,2.4,2.4,0,0,0,.27.16,2.39,2.39,0,0,1,.26.21,5.17,5.17,0,0,0,.69.46.67.67,0,0,1,.15.14c.07.07.13.07.21.12l.33.24c.4.3.75.59,1.16.85a5.93,5.93,0,0,1,.62.47c.17.14.33.32.5.44,0-.06-.14-.19-.19-.24s-.14-.17-.22-.25a7.72,7.72,0,0,0-.61-.53c-.2-.17-.42-.32-.62-.49s-.42-.39-.65-.55c-.6-.42-1.15-.91-1.72-1.35s-1.16-1-1.77-1.43-1.53-1-2.29-1.53c-.4-.27-.85-.47-1.27-.72l-1.15-.68c-.4-.23-.79-.47-1.19-.69s-.75-.38-1.12-.59c-.18-.1-.38-.17-.57-.27l.17.06,1.29.47,1.29.46.18.07c.06,0,.08,0,.14,0a1.15,1.15,0,0,1,.29.11l.65.23c.27.09.52.12.78.22l.36.12a1,1,0,0,0,.18.07s.07,0,.13,0a3.25,3.25,0,0,1,.77.28Zm-6.25,1a2.25,2.25,0,0,1,.12.21l.06.12,0,.06c0-.09-.1-.16-.15-.24s-.07-.17-.11-.25Zm-1.21-3h0l-.42-.35,0,0a.2.2,0,0,0,0-.07h0l.06.06Z" fill="#ef8c23"/><path d="M52.08,42.89l-.33-.46a8.93,8.93,0,0,1,.35.85,3.52,3.52,0,0,0,.15.42,2.15,2.15,0,0,1,.14.26,1.65,1.65,0,0,1,.16.42c0-.08,0-.17,0-.25s-.08-.24-.1-.36a.69.69,0,0,0,0-.24c0-.09,0-.19-.07-.28s0-.12,0-.15l-.15-.2.16.13v0A.54.54,0,0,0,52.08,42.89Z" fill="#ef8c23"/><path d="M52.67,44.86c0,.11,0,.23,0,.34s.1.26.13.41.1.52.15.79l.09.43c0,.1,0,.21.07.31s.08.2.12.31a5,5,0,0,1,.14.52c.06.22.13.44.2.67.12.43.25.86.4,1.29.05.17.14.31.2.47s.1.3.16.44.21.36.27.55a3.48,3.48,0,0,0,.2.38c.09.19.19.36.27.56s.15.32.22.48a2.86,2.86,0,0,1,.15.41l.06.1a.94.94,0,0,0,.06.15c0,.07,0,.14.08.22a1.18,1.18,0,0,0,.12.33c0-.07,0-.1,0-.16a1.47,1.47,0,0,1-.05-.29c0-.13-.08-.24-.11-.36s0-.28-.08-.42a3.38,3.38,0,0,0-.08-.34,2.24,2.24,0,0,0-.11-.34c0-.11-.07-.23-.11-.34a1.67,1.67,0,0,0-.08-.32,2.35,2.35,0,0,0-.14-.37,3.62,3.62,0,0,1-.2-.33,4,4,0,0,1-.4-.76.81.81,0,0,0-.1-.21c0-.05,0-.12-.07-.18a3.62,3.62,0,0,1-.13-.35c-.06-.15-.14-.29-.21-.44l0-.14c0-.05,0-.09-.07-.14a2.63,2.63,0,0,1-.15-.35,1.89,1.89,0,0,1-.08-.4l.1.14a1.69,1.69,0,0,1,.19.32l.13.2a4.44,4.44,0,0,0,.24.49,1.87,1.87,0,0,1,.24.38,10.2,10.2,0,0,0,.54.9c.18.27.28.6.45.88a5,5,0,0,1,.25.52c0,.08.09.13.12.21a1.53,1.53,0,0,0,.11.27,1,1,0,0,0,.1.17s.07.06.09.1a1.6,1.6,0,0,1,.1.23l.22.45.16.29.11.2a.57.57,0,0,0,.12.18.67.67,0,0,1,.11.18,2.67,2.67,0,0,0,.25.51,2.37,2.37,0,0,1,.17.36,2.4,2.4,0,0,1,.25.37,1,1,0,0,0,.09.18c0,.07,0,.14.08.2a1.48,1.48,0,0,0,.13.21c.05.09.06.19.1.27s.11.16.14.25a.6.6,0,0,0,.08.2L58,55.75c0-.06-.08-.11-.11-.17a1,1,0,0,1-.07-.18,3.93,3.93,0,0,0-.18-.43c-.4-.8-.77-1.62-1.22-2.4-.09-.16-.2-.31-.28-.47a1.21,1.21,0,0,0-.09-.2l-.13-.15a2.64,2.64,0,0,1-.25-.47,3.84,3.84,0,0,0-.22-.39A10.46,10.46,0,0,1,55,50c-.17-.34-.35-.67-.53-1s-.3-.56-.46-.84-.26-.49-.4-.74-.21-.4-.32-.6l-.07-.13a1.94,1.94,0,0,1-.07-.33c0-.11,0-.21,0-.32a1.66,1.66,0,0,0-.1-.29,2.23,2.23,0,0,1-.13-.44c0-.15-.08-.28-.12-.42s-.13-.27-.16-.42v0a.44.44,0,0,1,0,.1C52.59,44.61,52.64,44.73,52.67,44.86Z" fill="#ef8c23"/><path d="M58.61,53.5c.12.15.17.32.3.47a7.58,7.58,0,0,1,.6.88c.17.26.37.49.53.75a7.12,7.12,0,0,0,.6.84c.15.19.27.41.41.61s.27.38.39.58.27.44.42.64l.09.14h-.09c-.09,0-.19,0-.29,0s-.29,0-.43.09l-.16.06a1.09,1.09,0,0,1-.17,0c-.11,0-.23,0-.35.06a2.12,2.12,0,0,0-.11-.21.42.42,0,0,1,0,.1.54.54,0,0,1,0,.11l-.38.07-.18,0h-.34s0,0-.08,0,0,0-.07,0-.08,0-.12,0a.33.33,0,0,0-.1,0l-.16,0h-.33a2.83,2.83,0,0,0-.4.08l-.39.08c-.25.05-.49.15-.74.21s-.29.05-.42.1a3.59,3.59,0,0,0-.34.17c-.13,0-.27.1-.39.16l-.1,0s0,0-.07,0l.14,0a3.66,3.66,0,0,1,.44-.13c.25-.06.51-.08.76-.16a4.73,4.73,0,0,1,.85-.16c.26,0,.53,0,.78,0l.45,0c.12,0,.22,0,.34,0L60,59a1.08,1.08,0,0,0,.31,0l.22-.05,0,0,0,0,.21,0a5.81,5.81,0,0,0,.58-.09l.55-.14.17,0,.28.45.19.27s.08.13.12.14c-.07-.2-.15-.39-.24-.59s-.13-.21-.19-.32a.68.68,0,0,1,.2-.07l.13-.11-.2,0h-.21l-.06-.09a5.07,5.07,0,0,0-.29-.57c-.07-.11-.16-.21-.23-.32a2.18,2.18,0,0,0-.22-.31,3.45,3.45,0,0,1-.38-.56,1.86,1.86,0,0,0-.23-.32,2.39,2.39,0,0,1-.21-.34c-.09-.14-.19-.27-.29-.4L60,55.15c-.18-.25-.35-.5-.52-.76a4.47,4.47,0,0,0-.32-.41l-.2-.27c-.07-.08-.15-.15-.21-.23a6,6,0,0,0-.6-.73l.2.34C58.44,53.22,58.52,53.37,58.61,53.5Z" fill="#ef8c23"/><path d="M57.9,52.46a3.47,3.47,0,0,0,.25.29c-.09-.14-.17-.28-.26-.41a2.26,2.26,0,0,0-.16-.26c-.07-.09-.15-.16-.22-.24s-.12-.13-.17-.2a2.61,2.61,0,0,0-.19-.27l-.21-.24L56.83,51a1.3,1.3,0,0,0-.1-.15l-.19-.23c.22.33.41.67.65,1S57.67,52.18,57.9,52.46Z" fill="#ef8c23"/><path d="M56,49.61h0l0,0Z" fill="#ef8c23"/><path d="M56.67,50.57a1.92,1.92,0,0,0,.17.26c.06.07.13.13.19.21s.23.33.36.48.2.35.33.49.13.21.2.3.15.18.22.28a6.26,6.26,0,0,0,.45.57c.19.22.33.46.53.67l.31.33.35.32a5.35,5.35,0,0,1,.58.68c.09.1.18.19.26.29s.21.24.31.37a8.42,8.42,0,0,0,.64.7,5.13,5.13,0,0,1,.56.76c.09.13.16.27.25.4l.35.44c.1.12.23.23.33.36a1,1,0,0,0,.27.32.61.61,0,0,0-.11-.21,2,2,0,0,0-.13-.18.94.94,0,0,1-.09-.12s0-.11-.08-.16c-.17-.26-.36-.49-.53-.76-.06-.09-.11-.18-.17-.26s-.15-.16-.22-.24-.31-.44-.49-.65a12.68,12.68,0,0,1-1.07-1.35c-.06-.09-.15-.16-.22-.25l-.16-.18a4,4,0,0,1-.28-.3l-.62-.69c-.22-.26-.42-.54-.65-.79s-.22-.27-.34-.39-.2-.29-.33-.42-.44-.56-.67-.84-.45-.55-.67-.83L56,49.62c.11.15.22.3.32.46Z" fill="#ef8c23"/><path d="M60.56,58.94h0s0,.07,0,.1S60.58,59,60.56,58.94Z" fill="#ef8c23"/><path d="M60.2,58a5.77,5.77,0,0,0-.22-.58,1.28,1.28,0,0,1-.11-.27c0-.11-.11-.21-.15-.32s-.07-.18-.1-.27a2.44,2.44,0,0,0-.14-.28c0-.07-.07-.16-.11-.24s-.11-.18-.16-.28a2,2,0,0,0-.16-.29c0-.09-.07-.19-.13-.28a2.2,2.2,0,0,0-.15-.26l-.1-.1s-.05-.11-.08-.16-.24-.36-.35-.55a2.19,2.19,0,0,0-.16-.3c-.06-.09-.11-.19-.17-.29a6.53,6.53,0,0,0-.35-.56c-.07-.09-.15-.18-.22-.28l-.2-.3c-.07-.1-.15-.18-.21-.28s-.11-.19-.17-.29-.15-.24-.23-.35l-.05-.06c.09.16.17.32.27.47.19.32.36.66.54,1s.33.64.51,1l.25.42c.08.14.18.26.26.39.18.32.38.63.54.95s.26.47.37.72.2.37.29.56.13.26.19.4.17.28.25.42.08.11.11.17l.09.2c.06.13.12.26.19.39v0l-.06-.17C60.25,58.24,60.24,58.14,60.2,58Z" fill="#ef8c23"/><path d="M56.31,51.16l0,0a0,0,0,0,1,0,0Z" fill="#ef8c23"/><path d="M56.42,51.37a.24.24,0,0,0,.06.08l-.14-.25A.89.89,0,0,0,56.42,51.37Z" fill="#ef8c23"/><path d="M56,50.65c-.09-.12-.18-.25-.26-.38s-.31-.49-.47-.73l-.15-.22,0,.07.09.14a2.91,2.91,0,0,1,.25.42l.43.65c.07.1.12.2.19.3a2.14,2.14,0,0,1,.19.26.39.39,0,0,0-.06-.11C56.17,50.91,56.09,50.78,56,50.65Z" fill="#ef8c23"/><path d="M55.82,59.61h0Z" fill="#ef8c23"/><path d="M55.65,59.66a.44.44,0,0,1,.15,0h-.08Z" fill="#ef8c23"/><path d="M56.77,60.39l.37,0c.13,0,.25.07.38.09l.22,0,.13,0h.07a2.68,2.68,0,0,0,.4,0,3,3,0,0,0,.52-.12,1,1,0,0,0,.22-.09s.12,0,.13-.08l-.19.07-.14,0c-.12,0-.26,0-.38,0a1.89,1.89,0,0,1-.41,0,1.32,1.32,0,0,1-.39-.1.56.56,0,0,0-.12,0h-.1a1.29,1.29,0,0,0-.21-.07,1.88,1.88,0,0,0-.41,0,2.34,2.34,0,0,0-.38.09l-.25.08s-.12.07-.16.07.28,0,.34,0A2.17,2.17,0,0,1,56.77,60.39Z" fill="#ef8c23"/><path d="M59.81,61.25a1.28,1.28,0,0,0-.67.19c-.08.06-.17.11-.25.18s-.19.14-.21.21.1,0,.14,0l.15-.06a1.59,1.59,0,0,1,.29-.15,6.38,6.38,0,0,1,.66-.15h.33c.11,0,.22,0,.33,0a3.09,3.09,0,0,0,.59-.18,2,2,0,0,0,.6-.35.74.74,0,0,0,.19-.27.56.56,0,0,1,.16-.21c.09-.07.16-.17.25-.24s.1,0,.14-.08a.32.32,0,0,1,.1-.1c.06,0,.13-.08.18-.13l.09-.06-.14,0s-.05,0-.09,0h-.08l-.08,0-.1,0a.67.67,0,0,0-.12.06.91.91,0,0,0-.24.16,1.07,1.07,0,0,0-.22.25l-.19.2a2.2,2.2,0,0,1-.2.23c-.08.08-.14.19-.24.24a.59.59,0,0,1-.32.06,1.82,1.82,0,0,0-.33,0A5.83,5.83,0,0,0,59.81,61.25Z" fill="#ef8c23"/><path d="M63.35,59.61a.42.42,0,0,0-.19,0c-.06,0-.12.07-.19.1a.31.31,0,0,0-.09.07l0,0C63,59.77,63.34,59.73,63.35,59.61Z" fill="#ef8c23"/><path d="M52,45.59a1,1,0,0,0-.09-.3s.09.39,0,.38.11.14.14.22v0A2.5,2.5,0,0,1,52,45.59Z" fill="#ef8c23"/><path d="M55.47,59.49c0,.06.07.1.08.17,0-.11,0-.22,0-.32a2.5,2.5,0,0,1-.06-.38c0-.14-.06-.29-.08-.43s0-.31-.07-.46-.07-.2-.09-.3,0-.21-.05-.31A2.19,2.19,0,0,0,55,57c0-.08,0-.16,0-.25s-.06-.12-.08-.19a.68.68,0,0,0,0-.14.78.78,0,0,1,0-.14c0-.08-.05-.14-.06-.21a1,1,0,0,0,0-.17l-.05-.11a3.18,3.18,0,0,0-.09-.33,2.85,2.85,0,0,1-.12-.31,2.83,2.83,0,0,0-.11-.31,2.47,2.47,0,0,1-.11-.36c0-.11-.07-.21-.09-.32s-.06-.25-.09-.38a3,3,0,0,1-.13-.39c-.06-.26-.18-.5-.26-.76s-.09-.46-.16-.68c-.11-.39-.22-.77-.31-1.16,0-.16-.08-.29-.1-.45A2.48,2.48,0,0,0,53,50l-.11-.41a1.52,1.52,0,0,1,0-.21,0,0,0,0,0,0,0l.09.19c.07.18.13.37.19.56s.09.45.17.66a1.21,1.21,0,0,1,.09.2s0,.1,0,.13.05.06.07.1,0,.07,0,.11,0,.11.07.16,0,.11,0,.16,0,.08.05.13,0,.09,0,.14a1.53,1.53,0,0,0,.11.27l.11.24a2,2,0,0,1,.08.22,4.74,4.74,0,0,1,.32.78,2.18,2.18,0,0,1,.09.23,1.55,1.55,0,0,0,.08.23s0,.07,0,.11,0,.06.06.1,0,.14.08.18a1.05,1.05,0,0,0,0-.24c0-.07,0-.16,0-.24s0-.21-.07-.32l0-.14a1.15,1.15,0,0,1-.06-.17,1.54,1.54,0,0,0,0-.17,1.06,1.06,0,0,1-.06-.19,3.75,3.75,0,0,0-.17-.47c-.1-.18-.2-.35-.31-.52s-.08-.19-.13-.29l-.15-.32a6.77,6.77,0,0,1-.22-.77c-.05-.14-.07-.29-.11-.44s-.08-.31-.12-.47c-.09-.34-.16-.68-.24-1s-.15-.56-.22-.84a6.19,6.19,0,0,0-.15-.65c-.06-.2-.16-.38-.22-.58a4,4,0,0,0-.17-.44l0-.06c0,.1.05.2.08.29a2.44,2.44,0,0,1,.15.59c0,.09,0,.17,0,.25a.38.38,0,0,1,0,.15v-.05c0-.15-.1-.31-.15-.46s-.1-.2-.12-.31a1.31,1.31,0,0,0-.09-.28c0-.06-.06-.1-.08-.15a.58.58,0,0,0,0-.14c0-.07-.08-.11-.06-.19s-.05-.08,0,0,0,.13,0,.2a1.28,1.28,0,0,0,.11.33,3.11,3.11,0,0,1,.2.61,1.44,1.44,0,0,1,.07.36c0,.16,0,.31.06.48s.09.55.15.82c0,.08.06.15.08.23a1.6,1.6,0,0,1,0,.21s0,0,.05.08,0,.08,0,.11.05.13.07.19a2.75,2.75,0,0,0,.11.41,2.46,2.46,0,0,1,.14.38,5,5,0,0,1,.11.53c0,.14.05.28.07.43a1.59,1.59,0,0,0,.07.38c0,.11.07.23.1.35s.09.3.14.45a1.55,1.55,0,0,1,.08.23.51.51,0,0,0,0,.13s0,0,0,.08,0,.1,0,.15l.06.09a.35.35,0,0,0,0,.11.71.71,0,0,0,.07.09,1.6,1.6,0,0,1,.14.42c0,.1,0,.21.06.31a1.23,1.23,0,0,1,.08.33,5.12,5.12,0,0,0,.1.54c.07.33.11.68.21,1,0,.1,0,.2.06.3l.11.27a1.34,1.34,0,0,1,.13.27s0,.09,0,.14a.67.67,0,0,0,.06.12,3,3,0,0,1,.16.53,1.09,1.09,0,0,1,.09.23,2.74,2.74,0,0,0,0,.28c0,.16.09.31.12.47s.06.3.1.44a3.12,3.12,0,0,0,.19.59Z" fill="#ef8c23"/><path d="M52,44.69a.9.9,0,0,1,0,.23,2,2,0,0,0,.06.43.64.64,0,0,0,.08.19.8.8,0,0,0,.08.16l.21.3a1.42,1.42,0,0,1,.17.4,1.86,1.86,0,0,1,.1.31c0,.08,0,.17.05.25a.34.34,0,0,0,0,.1s0,0,0,.08,0,.27,0,.39A2.2,2.2,0,0,0,53,48l.15.51c0,.14.09.28.14.42a1.42,1.42,0,0,1,.07.22c0,.08,0,.16,0,.24s.07.18.1.27.06.15.08.23a2.44,2.44,0,0,1,.13.44,1.74,1.74,0,0,0,.17.5,2.33,2.33,0,0,1,.07.25,1,1,0,0,1,.05.22,2.18,2.18,0,0,0,.11.27,1,1,0,0,1,0,.14c0,.06.06.09.08.14s.05.14.09.21a.54.54,0,0,1,.07.13.65.65,0,0,1-.06-.24c0-.13-.07-.23-.1-.36s-.11-.4-.15-.62a5.09,5.09,0,0,0-.18-.67c-.12-.42-.29-.83-.38-1.25,0-.19-.13-.36-.18-.54s-.09-.18-.12-.27-.05-.2-.07-.3-.12-.47-.19-.7-.08-.22-.11-.33a2.29,2.29,0,0,0-.07-.28c-.07-.19-.15-.4-.21-.59s-.08-.36-.14-.54-.16-.64-.26-1c0-.13-.09-.26-.12-.39A.88.88,0,0,0,52,44s-.05,0,0-.1l0,0-.22-.67a.88.88,0,0,1,.1.36l0,.32c0,.19.07.38.12.57A2,2,0,0,1,52,44.69Z" fill="#ef8c23"/><path d="M51.76,43.89a.68.68,0,0,1,0,.14C51.79,44,51.86,43.92,51.76,43.89Z" fill="#ef8c23"/><path d="M48.79,52.83s0,.08,0,.12l-.07.08s0,.06,0,.09,0,0-.06.07a.47.47,0,0,0,0,.09s-.05,0-.06.08a.61.61,0,0,0,0,.12.55.55,0,0,0-.06.08,1.15,1.15,0,0,1-.06.17,1,1,0,0,0-.08.14,1.15,1.15,0,0,1-.06.17c0,.05-.06.07-.08.11l0,.09a1.15,1.15,0,0,0-.06.17,1.25,1.25,0,0,1,0,.19,1.29,1.29,0,0,0,0,.19,2.84,2.84,0,0,1-.13.38,1.34,1.34,0,0,0-.07.18,1.13,1.13,0,0,1,0,.18,1.31,1.31,0,0,1-.08.21,1.42,1.42,0,0,1-.13.12.64.64,0,0,0-.15.31,1.55,1.55,0,0,0,0,.21,1.34,1.34,0,0,0-.07.18,1.25,1.25,0,0,1,0,.19.76.76,0,0,0-.06.18c0,.16,0,.31,0,.48a1.37,1.37,0,0,0,0,.35c.1-.33.24-.66.35-1l.09-.23a1,1,0,0,1,.11-.23v0l.15.05a1.84,1.84,0,0,0,.25,0c.22,0,.45.06.67.07a8,8,0,0,0,.84,0,4.07,4.07,0,0,1,.49.05,3.54,3.54,0,0,1,.47.07c.14,0,.28,0,.42,0l.23,0,.21.06.19,0a.9.9,0,0,0,.21.08l.39.07a3.59,3.59,0,0,0,.46.05,1.44,1.44,0,0,0,.46-.08c.13,0,.26-.05.39-.09s.2,0,.24-.08a5.41,5.41,0,0,1-.58.12.8.8,0,0,1-.31,0c-.11,0-.23,0-.34,0l-.42-.07-.32,0-.13-.05h-.08l-.18,0c-.13,0-.26-.06-.39-.11s-.26-.11-.39-.14-.15,0-.24,0l-.17-.06a.43.43,0,0,0-.16,0,.5.5,0,0,1-.12,0l-.06,0-.19,0-.18,0-.43-.06a4.1,4.1,0,0,0-.78.06l-.35,0a1.27,1.27,0,0,1-.2,0h0a2.21,2.21,0,0,0,.18-.42c0-.07,0-.14.07-.2a.78.78,0,0,0,0-.21,3,3,0,0,0,.15-.42,2.32,2.32,0,0,1,.13-.45c.06-.15.08-.3.13-.45s.15-.43.23-.64a1.7,1.7,0,0,1,.09-.24.75.75,0,0,0,.1-.2l.37-1c.08-.23.12-.47.18-.71a1.15,1.15,0,0,0,.06-.17.65.65,0,0,1,0-.19c0-.11.05-.22.08-.33a1.42,1.42,0,0,0,.05-.22c0-.06,0-.11,0-.17a4.07,4.07,0,0,1,.27-.74,1.08,1.08,0,0,0,.1-.27l.09-.25a2.39,2.39,0,0,1,.12-.22,1.51,1.51,0,0,1,.12-.26c.1-.17.23-.34.32-.52a4.88,4.88,0,0,0,.23-.64c.09-.24.14-.49.23-.73a2.47,2.47,0,0,0,.1-.29.88.88,0,0,0,0-.16.84.84,0,0,0,.06-.14c0-.21.06-.43.13-.64s0-.18.06-.27,0-.19.07-.28a5.07,5.07,0,0,0,.13-.56,1.13,1.13,0,0,1,0-.18s0,0,0,0a.07.07,0,0,0,0,0,2.84,2.84,0,0,1-.15.47c0,.11,0,.22-.08.33s-.19.52-.28.79l-.22.6-.09.26a2.39,2.39,0,0,1-.12.22,3.37,3.37,0,0,1-.25.45,4.61,4.61,0,0,0-.22.51c0,.07-.07.12-.1.18s0,.09,0,.13a1.27,1.27,0,0,1-.08.23,1.37,1.37,0,0,1-.18.24,1.94,1.94,0,0,0-.21.29,1.9,1.9,0,0,0-.13.38c0,.32-.09.63-.11,1,0,.13,0,.25,0,.39a.32.32,0,0,1,0,.09s0,0,0,.07,0,0,0,.08a.33.33,0,0,1,0,.1,1.7,1.7,0,0,1,0,.22,1.29,1.29,0,0,0,0,.19.19.19,0,0,1,0,.08s0,.06,0,.1a.45.45,0,0,1,0,.11.41.41,0,0,0,0,.11c0,.08-.06.16-.07.24a1.55,1.55,0,0,1-.06.23l-.16.45C48.88,52.67,48.82,52.74,48.79,52.83Z" fill="#ef8c23"/><path d="M52.51,57.89c.12,0,.2.11.32.15a1,1,0,0,0,.3.08,1.29,1.29,0,0,0,.19,0h.17c.07,0,.25,0,.3-.1-.22.13-.66,0-.87-.11s-.21-.11-.33-.15-.22-.12-.34-.16l-.33-.12-.18-.06a.57.57,0,0,0-.13-.08c-.12,0-.21-.14-.33-.19l-.15,0a.9.9,0,0,1-.16,0,1.62,1.62,0,0,1-.22,0l-.16,0a2.17,2.17,0,0,1-.36,0,5.1,5.1,0,0,0-.67-.08,6.66,6.66,0,0,0-.78-.05h-.29a.59.59,0,0,1-.19,0,.29.29,0,0,1-.16,0l.14,0a.78.78,0,0,0,.16,0,1.43,1.43,0,0,0,.27.09c.27.05.54.1.81.13l.42,0,.19,0,.15,0,.3.05c.13,0,.25,0,.38.06l.22,0,.2,0c.07,0,.14,0,.22.06l.18,0,.21.07a1.39,1.39,0,0,0,.21.11,1.76,1.76,0,0,1,.2.09Z" fill="#ef8c23"/><path d="M46.37,51.82s.08-.11.11-.15a1.55,1.55,0,0,0,.12-.22l-.05,0A.61.61,0,0,0,46.37,51.82Z" fill="#ef8c23"/><path d="M50.09,45.28c-.07.12-.14.24-.22.35s-.14.24-.22.36,0,.12-.08.17l-.06.11a2.09,2.09,0,0,0-.08.23,1.28,1.28,0,0,1-.11.2c0,.06,0,.14-.08.2a2.86,2.86,0,0,0-.24.42c0,.09-.09.16-.13.26a1.66,1.66,0,0,1-.13.27c-.09.19-.12.43-.22.62a4.43,4.43,0,0,1-.29.46c-.17.25-.41.45-.59.7a2.22,2.22,0,0,0-.28.5l-.14.4.15-.2c.14-.24.3-.47.45-.7s.3-.44.46-.66a6,6,0,0,1,.44-.56,7.44,7.44,0,0,0,.84-1.1c0-.05,0-.11.07-.16a1.09,1.09,0,0,0,.08-.15c0-.1.1-.18.14-.28s.16-.52.27-.77a2.47,2.47,0,0,1,.19-.36,1.72,1.72,0,0,0,.11-.29c0-.1.1-.18.14-.28a2,2,0,0,1,.09-.26A6.81,6.81,0,0,1,51.1,44a.42.42,0,0,0,.06-.08s.06-.1.1-.14a1.1,1.1,0,0,0,.24-.42,1.59,1.59,0,0,1,.07-.2,2,2,0,0,0-.24.41,1.43,1.43,0,0,1-.13.28l0,0s0,0,0,0-.14.1-.23.2-.25.17-.36.28-.13.08-.18.14-.13.1-.19.15l-.33.25c-.12.09-.23.21-.35.3a3.22,3.22,0,0,0-.32.32,1.29,1.29,0,0,1-.16.18l-.13.15-.19.13-.25.22c-.11.12-.27.19-.37.32a1.05,1.05,0,0,0-.07.11l-.09.06c-.06,0-.09.11-.14.16s-.25.25-.37.39-.18.22-.27.33-.08.13-.13.19l-.17.17c-.07.11-.12.22-.19.33a2.05,2.05,0,0,0-.18.43,1.66,1.66,0,0,1-.22.32c-.1.12-.17.25-.26.37s0,.06,0,.08l-.08.08a.78.78,0,0,0-.1.15c.15-.14.32-.27.46-.42a4,4,0,0,0,.58-.79,3.39,3.39,0,0,1,.4-.45.79.79,0,0,1,.22-.19l.22-.13a3.24,3.24,0,0,0,.57-.6l.17-.19s.07-.1.12-.14l.09-.07a2.73,2.73,0,0,1,.23-.25l.2-.2c.3-.3.59-.62.87-.94.13-.16.26-.32.4-.47l.36-.36.19-.16-.37.44C50.34,44.93,50.21,45.1,50.09,45.28Z" fill="#ef8c23"/><path d="M51.58,43.16a0,0,0,0,1,0,0,.62.62,0,0,0,.1-.16C51.65,43.09,51.61,43.11,51.58,43.16Z" fill="#ef8c23"/><path d="M47,50.91a2.52,2.52,0,0,0-.34.51v0a3.2,3.2,0,0,0,.25-.27A.82.82,0,0,1,47,51l.1-.12s0-.06,0-.08,0,0,0-.06,0-.14.08-.21h0l0,.06A3.62,3.62,0,0,1,47,50.91Z" fill="#ef8c23"/><path d="M49,49.7a1,1,0,0,0,.09-.18,1.89,1.89,0,0,0,.09-.21c.06-.17.15-.32.21-.49s.11-.31.16-.47l.09-.23c0-.09.09-.16.12-.25a3.12,3.12,0,0,1,.18-.48,4.85,4.85,0,0,0,.3-.78c0-.07.08-.12.11-.19s0-.16.08-.24a.86.86,0,0,1,.11-.19c0-.07,0-.14.07-.2a1.65,1.65,0,0,1,.16-.36,2,2,0,0,0,.18-.32,2,2,0,0,1,.14-.41,1.1,1.1,0,0,0,.09-.14c0-.05,0-.1.05-.16a2.29,2.29,0,0,1,.14-.27c0-.08.08-.14.11-.23l.11-.5,0,.08a2.19,2.19,0,0,1-.17.29,3.7,3.7,0,0,0-.25.43,4,4,0,0,0-.16.45l-.16.44c-.09.26-.27.47-.36.74s-.23.63-.34.94-.18.49-.26.73c0,0,0,.07,0,.09s0,0,0,0a.47.47,0,0,0,0,.09.16.16,0,0,1,0,.06c-.08.1-.15.21-.22.31a.91.91,0,0,0-.09.17,2.39,2.39,0,0,1-.12.22l-.17.48-.18.5a1.52,1.52,0,0,0,0,.21.34.34,0,0,1,0,.1.24.24,0,0,0,0,.08C49,49.87,49,49.75,49,49.7Z" fill="#ef8c23"/><path d="M44.09,55.75c-.06.08-.15.14-.18.23s-.08.41-.16.61-.11.35-.18.52a.36.36,0,0,0,.07-.1s0-.06.07-.1,0-.14.07-.21a1.74,1.74,0,0,0,.1-.19.8.8,0,0,1,.1-.23c.11-.19.21-.4.33-.59s.23-.49.36-.72a7.23,7.23,0,0,1,.4-.66l.2-.31c.07-.1.12-.2.18-.3s.15-.23.22-.34,0-.11.07-.17a.83.83,0,0,0,.08-.12l.09-.28a1.3,1.3,0,0,0,0-.21h0c-.12.13-.1.2-.17.36a1.33,1.33,0,0,1-.11.3c-.07.1-.15.18-.22.28a1.51,1.51,0,0,1-.21.23c-.15.13-.18.35-.31.49s-.1.13-.16.2l-.08.14a.87.87,0,0,1-.09.11,2.26,2.26,0,0,0-.15.39,1.72,1.72,0,0,1-.07.21,1.1,1.1,0,0,1-.09.14s0,.12-.07.18Z" fill="#ef8c23"/><path d="M42.35,56.78c.08.06.17.1.25.15a2.88,2.88,0,0,0,.46.24l.41.15.23.08c.07,0,.15,0,.22.05l.23.08c.06,0,.12,0,.18,0a1.13,1.13,0,0,0,.41.06l.95,0a1,1,0,0,1,.3,0,1.18,1.18,0,0,1,.27,0l.32.08h0a1.23,1.23,0,0,0-.36-.23.66.66,0,0,0-.15,0H46l-.18-.07a1.22,1.22,0,0,0-.38,0l-.53,0h-.43a1.43,1.43,0,0,0-.22,0h-.19l-.22,0a1.64,1.64,0,0,1-.23,0s-.07,0-.12,0h-.09l-.18-.07a.32.32,0,0,1-.09,0s0,0-.06,0a.56.56,0,0,0-.16-.07,3.54,3.54,0,0,1-.33-.19,3.72,3.72,0,0,1-.34-.19.92.92,0,0,1-.21-.13l-.17-.09-.09,0-.07-.07-.2-.1L41.3,56,41.12,56l-.42-.16-.23-.08a1.89,1.89,0,0,0-.23-.05c-.1,0-.18-.08-.27-.09l-.18,0,.16.06c.07,0,.11.07.17.09l.35.13a6,6,0,0,1,.86.35l.2.13s.06,0,.09,0l.08.06a2.67,2.67,0,0,0,.41.22Z" fill="#ef8c23"/><path d="M46.77,57.78l-.16-.06a1.48,1.48,0,0,1,.13.08Z" fill="#ef8c23"/><path d="M44.3,57.75l-.26,0a2,2,0,0,1-.31-.12,1.7,1.7,0,0,1-.24-.09l-.28-.13-.38-.14-.16,0-.12-.08L42.31,57a.46.46,0,0,0,.22.11,2.39,2.39,0,0,0,.22.12l.12,0s.06.06.11.07l.22.12a1.05,1.05,0,0,0,.24.15l.22.11c.19.07.35.2.54.26l.16.06a.88.88,0,0,0,.16,0c.09,0,.17.08.25.1l.17,0,.13,0a1.42,1.42,0,0,1,.22.05l.15,0,1.24.45a3.66,3.66,0,0,1-.68-.42,1.77,1.77,0,0,0-.48-.23,2.2,2.2,0,0,1-.52-.22,1.25,1.25,0,0,0-.27-.1l-.11,0h-.08l-.11,0Z" fill="#ef8c23"/><path d="M42.23,48.81a2.29,2.29,0,0,0,.29-.18c-.1,0-.21.09-.31.15s-.2.09-.29.15a.39.39,0,0,0-.1.08l.21-.1Z" fill="#ef8c23"/><path d="M37.72,51.72a1.67,1.67,0,0,1,.2-.08l.22-.12a4.67,4.67,0,0,0,.57-.33l.13-.08.1-.1.18-.13.18-.17a.83.83,0,0,1,.21-.16c.1-.06.22-.1.32-.15a2,2,0,0,0,.25-.14,8.14,8.14,0,0,0,1-.72l.24-.19c.07-.06.16-.08.22-.15a2.48,2.48,0,0,1,.26-.19,1.31,1.31,0,0,0-.27.12c-.13.1-.3.15-.43.24l-.21.15a1.22,1.22,0,0,1-.24.1c-.05,0-.08.08-.14.1l-.14.05a.75.75,0,0,0-.2.1,2,2,0,0,1-.25.14,1.55,1.55,0,0,0-.22.12c-.08.07-.18.12-.26.18a1.15,1.15,0,0,1-.17.14c-.14.09-.25.22-.39.31s-.16.07-.24.12-.06.06-.1.09a.67.67,0,0,1-.12.06,1.3,1.3,0,0,0-.49.35,2.53,2.53,0,0,0-.13.22,1.58,1.58,0,0,0-.12.15l-.1.13h0C37.65,51.82,37.66,51.77,37.72,51.72Z" fill="#ef8c23"/><path d="M42.9,48.42l.39-.18.41-.2a2.26,2.26,0,0,1,.26-.16c.17-.09.31-.22.5-.31s.22-.15.34-.21l.36-.17.73-.34a3.81,3.81,0,0,0,.55-.33,2.79,2.79,0,0,1,.45-.24,3.62,3.62,0,0,0,.33-.2l.31-.2a4.84,4.84,0,0,1,.79-.47,3,3,0,0,0,.48-.3c.05,0,.11-.06.17-.1s.12-.09.18-.13a2.26,2.26,0,0,0,.31-.23,3.7,3.7,0,0,1,.33-.21l.81-.5a3.62,3.62,0,0,0,.32-.22c.07-.06.15-.11.17-.2s.15-.32.11-.3l-.13.09c-.11.06-.24.09-.35.14a2.64,2.64,0,0,0-.37.2,3.05,3.05,0,0,0-.5.28c-.14.11-.31.17-.46.27a.41.41,0,0,1-.13.08l-.11,0a.39.39,0,0,1-.16.07,1.28,1.28,0,0,0-.25.15l-.24.11A2.23,2.23,0,0,0,48,45c-.07.06-.14.08-.21.14l-.18.15a2.78,2.78,0,0,1-.41.29l-.31.21-.49.26c-.09,0-.17.1-.25.14a1.77,1.77,0,0,0-.22.16,3.82,3.82,0,0,0-.48.29c-.16.11-.33.19-.49.29a2.21,2.21,0,0,0-.36.23.35.35,0,0,1-.08.05.35.35,0,0,0-.1.08c-.06,0-.15.08-.21.13l-.15.08a.48.48,0,0,1-.11.09l-.26.17a1.54,1.54,0,0,0-.19.17L43.3,48l-.25.18c-.06,0-.1.11-.16.15s-.24.19-.36.26h0l0,0A3.72,3.72,0,0,1,42.9,48.42Z" fill="#ef8c23"/><path d="M40.54,54.74a.86.86,0,0,1-.1.16c0,.05,0,.12-.06.17s-.07.07-.07.14a.65.65,0,0,0,.17-.2c0-.06.12-.08.17-.14l.08-.1.27-.24c.09-.08.14-.22.23-.31s.28-.39.43-.57a3.45,3.45,0,0,1,.26-.28c.11-.1.2-.22.31-.32s.28-.18.4-.3.18-.19.27-.28c.26-.24.55-.44.78-.7a5.49,5.49,0,0,1,.4-.43c.12-.12.21-.26.33-.39a3.54,3.54,0,0,0,.35-.42c.05-.08.12-.17.16-.25,0,.13-.2.16-.29.26a3.85,3.85,0,0,1-.27.3,1.37,1.37,0,0,0-.17.17,1.24,1.24,0,0,1-.18.14c-.1.07-.16.19-.25.27l-.17.14c-.05,0-.11.06-.16.11l-.34.28a2,2,0,0,1-.42.34,2.2,2.2,0,0,0-.34.28,3.37,3.37,0,0,0-.36.3l-.3.36c-.12.12-.23.25-.35.36a.73.73,0,0,0-.19.33.63.63,0,0,1-.1.2l-.13.15-.13.15-.14.15A.91.91,0,0,0,40.54,54.74Z" fill="#ef8c23"/><path d="M52.17,42h0l0,0S52.16,42,52.17,42Z" fill="#ef8c23"/><path d="M51.58,42.27a1.55,1.55,0,0,0-.22.12l-.16.1a3.76,3.76,0,0,0-.47.3.52.52,0,0,1-.11.1l-.13.07a.46.46,0,0,1-.21.13,2.64,2.64,0,0,0-.37.2l-.38.23c-.1.06-.18.13-.28.2s0,0-.08,0l-.09.07-.24.15-.41.21c-.08,0-.14.1-.22.15l-.22.1a.88.88,0,0,0-.21.12l-.16.08s-.06,0-.1,0l-.11,0-.26.11a2.12,2.12,0,0,0-.56.33,3.06,3.06,0,0,0-.35.37c-.09.09-.22.17-.25.29a1.14,1.14,0,0,1,.3-.18c.09-.05.17-.12.25-.17l.2-.1.14-.08a3.7,3.7,0,0,0,.33-.21c.11-.07.23-.1.34-.18s.2-.13.3-.18L48,44.6l.19-.1a3.47,3.47,0,0,0,.33-.18.48.48,0,0,1,.11-.09l.07,0,.18-.1.41-.22c.06,0,.13-.06.2-.1l.21-.12a1.18,1.18,0,0,1,.18-.13l.2-.1a.94.94,0,0,0,.23-.1,1.7,1.7,0,0,0,.22-.15c.18-.13.34-.27.52-.39l.61-.41.48-.33h0l-.22.06A1.42,1.42,0,0,0,51.58,42.27Z" fill="#ef8c23"/><path d="M38.89,54.8s0,0-.08-.06a1.4,1.4,0,0,1-.17-.09.82.82,0,0,1-.25-.2,1.94,1.94,0,0,0-.21-.27,2.71,2.71,0,0,1-.24-.35c-.08-.1-.14-.21-.21-.31a.78.78,0,0,0-.1-.15l-.07-.11a3.25,3.25,0,0,0-.23-.29,1.19,1.19,0,0,1-.16-.23,2.41,2.41,0,0,1-.22-.42c0-.07-.05-.14-.09-.2L36.75,52c0-.07-.11-.13-.15-.2a.3.3,0,0,1,0-.08s-.08-.07-.1-.11a1,1,0,0,1-.14-.38,2.25,2.25,0,0,1-.08-.52c0-.13,0-.26,0-.38a2.1,2.1,0,0,0-.06-.24,1.41,1.41,0,0,1,0-.21,1.87,1.87,0,0,0-.07-.22,2,2,0,0,1-.07-.23s0-.09,0-.14-.07-.08-.09-.13a1.46,1.46,0,0,1-.07-.19l0,0a1.66,1.66,0,0,1,.06.21c0,.18,0,.37,0,.55s0,.34.08.52a3.85,3.85,0,0,0,.09.67c.06.2.12.41.17.62s.06.34.12.51a1.45,1.45,0,0,0,.09.22l.06.1a.45.45,0,0,1,0,.11c0,.05.06.07.08.12a.35.35,0,0,0,0,.11l.07.09a.32.32,0,0,1,0,.09c0,.07.12.11.18.17l.16.16c.12.1.21.23.32.34a2.92,2.92,0,0,1,.24.37,3,3,0,0,0,.27.35c.05,0,.08.12.13.17a.67.67,0,0,0,.14.09c.11.08.22.18.34.25a2,2,0,0,0,.41.14.76.76,0,0,0,.16.06L39,54.86C39,54.83,38.93,54.83,38.89,54.8Z" fill="#ef8c23"/><path d="M39.71,55.2,39.43,55a2.85,2.85,0,0,0-.31-.12,1,1,0,0,1,.29.21c.15.17.25.08.44.22,0,0,0,0,.07,0A1.59,1.59,0,0,1,39.71,55.2Z" fill="#ef8c23"/><path d="M35.15,46.61a1.55,1.55,0,0,1,.06.23c0,.06,0,.12,0,.17s0,.1,0,.15a4.59,4.59,0,0,0,.1.51l.07.08a.22.22,0,0,0,0,.08s0,0,0,0a1.75,1.75,0,0,1,0-.33A1.67,1.67,0,0,0,35.15,46.61Z" fill="#ef8c23"/><path d="M35.53,48l-.07-.11a2.16,2.16,0,0,0,.19.61c.06.15.12.29.17.44a2.32,2.32,0,0,0-.15-.59A1.83,1.83,0,0,0,35.53,48Z" fill="#ef8c23"/><path d="M37.33,49.87a.65.65,0,0,1,0,.24,6.22,6.22,0,0,0-.11.88,2.54,2.54,0,0,1,0,.39,2.81,2.81,0,0,0,0,.41,1.31,1.31,0,0,0,.18.6,2.19,2.19,0,0,0,.17.29c.07.11.18.21.25.32l.08.14a.25.25,0,0,1,0,.07l.1.1c0,.06,0,.15.1.21s.1.09.14.15a4.09,4.09,0,0,0,.4.53c.06.07.1.15.16.21a.72.72,0,0,0,.24.14c-.09,0-.2-.17-.27-.24a1.26,1.26,0,0,1-.25-.31c-.12-.22-.3-.42-.41-.65s-.23-.45-.36-.66-.16-.23-.23-.35A.59.59,0,0,1,37.5,52h0l.08-.07,0,0-.07.06,0,0c0-.1,0-.2,0-.3a.45.45,0,0,1,0-.16.85.85,0,0,0,0-.16l0-.34c0-.06,0-.12,0-.17a.68.68,0,0,1,0-.2,2.48,2.48,0,0,0-.07-.72,2,2,0,0,0-.13-.41c0-.08,0-.17-.08-.26s0,.11-.05,0c.06.13.08.25.13.38A1,1,0,0,1,37.33,49.87Z" fill="#ef8c23"/><path d="M38.05,50.36a1.29,1.29,0,0,1-.12.54c.2-.12.24-.32.32-.53a1.17,1.17,0,0,0,0-.32v-.23s0-.06,0-.1a0,0,0,0,0,0,0,.41.41,0,0,0,0-.08s0,0,0-.07,0-.06,0-.1,0-.21,0-.31,0-.43,0-.65,0-.21,0-.33a.91.91,0,0,1,0-.17.52.52,0,0,0,0-.18c0-.09,0-.2,0-.31s0-.2,0-.3a5.35,5.35,0,0,0-.07-.56c0,.16,0,.33,0,.49s0,.52,0,.78a6,6,0,0,1-.12.72,3.89,3.89,0,0,0,.06,1.18A3.62,3.62,0,0,1,38.05,50.36Z" fill="#ef8c23"/><path d="M38.05,45.72c0-.06,0-.24-.07-.26a1.37,1.37,0,0,0,0,.45c0,.07,0,.1.06.16a1.93,1.93,0,0,1,.12.41c0,.05,0,.09,0,.14a2.67,2.67,0,0,0,0-.4A4.54,4.54,0,0,0,38.05,45.72Z" fill="#ef8c23"/><path d="M37.66,45.31c-.15,0-.3.13-.45.17s-.4.18-.61.27l.13,0a5.81,5.81,0,0,1,.78-.32c.25-.07.48-.15.73-.21a1.74,1.74,0,0,0-.22,0C37.9,45.26,37.77,45.27,37.66,45.31Z" fill="#ef8c23"/><path d="M30.82,48.14a17.16,17.16,0,0,1-1.9.52c-.47.14-.91.33-1.37.5s-.92.5-1.38.71-.93.52-1.43.72l-.16.08.18-.06a1.67,1.67,0,0,1,.23-.12c.1,0,.19,0,.28,0s.16-.1.24-.12a4.28,4.28,0,0,0,.46-.17c.17-.07.34-.07.52-.14s.35-.12.53-.21l.48-.22a6.73,6.73,0,0,1,.93-.38c.33-.09.64-.25,1-.33a4.57,4.57,0,0,0,.87-.41l.56-.26a3.51,3.51,0,0,0,.48-.22.62.62,0,0,0,.14-.14l-.21.11C31.12,48,31,48.07,30.82,48.14Z" fill="#ef8c23"/><path d="M24.22,50.82a2.23,2.23,0,0,0-.27,0,1,1,0,0,0-.36.25,2.83,2.83,0,0,0,.52-.21l.47-.22-.21.07Z" fill="#ef8c23"/><path d="M34.84,46.35c-.14.07-.26.11-.39.18l-.41.2-.25.1.35-.14.69-.28a2.75,2.75,0,0,0,.41-.11c.08,0,.11-.09.19-.12a1.81,1.81,0,0,0,.31-.09c.24-.11.5-.2.75-.29l.11,0c-.28.1-.57.15-.84.27S35.14,46.22,34.84,46.35Z" fill="#ef8c23"/><path d="M31.76,47.69c-.07.05-.16.07-.23.12a.34.34,0,0,0-.06.06l.11-.06c.13-.05.22-.13.35-.19s.36-.1.54-.19.42-.2.63-.3c-.31.14-.62.27-.93.38A1.7,1.7,0,0,0,31.76,47.69Z" fill="#ef8c23"/><path d="M33.1,47.13l.17-.07.52-.23-.52.22Z" fill="#ef8c23"/><path d="M50.26,41.51c-.14.05-.26.11-.4.15s-.27.11-.43.15-.27,0-.39.09c-.35.09-.7.22-1,.32a3,3,0,0,1-.73.12c-.21,0-.41.08-.62.11s-.39.12-.59.17a5,5,0,0,0-.66.18c-.34.13-.67.29-1,.4.14-.06.31-.08.46-.14a2.38,2.38,0,0,1,.45-.15c.31-.06.6-.1.91-.14s.64-.14.95-.19a6.74,6.74,0,0,0,.9-.14c.26-.07.51-.17.77-.25a5.66,5.66,0,0,1,.56-.13c.13,0,.26-.09.39-.12.38-.1.7-.31,1.07-.44.1,0,.19,0,.28,0a.28.28,0,0,0,.11-.05,2.69,2.69,0,0,0-.49,0A4.21,4.21,0,0,0,50.26,41.51Z" fill="#ef8c23"/><path d="M52.58,41.41s-.91-.08-.94-.08a2.27,2.27,0,0,0-.35.05l0,0,.45,0a2.13,2.13,0,0,1,.25,0,1.5,1.5,0,0,0,.22,0A1,1,0,0,0,52.58,41.41Z" fill="#ef8c23"/><path d="M50.93,41.29c.06,0,.11,0,.17,0s.16,0,.23,0l.61,0,.38,0a1.83,1.83,0,0,0,.33,0s0-.06,0-.07L51.32,41a3.92,3.92,0,0,1-.9.14c-.19,0-.37,0-.55.06h0a5.13,5.13,0,0,1,.7.1C50.67,41.29,50.8,41.27,50.93,41.29Z" fill="#ef8c23"/><path d="M14,52.35c.19-.05.37-.06.56-.12a7.61,7.61,0,0,0,.72-.25c.43-.18.92-.18,1.35-.33.06,0,.1-.06.16-.08h-.05a11.85,11.85,0,0,0-1.17.31,8.61,8.61,0,0,1-1.09.26c-.2,0-.39.11-.59.16s-.52.09-.59.2.21-.08.28-.09S13.83,52.38,14,52.35Z" fill="#ef8c23"/><path d="M36.53,45.52a3.55,3.55,0,0,0,.54-.21l.06,0-.35.13a3.86,3.86,0,0,0-.58.17c-.23.08-.45.07-.67.16h-.05l.54-.09A2.13,2.13,0,0,0,36.53,45.52Z" fill="#ef8c23"/><path d="M39,44.74a1.64,1.64,0,0,0,.69-.15A1.44,1.44,0,0,0,39,44.74Z" fill="#ef8c23"/><path d="M38.91,44.78a.56.56,0,0,0,.12,0l-.56,0a3,3,0,0,0-.5.12,1.38,1.38,0,0,0-.29.17,3.17,3.17,0,0,0-.36.13l-.19.09c.21-.07.41-.13.61-.21A6.67,6.67,0,0,1,38.91,44.78Z" fill="#ef8c23"/><path d="M17.37,51.41c.17,0,.34-.13.52-.17a11.36,11.36,0,0,1,1.43-.15c.3,0,.6-.13.9-.19s.6-.13.9-.21c.56-.13,1.11-.27,1.67-.38A12,12,0,0,0,24,50c.17,0,.34,0,.5-.1s.18,0,.27,0a1.86,1.86,0,0,0,.25-.1l.45-.15c.17,0,.34,0,.5-.09.62-.17,1.21-.43,1.81-.6a7.27,7.27,0,0,0,.92-.35c.35-.17.72-.27,1.08-.41a5.09,5.09,0,0,1,.54-.22,2,2,0,0,0,.53-.18,4.92,4.92,0,0,1,.82-.43c.34-.09.65-.27,1-.39a4.29,4.29,0,0,0,.58-.26c.15-.06.3-.09.45-.16a4,4,0,0,1,.56-.25,2.55,2.55,0,0,0,.39-.13c.29-.14.58-.27.88-.39l-.15,0c-.14,0-.29,0-.42.06s-.21.08-.33.1l-.82.14c-.2,0-.39.08-.59.13l-.6.2a4.1,4.1,0,0,0-.48.21c-.12.06-.25.07-.38.13s-.22.09-.32.15a1.93,1.93,0,0,1-.56.27,2.23,2.23,0,0,0-.33.2,1.31,1.31,0,0,0-.28.17,6.42,6.42,0,0,1-.56.34,1.77,1.77,0,0,1-.22.16c-.09,0-.19.06-.29.11l-.89.4a5.29,5.29,0,0,1-.87.31,13.63,13.63,0,0,1-1.7.23,13.62,13.62,0,0,0-1.75.45c-.4.11-.8.21-1.2.29s-.65.22-1,.27c-.67.11-1.31.24-2,.37-.16,0-.33,0-.5.07s-.38.11-.58.14a6.23,6.23,0,0,0-1.15.45c-.27.11-.51.3-.78.44.1,0,.2,0,.3,0S17.26,51.44,17.37,51.41Z" fill="#ef8c23"/><path d="M48.31,40.48c-1.43-.13-2.83-.4-4.25-.54-1.18-.12-2.36-.24-3.54-.32-.42,0-.85,0-1.27,0a3.25,3.25,0,0,0-.43.08c-.09,0-.39,0-.43.08s.2,0,.3,0l.54,0c.43,0,.86.06,1.29.13a9.84,9.84,0,0,0,1.33.15c.28,0,.55.07.84.07.5,0,1,.06,1.49.09.22,0,.44.05.66.05a2.41,2.41,0,0,0,.38,0c.11,0,.21,0,.31,0a1.43,1.43,0,0,1,.23,0h.4c.2,0,.39,0,.59,0l2,.21.73.07.51,0a5.4,5.4,0,0,0-.58-.11Z" fill="#ef8c23"/><path d="M51.5,41a5.07,5.07,0,0,0-.5-.26.49.49,0,0,1-.16,0,2.32,2.32,0,0,1-.45-.06l-.36,0,.37.07a7.82,7.82,0,0,1,1,.21h0A.58.58,0,0,1,51.5,41Z" fill="#ef8c23"/><path d="M22.42,39.84a5.27,5.27,0,0,0-.89,0c-.43,0-.87,0-1.3,0s-.8,0-1.19,0-.69,0-1,.06-.72,0-1.08,0-.72-.07-1.08-.06H14.77c-.39,0-.79-.06-1.19,0l-.37,0h.11c.18,0,.35,0,.53,0l.59.07c.09,0,.17,0,.25,0a1,1,0,0,1,.18.05c.1,0,.23,0,.35,0s.38,0,.58,0a3,3,0,0,0,.52,0c.59,0,1.19,0,1.79,0a14.06,14.06,0,0,1,1.59,0,5.36,5.36,0,0,0,.8,0l.81,0A4.45,4.45,0,0,1,22,40a5.31,5.31,0,0,0,.8,0c.5,0,1,0,1.53-.07l.33,0c-.49,0-1,0-1.48,0C23,39.86,22.68,39.88,22.42,39.84Z" fill="#ef8c23"/><path d="M24.7,39.94h0Z" fill="#ef8c23"/><path d="M13.21,39.94a1.63,1.63,0,0,0-.7.08Z" fill="#ef8c23"/><path d="M35,40.5c.06-.12.32-.11.43-.11l.56,0c.32,0,.27.23.56,0a1.57,1.57,0,0,0-.49-.06c-.22,0-.45,0-.67,0-.61,0-1.22-.06-1.82-.06-.39,0-.77,0-1.16,0-.2,0-.4,0-.6,0L31,40.23c-.53,0-1.06-.17-1.59-.15s-1,0-1.5,0A14.06,14.06,0,0,1,26.44,40c-.56,0-1.12,0-1.68-.05L25,40c.29,0,.56.09.84.1h.19a1.64,1.64,0,0,1,.32.05c.08,0,.18,0,.27,0l.32,0a6.7,6.7,0,0,1,1.34,0c.21,0,.43,0,.63.09a1.29,1.29,0,0,0,.34,0c.11,0,.2,0,.31,0s.42,0,.63,0,.27,0,.42,0a2.58,2.58,0,0,1,.4,0l.58,0c.21,0,.41.11.62.14a1.11,1.11,0,0,0,.26,0,1.72,1.72,0,0,0,.32,0,2.73,2.73,0,0,1,.57,0h.21l.33,0c.11,0,.19.07.3.09a1.81,1.81,0,0,1,.31,0,2.87,2.87,0,0,0,.58.07.08.08,0,0,0,.08,0l.17.05c.09,0,.13-.05.23,0C35.56,40.6,35.17,40.61,35,40.5Z" fill="#ef8c23"/><path d="M38.46,44.6l-.05,0h0l.42-.08a6,6,0,0,0,.68-.22c.13-.05.25-.11.38-.15s.27,0,.41-.06.27-.13.41-.18l.37-.13.35-.08a.74.74,0,0,0,0,.55l-.47.12a4.5,4.5,0,0,0-.44.16c-.15.07-.32.09-.48.16a3.43,3.43,0,0,1-.45.16,2.84,2.84,0,0,0-.49.1,1.3,1.3,0,0,1-.39.14c-.15,0-.29.06-.43.09l-.09,0L39,45l.67-.16c.29-.06.54-.23.83-.3s.49-.06.72-.12a3.31,3.31,0,0,0,.33,0h0c.59.63,2.38.84,4.89.46l-.09,0a1.59,1.59,0,0,0-.21.15.15.15,0,0,0-.05.06l-.1,0-.17.14a1,1,0,0,1-.14.08l-.2.2-.14.11a1.37,1.37,0,0,1-.17.17c-.07,0-.13.06-.19.1s-.31.18-.47.27l-.26.16a1.26,1.26,0,0,1-.17.11,1.94,1.94,0,0,0-.44.31,4.86,4.86,0,0,0-.41.38c-.13.15-.25.32-.39.46l-.17.19a.49.49,0,0,1-.14.11,1.3,1.3,0,0,1,.15-.1l.17-.14a4.71,4.71,0,0,0,.45-.33,1.88,1.88,0,0,0,.23-.16,1.59,1.59,0,0,1,.21-.15A.71.71,0,0,1,43.9,47S44,47,44,47l.07-.08.09-.06.39-.33.17-.17a.53.53,0,0,1,.1-.06.81.81,0,0,0,.09-.1l.19-.13.17-.14c.06,0,.14-.08.19-.13l.13-.15a.31.31,0,0,1,.09-.07s.05,0,.08-.07l.19-.16.2-.17c.07,0,.13-.11.2-.16a2.2,2.2,0,0,1,.26-.15,1.46,1.46,0,0,1,.22,0l-.12,0,.05,0a1.79,1.79,0,0,1,.24-.12c.09,0,.16-.1.25-.15A7.77,7.77,0,0,0,48,44c.13-.09.27-.18.39-.28s.13-.12.2-.16l.21-.13a3.68,3.68,0,0,1,.5-.3c.16-.1.33-.18.49-.27l.42-.2a.54.54,0,0,1,.26-.11c-.11.05-.21,0-.32.05a2.41,2.41,0,0,1-.25.08,5.11,5.11,0,0,0-.48.22l-.26.17-.18.13a1.56,1.56,0,0,0-.2.16.47.47,0,0,0-.1.1l-.11.07c-.12.06-.22.16-.33.22l-.32.2a3.61,3.61,0,0,1-.39.22,3,3,0,0,0-.38.23l-.1.09a.18.18,0,0,0-.1,0l-.17.14-.13.09-2.94-.89.55-.16c.07,0,.1-.06.18-.07s.14,0,.21,0l.41-.08a3.52,3.52,0,0,0,.61-.18,4.4,4.4,0,0,1,.88-.24c.29-.05.57-.15.87-.19l.76-.09c.12,0,.23,0,.34,0l.36-.07c.26,0,.53-.12.79-.17a3.59,3.59,0,0,1,.79-.17,2.88,2.88,0,0,0,.41,0,3.55,3.55,0,0,0,.46,0,11.05,11.05,0,0,0,1-.55,2.49,2.49,0,0,0-.37.09l-.42.07c-.3.05-.58.19-.88.25s-.4.11-.61.15-.41.13-.64.17-.51.09-.77.11-.61.13-.92.17-.59,0-.88.05c-.13,0-.26.06-.37.06a4.26,4.26,0,0,1-.51,0,5.63,5.63,0,0,0-1.43.49c-.14,0-.29.05-.43.09a3.05,3.05,0,0,1-.32.13l-.48.15-1-.3.25-.06c.25-.06.49-.14.75-.18h.19l.16-.06.35-.08c.13,0,.23-.07.36-.1a1.64,1.64,0,0,0,.38-.1c.07,0,.1-.1.17-.13a1.74,1.74,0,0,1,.22,0,2.65,2.65,0,0,0,.3-.11,8.31,8.31,0,0,0,.95-.46,3.24,3.24,0,0,0,.37-.19,1.55,1.55,0,0,1,.36-.13,2,2,0,0,1,.39-.18l.44-.11,1.14-.2.7-.13-.25,0-.45,0-.26,0h-.14a6,6,0,0,0-.73,0,3.18,3.18,0,0,0-.89.24c-.22.08-.42.22-.65.3a13.87,13.87,0,0,0-1.53.8,4.48,4.48,0,0,1-.69.27c-.22.06-.41.17-.63.22a13.21,13.21,0,0,0-1.44.38l-.14,0-.41-.13a1.31,1.31,0,0,0-.12.28q-.63.16-1.26.36c-.23.06-.45.14-.67.22a1.6,1.6,0,0,0-.31.1,2.26,2.26,0,0,1-.26.16c-.15.07-.29.1-.44.17a.76.76,0,0,1-.16.06,1.27,1.27,0,0,0,0-.39,1.28,1.28,0,0,1,.07-.42v-.14c0-.09,0-.18,0-.27a1.23,1.23,0,0,1,0-.27,1.09,1.09,0,0,0,0-.25,5.16,5.16,0,0,0,0-.88,3.75,3.75,0,0,1,0-.47c0-.09,0-.18,0-.28a.54.54,0,0,0,0-.25c-.1.1,0,.27,0,.38s0,.35,0,.53,0,.31,0,.47,0,.27,0,.4c0,.29-.06.59-.06.9a3.53,3.53,0,0,0,0,.46,1.31,1.31,0,0,1-.12.47c.06-.1-.09-.31-.1-.43a5.29,5.29,0,0,0-.06-.8,4,4,0,0,1-.11-.77c0-.11,0-.23,0-.34a1.06,1.06,0,0,0,0-.31,4,4,0,0,1-.08-.59,1.72,1.72,0,0,1,0-.32c0-.07,0-.12,0-.19s0-.07,0-.13a1.21,1.21,0,0,1,.11-.3c0-.05.06-.12.06-.17s0-.08,0-.14a.61.61,0,0,1,0-.12,1.21,1.21,0,0,0,0-.19,1.65,1.65,0,0,1,.11-.36,1.06,1.06,0,0,0,.1-.3c0-.06,0-.12,0-.19s0-.11,0-.15.08-.19.09-.28a2.83,2.83,0,0,0,0-.29,1.72,1.72,0,0,0,0-.32,1.58,1.58,0,0,1,0-.38.66.66,0,0,1,0-.14,1.22,1.22,0,0,0,.07-.17c0-.13,0-.27,0-.4s0-.21.05-.31,0-.13,0-.2.06-.12.07-.18a1.76,1.76,0,0,1,0-.31,1,1,0,0,1,.18-.33c.08-.09.15-.19.22-.28l.22-.24s0-.07,0-.1l.47.17,1.47.53c.15,0,.25.14.39.2l.37.13.22.08c.06,0,.09.1.16.13s.24.06.35.12a1.59,1.59,0,0,0,.21.15l.18.06a1.77,1.77,0,0,1,.33.19c.07,0,.16,0,.22.07s.1.1.17.14l.41.2c.09.06.16.12.25.17a1.08,1.08,0,0,1,.19.08,1.43,1.43,0,0,0,.21.12c.05,0,.12,0,.17.06a3.72,3.72,0,0,0,.39.21c.13,0,.21.14.34.19a3.75,3.75,0,0,0,.4.21l.46.17a3.74,3.74,0,0,1,.75.28,4.22,4.22,0,0,0,.87.37c.26.09.48.24.74.33a3,3,0,0,1,.42.15,1.77,1.77,0,0,0,.33.19,1.74,1.74,0,0,1,.33.18,1.57,1.57,0,0,1,.33.19s.19.05.07.16-.12,0-.18,0l-.34,0a2.21,2.21,0,0,1-.37,0h-.15a.55.55,0,0,0-.18,0,5.34,5.34,0,0,0,.93.31,3.89,3.89,0,0,1,.9.28A6,6,0,0,1,52,41a.94.94,0,0,1-.28-.15c-.19-.13-.41-.23-.6-.36-.52-.37.52-.35.58-.52s-.13-.24-.13-.33a.56.56,0,0,1,.1-.28s0,0,0,0l.33.33c.08.09.28.22.41.36-.06-.1-.11-.21-.17-.33s-.19-.36-.29-.54a.61.61,0,0,1,.18,0c.39,0,.79.44,1.18.33a2.41,2.41,0,0,0,0-.38c0-.19-.06-.38-.1-.57a9.73,9.73,0,0,0-.17-1.06c0-.12-.17-.39-.31-.25s0,.18,0,.26a.67.67,0,0,1-.07.24,1,1,0,0,1-.44.68c0-.08-.13-.15-.18-.23s-.12-.16-.19-.23-.24-.29-.37-.43a2.23,2.23,0,0,1-.42-.5,6.55,6.55,0,0,1-.32-.58c-.22-.47-.56-.87-.78-1.34a7.32,7.32,0,0,0-.88-1.31c-.18-.24-.4-.44-.59-.68s-.39-.5-.61-.75-.29-.38-.46-.56-.27-.27-.39-.41a5.19,5.19,0,0,0-.36-.46,4.79,4.79,0,0,1-.43-.47c-.1-.14-.24-.22-.34-.36l-.17-.24a4.22,4.22,0,0,1-.27-.36l.09,0a6.6,6.6,0,0,0,.63-.2,3.28,3.28,0,0,1,.59-.3c.25-.07.48-.14.73-.19s.31,0,.47-.05l.41-.18a3.44,3.44,0,0,1,.75-.24l.45-.11c.16,0,.31,0,.47,0s.23-.06.35-.07.32,0,.48,0a3.32,3.32,0,0,1,.83-.11,3.22,3.22,0,0,1,.68.17c0,.14.07.27.09.41,0,.34.12.65.14,1s.1.57,0,.77c-.1,0-.07-.17-.18-.18s0,.15,0,.24a1.27,1.27,0,0,1-.06.18,1.79,1.79,0,0,0,0,.4c0,.2.06.38.09.57a.34.34,0,0,1,0-.14A3.59,3.59,0,0,0,52.5,31c0-.13,0-.24.07-.37a2.53,2.53,0,0,0,.07-.38,5.5,5.5,0,0,0,0-.91,5.49,5.49,0,0,0,0-.81,5.4,5.4,0,0,0-.11-.9,5.29,5.29,0,0,0-.15-.57.8.8,0,0,1,.15,0l.69-.07a7.42,7.42,0,0,1,1.63-.07,5.05,5.05,0,0,1,.56.12,4.1,4.1,0,0,1,.48.1c.32.12.65.25,1,.36s.42.08.62.16l.49.17a1.83,1.83,0,0,0,.32.07c0,.08,0,.16,0,.25a2.18,2.18,0,0,1-.09.23.61.61,0,0,0,0,.19,1.93,1.93,0,0,1-.11.34,4.56,4.56,0,0,1-.4,1c-.07.1-.08.23-.16.34a1.54,1.54,0,0,0-.17.34c-.23.65-.46,1.3-.7,1.95-.3.86-.61,1.71-.92,2.57a.85.85,0,0,1-.2.39c-.06,0-.13.15-.21.18a.32.32,0,0,1-.29-.15A3,3,0,0,1,55,35c0-.15,0-.28-.05-.42a1.34,1.34,0,0,1,0-.35,1.75,1.75,0,0,0,0-.32.83.83,0,0,1,0-.31c.1-.27.12-.52.22-.79a1.59,1.59,0,0,0,.06-.37,2.09,2.09,0,0,1,.13-.35,6.14,6.14,0,0,0,.19-.93c0-.32.07-.65.1-1s.1-.83.13-1.24,0-.87,0-1.3c0,.11-.09.22-.11.33s0,.15,0,.25a1.34,1.34,0,0,0-.07.18,1.34,1.34,0,0,0,0,.2c0,.1,0,.21-.05.31a.74.74,0,0,0,0,.15c0,.06,0,.11,0,.17s0,.12,0,.19l-.06.17a1.32,1.32,0,0,1,0,.33.8.8,0,0,0,0,.31c-.05.31-.25.58-.28.9s-.13.53-.15.8-.12.58-.15.88-.07.51-.09.76a1.33,1.33,0,0,0,0,.4c0,.13,0,.26,0,.39s0,.26,0,.39.06.28,0,.42a3,3,0,0,1-.08.43c0,.07,0,.13,0,.2s-.06.12-.07.18a1.68,1.68,0,0,1-.06.37,1.55,1.55,0,0,1-.13.36.2.2,0,0,1-.13.08,2.68,2.68,0,0,1-.07-.27l-.1.16s0,0,0,0a.83.83,0,0,1-.21-.26,3.8,3.8,0,0,1-.16-.55c-.07-.27-.14-.52-.19-.79a2.46,2.46,0,0,1,0-.28c0-.14-.07-.28-.09-.42a3.74,3.74,0,0,1-.06-.75,3.69,3.69,0,0,0,0-.74c0-.27-.15-.53-.18-.8s0-.27,0-.41,0-.37,0-.46a5.27,5.27,0,0,0,0,1.05,2.37,2.37,0,0,1,0,.46,5.46,5.46,0,0,0,0,.56,7.38,7.38,0,0,0,0,1.15,5.35,5.35,0,0,1,.11,1c0,.17.09.33.11.49a3.28,3.28,0,0,1,0,.52,1.86,1.86,0,0,0,.19,1.06c.09.15.33.13.51.12a1.09,1.09,0,0,1,.18,0c.07.1.13.2.07.29a.86.86,0,0,0,0-.28.89.89,0,0,1,.22,0,.78.78,0,0,1,.39.25c.11.12.2.33.35.41a1,1,0,0,0,.14-.15l.09-.11c.06-.09.1-.17.17-.26s.19-.27.29-.41a.71.71,0,0,1,.14-.1.76.76,0,0,0-.08.11,5.56,5.56,0,0,0-.41.58c0,.07,0,.15-.1.23s-.08.08-.11.16a1.89,1.89,0,0,1-.06.18c0,.06-.09.09-.13.15a2,2,0,0,0-.23.7c.08,0,.29-.25.37-.32s.08-.13.15-.2a2.54,2.54,0,0,1,.24-.2c.27-.24.54-.49.8-.76a8.26,8.26,0,0,1,1-.91,5.88,5.88,0,0,1,.59-.53l.25-.17c.08-.06.31-.09.32-.21s-.34,0-.44.09a5.11,5.11,0,0,0-.48.22,3.5,3.5,0,0,0-.43.33l-.07,0c.25-.2.45-.48.7-.69s.65-.51,1-.78.34-.28.51-.41a6,6,0,0,0,.45-.42c.21-.2.46-.36.66-.56s.23-.15.34-.24.19-.22.31-.32a2.63,2.63,0,0,0,.6-.6,1.4,1.4,0,0,1,.16-.26c.07-.09.2-.14.24-.26s.21.2.35,0,.23-.33.34-.49a5.39,5.39,0,0,0,.43-.63c.05-.09.25-.35.23-.45s-.17.17-.22.24-.16.17-.23.26a4.22,4.22,0,0,1-.47.56c-.19.2-.33.4-.54.59s-.35.33-.54.48-.39.37-.59.52a6.67,6.67,0,0,1-.72.45,5.48,5.48,0,0,0-.68.51c-.11.08-.19.2-.3.29s-.25.16-.37.26c-.4.32-.88.59-1.3.87v0s0-.06,0-.08.27-.25.38-.4.26-.36.39-.53c.3-.39.65-.73,1-1.11a14.49,14.49,0,0,1,1.09-1,13.63,13.63,0,0,0,1.05-.95,12.32,12.32,0,0,0,1.08-1.2c.14-.21.29-.41.46-.62s.13-.18.21-.27.2-.19.29-.29.39-.43.58-.65l.23-.32a3.81,3.81,0,0,0,.29-.41,9.79,9.79,0,0,1,.55-.82c.16-.23.27-.47.44-.69s.45-.62.69-.9a3.39,3.39,0,0,0,.27-.39l-.09.08c-.06.05-.14.07-.2.12s-.12.13-.2.19a2.2,2.2,0,0,0-.33.35c-.07.08-.14.08-.22.13a1.71,1.71,0,0,0-.2.18l-.35.34-.41.38a3,3,0,0,0-.24.38l-.45.7a3.73,3.73,0,0,1-.26.3l-.24.3c-.15.19-.31.38-.45.58a2.23,2.23,0,0,1-.2.33,3.59,3.59,0,0,0-.36.32c-.38.44-.71.91-1,1.35-.16.21-.37.41-.52.62a2.54,2.54,0,0,1-.47.56c-.22.18-.47.3-.68.49l-.46.43a6.35,6.35,0,0,0-.89,1.12,1.29,1.29,0,0,1-.27.25c-.08.07-.15.17-.24.25s-.36.31-.54.46a6.72,6.72,0,0,0-.61.58s0,.08-.09.12l-.15.13-.3.2a.59.59,0,0,1,.15-.33,1.39,1.39,0,0,0,.12-.28c.06-.17.12-.33.17-.5a1.47,1.47,0,0,0,.1-.13l-.08.09v0s0,0,0,0l-.47.49a2,2,0,0,0-.48.82s0,0,0,.05-.16.32-.3.28a2.35,2.35,0,0,1,.05-.37,1.12,1.12,0,0,0,.11-.34c0-.05,0-.09,0-.15a1.34,1.34,0,0,1,.07-.18l.12-.35c.05-.12.08-.24.13-.35s.13-.2.18-.33a4.23,4.23,0,0,1,.44-.71c.08-.12.1-.27.17-.39s.07-.05.09-.11a1.3,1.3,0,0,1,.08-.17,3.66,3.66,0,0,0,.4-.79l.27-.76.15-.42a1.48,1.48,0,0,0,.1-.27c0-.09,0-.17,0-.26a4.68,4.68,0,0,1,.18-.48c.05-.15,0-.29.08-.44a1.51,1.51,0,0,0,.07-.37c0-.16.13-.3.15-.46a1.92,1.92,0,0,1,.09-.4c.06-.16,0-.3.1-.46l.15-.49h0c.12,0,.23.14.35.08-.06,0-.13,0-.2-.08a.83.83,0,0,1-.15-.11c0-.16.09-.32.15-.49l0-.1.17,0a2.92,2.92,0,0,0,.49.12,4,4,0,0,1,.66.23,8.16,8.16,0,0,0,1.61.52,2.29,2.29,0,0,1,.37.12c.15.06.25.15.39.21s.5.18.75.27c-.13,0-.26-.43-.34-.52a2.61,2.61,0,0,0-.47-.35,2.49,2.49,0,0,0-.59-.23l-.59-.21a2.93,2.93,0,0,1-.64-.25c-.17-.12-.38-.18-.55-.3s-.2-.07-.29-.13a1.14,1.14,0,0,1-.19-.19A3.12,3.12,0,0,0,59,26s0,0,0,.07a3.78,3.78,0,0,1,.21-.56l.1-.3a3.47,3.47,0,0,1-.18.33,3.84,3.84,0,0,1-.18.35,3,3,0,0,0-.16.42l-.34.16a.9.9,0,0,1-.36.14l-.52,0a2.05,2.05,0,0,0-.49,0l-.1.07h-.1l-.22.05a2.61,2.61,0,0,1-.84.08,8.94,8.94,0,0,1-1,0,1.8,1.8,0,0,0-.52,0l-.41.05h-.47a3.38,3.38,0,0,0-.45,0,5,5,0,0,0-.51.16l0-.17-.18-.91c0,.15,0,.3,0,.46s0,.45,0,.68l-.22.07a1.7,1.7,0,0,1,.22,0h0a5,5,0,0,0,.18,1c-.1-.13-.23-.5-.32-.54a1.09,1.09,0,0,0-.24-.07,1.75,1.75,0,0,0-.45,0,3.24,3.24,0,0,0-.33.13,1.93,1.93,0,0,1-.24,0l-.18,0a2,2,0,0,0-.49.08,1,1,0,0,1-.29.11,2.28,2.28,0,0,0-.26,0l-.48,0c-.14,0-.27,0-.41.06s-.55-.13-.84-.07a.62.62,0,0,0-.26.12.84.84,0,0,1-.32.14c-.43.13-.81.36-1.22.52a5.87,5.87,0,0,1-.82.23.77.77,0,0,0-.26.1l-.16-.18c-.16-.19-.34-.36-.5-.55s-.59-.65-.9-1a2,2,0,0,0-.64-.56c.09.15.11.32.21.46a8,8,0,0,0,.55.75,4.59,4.59,0,0,1,.37.39c.07.11.16.19.23.29s.31.35.48.51a2.11,2.11,0,0,1,.4.53,2,2,0,0,0,.32.57c.1.11.14.24.23.36a4,4,0,0,1,.28.3,7.64,7.64,0,0,0,.5.66c.35.4.65.84,1,1.21s.53.65.82,1c.11.12.26.23.36.36a1.51,1.51,0,0,0,.18.26,15.52,15.52,0,0,1,1.2,1.6c.21.34.5.59.68.94a4.81,4.81,0,0,0,.59.9c0-.11-.2-.24-.28-.32s-.18-.21-.29-.31-.18-.23-.29-.33a5.86,5.86,0,0,1-.44-.42c-.09-.1-.13-.23-.21-.33s-.14-.12-.2-.2-.22-.46-.37-.66-.33-.5-.52-.73a2.61,2.61,0,0,0-.37-.44,7.24,7.24,0,0,0,.43.89l-.09-.1.1.12c0,.09.09.17.13.27a3.68,3.68,0,0,0,.32.58c.08.14.19.27.28.4l0,.1c.19.3-.59.68-.4,1s.7.31,1.08.46a5,5,0,0,0,.46,1c-.08-.13-.26-.2-.36-.3s-.18-.21-.29-.32c-.28-.3-.58-.56-.89-.84-.09-.09-.15-.2-.24-.28a1.67,1.67,0,0,0-.28-.18,5.74,5.74,0,0,1-.5-.36,10.4,10.4,0,0,0-.9-.71c-.3-.21-.58-.45-.88-.65-.14-.09-.3-.16-.43-.25s-.12-.13-.22-.12a1.8,1.8,0,0,0,.5.41c.23.19.44.4.65.61.36.35.81.62,1.15,1,.79.85,1.87,1.37,2.65,2.22-.15,0-.23-.17-.35-.25l-.33-.2a7.11,7.11,0,0,0-.74-.47c-.17-.08-.37-.1-.53-.18s-.34-.21-.51-.3l-.54-.34A1.63,1.63,0,0,1,47.3,37c-.06,0-.07-.08-.14-.1s.11.09.19.13a1.61,1.61,0,0,0,.28.17,3.56,3.56,0,0,1,.48.31c.18.12.37.21.55.33s.32.2.48.32l.94.71.27.19a1.59,1.59,0,0,0,.22.13c.13.08.23.25.41.28a1.53,1.53,0,0,1-.32-.13s-.06-.06-.11-.09l-.12,0c-.11-.06-.15-.13-.28-.17a1.19,1.19,0,0,1-.29-.12,12.93,12.93,0,0,0-1.27-.51c-.11,0-.15-.12-.28-.16S48.15,38.1,48,38a3.33,3.33,0,0,0-.65-.23,5.89,5.89,0,0,1-1.21-.49c-.11-.07-.24-.08-.35-.14s-.12-.1-.21-.15-.44-.15-.65-.23a5,5,0,0,1-.65-.23,2.46,2.46,0,0,0-.27-.17,1.2,1.2,0,0,1-.27-.16l-.18-.06c-.08,0-.1-.07-.16-.11s-.2-.07-.29-.12a1.77,1.77,0,0,0-.33-.19.94.94,0,0,1-.28-.15,3.54,3.54,0,0,0-.64-.25l-.59-.21L40.9,35a1.67,1.67,0,0,0-.38-.06c-.24,0-.46-.22-.71-.25a1.86,1.86,0,0,1-.39-.1,1.92,1.92,0,0,0,.12-.25.53.53,0,0,1-.14.25c-.36-.11-.73-.26-1.07-.38a2.26,2.26,0,0,0-.41-.15,2.53,2.53,0,0,1-.38-.07l-.7-.25a1.17,1.17,0,0,0-.24-.09h-.2a2.48,2.48,0,0,1-.35-.13l-.7-.25-.42-.15a2.79,2.79,0,0,1-.33-.19,5.27,5.27,0,0,0-.7-.25c-.28-.1-.51-.3-.78-.42s-.21-.13-.33-.18a1.54,1.54,0,0,1-.34-.17,2.72,2.72,0,0,0-.47-.19c-.13,0-.21-.13-.33-.18a2.74,2.74,0,0,1-.34-.19c-.13-.08-.28-.08-.4-.16a4.19,4.19,0,0,0-.73-.38,2.57,2.57,0,0,0-.33-.18l-.35-.13a5.05,5.05,0,0,0-.82-.3c-.07,0-.13,0-.2,0a2,2,0,0,1-.22-.08l-.49-.18a5.54,5.54,0,0,0-.57-.21,3.65,3.65,0,0,1-.55-.13,4.62,4.62,0,0,1-.84-.29,2,2,0,0,0-.46-.24l-.5-.18c-.19-.07-.34-.18-.52-.26a5.84,5.84,0,0,1-.59-.2,3.12,3.12,0,0,0-.35-.2c-.09,0-.19-.05-.28-.1a3.11,3.11,0,0,0-.52-.25c-.34-.12-.62-.34-.94-.47s-.35-.2-.55-.27L20.6,27a1.76,1.76,0,0,1-.38-.21,3.93,3.93,0,0,0-.41-.14c-.53-.19-1-.41-1.59-.57A2.06,2.06,0,0,0,18,26c-.06,0-.11-.06-.17-.07s-.13,0-.2,0a1.69,1.69,0,0,0-.24-.08c-.16,0-.29-.07-.45-.09s-.34,0-.51,0a1.27,1.27,0,0,1-.24-.07c-.07,0-.11,0-.19,0l-.38,0a2.48,2.48,0,0,1-.81-.11,2.54,2.54,0,0,0,.51.17.71.71,0,0,1,.2,0,1,1,0,0,0,.23.07s.09,0,.15,0l.11,0a1.17,1.17,0,0,0,.24.09c.08,0,.11,0,.2,0l.25,0c.19,0,.35.15.53.18s.17,0,.26,0l.23.09.53.19c.22.08.39.21.61.29a7.58,7.58,0,0,1,1.25.5,4.45,4.45,0,0,0,.51.19c.15.07.28.17.44.23s.46.14.67.24.23.15.38.21l.31.11.61.22c.45.16.82.43,1.27.59s.81.34,1.23.51c.21.08.38.2.59.28a6.36,6.36,0,0,1,.59.28c.43.19.9.32,1.35.48.2.07.39.15.59.21s.33.19.52.26a10,10,0,0,1,1.08.4,4.06,4.06,0,0,0,.6.27c.24.09.44.21.67.31a3.73,3.73,0,0,1,.4.14c.08,0,.13.11.21.15a4.75,4.75,0,0,0,.49.17l.81.29a4.33,4.33,0,0,1,.78.3,2.44,2.44,0,0,0,.43.21c.18.06.31.17.48.24.57.23,1.17.41,1.75.62.27.1.52.12.78.22l.36.13a1.59,1.59,0,0,0,.37.06c.14,0,.28.11.41.15a.67.67,0,0,0,.18.07c.06,0,.1,0,.15,0l.14.05a2.35,2.35,0,0,0-.24.37c-.08.15-.22.26-.29.42s-.18.32-.25.51l-.33.94a2,2,0,0,0-.17.47.82.82,0,0,0,0,.27,1.22,1.22,0,0,1,0,.33,2,2,0,0,0,0,.42,3.24,3.24,0,0,1,0,.44.67.67,0,0,1,0,.2,2.09,2.09,0,0,1-.08.23,1.18,1.18,0,0,0,0,.26,2.49,2.49,0,0,1-.11.29,2,2,0,0,1-.17.48c-.09.13-.34,0-.48,0a5.21,5.21,0,0,0-.55,0c-.15,0-.37,0-.51,0a.79.79,0,0,0,.33.13l.38.06a2.32,2.32,0,0,1,.7.07c.09,0,.23.06.26.17s0,.12,0,.17a1.36,1.36,0,0,0,0,.21,3,3,0,0,1,0,.74,1.32,1.32,0,0,0,0,.28c0,.13,0,.24,0,.36a4.86,4.86,0,0,0,.08.64,6.61,6.61,0,0,1,0,.76,3,3,0,0,1,0,.31c0,.1-.1.18,0,.29-.11-.08-.18-.29-.25-.4s-.16-.48-.27-.49,0,.42,0,.55a1.12,1.12,0,0,0,.28.51c.19.17.28,0,.47-.1S38.29,44.71,38.46,44.6ZM56.06,38c-.22.23-.44.46-.68.68l.13-.17a3.23,3.23,0,0,1,.25-.29,8.52,8.52,0,0,1,.74-.73l.3-.2A10,10,0,0,0,56.06,38Zm1.36-2h0Zm-1-.42a.36.36,0,0,1,0,.09s0,0-.06,0A.64.64,0,0,0,56.38,35.49ZM56,36l.25-.33c-.1.14-.18.3-.27.44l0,.05A1,1,0,0,1,56,36Zm2.4-8.9.06,0a3.49,3.49,0,0,1-.12.54h0a.64.64,0,0,1-.19-.08.76.76,0,0,0-.19-.12,6.56,6.56,0,0,0-.94-.33,2.17,2.17,0,0,1,.67-.09A2.36,2.36,0,0,1,58.39,27.11Z" fill="#ef8c23"/><path d="M28.6,7.22l.79.75A1.83,1.83,0,0,0,29,7.51,3.37,3.37,0,0,1,28.6,7.22Z" fill="#ef8c23"/><path d="M41.91,27.41c0,.26-.17.47-.2.72a3.31,3.31,0,0,1-.2.73c-.18.5-.41.94-.59,1.44a3.09,3.09,0,0,1-.31.69,4.76,4.76,0,0,1-.5.61c-.1.1-.11.22-.18.33a1.38,1.38,0,0,0-.18.34,2.06,2.06,0,0,0-.09.78,1.73,1.73,0,0,0,0,.39c0,.11.11.2.15.31a2,2,0,0,0,.41.64c.07.06.12.13.19.2l.28.21A2.14,2.14,0,0,0,41,35c.09.06.23-.17.33-.16,0-.19-.36-.41-.49-.51a1.41,1.41,0,0,1-.52-.64,1.75,1.75,0,0,1-.18-.74,2.5,2.5,0,0,1,.32-.75,5.47,5.47,0,0,0,.44-.63s0,0,0,.05.21.24.31.34a1,1,0,0,0,.39.26,1.63,1.63,0,0,1,.45.24,5.32,5.32,0,0,1,.46.37,2.8,2.8,0,0,0,.43.27,3,3,0,0,1,.54.32,1.5,1.5,0,0,0,.42.29c-.16-.05-.27-.22-.39-.33l-.33-.25a4.23,4.23,0,0,1-.4-.34c-.15-.13-.32-.23-.46-.36a3.5,3.5,0,0,0-.46-.39c-.14-.09-.29-.17-.43-.28s-.29-.2-.44-.33a.5.5,0,0,1,.1-.19,3.71,3.71,0,0,0,.23-.32,3.91,3.91,0,0,0,.27-.7c.09-.25,0-.49.13-.75.19-.5.36-1,.55-1.52a1.84,1.84,0,0,0,.17-.67c0-.07,0-.08,0-.15s0-.08,0-.12a1.79,1.79,0,0,1-.13-.39,4.09,4.09,0,0,0-.62-1.36c-.16-.22-.34-.43-.5-.65s-.45-.61-.69-.89c-.08-.08-.18-.14-.26-.23s-.13-.19-.21-.28-.25-.28-.38-.42-.28-.3-.42-.47a7.17,7.17,0,0,1-.5-.69c-.28-.48-.67-.93-.93-1.43a2.1,2.1,0,0,0-.15-.3,2,2,0,0,1-.18-.32,1.68,1.68,0,0,0-.27-.37,2.78,2.78,0,0,1-.33-.51c-.16-.24-.32-.48-.47-.73s-.26-.56-.44-.82c-.31-.47-.64-.93-1-1.39-.12-.17-.23-.36-.36-.53s-.29-.31-.42-.48c-.26-.33-.57-.63-.83-1,0-.07-.07-.16-.12-.25s-.11-.12-.18-.21-.08-.16-.14-.24h0a4.08,4.08,0,0,0,.35.73c.21.26.39.55.57.82s.28.53.44.81.27.3.38.46.24.48.41.68.28.31.41.48.23.35.34.52a5.14,5.14,0,0,0,.37.54,1.5,1.5,0,0,1,.23.2,3.7,3.7,0,0,1,.25.43c.08.15.18.28.26.42s.09.13.13.2,0,.18.1.27a3.3,3.3,0,0,0,.26.39,4.71,4.71,0,0,1,.21.52,7.72,7.72,0,0,1,.5,1.05,1.54,1.54,0,0,0,.3.42,3.92,3.92,0,0,0,.45.46,6.45,6.45,0,0,1,.9.91c.13.17.24.35.37.51s.19.32.29.47c.22.3.46.6.68.91a7.6,7.6,0,0,1,.44.74,2,2,0,0,1-.41-.3c-.18-.15-.34-.34-.53-.49s-.42-.34-.61-.52a4.11,4.11,0,0,1-.3-.29l0,0,.09.12c.12.15.24.31.37.46.29.37.59.73.86,1.11S41.87,26.83,41.91,27.41Z" fill="#ef8c23"/><path d="M27.34,6c-.31-.3-.65-.58-1-.86s-.58-.5-.85-.75A3.61,3.61,0,0,1,25.17,4c-.07-.09-.13-.2-.2-.28a1.28,1.28,0,0,0,.21.4,3.72,3.72,0,0,0,.48.57A7.3,7.3,0,0,0,26.9,5.83a3.72,3.72,0,0,1,.46.43,2,2,0,0,0,.46.37,5.7,5.7,0,0,1,.78.59c-.23-.22-.47-.42-.68-.65S27.54,6.15,27.34,6Z" fill="#ef8c23"/><path d="M32.72,12.81c0-.07-.07-.16-.12-.23s-.11-.12-.16-.18a2.37,2.37,0,0,0,.3.5c0,.07.13.12.19.19l0-.05C32.85,13,32.77,12.89,32.72,12.81Z" fill="#ef8c23"/><path d="M32.34,12.24a.83.83,0,0,0,.07.13l0,0,0-.1Z" fill="#ef8c23"/><path d="M30.25,8.81c-.24-.25-.49-.49-.74-.72L29.39,8a2.16,2.16,0,0,0,.24.31,3,3,0,0,1,.26.36c.15.18.32.35.46.54l.32.45A3.33,3.33,0,0,0,31,10l-.31-.56A3.25,3.25,0,0,0,30.25,8.81Z" fill="#ef8c23"/><path d="M31.24,10.41s0,.07.05.11a3.91,3.91,0,0,0,.31.57,4,4,0,0,0,.27.5c.09.12.18.22.27.33a1.55,1.55,0,0,0-.14-.29A8.92,8.92,0,0,1,31.24,10.41Z" fill="#ef8c23"/><path d="M32.14,11.92a.67.67,0,0,0,.06.12,2.43,2.43,0,0,0,.14.2,1.14,1.14,0,0,0-.1-.19A1.47,1.47,0,0,1,32.14,11.92Z" fill="#ef8c23"/><path d="M31,10l.21.39a1.39,1.39,0,0,0-.19-.36Z" fill="#ef8c23"/><path d="M41.7,34.28l.22.24a.67.67,0,0,0,.21.2,2.35,2.35,0,0,1,.32.23,1.5,1.5,0,0,0,.54.34c.25.09.43.23.68.31l.4.16c-.24-.16-.46-.32-.7-.47S43,35.1,42.83,35l-.43-.28c-.14-.1-.28-.2-.43-.29a1.45,1.45,0,0,1-.4-.3A.45.45,0,0,0,41.7,34.28Z" fill="#ef8c23"/><path d="M44.91,36.18a2.43,2.43,0,0,0-.32-.18.94.94,0,0,1-.28-.15.85.85,0,0,0-.24-.09,3.93,3.93,0,0,0,.73.39Z" fill="#ef8c23"/><path d="M45.61,36.43h0a2.91,2.91,0,0,0,.3.17C45.78,36.54,45.71,36.48,45.61,36.43Z" fill="#ef8c23"/><path d="M46.12,36.7a.78.78,0,0,0-.21-.09c.12,0,.09.08.2.14Z" fill="#ef8c23"/><path d="M45.51,36.4c-.19-.08-.4-.15-.6-.22h0C45.1,36.29,45.33,36.31,45.51,36.4Z" fill="#ef8c23"/><path d="M45.91,36.61h0l0,0,0,0Z" fill="#ef8c23"/><path d="M45.57,36.42l-.06,0,.06,0Z" fill="#ef8c23"/><path d="M39.15,31l-.27.76a1.34,1.34,0,0,1-.09.24c0,.05-.07,0-.1.09a2.2,2.2,0,0,0-.13.36c-.05.15,0,.28-.08.43a1.12,1.12,0,0,0-.11.34,1.21,1.21,0,0,0,0,.19,2.39,2.39,0,0,1,.16-.32,3.74,3.74,0,0,0,.3-.81,3,3,0,0,1,.15-.42,1.59,1.59,0,0,0,.15-.21l.06-.17a1,1,0,0,1,.47-.58,1.16,1.16,0,0,0,.52-.72l.17-.47a2.26,2.26,0,0,1,.17-.48c0-.06.08-.07.12-.14a1,1,0,0,0,.08-.23c.07-.17.06-.34.12-.5s.19-.55.29-.83,0,.28.1-.09a1.39,1.39,0,0,0,.09-.94c-.13,0-.27.29-.34.38s-.1.32-.18.47a1.2,1.2,0,0,0-.16.27l-.09.23-.17.47c-.06.18-.12.36-.19.53a2.25,2.25,0,0,1-.08.24.75.75,0,0,0,0,.2c0,.3,0,.63-.33.82a3.43,3.43,0,0,1-.7.47,1.73,1.73,0,0,0-.78.5c-.12.16-.21.32-.32.48a2.38,2.38,0,0,0-.23.45,1.13,1.13,0,0,0-.08.24c0,.08,0,.11,0,.19s-.19.33-.09.48c.16-.07.25-.56.31-.73a2.1,2.1,0,0,1,.43-.7,5.8,5.8,0,0,0,.52-.61c.08-.11.18-.21.31-.16S39.2,30.86,39.15,31Z" fill="#ef8c23"/><path d="M38.28,33.73c0,.07.07.11,0,.18a1.07,1.07,0,0,0,.06-.35.86.86,0,0,0,0-.16.3.3,0,0,1,0,.08A.53.53,0,0,0,38.28,33.73Z" fill="#ef8c23"/><path d="M35.8,37.19a3.35,3.35,0,0,0-.29.84c.19.12.32-.28.32-.41A3.11,3.11,0,0,0,35.8,37.19Z" fill="#ef8c23"/><path d="M36.17,36.15c.11-.31.23-.62.34-.94a2,2,0,0,1,.26-.5c.11-.15.19-.32.39-.39-.2-.08-.26-.09-.42,0a1.41,1.41,0,0,0-.29.31,1.28,1.28,0,0,0-.11.27,1.24,1.24,0,0,1-.17.27,3.35,3.35,0,0,0-.19.53,1.75,1.75,0,0,0,0,.32c0,.11,0,.2,0,.31a2.25,2.25,0,0,1-.06.36.86.86,0,0,0,0,.27,1.1,1.1,0,0,0,0,.18l0-.1Z" fill="#ef8c23"/><path d="M52.24,35.45a5,5,0,0,0-.16-.86.61.61,0,0,0-.09-.18c0-.09,0-.15,0-.25s-.13-.3-.17-.46c-.14-.42-.27-.86-.42-1.28a18.35,18.35,0,0,0-1-2.12c0,.15,0,.2.07.33s.06.25.09.36a3.79,3.79,0,0,0,.35.86,4.16,4.16,0,0,1,.24.47,2.2,2.2,0,0,1,.12.44c0,.3.17.59.21.9s.16.89.23,1.33c0,.2,0,.38.06.57a4.85,4.85,0,0,1,.08.53c0,.17,0,.34,0,.5s.08.29.1.44a2.7,2.7,0,0,0,.08.39c0,.1.07.19,0,.29.08-.22.1-.65.18-.87a.85.85,0,0,0,0-.31c0-.11,0-.21,0-.31A5,5,0,0,0,52.24,35.45Z" fill="#ef8c23"/><path d="M52.11,25.41l.14,0a.34.34,0,0,0-.14,0v0s0,0,0,0a.86.86,0,0,0-.24,0c-.14,0-.26,0-.39,0a2,2,0,0,0-.81.26l-.34.16c-.06,0-.09.06-.16.08a.51.51,0,0,0-.2,0c-.11.05-.22.14-.34.21s-.22.1-.32.16a14.87,14.87,0,0,1-1.4.66,1.33,1.33,0,0,1-.21.09.45.45,0,0,0-.2,0,1,1,0,0,1-.18.09l-.21.05-.39.13a1.46,1.46,0,0,1-.36.11c0-.07.43,0,.54-.05a4.24,4.24,0,0,0,.7-.11l.43-.08a1.11,1.11,0,0,0,.36-.08A2.33,2.33,0,0,0,49,26.7a2.92,2.92,0,0,1,.61-.37,3.47,3.47,0,0,1,.45-.17c.17-.06.28-.18.44-.25s.33-.09.49-.15.35-.09.52-.14l.61-.2v0a2,2,0,0,0,0,.34.36.36,0,0,0,0,.1,1.77,1.77,0,0,1,0-.23C52.13,25.57,52.11,25.49,52.11,25.41Z" fill="#ef8c23"/><path d="M52.21,24.14a7.54,7.54,0,0,0,.06-.82,12.39,12.39,0,0,0-.2-2.28A7.55,7.55,0,0,1,52,19.78c0-.38-.09-.75-.15-1.12s-.15-.76-.19-1.14a4.17,4.17,0,0,0-.08-.7c-.05-.23-.05-.44-.08-.67s-.16-.59-.22-.89-.07-.55-.11-.82a2.81,2.81,0,0,1,0-.41,2.33,2.33,0,0,0-.06-.35c0-.12,0-.23,0-.35S51.06,13.1,51,13a4.25,4.25,0,0,0-.14-.51c0-.14,0-.27-.06-.41a3,3,0,0,1-.13-.39c0-.13,0-.25-.06-.37a3.57,3.57,0,0,0-.18-.66,3.11,3.11,0,0,1-.22-.65c-.09-.48,0-1-.15-1.46a10.65,10.65,0,0,1-.39-1.67,9,9,0,0,0-.42-1.54,6.75,6.75,0,0,0-.29-.9c-.14-.29-.33-.58-.44-.88a5.61,5.61,0,0,1-.14-.9.5.5,0,0,0,0-.13c0,.06,0,.12,0,.18s0,.29,0,.45c0,.33-.06.66-.06,1s.19.53.22.83c.06.48.27.9.37,1.37,0,.16.09.3.11.46a3.12,3.12,0,0,1,0,.43c0,.17,0,.35,0,.53a2.18,2.18,0,0,0,.07.72c.08.21.09.43.15.65s.17.52.25.79.13.45.21.67a5.84,5.84,0,0,1,.18.83,3.46,3.46,0,0,0,.16.84,6.17,6.17,0,0,1,.59,2.06c.06.68.31,1.34.42,2,.07.45.09.89.16,1.34a5.2,5.2,0,0,0,.11.67c.06.2.07.39.12.6.09.42.22.82.28,1.23s.06.77.11,1.15,0,.5.06.75c0,.63,0,1.26.07,1.89a7.77,7.77,0,0,1,.09,1.36,2.3,2.3,0,0,0,0-.26C52.17,24.76,52.18,24.45,52.21,24.14Z" fill="#ef8c23"/><path d="M52.51,33.48c0,.06,0,.11,0,.16s0,0,0-.06c0-.22,0-.45,0-.67a7.32,7.32,0,0,0-.1-1l-.06-.42a2,2,0,0,0,0,.25C52.39,32.29,52.44,32.9,52.51,33.48Z" fill="#ef8c23"/><path d="M48.32,1.7c0,.1,0,.21,0,.32s0,.22,0,.33a.84.84,0,0,0,0,.17l0-.44C48.35,2,48.33,1.82,48.32,1.7Z" fill="#ef8c23"/><path d="M52.74,35.16c0,.31,0,.64.06,1A11,11,0,0,0,53,37.25c.05.18.11.35.16.53l.12,0a2.34,2.34,0,0,0,0-.38,4.57,4.57,0,0,0,0-.83,8.44,8.44,0,0,0-.3-1.43c0-.14-.08-.29-.13-.43a3.54,3.54,0,0,0-.11-.44c-.06-.14-.12-.24-.17-.39a.8.8,0,0,1-.05-.21c0,.18.05.35.07.53S52.7,34.83,52.74,35.16Z" fill="#ef8c23"/><path d="M48.28,1.4c0,.1,0,.2,0,.3,0-.26,0-.51,0-.76C48.31,1.1,48.26,1.24,48.28,1.4Z" fill="#ef8c23"/><path d="M56.25,42.51c-.7,0-1.41-.07-2.11-.13l-.86-.06c-.24,0-.53,0-.77-.08,0,0-.53,0-.52,0s.14.07.23.08a1.15,1.15,0,0,1,.19,0c.15,0,.31.12.46.17s.55.07.82.16l.88.32a1.09,1.09,0,0,0,.23.09H55a1.82,1.82,0,0,1,.41.15l.24.08a.56.56,0,0,0,.21,0c.14,0,.28.06.42.07l.8,0c.75,0,1.51.17,2.25.19l-.19,0c-.24,0-.49-.09-.74-.12-.45-.07-.91-.11-1.37-.16-.25,0-.49-.1-.74-.15s-.57-.1-.85-.18a5.88,5.88,0,0,0-.93-.18c-.13,0-.45,0-.54-.1.1,0,.36,0,.48,0a5.41,5.41,0,0,0,.59,0c.3,0,.62,0,.93,0a.88.88,0,0,1,.23.07,2.74,2.74,0,0,0,.28,0c.1,0,.18.07.27.08A2.28,2.28,0,0,0,57,43c.6.11,1.21.08,1.82.15.16,0,.33.09.49.1l.39,0c.18,0,.34.06.51.08s.31,0,.46,0,.56,0,.84.07a3.26,3.26,0,0,0,.45.05c.16,0,.29,0,.45,0a8.45,8.45,0,0,1,1.81.08c.43.07.87.17,1.31.24a4.48,4.48,0,0,0,.5.11,1.69,1.69,0,0,1,.24.08,1.49,1.49,0,0,0,.21,0c.2,0,.4.12.6.14l.45,0a10.47,10.47,0,0,0,1.12.19c.4,0,.8.11,1.19.15a5,5,0,0,0,.55,0c.12,0,.26,0,.37,0a1.58,1.58,0,0,0-.53-.12,8.35,8.35,0,0,1-2-.32c-.21-.05-.44-.07-.64-.1l-.5-.1-1.18-.23c-.93-.15-1.86-.27-2.79-.37-.43,0-.87-.07-1.29-.13s-.77-.15-1.16-.22c-.14,0-.27-.09-.42-.12a1.83,1.83,0,0,1-.32-.07,4.2,4.2,0,0,0-.62-.08,5.93,5.93,0,0,0-.59-.07h-.46c-.37,0-.73-.11-1.09-.11S56.56,42.53,56.25,42.51Z" fill="#ef8c23"/><path d="M59.64,43.63l-.31,0C59.47,43.64,59.62,43.67,59.64,43.63Z" fill="#ef8c23"/><path d="M58.56,39.55l-.12.05c-.21.1-.43.16-.65.25a3.18,3.18,0,0,0,.33-.1Z" fill="#ef8c23"/><path d="M60.73,35.81a2.1,2.1,0,0,1,.5-.31c.16-.07.27-.17.42-.25s.33-.14.49-.24.28-.19.42-.29a.47.47,0,0,1,.19-.12,1.15,1.15,0,0,0,.32-.15A6.52,6.52,0,0,1,64,34c.37-.16.75-.34,1.12-.53.14-.07.29-.16.42-.24a2.65,2.65,0,0,1,.48-.23,3.58,3.58,0,0,0,.42-.25l.23-.1a.68.68,0,0,0,.24-.12,2.36,2.36,0,0,0,.41-.25A2.89,2.89,0,0,0,67.6,32c.09-.1.18-.15.26-.24a1.64,1.64,0,0,1,.29-.35c.16-.13.4-.11.57-.22a5.34,5.34,0,0,0-.8.26c-.16.05-.29.11-.45.17a2.2,2.2,0,0,0-.38.24,1.64,1.64,0,0,0-.24.21c-.07.06-.15.1-.22.15-.26.17-.56.29-.8.48a4.86,4.86,0,0,1-.64.48c-.13.07-.28.08-.4.14a2.6,2.6,0,0,0-.45.28,3,3,0,0,1-.75.33,1.12,1.12,0,0,0-.24.13l-.38.23c-.22.12-.47.19-.69.3a1.85,1.85,0,0,0-.37.25c-.12.09-.26.12-.39.2a6.1,6.1,0,0,0-.59.4,6.75,6.75,0,0,1-.61.48,2,2,0,0,0-.36.35,1.59,1.59,0,0,1,.27-.24A2.6,2.6,0,0,0,60.73,35.81Z" fill="#ef8c23"/><path d="M60.16,41.23c-.41.05-.81,0-1.21.1l-.5.08c-.22,0-.44,0-.66,0-.4,0-.8,0-1.2,0-.17,0-.32,0-.48,0l-.48,0-.78,0h-.4l.27-.07c.38-.08.72-.23,1.1-.28a7.81,7.81,0,0,0,1-.25l.51-.12c.16,0,.32,0,.47-.06a6.48,6.48,0,0,1,.77-.06,11.2,11.2,0,0,0,1.14-.17,14.38,14.38,0,0,0,2.58-.59c.18-.08.34-.06.52-.15s.3-.1.46-.16l.24-.12c.07,0,.16,0,.22-.06s.1-.08.17-.11a1.86,1.86,0,0,0,.31-.1l.35-.21a3.83,3.83,0,0,1,.43-.17,8.43,8.43,0,0,1,1-.43,1.45,1.45,0,0,1,.26-.11c.09,0,.18,0,.27,0s.36-.16.54-.22.3-.11.45-.15a4.25,4.25,0,0,0,.49-.21,3.62,3.62,0,0,1,.86-.22c.25-.05.49-.14.74-.2l.42-.12a1.11,1.11,0,0,0-.4.06l-.44.11a4.11,4.11,0,0,0-1.09.25,4.07,4.07,0,0,1-.76.28l-.34.07c-.16,0-.31.1-.47.14a6.25,6.25,0,0,0-1.57.5,5.6,5.6,0,0,1-1.22.62c-.48.13-.92.35-1.42.44a13.85,13.85,0,0,1-1.58.15l-.49.08-.42.06-.9.11a5.26,5.26,0,0,0-.71.17c-.13,0-.27.13-.41.16s-.32,0-.48.1-.56.22-.85.31a5,5,0,0,1-.94.18,2.79,2.79,0,0,0-.4.07l-.17,0-.2,0-.5.09c-.13,0-.27,0-.39.05a2.8,2.8,0,0,1,.63-.17c.14-.05.27-.14.4-.19a4.44,4.44,0,0,1,.52-.15c.32-.11.66-.18,1-.32a4.56,4.56,0,0,1,.59-.2,6.59,6.59,0,0,0,.84-.32,9.71,9.71,0,0,1-1.16.36c-.43.09-.87.24-1.31.31-.22,0-.43.09-.64.13l-.31.06a1.05,1.05,0,0,1-.3,0c.11-.1.27-.15.4-.25l.34-.27c.28-.23.52-.5.82-.7a6.92,6.92,0,0,1,.9-.54,6.38,6.38,0,0,0,.9-.47c.3-.21.62-.36.89-.59s.36-.24.51-.39a5.49,5.49,0,0,0,.48-.6,1.53,1.53,0,0,1,.18-.18.86.86,0,0,0-.14.13c-.15.13-.28.3-.44.42s-.53.34-.78.53-.55.34-.82.52-.62.32-.93.51c-.52.3-1,.62-1.57.87a5.36,5.36,0,0,0-1.6,1c-.14.15-.55.47-.43.73a.74.74,0,0,0,.34.23c.08,0,.08.08.15.13s0,.05,0,.07a1.13,1.13,0,0,0,.31.06A2.41,2.41,0,0,0,54,42a7.06,7.06,0,0,0,.78.07c.24,0,.48,0,.72,0l.95,0c.37,0,.74,0,1.11,0l.85,0c.29,0,.56,0,.84,0a1.57,1.57,0,0,0,.65-.05,2.36,2.36,0,0,0-.75-.12,6.76,6.76,0,0,0-.9,0l-.81,0c-.24,0-.49,0-.74,0a9.45,9.45,0,0,0-1.19,0l-.63.08a3.43,3.43,0,0,0-.56,0c.09-.09.27-.09.39-.12a3.85,3.85,0,0,1,.49-.08c.37,0,.73-.08,1.1-.11s.89-.07,1.34-.08.79,0,1.19-.07l.92,0a3.86,3.86,0,0,0,.49-.06c.21,0,.43,0,.64,0a6.68,6.68,0,0,0,1.72-.37c-.38.07-.78.07-1.16.12S60.58,41.18,60.16,41.23Z" fill="#ef8c23"/><path d="M59.1,39.39a1.22,1.22,0,0,0,.4-.15.76.76,0,0,1,.38-.19,1.82,1.82,0,0,0-.65.24c-.2.09-.41.16-.61.24A2.18,2.18,0,0,1,59.1,39.39Z" fill="#ef8c23"/><path d="M60,36.3c-.06.06-.14.11-.2.18l-.27.27.37-.34A.52.52,0,0,0,60,36.3Z" fill="#ef8c23"/><path d="M64,34.56c-.14.06-.29.09-.43.14A4,4,0,0,0,63,35c-.29.17-.45.44-.72.62s-.47.4-.71.6-.42.47-.64.68a6.68,6.68,0,0,1-.8.6c-.23.16-.52.22-.75.39a4.42,4.42,0,0,1-.68.36c.21-.1.42-.18.64-.26a3.83,3.83,0,0,0,.8-.29,8.48,8.48,0,0,0,1.45-1.07c.12-.11.21-.24.32-.35a3.81,3.81,0,0,0,.36-.33,3.34,3.34,0,0,1,.74-.61,2.38,2.38,0,0,1,.4-.31c.09-.05.16-.12.25-.17s.15,0,.22-.07a3.58,3.58,0,0,0,.46-.29c.13-.08.34-.15.37-.33-.07.18-.18.17-.34.23Z" fill="#ef8c23"/><path d="M66.78,24.83a1.61,1.61,0,0,1-.24.34A.55.55,0,0,0,66.78,24.83Z" fill="#ef8c23"/><path d="M59.82,23.7c.06-.2.14-.39.21-.59s.19-.37.13-.51-.23.41-.28.54,0,.3-.09.45-.08.22-.12.34a2.09,2.09,0,0,0-.13.35,1.59,1.59,0,0,1-.06.36l-.09.25c.08-.2.2-.36.27-.57S59.75,23.91,59.82,23.7Z" fill="#ef8c23"/><path d="M59.39,24.89h0c0,.11-.09.23-.13.34h0C59.3,25.12,59.35,25,59.39,24.89Z" fill="#ef8c23"/><path d="M40.3,79.76a3.74,3.74,0,0,0,.17-.54,9.72,9.72,0,0,1,.7-2.16c.28-.79.56-1.57.85-2.36.06-.18.13-.36.19-.55a1.85,1.85,0,0,1,.12-.33c.05-.09.14-.14.19-.23s0-.19.08-.27.14-.14.2-.23a3.83,3.83,0,0,1,.17-.43c.25-.37.43-.78.67-1.15.11-.19.2-.4.32-.58a2.27,2.27,0,0,0,.22-.32c0-.11.06-.24.11-.34a2.58,2.58,0,0,0,.29-.51c.06-.18.13-.35.19-.53s.14-.35.19-.53,0-.4.13-.63a3.62,3.62,0,0,0,.2-.55c0-.21,0-.47,0-.69a4.05,4.05,0,0,1,.34-1.16c.14-.39.27-.77.41-1.15s.15-.66.26-1-.23-.25-.37-.34-.18,0-.27-.11a.41.41,0,0,0-.15-.14,2.92,2.92,0,0,1-.32-.21c-.23-.2-.47-.36-.7-.55s-.38-.23-.56-.4A3.36,3.36,0,0,0,42.73,61a5.85,5.85,0,0,1-1.44-.71,4.39,4.39,0,0,1-.6-.75c-.23-.25-.38-.56-.63-.82a3.45,3.45,0,0,1-.75-1,8.23,8.23,0,0,0-.37-.91c-.22-.4-.58-.23-.92-.14a5.78,5.78,0,0,0-.9.35l-.5.21c-.18.09-.32.24-.51.33a1.94,1.94,0,0,0-.51.31l-.45.33c-.66.5-1.39.93-2,1.48s-1.51,1.25-2.26,1.88L29.5,62.71c-.19.16-.34.34-.52.51a3.91,3.91,0,0,1-.6.4c-.37.25-.75.43-1.09.7-.15.13-.33.23-.48.35a1.79,1.79,0,0,1-.51.31,4.86,4.86,0,0,0-1.07.79c-.16.13-.24.34-.41.45s-.16,0-.24.1a2.43,2.43,0,0,1-.25.2c-.36.22-.76.41-1.13.6s-.87.51-1.33.72a4.28,4.28,0,0,0-.75.43l-.61.37c-.35.24-.71.42-1.05.64a7.57,7.57,0,0,0-1.1.78c-.28.27-.5.55-.79.81a4.78,4.78,0,0,1-1.28.81,3.5,3.5,0,0,1,.39.38l.34-.19a3.87,3.87,0,0,0,.47-.43l1-.85a13.11,13.11,0,0,1,1.17-.77,11.15,11.15,0,0,1,1.3-.72,5.18,5.18,0,0,0,.65-.26,2.94,2.94,0,0,1,.55-.3,3.77,3.77,0,0,0,.39-.26,1.57,1.57,0,0,1,.3-.12,3.7,3.7,0,0,0,.53-.38c.37-.27.73-.54,1.11-.79.12-.08.2-.2.32-.29a3.59,3.59,0,0,1,.34-.17c.19-.12.37-.28.56-.4a5.14,5.14,0,0,0,.49-.32c.18-.14.37-.26.54-.4.38-.3.8-.49,1.19-.76s.74-.46,1.11-.71.59-.43.88-.66.29-.31.45-.44.41-.24.59-.38.42-.4.65-.57a5,5,0,0,0,.5-.41,8.38,8.38,0,0,1,.95-.85c.84-.61,1.62-1.32,2.45-1.91.39-.27.78-.52,1.18-.77a2.67,2.67,0,0,1,1.08-.33,2.67,2.67,0,0,1,.48-.08.73.73,0,0,1,.42.21,5.29,5.29,0,0,1,.79.78c.28.29.52.59.78.88l.34.37a3.37,3.37,0,0,0,.3.36l.25.19c.07.05.14.12.22.17a3.06,3.06,0,0,0,.49.3c.14.08.28.25.4.32s.34.12.5.23a6.15,6.15,0,0,1,.56.38,4.85,4.85,0,0,0,.49.29.86.86,0,0,0,.24.17,1.22,1.22,0,0,1,.27.09c.07,0,.06.11.13.16s.2,0,.28.09.27.25.4.32l.47.3c.13.08.39.2.44.37a1.23,1.23,0,0,1-.17.52,3.38,3.38,0,0,0-.27.5c-.07.17-.13.35-.19.53a4.81,4.81,0,0,0-.2.53,1.55,1.55,0,0,0,0,.22,2.41,2.41,0,0,0-.08.25c0,.12,0,.16,0,.29a1.43,1.43,0,0,1-.09.27c-.07.17-.13.35-.19.53s-.12.35-.19.53-.21.29-.28.49a2.17,2.17,0,0,1-.12.36c0,.09-.14.13-.19.23S44,69,44,69s-.14.14-.19.23,0,.19-.09.27a2,2,0,0,1-.16.24,2,2,0,0,0-.21.52,2.48,2.48,0,0,0-.13.35c0,.1,0,.2,0,.3a3.82,3.82,0,0,1-.2.53c-.13.37-.33.65-.46,1-.27.74-.53,1.47-.79,2.2a5.19,5.19,0,0,0-.23.62,2.72,2.72,0,0,1-.09.56c-.14.37-.16.72-.29,1.09s-.28.77-.41,1.15-.34.65-.47,1c-.07.21-.16.41-.22.62s0,.36-.1.56a2.52,2.52,0,0,0-.08.55.8.8,0,0,0,0,.4c.1-.35.24-.69.36-1A2.67,2.67,0,0,0,40.3,79.76Z" fill="#ef8c23"/><path d="M55.87,97.8c.07-6.57,2.1-15.75.78-22.09-.51,7.47-1.31,15-1.26,22.53Z" fill="#ef8c23"/><path d="M44,98.19a10.83,10.83,0,0,1,.24-1.71c0-.14.13-.26.15-.4s0-.2,0-.31a4.66,4.66,0,0,1,.26-.71,10.17,10.17,0,0,0,.2-2.71c0-.46.14-.92.18-1.36s.32-.74.39-1.12c0-.19,0-.41,0-.6s0-.47,0-.7A13.78,13.78,0,0,1,45.78,87a3.45,3.45,0,0,1,.1-.56c.06-.18.12-.35.19-.53s0-.19.09-.27.11-.11.14-.16a1.25,1.25,0,0,0,.16-.62,8.93,8.93,0,0,1,.1-1.16c0-.22.06-.4.13-.63a1.09,1.09,0,0,0,0-.31,3.58,3.58,0,0,1,.11-.35,2.7,2.7,0,0,1,.12-.63c.09-.25.08-.49.16-.74s.15-.43.23-.64.09-.48.17-.73a3.05,3.05,0,0,0,.15-.65,1.73,1.73,0,0,1,.17-.53A4.69,4.69,0,0,0,48,77.25c0-.19.14-.35.15-.54a2.2,2.2,0,0,1,.13-.55c.07-.24.08-.47.15-.72s.07-.5.17-.75a5.34,5.34,0,0,0,.13-.65c0-.09.09-.18.11-.27a2.91,2.91,0,0,1,0-.3c0-.19.08-.37.11-.56s0-.17,0-.22.08-.22.1-.33,0-.41,0-.61.1-.49.12-.74a1.37,1.37,0,0,1,0-.28c0-.12.1-.23.13-.36a5.19,5.19,0,0,1,.13-.64,4.32,4.32,0,0,0,.27-1.1,5.07,5.07,0,0,1,.17-1.23,6.27,6.27,0,0,0,.2-1.12,6.85,6.85,0,0,1,.41-1.15c.06-.17.13-.35.19-.53s.09-.44.19-.53a1.14,1.14,0,0,1,.37-.14,4,4,0,0,1,.5-.07c.33,0,.67,0,1,0l.62,0c.27,0,.28,0,.26.3s0,.62,0,.93a2.73,2.73,0,0,0,.07-.51c0-.08,0-.14,0-.22a1.41,1.41,0,0,1,0-.28c0-.1.1-.18.11-.27s0-.12,0-.2a.85.85,0,0,1,.1-.28c.08-.09.08,0,.19,0a.59.59,0,0,1,.49.11,3.43,3.43,0,0,1,.22.56c.1.22.13.45.23.68a8.81,8.81,0,0,1,.28.87,6.57,6.57,0,0,0,.27,1A6.5,6.5,0,0,1,56,67.79c.11.71.29,1.42.42,2.14.05.25.09.49.14.74h0c0-.1,0-.19,0-.3s.08-.16.09-.27a3.78,3.78,0,0,0-.11-.74,1.67,1.67,0,0,1-.09-.4c0-.15,0-.3,0-.45-.06-.5,0-1-.06-1.5a5.73,5.73,0,0,0-.23-.7c-.08-.24-.12-.51-.22-.75s-.14-.19-.18-.29-.06-.22-.1-.33c-.11-.27-.23-.53-.34-.8s-.38-.68-.49-1.07-.09-.34-.34-.42a2.49,2.49,0,0,0-.77-.08c-.21,0-.39,0-.59,0s-.55,0-.81,0a2.36,2.36,0,0,0-1.92.88s.21.38.18.38a6,6,0,0,0-.38,1c0,.11,0,.21,0,.32s-.12.26-.15.4,0,.28,0,.43-.16.39-.2.6a7.18,7.18,0,0,1-.19,1,8.34,8.34,0,0,0-.29,1.09c-.2.83-.19,1.71-.41,2.54-.08.3-.11.59-.22.89s-.11.56-.21.84-.14.68-.26,1a7.19,7.19,0,0,0-.33,1.46c-.27,1.62-.62,3.23-.86,4.86,0,.17-.11.3-.15.46s0,.37-.09.55-.11.29-.16.43a2.11,2.11,0,0,0-.09.49c-.15.76-.5,1.48-.61,2.24a4.84,4.84,0,0,1-.17.54c-.06.21-.06.42-.12.63a8.85,8.85,0,0,0-.27,1.24c-.19,1-.45,2-.58,3-.34,2.62-.73,5.18-1,7.76,0,.33-.09.65-.13,1a4.81,4.81,0,0,1,.45.66C44,98.94,44,98.57,44,98.19Z" fill="#ef8c23"/><path d="M55.39,87.18c0-.22.15-.41.18-.63s0-.46.07-.69c.06-.47.14-.94.19-1.41a5.63,5.63,0,0,0,0-.58,2.54,2.54,0,0,1,.07-.47,6,6,0,0,0,0-.6,3.84,3.84,0,0,0,0-.68,2.6,2.6,0,0,1,0-.39c0-.13,0-.29-.06-.42a4.56,4.56,0,0,0-.14-.64c-.1-.47-.15-.93-.27-1.39-.23-.87-.6-1.68-.8-2.58-.09-.41-.21-.8-.29-1.2s-.07-.91-.17-1.35A6.29,6.29,0,0,1,54.17,73c0-.46-.05-.93-.07-1.39a14.2,14.2,0,0,0-.18-1.46c0-.24-.06-.5-.08-.75a5.31,5.31,0,0,1,0-.68,15.37,15.37,0,0,0-.16-2.62c0-.17,0-.36-.06-.54s0-.15,0-.23c0,.42-.11.85-.11,1.28,0,.59.12,1.17.13,1.76a19.48,19.48,0,0,0,.2,2.16c.06.6,0,1.21.06,1.82,0,.27,0,.52.07.79a5.54,5.54,0,0,0,.1.83c0,.24,0,.48.06.72s0,.48.07.72a10.94,10.94,0,0,0,.28,1.6c.07.25.06.5.15.75a1.79,1.79,0,0,1,.13.41,2.22,2.22,0,0,0,.06.45,12,12,0,0,1,.4,2.14c0,.36,0,.73,0,1.1A10.78,10.78,0,0,1,55.37,83a19.4,19.4,0,0,1-.15,2c0,.23,0,.46,0,.68s-.09.58-.11.87-.06.87-.06,1.29a4.82,4.82,0,0,1-.11.85,4.5,4.5,0,0,0,0,.52,2.18,2.18,0,0,1-.07.52c.29-.09.33-.7.34-.94C55.2,88.26,55.33,87.71,55.39,87.18Z" fill="#ef8c23"/><path d="M68.72,63a6.17,6.17,0,0,1,.43.46,7.62,7.62,0,0,0,.63.64c.34.34.57.78.92,1.12a11.56,11.56,0,0,1,1.15,1.27c.71.92,1.32,1.89,2.08,2.77.33.39.69.78,1,1.19l-.37-.56c-.11-.16-.16-.34-.27-.5a2.93,2.93,0,0,0-.37-.42,9.83,9.83,0,0,1-.74-1.08c-.35-.52-.8-1-1.1-1.58a12.36,12.36,0,0,0-1-1.25c-.19-.25-.3-.53-.51-.76a3.87,3.87,0,0,0-.37-.32c-.37-.35-.64-.76-1-1.11-.12-.12-.28-.21-.38-.33s-.28-.36-.43-.53-.62-.54-.86-.83-.42-.49-.65-.74-.3-.41-.45-.44-.26.18-.36.28a1,1,0,0,1-.3.19c-.1,0-.2.15-.29.2l-.53.22c-.2.09-.41.19-.62.26s-.43.07-.64.13a3.88,3.88,0,0,0-.56.23,2.3,2.3,0,0,1-.5.24c-.21,0-.43,0-.63.07s-.33.15-.49.2a4.56,4.56,0,0,0-1.11.39,5.25,5.25,0,0,0-.49.33c-.17.13.16.31.08.52s.05.13.12.22a.46.46,0,0,1,.13.27c.07.23.16.45.23.68a11.76,11.76,0,0,1,.31,1.43,4.73,4.73,0,0,0,0-.53c0-.24,0-.48-.07-.71a5.69,5.69,0,0,0-.08-.83,2.41,2.41,0,0,1-.07-.35c0-.12.09-.19,0-.3a2.13,2.13,0,0,1,1.34-.46,8.75,8.75,0,0,0,.88-.23,3.11,3.11,0,0,0,.9-.37,2.18,2.18,0,0,1,.63-.23,8,8,0,0,1,.85-.19l.41,0a1.51,1.51,0,0,0,.44-.14c.16,0,.27,0,.4-.16s.11-.21.2-.34c.21,0,.35.48.45.63s.47.56.67.87.34.54.54.78a4.11,4.11,0,0,1,.48.64,2,2,0,0,0-.41-.83c-.09-.13-.39-.52-.34-.68C68.3,62.46,68.54,62.86,68.72,63Z" fill="#ef8c23"/><path d="M63.25,76c-.16-.79-.28-1.59-.44-2.37a7.28,7.28,0,0,0-.45-1.53l-.27-.59c.07.42.09.86.12,1.29s.22.79.26,1.21a4.58,4.58,0,0,0,.15.64c.07.27.07.53.16.78A3.54,3.54,0,0,1,63,76.51c0,.43.21.83.25,1.26a8.77,8.77,0,0,0,.29,1.12c.06.21.13.41.19.62a4.74,4.74,0,0,0,.15.75,6.45,6.45,0,0,1,.21,1,5.72,5.72,0,0,0,.28,1.1,7.52,7.52,0,0,1,.2,1.17,10.8,10.8,0,0,1,.11,1.13,8.88,8.88,0,0,0,.37,1.7c.1.31.06.64.19.94a1.09,1.09,0,0,1,.09.56,3.46,3.46,0,0,0,.13.64,15.61,15.61,0,0,1,.09,1.8,12.65,12.65,0,0,1-.1,2.38c-.19,1.12-.2,2.25-.31,3.36,0,.41-.14.8-.18,1.21a10.53,10.53,0,0,0-.05,1.26l.56.14,0-.68a12,12,0,0,0,.12-1.33,3.54,3.54,0,0,0-.08-.45,3,3,0,0,1,0-.6c0-.2,0-.4,0-.6s.06-.36.08-.56c0-.38.23-.71.29-1.09s.17-.87.22-1.31a3.66,3.66,0,0,0,0-1c-.05-.2-.17-.37-.21-.57s-.12-.51-.17-.77-.2-.78-.27-1.18-.08-.55-.13-.83a3.88,3.88,0,0,1-.11-.75,8.64,8.64,0,0,0,.06-1,6.15,6.15,0,0,0-.17-1,7.16,7.16,0,0,1-.19-.8c0-.28-.11-.54-.13-.82s-.07-.41-.08-.62a5.74,5.74,0,0,0,0-.71c-.08-.39-.21-.83-.33-1.21a3.44,3.44,0,0,1-.24-.68c0-.25-.06-.49-.09-.73C63.89,78.2,63.48,77.15,63.25,76Z" fill="#ef8c23"/><path d="M79.23,42.25c-.21,0-.41,0-.62,0a3.77,3.77,0,0,0-.67,0,12.88,12.88,0,0,1-2.56,0,13,13,0,0,0-2.64-.2c-.17,0-.33-.05-.45.1a1.16,1.16,0,0,0-.12.44c0,.11,0,.29,0,.42a1.56,1.56,0,0,1-.14.45,4.67,4.67,0,0,0-.13.65,2.82,2.82,0,0,1-.07.47,4.71,4.71,0,0,0-.21,1.12,4.62,4.62,0,0,1-.23,1.21,2.13,2.13,0,0,1-.25.5,2.08,2.08,0,0,0-.3.49,6.63,6.63,0,0,0-.31.59,2.6,2.6,0,0,1-.28.49c-.09.16-.1.37-.19.53a2,2,0,0,1-.26.38,1.3,1.3,0,0,0-.17.26,1.14,1.14,0,0,0-.06.25c0,.12,0,.3,0,.43s-.1.18-.11.27.05.12,0,.2-.09.18-.11.27,0,.19,0,.3A7.08,7.08,0,0,1,69,53c-.06.18-.13.35-.19.53s0,.19-.09.27-.1.1-.14.17a4.2,4.2,0,0,0-.6,1c-.07.18-.13.35-.19.53s-.06.19-.1.27-.1.11-.14.17a3.45,3.45,0,0,0-.23.59c-.08.18-.21.29-.28.49a6.7,6.7,0,0,1-.38,1.06,3.38,3.38,0,0,0-.27.5,1.66,1.66,0,0,0-.18.53c0,.31.4.61.59.81s.56.49.82.77a12.8,12.8,0,0,1,.89,1.06,8.76,8.76,0,0,0,1,1.07c.29.28.5.6.77.89a3.59,3.59,0,0,1,.51.52c.14.19.26.38.4.56a8.17,8.17,0,0,0,1,1.14c.36.36.65.77,1,1.15.19.21.4.4.57.62a6.17,6.17,0,0,1,.48.87,8.62,8.62,0,0,1,.66,1,7.74,7.74,0,0,0,.43.73,6.68,6.68,0,0,0,.79,1.15c.39.44.68,1,1.06,1.41s.78.72,1.1,1.16c.19.27.4.52.6.77a7.2,7.2,0,0,1,.48.74A15.37,15.37,0,0,0,80.48,77c.23.26.33.59.54.85s.33.36.49.52a6.07,6.07,0,0,1,.75,1,3.3,3.3,0,0,0-.43-.78,8.88,8.88,0,0,1-.61-.84c-.4-.75-1-1.4-1.44-2.11-.17-.26-.31-.53-.5-.78a4.19,4.19,0,0,1-.4-.54,5.17,5.17,0,0,0-.46-.66c-.14-.22-.29-.44-.44-.66a16,16,0,0,0-1.08-1.51,11.1,11.1,0,0,1-.77-1.16c-.14-.21-.35-.38-.49-.59s-.21-.41-.35-.6-.48-.62-.71-1a7.38,7.38,0,0,0-.58-.8c-1.07-1.12-1.91-2.46-2.91-3.64-.44-.53-.92-1-1.33-1.57s-.87-.93-1.26-1.43l-1.09-1.41c-.12-.17-.4-.71-.63-.72.22,0,.8.07.92-.07A1,1,0,0,0,68,58c-.16,0-.93.33-1,.5,0-.13.11-.15.16-.23a3.09,3.09,0,0,0,.14-.32c0-.14.15-.2.22-.32a1.05,1.05,0,0,0,0-.19.14.14,0,0,1,.11-.07,11,11,0,0,0,.85-1.49c.07-.14.18-.24.25-.38s.08-.24.12-.36.17-.47.25-.7c.16-.44.29-.9.48-1.32a1.4,1.4,0,0,1,.22-.32c.08-.13.05-.23.18-.34a1.1,1.1,0,0,1,.5-.21,4,4,0,0,1,1.36.39l1.69.61,1.13.41c.18.06.52.27.7.17a1.85,1.85,0,0,0-.58-.23c-.25-.09-.43-.25-.68-.35-.4-.16-.82-.29-1.23-.44l-1.5-.54a6.31,6.31,0,0,1-.9-.54c-.15-.1-.33-.24-.47-.35a.39.39,0,0,1-.14-.45,8,8,0,0,1,.44-.94,3.9,3.9,0,0,1,.28-.49,4.27,4.27,0,0,1,.18-.54c.09-.13.25-.22.34-.37a1.22,1.22,0,0,1,.26-.38,1,1,0,0,0,.29-.31,3.46,3.46,0,0,0,.19-.54,1.37,1.37,0,0,0,0-.29,2,2,0,0,1,.08-.26c0-.17,0-.31.07-.48a1.6,1.6,0,0,0,0-.22c0-.09.06-.17.07-.25s0-.12,0-.21a2.14,2.14,0,0,0,.09-.27c0-.19,0-.4,0-.59a2.44,2.44,0,0,1,.09-.47c0-.16,0-.37,0-.51a1.25,1.25,0,0,0,0-.47,1.17,1.17,0,0,1,.13-.55c0-.08,0-.2.11-.25l.15,0a2.61,2.61,0,0,1,.92-.07,1.61,1.61,0,0,1,.22,0c.09,0,.17.09.26.1l.46,0a.15.15,0,0,1,.13,0l.18.07a1.6,1.6,0,0,0,.22,0l.56,0c.37,0,.7,0,1.09,0h.77c.24,0,.43-.1.66-.12s.48,0,.72,0,.51,0,.76,0,.49,0,.77,0a2.15,2.15,0,0,0,.62,0c.44-.09.87-.2,1.32-.28l.33,0a5.4,5.4,0,0,1-.18-.57c-.72.11-1.43.2-2.15.29A9.08,9.08,0,0,1,79.23,42.25Z" fill="#ef8c23"/><path d="M82.86,30.45a2.78,2.78,0,0,0-.62.25,6.9,6.9,0,0,1-1.07.49c-.61.25-1.24.45-1.84.75a3.73,3.73,0,0,1-.72.36c-.25.07-.47.24-.71.32s-.44.08-.66.15a2.11,2.11,0,0,1-.34.16c-.15,0-.28,0-.43.06a11.29,11.29,0,0,1-2,.51,6.26,6.26,0,0,0-.95.23,4.76,4.76,0,0,0-.89.48c-.47.26-1,.41-1.42.68-.1.07-.3.3-.41.26s-.09-.31,0-.43a.87.87,0,0,0-.24-1c-.14-.17-.26-.37-.4-.55a3,3,0,0,1-.29-.33,1,1,0,0,1,.1.39c0,.18.08.35.1.54a6.36,6.36,0,0,1,.15,1.14,2,2,0,0,0,0,.48,3.27,3.27,0,0,0,.07.62c.09.42.27.79.33,1.22,0,.19.13.36.16.55a1.51,1.51,0,0,1,0,.3,3,3,0,0,1,.07.32c0,.37.07.76.12,1.13s.15.92.17,1.38l0-.1a2.91,2.91,0,0,0,0-.3c0-.19.18-.34.18-.54a3.58,3.58,0,0,0-.09-.45,3.45,3.45,0,0,0-.25-.83,4.38,4.38,0,0,1-.16-1,4.15,4.15,0,0,1-.13-.87,1,1,0,0,0-.07-.5,1.32,1.32,0,0,1-.08-.33c-.09-.31-.36-.46,0-.69a3.11,3.11,0,0,1,.9-.37,5.55,5.55,0,0,0,1-.3l.49-.19c.24-.1.41-.28.65-.37.48-.16,1-.2,1.5-.35.25-.07.51-.15.77-.2a3.19,3.19,0,0,0,.44-.13c.22-.08.45-.09.67-.18s.45-.18.69-.26.68-.29,1-.41.45-.19.69-.26a1.94,1.94,0,0,0,.33-.07c.11,0,.15-.16.26-.21s.21,0,.31-.08.17-.16.29-.2.45-.08.67-.16a5.77,5.77,0,0,0,.74-.22c.12-.06.15-.14.28-.18s.29,0,.44-.07a8,8,0,0,0,.91-.39c.15-.23.26-.49.42-.71l-.26.08C83.4,30.19,83.16,30.37,82.86,30.45Z" fill="#ef8c23"/><path d="M69.06,18.32c-.15.21-.34.38-.49.59-.27.37-.46.76-.72,1.13-.12.17-.3.28-.42.45s-.21.32-.32.48a6.48,6.48,0,0,0-.54,1.3c-.06.18-.12.35-.19.53s-.21.3-.19.45.25.29.35.43.18.27.27.39.29.33.42.53l.32.5a8.09,8.09,0,0,1,.37,1.15,9.12,9.12,0,0,0,.81,1.87,11.51,11.51,0,0,1,.73,1.65c.11.25.15.52.25.77s.22.29.11.46c.27.06.22-.07.18-.23a1.63,1.63,0,0,1,.08-1.07,3.6,3.6,0,0,1,.66-.95,7.77,7.77,0,0,1,.81-.71c.34-.32.54-.76.9-1.07a7.48,7.48,0,0,0,.75-.62c.18-.2.35-.39.52-.61.28-.39.58-.77.87-1.16,0,.05-.09.11-.14.15s-.39.32-.55.5c-.34.36-.65.77-1,1.11a8.17,8.17,0,0,0-.7.62,1.4,1.4,0,0,1-.45.35,6.43,6.43,0,0,0-.87.69,3.63,3.63,0,0,1-.87.57c-.32.14-.38.09-.5-.2-.3-.72-.63-1.41-.88-2.16a11.6,11.6,0,0,0-.57-1c-.14-.3-.23-.62-.4-.91a3.37,3.37,0,0,1-.53-1c0-.14-.06-.28-.08-.42a1.21,1.21,0,0,1,.13-.56,4.3,4.3,0,0,1,.54-.9c.23-.34.5-.66.74-1a5.76,5.76,0,0,0,.8-1.4l.42-1.17a4.67,4.67,0,0,1,.48-1.12,1.63,1.63,0,0,0,.18-.45c-.28.46-.61.9-.87,1.37C69.32,17.85,69.21,18.09,69.06,18.32Z" fill="#ef8c23"/><path d="M54.34,35.22c0-.17.07-.31.07-.47s0-.33,0-.48a4.57,4.57,0,0,1,.14-1.17c.12-.42.18-.85.27-1.28a3.08,3.08,0,0,0,0-1.09c-.05.09,0,.26,0,.36s-.06.3-.08.44a2.4,2.4,0,0,1-.12.38,1.24,1.24,0,0,0,0,.38,15.22,15.22,0,0,0-.26,1.9,1.41,1.41,0,0,1-.07.45c0,.16,0,.3-.06.47a3.71,3.71,0,0,0,0,1,3.43,3.43,0,0,0,.09.44,1.22,1.22,0,0,0,.2-.53C54.38,35.74,54.33,35.5,54.34,35.22Z" fill="#ef8c23"/><path d="M58.47,32.85a8.76,8.76,0,0,1,.37-.89,3.25,3.25,0,0,0,.31-.65,3.19,3.19,0,0,0-.86.93,8.12,8.12,0,0,0-.73,1.28,5.7,5.7,0,0,1-.3.54,3.66,3.66,0,0,1-.21.55c-.13.19-.29.37-.43.56l.39-.41A7.4,7.4,0,0,0,58.47,32.85Z" fill="#ef8c23"/><rect x="39.04" y="6.37" width="18.26" height="1.97" rx="0.98" fill="#2c3439"/><path d="M56.32,8.72H40A1.37,1.37,0,0,1,40,6H56.32a1.37,1.37,0,0,1,0,2.74ZM40,6.76a.59.59,0,0,0-.6.59A.6.6,0,0,0,40,8H56.32a.6.6,0,0,0,.6-.6.59.59,0,0,0-.6-.59Z" fill="#2c3439"/><circle cx="59.96" cy="7.41" r="1.04" fill="#2c3439"/><path d="M60,8.79a1.39,1.39,0,1,1,1.38-1.38A1.38,1.38,0,0,1,60,8.79Zm0-2.08a.7.7,0,1,0,.69.7A.69.69,0,0,0,60,6.71Z" fill="#2c3439"/><path d="M80.48,0h-61a5.84,5.84,0,0,0-5.83,5.83v88.3A5.84,5.84,0,0,0,19.52,100h61a5.84,5.84,0,0,0,5.83-5.83V5.85A5.84,5.84,0,0,0,80.48,0Zm3.33,5.83v88.3a3.34,3.34,0,0,1-3.33,3.33h-61a3.34,3.34,0,0,1-3.33-3.33V5.85a3.34,3.34,0,0,1,3.33-3.33h61A3.34,3.34,0,0,1,83.81,5.85Z" fill="#2c3439"/><circle cx="50" cy="90.6" r="3.56" fill="#2c3439"/></svg>