<svg id="af88fcb5-0798-4c29-8277-193a76808066" data-name="Layer 1" xmlns="http://www.w3.org/2000/svg" width="100" height="100" viewBox="0 0 100 100"><title>icons</title><path d="M37.52.94h25a0,0,0,0,1,0,0V2.36a3.82,3.82,0,0,1-3.82,3.82H41.34a3.82,3.82,0,0,1-3.82-3.82V.94A0,0,0,0,1,37.52.94Z" fill="#2c3439"/><path d="M85.72,24.39A12.27,12.27,0,0,0,85,20.6a7.64,7.64,0,0,0-5-4.66,12.5,12.5,0,0,0-2.71-.53l-.3,0c-.06,0-.14,0-.19-.05a12.18,12.18,0,0,0,4-.78,7.59,7.59,0,0,0,4.6-5,12.34,12.34,0,0,0,.56-2.83l0-.35a0,0,0,0,1,0,0,11.72,11.72,0,0,0,.94,4.25,7.52,7.52,0,0,0,4.49,4.12A11.61,11.61,0,0,0,94,15.4c.3,0,.59.07.9.08,0,0,0,0,0,0s0,0-.06,0a11.29,11.29,0,0,0-4.57,1.07,7.43,7.43,0,0,0-3.79,4.26,11.34,11.34,0,0,0-.64,2.69c0,.28-.06.56-.09.84C85.75,24.41,85.74,24.41,85.72,24.39Z" fill="#ef8c23"/><path d="M83.08,10a6.14,6.14,0,0,0-.55-2.39,4.24,4.24,0,0,0-2.8-2.31,6.93,6.93,0,0,0-1.5-.26c0-.07.06,0,.08,0a6.22,6.22,0,0,0,2.36-.59,4.2,4.2,0,0,0,2.21-2.68A6.72,6.72,0,0,0,83.17.15c.07,0,0,.06,0,.08a5.92,5.92,0,0,0,.66,2.55,4.27,4.27,0,0,0,2.77,2.1A6.81,6.81,0,0,0,88,5.11s.08,0,.07,0a6.51,6.51,0,0,0-2.26.5,4.24,4.24,0,0,0-2.39,2.74A6.17,6.17,0,0,0,83.13,10S83.14,10.05,83.08,10Z" fill="#ef8c23"/><path d="M89.47,9.72A2.1,2.1,0,0,0,89,8.65a1.93,1.93,0,0,0-1.31-.6s0,0,0,0a1.74,1.74,0,0,0,1.74-1.72s0,0,.05,0A1.76,1.76,0,0,0,91.23,8s0,0,0,.05A1.77,1.77,0,0,0,89.51,9.8C89.45,9.8,89.5,9.74,89.47,9.72Z" fill="#ef8c23"/><path d="M93.33,10.66c-.48.09-.61.21-.87.85a.9.9,0,0,0-.87-.86.92.92,0,0,0,.89-.87A.92.92,0,0,0,93.33,10.66Z" fill="#ef8c23"/><path d="M83.08,10s0,0,0,0a.37.37,0,0,1,0,.25C83,10.16,83.12,10.09,83.08,10Z" fill="#ef8c23"/><path d="M76.73,15.33c.06,0,.13,0,.19.05a1.1,1.1,0,0,1-.26,0s0,0,0,0Z" fill="#ef8c23"/><path d="M89.51,9.85s0,.09,0,.14a.17.17,0,0,1,0-.17S89.5,9.84,89.51,9.85Z" fill="#ef8c23"/><path d="M95,15.51a.28.28,0,0,1,.18,0,.18.18,0,0,1-.18,0s0,0,0,0Z" fill="#ef8c23"/><path d="M89.54,6.26l-.05,0a.25.25,0,0,1,0-.17S89.54,6.22,89.54,6.26Z" fill="#ef8c23"/><path d="M78.13,5.07H78A.21.21,0,0,1,78.2,5C78.2,5.09,78.15,5.05,78.13,5.07Z" fill="#ef8c23"/><path d="M85.92,6.42h0V6.29a0,0,0,0,1,0,0Z" fill="#ef8c23"/><path d="M83.21.23s0-.07,0-.08,0-.07,0-.11a0,0,0,0,1,0,0Z" fill="#ef8c23"/><path d="M78.13,5.07,78.2,5h.11l-.08,0Z" fill="#ef8c23"/><path d="M85.92,6.29h0V6.18s0,0,.05,0Z" fill="#ef8c23"/><path d="M91.26,8.08l0-.05h.11s0,0,0,0Z" fill="#ef8c23"/><path d="M85.93,6.18h-.05s0-.09,0-.09S85.93,6.15,85.93,6.18Z" fill="#ef8c23"/><path d="M85.77,24.47s0,.07,0,.11h0s0-.06,0-.1S85.75,24.46,85.77,24.47Z" fill="#ef8c23"/><path d="M83.22,0h0s0-.07,0-.12S83.21,0,83.22,0Z" fill="#ef8c23"/><path d="M91.36,8.08l0,0s.08,0,.09,0S91.39,8.09,91.36,8.08Z" fill="#ef8c23"/><path d="M95,15.51v0h-.16l.06,0S95,15.52,95,15.51Z" fill="#ef8c23"/><path d="M88.17,5.11h.08a0,0,0,0,1,0,0h-.06S88.16,5.15,88.17,5.11Z" fill="#ef8c23"/><path d="M88.06,5.15l-.07,0h.1s.07,0,0,0Z" fill="#ef8c23"/><path d="M85.74,24.58c.06,0,0,.06,0,.1s0,0,0,0,0-.07,0-.11Z" fill="#ef8c23"/><path d="M89.51,9.85s0,0,0,0v-.1l0,.08Z" fill="#ef8c23"/><path d="M87.64,8.05s-.06,0,0,0,0,0,.08,0S87.66,8,87.64,8.05Z" fill="#ef8c23"/><path d="M85.77,24.47h0v-.08h0Z" fill="#ef8c23"/><path d="M76.65,15.33v0a.16.16,0,0,1-.13,0Z" fill="#ef8c23"/><path d="M87.64,8.05l0,0h.08l0,0Z" fill="#ef8c23"/><path d="M85.72,24.68h0s0,.07,0,.07S85.72,24.71,85.72,24.68Z" fill="#ef8c23"/><path d="M88.14,5.16l0,0h.08l0,0Z" fill="#ef8c23"/><path d="M14.08,98.68a12.52,12.52,0,0,0-.76-3.78,7.63,7.63,0,0,0-5-4.67,12.5,12.5,0,0,0-2.71-.53l-.3,0c-.06,0-.14,0-.19,0a12.16,12.16,0,0,0,4-.77,7.59,7.59,0,0,0,4.6-4.95,12.45,12.45,0,0,0,.56-2.83l0-.36h0A11.81,11.81,0,0,0,15.21,85a7.53,7.53,0,0,0,4.49,4.11,11.74,11.74,0,0,0,2.62.61q.45.06.9.09s0,0,.05,0,0,0-.06,0a11.37,11.37,0,0,0-4.56,1.07,7.47,7.47,0,0,0-3.8,4.27,11.15,11.15,0,0,0-.64,2.68l-.09.84A0,0,0,0,1,14.08,98.68Z" fill="#ef8c23"/><path d="M11.43,84.33a6,6,0,0,0-.55-2.4,4.24,4.24,0,0,0-2.8-2.31,7.6,7.6,0,0,0-1.5-.26c0-.06.06,0,.08,0A6,6,0,0,0,9,78.74a4.2,4.2,0,0,0,2.21-2.68,6.41,6.41,0,0,0,.29-1.62c.07,0,0,.07,0,.08a6,6,0,0,0,.67,2.56A4.26,4.26,0,0,0,15,79.17a6.06,6.06,0,0,0,1.34.23s.08,0,.08,0a6.24,6.24,0,0,0-2.26.5,4.15,4.15,0,0,0-2.39,2.74,6.48,6.48,0,0,0-.29,1.58S11.49,84.34,11.43,84.33Z" fill="#ef8c23"/><path d="M17.82,84A2,2,0,0,0,17.39,83a1.88,1.88,0,0,0-1.31-.61s0,0,0,0a1.75,1.75,0,0,0,1.75-1.72s0,0,0,0a1.76,1.76,0,0,0,1.68,1.77s.05,0,0,0a1.77,1.77,0,0,0-1.75,1.71C17.8,84.09,17.85,84,17.82,84Z" fill="#ef8c23"/><path d="M21.68,85c-.48.08-.61.21-.87.85a.9.9,0,0,0-.87-.86.94.94,0,0,0,.9-.87A.93.93,0,0,0,21.68,85Z" fill="#ef8c23"/><path d="M11.43,84.33s0,0,.05-.06a.36.36,0,0,1,0,.25C11.39,84.46,11.48,84.39,11.43,84.33Z" fill="#ef8c23"/><path d="M5.08,89.62c.06,0,.14,0,.19,0a.76.76,0,0,1-.26,0s0,0,0,0Z" fill="#ef8c23"/><path d="M17.87,84.14a.22.22,0,0,1,0,.14.17.17,0,0,1,0-.17S17.85,84.13,17.87,84.14Z" fill="#ef8c23"/><path d="M23.38,89.8a.31.31,0,0,1,.17,0,.24.24,0,0,1-.18,0s0,0,0,0S23.37,89.8,23.38,89.8Z" fill="#ef8c23"/><path d="M17.9,80.56l0,0a.18.18,0,0,1,0-.17A.39.39,0,0,1,17.9,80.56Z" fill="#ef8c23"/><path d="M6.48,79.36H6.37a.2.2,0,0,1,.19,0C6.56,79.38,6.5,79.34,6.48,79.36Z" fill="#ef8c23"/><path d="M14.28,80.71h0v-.13s0,0,0,0Z" fill="#ef8c23"/><path d="M11.56,74.52s0-.07,0-.08,0-.07,0-.11a0,0,0,0,1,0,0Z" fill="#ef8c23"/><path d="M6.48,79.36l.08,0h.1l-.08,0Z" fill="#ef8c23"/><path d="M14.28,80.58h0v-.11a0,0,0,0,1,0,0Z" fill="#ef8c23"/><path d="M19.61,82.38l0,0h.11s0,0,0,0Z" fill="#ef8c23"/><path d="M14.28,80.47h0s0-.08,0-.08S14.28,80.44,14.28,80.47Z" fill="#ef8c23"/><path d="M14.12,98.76a.11.11,0,0,1,0,.11h0s0-.07,0-.11A0,0,0,0,1,14.12,98.76Z" fill="#ef8c23"/><path d="M11.57,74.33h0s0-.06,0-.11S11.57,74.29,11.57,74.33Z" fill="#ef8c23"/><path d="M19.71,82.38l0,0s.08,0,.09,0S19.74,82.38,19.71,82.38Z" fill="#ef8c23"/><path d="M23.38,89.8v0h-.16l.06,0S23.34,89.81,23.38,89.8Z" fill="#ef8c23"/><path d="M16.52,79.41h.08s0,0,0,0,0,0-.06,0S16.52,79.45,16.52,79.41Z" fill="#ef8c23"/><path d="M16.42,79.45l-.08,0h.1s.07,0,.06,0Z" fill="#ef8c23"/><path d="M14.1,98.87c.05,0,0,.07,0,.1s0,0,0,0a.12.12,0,0,1,0-.1Z" fill="#ef8c23"/><path d="M17.87,84.14s0,0-.05,0V84l0,.08Z" fill="#ef8c23"/><path d="M16,82.35s-.07,0-.06,0,.05,0,.09,0S16,82.33,16,82.35Z" fill="#ef8c23"/><path d="M14.12,98.76h0v-.08h0Z" fill="#ef8c23"/><path d="M5,89.62v0s-.08,0-.13,0Z" fill="#ef8c23"/><path d="M16,82.35l0,0h.07l0,0Z" fill="#ef8c23"/><path d="M14.07,99h0s0,.08,0,.07S14.07,99,14.07,99Z" fill="#ef8c23"/><path d="M16.5,79.45l-.06,0h.08l.05,0Z" fill="#ef8c23"/><path d="M70,99.63H30.05a5.76,5.76,0,0,1-5.76-5.75V6.19A5.76,5.76,0,0,1,30.05.44H70a5.76,5.76,0,0,1,5.75,5.75V93.88A5.76,5.76,0,0,1,70,99.63ZM30.05,2.44a3.76,3.76,0,0,0-3.76,3.75V93.88a3.76,3.76,0,0,0,3.76,3.75H70a3.76,3.76,0,0,0,3.75-3.75V6.19A3.76,3.76,0,0,0,70,2.44Z" fill="#2c3439"/></svg>