<svg id="aeb72969-403f-4434-bdf6-32f611fe61e4" data-name="Layer 1" xmlns="http://www.w3.org/2000/svg" width="100" height="100" viewBox="0 0 100 100"><title>icons</title><path d="M37.52.94h25a0,0,0,0,1,0,0V2.36a3.82,3.82,0,0,1-3.82,3.82H41.34a3.82,3.82,0,0,1-3.82-3.82V.94A0,0,0,0,1,37.52.94Z" fill="#2c3439"/><path d="M70,99.63H30.05a5.75,5.75,0,0,1-5.76-5.75V6.19A5.75,5.75,0,0,1,30.05.44H70a5.75,5.75,0,0,1,5.52,4.15,4.4,4.4,0,0,1-.07,2.54h0A13.61,13.61,0,0,0,75.1,14l.61,2.81V93.88A5.75,5.75,0,0,1,70,99.63ZM30.05,2.44a3.75,3.75,0,0,0-3.76,3.75V93.88a3.75,3.75,0,0,0,3.76,3.75H70a3.75,3.75,0,0,0,3.75-3.75V6.19A3.75,3.75,0,0,0,70,2.44Z" fill="#2c3439"/><path d="M88.06,56.3s0,.1.06.07S88.09,56.27,88.06,56.3Z" fill="#ef8c23" fill-rule="evenodd"/><path d="M26.08,13.92l0,.2c0,.05,0,.13,0,.14S26.24,14,26.08,13.92Z" fill="#ef8c23" fill-rule="evenodd"/><path d="M26,14.84c0,.11,0,.26-.09.45.12,0,0,.19.11.23C26.06,15.22,26.13,14.39,26,14.84Z" fill="#ef8c23" fill-rule="evenodd"/><path d="M26.12,14.47s0-.1-.06-.08S26.07,14.5,26.12,14.47Z" fill="#ef8c23" fill-rule="evenodd"/><path d="M25.89,16.31c0,.12-.18.63,0,.47A2.14,2.14,0,0,0,26,15.65C25.93,15.87,25.79,16.16,25.89,16.31Z" fill="#ef8c23" fill-rule="evenodd"/><path d="M25.78,17.63c-.08.75.29-.72-.06-.48C25.84,17.25,25.71,17.5,25.78,17.63Z" fill="#ef8c23" fill-rule="evenodd"/><path d="M25.72,18.63c0-.14.19-.41,0-.47C25.76,18.3,25.56,18.57,25.72,18.63Z" fill="#ef8c23" fill-rule="evenodd"/><path d="M25.23,21c0,.06,0,.13,0,.15S25.3,21,25.23,21Z" fill="#ef8c23" fill-rule="evenodd"/><path d="M25.66,19.69l.09-.45c-.13,0,.12-.59-.07-.42A1.72,1.72,0,0,0,25.66,19.69Z" fill="#ef8c23" fill-rule="evenodd"/><path d="M25.57,20.88c.14-.38,0-.61.13-1A1.11,1.11,0,0,0,25.57,20.88Z" fill="#ef8c23" fill-rule="evenodd"/><path d="M25.51,21.55c0-.16.24-.48-.06-.49C25.52,21.2,25.39,21.44,25.51,21.55Z" fill="#ef8c23" fill-rule="evenodd"/><path d="M25.47,21.74c-.17.39.2.19,0,0Z" fill="#ef8c23" fill-rule="evenodd"/><path d="M25.35,23.8a3.71,3.71,0,0,0,.09-1.53A4.08,4.08,0,0,0,25.35,23.8Z" fill="#ef8c23" fill-rule="evenodd"/><path d="M25.24,25.46a.3.3,0,0,1-.13.24c.12.09,0,.29.07.42s-.07.4,0,.21a7.8,7.8,0,0,0,.1-1.59c0-.13.15-.35-.07-.42A6.11,6.11,0,0,0,25.24,25.46Z" fill="#ef8c23" fill-rule="evenodd"/><path d="M25.36,24.14c0-.08.05-.18,0-.21S25.28,24.11,25.36,24.14Z" fill="#ef8c23" fill-rule="evenodd"/><path d="M25.26,26.88s-.08,0-.06-.08,0-.43-.05-.15C25.06,26.77,25.13,27.07,25.26,26.88Z" fill="#ef8c23" fill-rule="evenodd"/><path d="M25.14,27.46c0-.09.15-.41,0-.28a1.07,1.07,0,0,0,0,.75C25.2,27.82,25.14,27.62,25.14,27.46Z" fill="#ef8c23" fill-rule="evenodd"/><path d="M25.13,28.26c0-.05,0-.12-.05-.14S25.06,28.25,25.13,28.26Z" fill="#ef8c23" fill-rule="evenodd"/><path d="M25.08,28.52l0,.19c0,.06,0,.13.05.15S25.24,28.55,25.08,28.52Z" fill="#ef8c23" fill-rule="evenodd"/><path d="M25.06,29a1.11,1.11,0,0,0,0,.68A1,1,0,0,0,25.06,29Z" fill="#ef8c23" fill-rule="evenodd"/><path d="M25.05,29.79l0,.2C24.88,30.46,25.26,29.88,25.05,29.79Z" fill="#ef8c23" fill-rule="evenodd"/><path d="M25.34,28.78c.09,0,.06-.06,0-.13S25.25,28.74,25.34,28.78Z" fill="#ef8c23" fill-rule="evenodd"/><path d="M25.1,30.68c0-.12,0-.23-.1-.29C25,30.51,24.86,30.7,25.1,30.68Z" fill="#ef8c23" fill-rule="evenodd"/><path d="M25,31.07c.12-.07.15-.22,0-.28C25,30.89,24.92,31,25,31.07Z" fill="#ef8c23" fill-rule="evenodd"/><path d="M25,31.26s0,.13.05.15S25.05,31.28,25,31.26Z" fill="#ef8c23" fill-rule="evenodd"/><path d="M25,31.87s0-.1-.06-.08S25,31.9,25,31.87Z" fill="#ef8c23" fill-rule="evenodd"/><path d="M25,32.28c0-.06,0-.13-.05-.15S24.93,32.26,25,32.28Z" fill="#ef8c23" fill-rule="evenodd"/><path d="M25,32.87s0-.13-.05-.14S24.88,32.85,25,32.87Z" fill="#ef8c23" fill-rule="evenodd"/><path d="M24.88,34c0-.1.16-.32,0-.34l0,.19C24.84,33.91,24.81,34,24.88,34Z" fill="#ef8c23" fill-rule="evenodd"/><path d="M24.86,34.47c-.17.39.2.19,0,0Z" fill="#ef8c23" fill-rule="evenodd"/><path d="M24.9,35c-.32.21.22.21,0,0Z" fill="#ef8c23" fill-rule="evenodd"/><path d="M24.92,35s0-.11-.06-.08S24.87,35,24.92,35Z" fill="#ef8c23" fill-rule="evenodd"/><path d="M24.8,35.53s0,.13.05.14S24.87,35.55,24.8,35.53Z" fill="#ef8c23" fill-rule="evenodd"/><path d="M24.85,35.27s0,.13,0,.15S24.92,35.29,24.85,35.27Z" fill="#ef8c23" fill-rule="evenodd"/><path d="M24.83,35.74c-.15.32.22.12,0,0Z" fill="#ef8c23" fill-rule="evenodd"/><path d="M23.24,43.75s0,.11.06.08S23.28,43.73,23.24,43.75Z" fill="#ef8c23" fill-rule="evenodd"/><path d="M24.88,36.29c0-.06,0-.13-.05-.15S24.8,36.27,24.88,36.29Z" fill="#ef8c23" fill-rule="evenodd"/><path d="M24.86,37.09c0-.28.1-.34,0-.61C24.82,36.7,24.62,37,24.86,37.09Z" fill="#ef8c23" fill-rule="evenodd"/><path d="M24.78,38.62c0,.06,0,.13,0,.15S24.85,38.64,24.78,38.62Z" fill="#ef8c23" fill-rule="evenodd"/><path d="M24.76,39.09s0,.13,0,.14.16-.31,0-.33Z" fill="#ef8c23" fill-rule="evenodd"/><path d="M24.79,39.7c0-.05,0-.13-.05-.14S24.72,39.68,24.79,39.7Z" fill="#ef8c23" fill-rule="evenodd"/><path d="M24.76,40.64c-.23.3.19.45,0,0Z" fill="#ef8c23" fill-rule="evenodd"/><path d="M24.8,40.44s0-.1-.07-.08S24.75,40.47,24.8,40.44Z" fill="#ef8c23" fill-rule="evenodd"/><path d="M24.77,41.31c0-.08.05-.18,0-.21S24.69,41.28,24.77,41.31Z" fill="#ef8c23" fill-rule="evenodd"/><path d="M24.74,41.44a9.13,9.13,0,0,0,0,2.22A9.67,9.67,0,0,0,24.74,41.44Z" fill="#ef8c23" fill-rule="evenodd"/><path d="M24.71,43.86c0,.08-.05.18,0,.21S24.8,43.89,24.71,43.86Z" fill="#ef8c23" fill-rule="evenodd"/><path d="M24.72,44.2c0,.07,0,.18,0,.2S24.81,44.23,24.72,44.2Z" fill="#ef8c23" fill-rule="evenodd"/><path d="M24.7,45.07s0,.24,0,.21,0-.45-.11-.23Z" fill="#ef8c23" fill-rule="evenodd"/><path d="M24.72,44.6c-.16.32.21.12,0,0Z" fill="#ef8c23" fill-rule="evenodd"/><path d="M24.83,47.85c-.24-.56.09-1.42-.14-2a11.91,11.91,0,0,0,0,1.89c-.1,0-.12.06-.24,0a1,1,0,0,0,.25.66Z" fill="#ef8c23" fill-rule="evenodd"/><path d="M24.73,49s.08-.06.17,0a.65.65,0,0,0-.22-.45C24.81,48.79,24.48,48.93,24.73,49Z" fill="#ef8c23" fill-rule="evenodd"/><path d="M24.69,49.24c-.05.22-.11.44,0,.55A.6.6,0,0,0,24.69,49.24Z" fill="#ef8c23" fill-rule="evenodd"/><path d="M24.7,50a1.42,1.42,0,0,0,.05.88A2.12,2.12,0,0,0,24.7,50Z" fill="#ef8c23" fill-rule="evenodd"/><path d="M24.72,51a1.18,1.18,0,0,0,0,.68A1,1,0,0,0,24.72,51Z" fill="#ef8c23" fill-rule="evenodd"/><path d="M24.71,51.8c0,.08-.05.18,0,.21S24.8,51.83,24.71,51.8Z" fill="#ef8c23" fill-rule="evenodd"/><path d="M24.72,52.14c0,.08,0,.18,0,.21S24.81,52.17,24.72,52.14Z" fill="#ef8c23" fill-rule="evenodd"/><path d="M24.72,52.88c-.18.13,0,.42,0,.61A.83.83,0,0,0,24.72,52.88Z" fill="#ef8c23" fill-rule="evenodd"/><path d="M24.73,52.47c-.18.4.2.2,0,0Z" fill="#ef8c23" fill-rule="evenodd"/><path d="M24.73,53.62a.78.78,0,0,0,0,.55A.63.63,0,0,0,24.73,53.62Z" fill="#ef8c23" fill-rule="evenodd"/><path d="M24.79,54.84c.05-.22.11-.44-.05-.55-.06.27.05.44-.07.73.15.07-.05.31.2.18S24.74,55,24.79,54.84Z" fill="#ef8c23" fill-rule="evenodd"/><path d="M24.77,55.65a.89.89,0,0,0,0,.61A.78.78,0,0,0,24.77,55.65Z" fill="#ef8c23" fill-rule="evenodd"/><path d="M24.83,56.53s0-.1-.07-.08S24.78,56.56,24.83,56.53Z" fill="#ef8c23" fill-rule="evenodd"/><path d="M24.79,56.73c0,.08-.05.18,0,.21S24.87,56.76,24.79,56.73Z" fill="#ef8c23" fill-rule="evenodd"/><path d="M24.78,57.13s0,.13,0,.14S24.85,57.15,24.78,57.13Z" fill="#ef8c23" fill-rule="evenodd"/><path d="M24.79,57.47c0,.08-.05.18,0,.21S24.88,57.5,24.79,57.47Z" fill="#ef8c23" fill-rule="evenodd"/><path d="M24.78,57.87c0,.08-.05.18,0,.21S24.87,57.9,24.78,57.87Z" fill="#ef8c23" fill-rule="evenodd"/><path d="M24.79,58.21c-.15.32.22.12,0,0Z" fill="#ef8c23" fill-rule="evenodd"/><path d="M24.8,58.55c0,.05,0,.12.05.14S24.87,58.56,24.8,58.55Z" fill="#ef8c23" fill-rule="evenodd"/><path d="M24.81,58.89s0,.12.05.14S24.88,58.9,24.81,58.89Z" fill="#ef8c23" fill-rule="evenodd"/><path d="M24.83,59.16c0,.29-.15.65.07.82A1.83,1.83,0,0,0,24.83,59.16Z" fill="#ef8c23" fill-rule="evenodd"/><path d="M24.9,60.72c.05-.2.08-.39-.06-.48a.33.33,0,0,1-.13.24C25,60.44,24.71,60.71,24.9,60.72Z" fill="#ef8c23" fill-rule="evenodd"/><path d="M24.92,61c0-.06,0-.13-.05-.15S24.85,61,24.92,61Z" fill="#ef8c23" fill-rule="evenodd"/><path d="M24.93,61.33s0-.12-.05-.14S24.85,61.32,24.93,61.33Z" fill="#ef8c23" fill-rule="evenodd"/><path d="M26,56.3s0-.1-.06-.08S25.93,56.33,26,56.3Z" fill="#ef8c23" fill-rule="evenodd"/><path d="M24.94,62s0-.11-.06-.08S24.9,62,24.94,62Z" fill="#ef8c23" fill-rule="evenodd"/><path d="M24.91,62.54a1.34,1.34,0,0,0,.08.76A1.26,1.26,0,0,0,24.91,62.54Z" fill="#ef8c23" fill-rule="evenodd"/><path d="M24.67,64.85s0,.1.06.08S24.71,64.82,24.67,64.85Z" fill="#ef8c23" fill-rule="evenodd"/><path d="M25,63.43c-.05.2-.08.39.06.48C25,63.74,25.06,63.55,25,63.43Z" fill="#ef8c23" fill-rule="evenodd"/><path d="M25.06,64.12c0-.23-.13.15-.13.24s-.1,0-.09,0C25.08,64.53,25,64.23,25.06,64.12Z" fill="#ef8c23" fill-rule="evenodd"/><path d="M25,64.51s0,.1.06.08S25,64.48,25,64.51Z" fill="#ef8c23" fill-rule="evenodd"/><path d="M25,64.78a.55.55,0,0,0,.05.48A.55.55,0,0,0,25,64.78Z" fill="#ef8c23" fill-rule="evenodd"/><path d="M25.32,63.64s0-.11-.07-.08S25.27,63.66,25.32,63.64Z" fill="#ef8c23" fill-rule="evenodd"/><path d="M25,65.39c0,.08-.05.18,0,.21S25.11,65.42,25,65.39Z" fill="#ef8c23" fill-rule="evenodd"/><path d="M25,65.73s0,.13,0,.15S25.11,65.75,25,65.73Z" fill="#ef8c23" fill-rule="evenodd"/><path d="M25,66.07a.52.52,0,0,0,.06.48A.52.52,0,0,0,25,66.07Z" fill="#ef8c23" fill-rule="evenodd"/><path d="M25.07,66.68c0,.28-.11.63.07.82C25.08,67.25,25.28,66.85,25.07,66.68Z" fill="#ef8c23" fill-rule="evenodd"/><path d="M25.1,67.7s0,.12,0,.14S25.17,67.71,25.1,67.7Z" fill="#ef8c23" fill-rule="evenodd"/><path d="M25.14,68.24c.23-.31-.22-.26,0,0Z" fill="#ef8c23" fill-rule="evenodd"/><path d="M25.13,68.31s0,.12.05.14S25.2,68.32,25.13,68.31Z" fill="#ef8c23" fill-rule="evenodd"/><path d="M25.15,68.58c0,.08,0,.18,0,.21S25.24,68.61,25.15,68.58Z" fill="#ef8c23" fill-rule="evenodd"/><path d="M25.16,68.92s0,.13.05.14S25.23,68.94,25.16,68.92Z" fill="#ef8c23" fill-rule="evenodd"/><path d="M25.17,69.26s0,.1.06.08S25.21,69.23,25.17,69.26Z" fill="#ef8c23" fill-rule="evenodd"/><path d="M25.2,69.47a.61.61,0,0,0,0,.54A.75.75,0,0,0,25.2,69.47Z" fill="#ef8c23" fill-rule="evenodd"/><path d="M25.22,70.14c0,.06,0,.13.05.15S25.29,70.16,25.22,70.14Z" fill="#ef8c23" fill-rule="evenodd"/><path d="M25.23,70.48s0,.11.06.08S25.27,70.46,25.23,70.48Z" fill="#ef8c23" fill-rule="evenodd"/><path d="M25.23,70.82s0,.11.07.08S25.28,70.79,25.23,70.82Z" fill="#ef8c23" fill-rule="evenodd"/><path d="M25.27,71c0,.26-.06.56.08.76C25.36,71.51,25.43,71.21,25.27,71Z" fill="#ef8c23" fill-rule="evenodd"/><path d="M25.31,72c0,.08,0,.18,0,.21S25.39,72,25.31,72Z" fill="#ef8c23" fill-rule="evenodd"/><path d="M25.32,72.32s0,.1.06.08S25.36,72.29,25.32,72.32Z" fill="#ef8c23" fill-rule="evenodd"/><path d="M25.35,72.53a.47.47,0,0,0,.07.41C25.48,72.76,25.47,72.61,25.35,72.53Z" fill="#ef8c23" fill-rule="evenodd"/><path d="M25.38,73.14s0,.13.05.14S25.45,73.16,25.38,73.14Z" fill="#ef8c23" fill-rule="evenodd"/><path d="M25.4,73.41c0,.06,0,.13.05.15S25.48,73.43,25.4,73.41Z" fill="#ef8c23" fill-rule="evenodd"/><path d="M25.42,73.69s0,.12,0,.14S25.5,73.7,25.42,73.69Z" fill="#ef8c23" fill-rule="evenodd"/><path d="M75.75,26a.32.32,0,0,0,0-.36A.33.33,0,0,0,75.75,26Z" fill="#ef8c23" fill-rule="evenodd"/><path d="M75.59,26.9c0,.13-.18.26,0,.36a2.29,2.29,0,0,0,.12-1.1A2.76,2.76,0,0,0,75.59,26.9Z" fill="#ef8c23" fill-rule="evenodd"/><path d="M75.3,29.72c.15-.46,0-.81.19-1.28a3.67,3.67,0,0,1,.13-1c-.07,0,0-.3-.12,0A18.18,18.18,0,0,0,75.3,29.72Z" fill="#ef8c23" fill-rule="evenodd"/><path d="M75.21,30.4a.74.74,0,0,0,0-.56A.79.79,0,0,0,75.21,30.4Z" fill="#ef8c23" fill-rule="evenodd"/><path d="M75.2,30.61s0-.1,0-.08S75.15,30.63,75.2,30.61Z" fill="#ef8c23" fill-rule="evenodd"/><path d="M75.14,30.73s0,.11,0,.09S75.19,30.72,75.14,30.73Z" fill="#ef8c23" fill-rule="evenodd"/><path d="M75.14,31.23a.27.27,0,0,0,0-.29C75.05,31.07,75,31.17,75.14,31.23Z" fill="#ef8c23" fill-rule="evenodd"/><path d="M74.9,33.43a1.23,1.23,0,0,0,0-.77A1.72,1.72,0,0,0,74.9,33.43Z" fill="#ef8c23" fill-rule="evenodd"/><path d="M74.94,34.17c-.18-.1,0-.36-.08-.47a22.69,22.69,0,0,0-.29,3.61C74.75,36.24,74.65,35.28,74.94,34.17Z" fill="#ef8c23" fill-rule="evenodd"/><path d="M74.54,37.73c.07-.13.08-.24,0-.3C74.44,37.56,74.44,37.67,74.54,37.73Z" fill="#ef8c23" fill-rule="evenodd"/><path d="M74.51,38.29c.1-.21.11-.38,0-.5C74.57,37.93,74.28,38.21,74.51,38.29Z" fill="#ef8c23" fill-rule="evenodd"/><path d="M74.48,38.85s0-.1,0-.09S74.43,38.87,74.48,38.85Z" fill="#ef8c23" fill-rule="evenodd"/><path d="M74.46,39.06s0-.11,0-.09S74.41,39.08,74.46,39.06Z" fill="#ef8c23" fill-rule="evenodd"/><path d="M74.45,39.41a.17.17,0,0,0,0-.23A.18.18,0,0,0,74.45,39.41Z" fill="#ef8c23" fill-rule="evenodd"/><path d="M74.39,39.53s0,.11,0,.09S74.44,39.52,74.39,39.53Z" fill="#ef8c23" fill-rule="evenodd"/><path d="M74.38,39.74c0,.15-.17.63.05.53C74.32,40.13,74.55,39.86,74.38,39.74Z" fill="#ef8c23" fill-rule="evenodd"/><path d="M74.33,40.51a.19.19,0,0,0,0,.24A.19.19,0,0,0,74.33,40.51Z" fill="#ef8c23" fill-rule="evenodd"/><path d="M74.32,41.51c.07-.24.13-.48,0-.64A1.53,1.53,0,0,0,74.32,41.51Z" fill="#ef8c23" fill-rule="evenodd"/><path d="M74.31,41.87c.08-.13.08-.23,0-.29A.29.29,0,0,0,74.31,41.87Z" fill="#ef8c23" fill-rule="evenodd"/><path d="M74.28,42.43c0-.15.11-.34,0-.44C74.25,42.14,74.15,42.33,74.28,42.43Z" fill="#ef8c23" fill-rule="evenodd"/><path d="M74.28,42.93c.07-.13.08-.23,0-.29C74.19,42.77,74.18,42.87,74.28,42.93Z" fill="#ef8c23" fill-rule="evenodd"/><path d="M74.22,43.05s0,.11,0,.09S74.27,43,74.22,43.05Z" fill="#ef8c23" fill-rule="evenodd"/><path d="M74.23,43.2c-.06.19-.12.38,0,.5C74.34,43.49,74.35,43.32,74.23,43.2Z" fill="#ef8c23" fill-rule="evenodd"/><path d="M74.27,45.09c-.16-.37.08-.9-.09-1.27-.15.53.08.91-.13,1.46.19.34-.11.87.12,1.2a1.83,1.83,0,0,1,.08-.68A.88.88,0,0,1,74.27,45.09Z" fill="#ef8c23" fill-rule="evenodd"/><path d="M74.15,47.19c.07-.13.08-.24,0-.3C74.05,47,74.05,47.13,74.15,47.19Z" fill="#ef8c23" fill-rule="evenodd"/><path d="M74.12,47.25s0,.1,0,.09S74.16,47.23,74.12,47.25Z" fill="#ef8c23" fill-rule="evenodd"/><path d="M73.79,48.33c.28-.13-.14-.28,0,0Z" fill="#ef8c23" fill-rule="evenodd"/><path d="M74.13,48s0-.1,0-.08S74.09,48.06,74.13,48Z" fill="#ef8c23" fill-rule="evenodd"/><path d="M74.11,48.25a.44.44,0,0,1-.15.36C74.15,48.77,74.27,48.28,74.11,48.25Z" fill="#ef8c23" fill-rule="evenodd"/><path d="M73.93,49.18c.07,0,.16.08.2,0a.41.41,0,0,1-.21-.17c0,.12-.13.1-.17.21S73.9,49.29,73.93,49.18Z" fill="#ef8c23" fill-rule="evenodd"/><path d="M74.43,48s0,.1,0,.09S74.47,48,74.43,48Z" fill="#ef8c23" fill-rule="evenodd"/><path d="M74.65,47.84s0,.1,0,.09S74.7,47.82,74.65,47.84Z" fill="#ef8c23" fill-rule="evenodd"/><path d="M74.11,49.9c.14.24-.06-.26,0,0Z" fill="#ef8c23" fill-rule="evenodd"/><path d="M74.1,50.26c.08,0,.07,0,.05-.12S74,50.21,74.1,50.26Z" fill="#ef8c23" fill-rule="evenodd"/><path d="M74.07,50.82c0,.15,0,.29.05.38C74.11,51.07,74.26,50.88,74.07,50.82Z" fill="#ef8c23" fill-rule="evenodd"/><path d="M74.08,51.62a.18.18,0,0,0,0,.23A.18.18,0,0,0,74.08,51.62Z" fill="#ef8c23" fill-rule="evenodd"/><path d="M74.12,52.35s0,.11,0,.09S74.17,52.34,74.12,52.35Z" fill="#ef8c23" fill-rule="evenodd"/><path d="M74.13,52.5c-.08.13-.08.23,0,.29C74.22,52.66,74.23,52.56,74.13,52.5Z" fill="#ef8c23" fill-rule="evenodd"/><path d="M74.12,52.85s0,.11,0,.09S74.16,52.84,74.12,52.85Z" fill="#ef8c23" fill-rule="evenodd"/><path d="M74.2,54.33a.19.19,0,0,0,0-.24A.19.19,0,0,0,74.2,54.33Z" fill="#ef8c23" fill-rule="evenodd"/><path d="M74.14,54.45a.36.36,0,0,0,0,.38C74.23,54.68,74.24,54.54,74.14,54.45Z" fill="#ef8c23" fill-rule="evenodd"/><path d="M74.17,55a.31.31,0,0,0,0,.3C74.27,55.2,74.27,55.1,74.17,55Z" fill="#ef8c23" fill-rule="evenodd"/><path d="M74.24,56.86a.18.18,0,0,0,0-.23A.18.18,0,0,0,74.24,56.86Z" fill="#ef8c23" fill-rule="evenodd"/><path d="M73.93,58.23s0,.11,0,.09S74,58.22,73.93,58.23Z" fill="#ef8c23" fill-rule="evenodd"/><path d="M74.16,58.19s.08,0,.15,0a.64.64,0,0,0-.08-.46C74.28,58,74,58.05,74.16,58.19Z" fill="#ef8c23" fill-rule="evenodd"/><path d="M74.08,58.37c-.09.21-.2.42-.09.54A.62.62,0,0,0,74.08,58.37Z" fill="#ef8c23" fill-rule="evenodd"/><path d="M74.36,60.22a.18.18,0,0,0,0,.23A.18.18,0,0,0,74.36,60.22Z" fill="#ef8c23" fill-rule="evenodd"/><path d="M74.41,60.74a.17.17,0,0,0,0-.23A.18.18,0,0,0,74.41,60.74Z" fill="#ef8c23" fill-rule="evenodd"/><path d="M74.45,61.33a.18.18,0,0,0,0-.23A.17.17,0,0,0,74.45,61.33Z" fill="#ef8c23" fill-rule="evenodd"/><path d="M74.47,61.78a.19.19,0,0,0,0-.24A.19.19,0,0,0,74.47,61.78Z" fill="#ef8c23" fill-rule="evenodd"/><path d="M74.54,62.6a.62.62,0,0,0-.08-.47A.46.46,0,0,0,74.54,62.6Z" fill="#ef8c23" fill-rule="evenodd"/><path d="M74.55,63.39c.08-.13.09-.23,0-.29C74.46,63.23,74.45,63.33,74.55,63.39Z" fill="#ef8c23" fill-rule="evenodd"/><path d="M74.57,63.69a.36.36,0,0,0,.05.38C74.66,63.92,74.67,63.78,74.57,63.69Z" fill="#ef8c23" fill-rule="evenodd"/><path d="M74.64,64.51c0-.15,0-.29,0-.38C74.55,64.28,74.54,64.42,74.64,64.51Z" fill="#ef8c23" fill-rule="evenodd"/><path d="M74.74,68.08c-.32.15.13.22,0,0Z" fill="#ef8c23" fill-rule="evenodd"/><path d="M74.94,68s0-.11,0-.09S74.9,68,74.94,68Z" fill="#ef8c23" fill-rule="evenodd"/><path d="M75,68.62a.17.17,0,0,0,0-.23A.18.18,0,0,0,75,68.62Z" fill="#ef8c23" fill-rule="evenodd"/><path d="M75.12,69.68c0-.15,0-.29-.05-.38A.36.36,0,0,0,75.12,69.68Z" fill="#ef8c23" fill-rule="evenodd"/><path d="M75.13,70a.19.19,0,0,0,.05.24A.19.19,0,0,0,75.13,70Z" fill="#ef8c23" fill-rule="evenodd"/><path d="M75.45,72.55a.19.19,0,0,0,0,.24A.19.19,0,0,0,75.45,72.55Z" fill="#ef8c23" fill-rule="evenodd"/><path d="M74.25,56.51a.57.57,0,0,0-.08-.47A.59.59,0,0,0,74.25,56.51Z" fill="#ef8c23" fill-rule="evenodd"/><path d="M74.41,60.1a.67.67,0,0,0-.08-.47A.59.59,0,0,0,74.41,60.1Z" fill="#ef8c23" fill-rule="evenodd"/><path d="M74.69,65.39a.86.86,0,0,0,.09.62A1.16,1.16,0,0,0,74.69,65.39Z" fill="#ef8c23" fill-rule="evenodd"/><path d="M74.84,66.68a1,1,0,0,0-.09-.61A.9.9,0,0,0,74.84,66.68Z" fill="#ef8c23" fill-rule="evenodd"/><path d="M75.32,71.35a.58.58,0,0,0-.08-.47A.67.67,0,0,0,75.32,71.35Z" fill="#ef8c23" fill-rule="evenodd"/><path d="M75.3,71.41a.59.59,0,0,0,.08.47A.58.58,0,0,0,75.3,71.41Z" fill="#ef8c23" fill-rule="evenodd"/></svg>