<svg id="abbccb6d-c92e-448d-982f-49cd52748cef" data-name="Layer 1" xmlns="http://www.w3.org/2000/svg" width="100" height="100" viewBox="0 0 100 100"><title>icons</title><circle cx="48.94" cy="42.12" r="1.59" fill="#ef8c23"/><circle cx="48.94" cy="42.12" r="1.59" fill="#ef8c23"/><path d="M48.94,44.71a2.59,2.59,0,1,1,2.59-2.59A2.6,2.6,0,0,1,48.94,44.71Zm0-3.18a.59.59,0,0,0-.59.59.59.59,0,1,0,1.18,0A.59.59,0,0,0,48.94,41.53Z" fill="#2c3439"/><rect x="48.68" y="10.66" width="2.65" height="23.65" rx="1.32" transform="translate(1.8 -3.64) rotate(4.25)" fill="#ef8c23"/><path d="M53.87,98.65H48.51a3,3,0,0,1-3-3l-2-34.5a191.87,191.87,0,0,1,0-22.24l2-34.56a3,3,0,0,1,3-3h5.36a3,3,0,0,1,3,3L55,39.66a186.1,186.1,0,0,0,0,19.62l1.89,36.29A3,3,0,0,1,53.87,98.65ZM48.51,3.35a1,1,0,0,0-1,1L45.43,39a187.76,187.76,0,0,0,0,22l2,34.56a1,1,0,0,0,1,1.09h5.36a1,1,0,0,0,1-1L53,59.38a189.9,189.9,0,0,1,0-19.82L54.9,4.32a1,1,0,0,0-1-1Z" fill="#2c3439"/><path d="M51.43,35.45l-2.66-.2a2.12,2.12,0,0,1-2-2.13l.07-7.51a52.86,52.86,0,0,1,.52-6.89l1-7a2.33,2.33,0,0,1,2.47-2l2.47.18L52,19.24a50.42,50.42,0,0,0-.5,6.6Zm-.74-23.77a.32.32,0,0,0-.32.28l-1,7a50.49,50.49,0,0,0-.5,6.63l-.07,7.51a.12.12,0,0,0,.11.12l.53,0,.07-7.48A52.66,52.66,0,0,1,50,19l1-7.25-.34,0Z" fill="#2c3439"/></svg>