<svg id="facd95c9-67ba-4944-a307-90a0b9b2e51f" data-name="Layer 1" xmlns="http://www.w3.org/2000/svg" width="100" height="100" viewBox="0 0 100 100"><title>laptop</title><path d="M73.27,76.07c1.94.34,4.76-.48,7.1-.67.67-.34,1.42.23.34.26l-6.19.84C74,76.51,73.09,77,73.27,76.07Z" fill="#ef8c23" fill-rule="evenodd"/><path d="M70.36,76.78c-.43,1-2.18.69-4,1.15-.95-.36,1.76-.55,1.73-.54A6.25,6.25,0,0,1,70.36,76.78Z" fill="#ef8c23" fill-rule="evenodd"/><path d="M71.58,76.91c1-1.18,1.61.59,0,0Z" fill="#ef8c23" fill-rule="evenodd"/><path d="M82.18,75.45c0-.28.33-.27.55-.37l.88-.12C83.75,75.59,82.58,75.23,82.18,75.45Z" fill="#ef8c23" fill-rule="evenodd"/><path d="M84.58,75.42c.31-.72,2-.39,2.9-.69C87.16,75.45,85.45,75.12,84.58,75.42Z" fill="#ef8c23" fill-rule="evenodd"/><path d="M63.42,78.63c0-.35.5-.32.84-.42l.88-.12C65.19,78.75,63.91,78.39,63.42,78.63Z" fill="#ef8c23" fill-rule="evenodd"/><path d="M88.74,75.15c0-.35.5-.32.84-.41l.88-.12C90.52,75.27,89.23,74.91,88.74,75.15Z" fill="#ef8c23" fill-rule="evenodd"/><path d="M61.4,79.21c0-.29.33-.28.54-.38l.89-.12C63,79.34,61.8,79,61.4,79.21Z" fill="#ef8c23" fill-rule="evenodd"/><path d="M92,75c0-.35.5-.32.84-.41C92.86,74.94,92.36,74.91,92,75Z" fill="#ef8c23" fill-rule="evenodd"/><path d="M58.79,79.86c0-.34.27-.2.29,0C59.07,80.17,58.81,80,58.79,79.86Z" fill="#ef8c23" fill-rule="evenodd"/><path d="M60,79.7c0-.35.51-.32.85-.41C60.81,79.64,60.3,79.61,60,79.7Z" fill="#ef8c23" fill-rule="evenodd"/><path d="M57.39,80.65c-.17-.13.16-.4.26-.33S57.49,80.72,57.39,80.65Z" fill="#ef8c23" fill-rule="evenodd"/><path d="M56,81.15c-.17-.13.16-.4.26-.33S56.06,81.22,56,81.15Z" fill="#ef8c23" fill-rule="evenodd"/><path d="M73.27,76.07c1.94.34,4.76-.48,7.1-.67.67-.34,1.42.23.34.26l-6.19.84C74,76.51,73.09,77,73.27,76.07Z" fill="#ef8c23" fill-rule="evenodd"/><path d="M70.36,76.78c-.43,1-2.18.69-4,1.15-.95-.36,1.76-.55,1.73-.54A6.25,6.25,0,0,1,70.36,76.78Z" fill="#ef8c23" fill-rule="evenodd"/><path d="M71.58,76.91c1-1.18,1.61.59,0,0Z" fill="#ef8c23" fill-rule="evenodd"/><path d="M82.18,75.45c0-.28.33-.27.55-.37l.88-.12C83.75,75.59,82.58,75.23,82.18,75.45Z" fill="#ef8c23" fill-rule="evenodd"/><path d="M84.58,75.42c.31-.72,2-.39,2.9-.69C87.16,75.45,85.45,75.12,84.58,75.42Z" fill="#ef8c23" fill-rule="evenodd"/><path d="M63.42,78.63c0-.35.5-.32.84-.42l.88-.12C65.19,78.75,63.91,78.39,63.42,78.63Z" fill="#ef8c23" fill-rule="evenodd"/><path d="M88.74,75.15c0-.35.5-.32.84-.41l.88-.12C90.52,75.27,89.23,74.91,88.74,75.15Z" fill="#ef8c23" fill-rule="evenodd"/><path d="M61.4,79.21c0-.29.33-.28.54-.38l.89-.12C63,79.34,61.8,79,61.4,79.21Z" fill="#ef8c23" fill-rule="evenodd"/><path d="M92,75c0-.35.5-.32.84-.41C92.86,74.94,92.36,74.91,92,75Z" fill="#ef8c23" fill-rule="evenodd"/><path d="M58.79,79.86c0-.34.27-.2.29,0C59.07,80.17,58.81,80,58.79,79.86Z" fill="#ef8c23" fill-rule="evenodd"/><path d="M60,79.7c0-.35.51-.32.85-.41C60.81,79.64,60.3,79.61,60,79.7Z" fill="#ef8c23" fill-rule="evenodd"/><path d="M57.39,80.65c-.17-.13.16-.4.26-.33S57.49,80.72,57.39,80.65Z" fill="#ef8c23" fill-rule="evenodd"/><path d="M56,81.15c-.17-.13.16-.4.26-.33S56.06,81.22,56,81.15Z" fill="#ef8c23" fill-rule="evenodd"/><path d="M73.27,76.07c1.94.34,4.76-.48,7.1-.67.67-.34,1.42.23.34.26l-6.19.84C74,76.51,73.09,77,73.27,76.07Z" fill="#ef8c23" fill-rule="evenodd"/><path d="M70.36,76.78c-.43,1-2.18.69-4,1.15-.95-.36,1.76-.55,1.73-.54A6.25,6.25,0,0,1,70.36,76.78Z" fill="#ef8c23" fill-rule="evenodd"/><path d="M71.58,76.91c1-1.18,1.61.59,0,0Z" fill="#ef8c23" fill-rule="evenodd"/><path d="M82.18,75.45c0-.28.33-.27.55-.37l.88-.12C83.75,75.59,82.58,75.23,82.18,75.45Z" fill="#ef8c23" fill-rule="evenodd"/><path d="M84.58,75.42c.31-.72,2-.39,2.9-.69C87.16,75.45,85.45,75.12,84.58,75.42Z" fill="#ef8c23" fill-rule="evenodd"/><path d="M63.42,78.63c0-.35.5-.32.84-.42l.88-.12C65.19,78.75,63.91,78.39,63.42,78.63Z" fill="#ef8c23" fill-rule="evenodd"/><path d="M88.74,75.15c0-.35.5-.32.84-.41l.88-.12C90.52,75.27,89.23,74.91,88.74,75.15Z" fill="#ef8c23" fill-rule="evenodd"/><path d="M61.4,79.21c0-.29.33-.28.54-.38l.89-.12C63,79.34,61.8,79,61.4,79.21Z" fill="#ef8c23" fill-rule="evenodd"/><path d="M92,75c0-.35.5-.32.84-.41C92.86,74.94,92.36,74.91,92,75Z" fill="#ef8c23" fill-rule="evenodd"/><path d="M58.79,79.86c0-.34.27-.2.29,0C59.07,80.17,58.81,80,58.79,79.86Z" fill="#ef8c23" fill-rule="evenodd"/><path d="M60,79.7c0-.35.51-.32.85-.41C60.81,79.64,60.3,79.61,60,79.7Z" fill="#ef8c23" fill-rule="evenodd"/><path d="M57.39,80.65c-.17-.13.16-.4.26-.33S57.49,80.72,57.39,80.65Z" fill="#ef8c23" fill-rule="evenodd"/><path d="M56,81.15c-.17-.13.16-.4.26-.33S56.06,81.22,56,81.15Z" fill="#ef8c23" fill-rule="evenodd"/><path d="M73.27,76.07c1.94.34,4.76-.48,7.1-.67.67-.34,1.42.23.34.26l-6.19.84C74,76.51,73.09,77,73.27,76.07Z" fill="#ef8c23" fill-rule="evenodd"/><path d="M70.36,76.78c-.43,1-2.18.69-4,1.15-.95-.36,1.76-.55,1.73-.54A6.25,6.25,0,0,1,70.36,76.78Z" fill="#ef8c23" fill-rule="evenodd"/><path d="M71.58,76.91c1-1.18,1.61.59,0,0Z" fill="#ef8c23" fill-rule="evenodd"/><path d="M82.18,75.45c0-.28.33-.27.55-.37l.88-.12C83.75,75.59,82.58,75.23,82.18,75.45Z" fill="#ef8c23" fill-rule="evenodd"/><path d="M84.58,75.42c.31-.72,2-.39,2.9-.69C87.16,75.45,85.45,75.12,84.58,75.42Z" fill="#ef8c23" fill-rule="evenodd"/><path d="M63.42,78.63c0-.35.5-.32.84-.42l.88-.12C65.19,78.75,63.91,78.39,63.42,78.63Z" fill="#ef8c23" fill-rule="evenodd"/><path d="M88.74,75.15c0-.35.5-.32.84-.41l.88-.12C90.52,75.27,89.23,74.91,88.74,75.15Z" fill="#ef8c23" fill-rule="evenodd"/><path d="M61.4,79.21c0-.29.33-.28.54-.38l.89-.12C63,79.34,61.8,79,61.4,79.21Z" fill="#ef8c23" fill-rule="evenodd"/><path d="M92,75c0-.35.5-.32.84-.41C92.86,74.94,92.36,74.91,92,75Z" fill="#ef8c23" fill-rule="evenodd"/><path d="M58.79,79.86c0-.34.27-.2.29,0C59.07,80.17,58.81,80,58.79,79.86Z" fill="#ef8c23" fill-rule="evenodd"/><path d="M60,79.7c0-.35.51-.32.85-.41C60.81,79.64,60.3,79.61,60,79.7Z" fill="#ef8c23" fill-rule="evenodd"/><path d="M57.39,80.65c-.17-.13.16-.4.26-.33S57.49,80.72,57.39,80.65Z" fill="#ef8c23" fill-rule="evenodd"/><path d="M56,81.15c-.17-.13.16-.4.26-.33S56.06,81.22,56,81.15Z" fill="#ef8c23" fill-rule="evenodd"/><path d="M73.27,76.07c1.94.34,4.76-.48,7.1-.67.67-.34,1.42.23.34.26l-6.19.84C74,76.51,73.09,77,73.27,76.07Z" fill="#ef8c23" fill-rule="evenodd"/><path d="M70.36,76.78c-.43,1-2.18.69-4,1.15-.95-.36,1.76-.55,1.73-.54A6.25,6.25,0,0,1,70.36,76.78Z" fill="#ef8c23" fill-rule="evenodd"/><path d="M71.58,76.91c1-1.18,1.61.59,0,0Z" fill="#ef8c23" fill-rule="evenodd"/><path d="M82.18,75.45c0-.28.33-.27.55-.37l.88-.12C83.75,75.59,82.58,75.23,82.18,75.45Z" fill="#ef8c23" fill-rule="evenodd"/><path d="M84.58,75.42c.31-.72,2-.39,2.9-.69C87.16,75.45,85.45,75.12,84.58,75.42Z" fill="#ef8c23" fill-rule="evenodd"/><path d="M63.42,78.63c0-.35.5-.32.84-.42l.88-.12C65.19,78.75,63.91,78.39,63.42,78.63Z" fill="#ef8c23" fill-rule="evenodd"/><path d="M88.74,75.15c0-.35.5-.32.84-.41l.88-.12C90.52,75.27,89.23,74.91,88.74,75.15Z" fill="#ef8c23" fill-rule="evenodd"/><path d="M61.4,79.21c0-.29.33-.28.54-.38l.89-.12C63,79.34,61.8,79,61.4,79.21Z" fill="#ef8c23" fill-rule="evenodd"/><path d="M92,75c0-.35.5-.32.84-.41C92.86,74.94,92.36,74.91,92,75Z" fill="#ef8c23" fill-rule="evenodd"/><path d="M58.79,79.86c0-.34.27-.2.29,0C59.07,80.17,58.81,80,58.79,79.86Z" fill="#ef8c23" fill-rule="evenodd"/><path d="M60,79.7c0-.35.51-.32.85-.41C60.81,79.64,60.3,79.61,60,79.7Z" fill="#ef8c23" fill-rule="evenodd"/><path d="M57.39,80.65c-.17-.13.16-.4.26-.33S57.49,80.72,57.39,80.65Z" fill="#ef8c23" fill-rule="evenodd"/><path d="M56,81.15c-.17-.13.16-.4.26-.33S56.06,81.22,56,81.15Z" fill="#ef8c23" fill-rule="evenodd"/><path d="M73.27,76.07c1.94.34,4.76-.48,7.1-.67.67-.34,1.42.23.34.26l-6.19.84C74,76.51,73.09,77,73.27,76.07Z" fill="#ef8c23" fill-rule="evenodd"/><path d="M70.36,76.78c-.43,1-2.18.69-4,1.15-.95-.36,1.76-.55,1.73-.54A6.25,6.25,0,0,1,70.36,76.78Z" fill="#ef8c23" fill-rule="evenodd"/><path d="M71.58,76.91c1-1.18,1.61.59,0,0Z" fill="#ef8c23" fill-rule="evenodd"/><path d="M82.18,75.45c0-.28.33-.27.55-.37l.88-.12C83.75,75.59,82.58,75.23,82.18,75.45Z" fill="#ef8c23" fill-rule="evenodd"/><path d="M84.58,75.42c.31-.72,2-.39,2.9-.69C87.16,75.45,85.45,75.12,84.58,75.42Z" fill="#ef8c23" fill-rule="evenodd"/><path d="M63.42,78.63c0-.35.5-.32.84-.42l.88-.12C65.19,78.75,63.91,78.39,63.42,78.63Z" fill="#ef8c23" fill-rule="evenodd"/><path d="M88.74,75.15c0-.35.5-.32.84-.41l.88-.12C90.52,75.27,89.23,74.91,88.74,75.15Z" fill="#ef8c23" fill-rule="evenodd"/><path d="M61.4,79.21c0-.29.33-.28.54-.38l.89-.12C63,79.34,61.8,79,61.4,79.21Z" fill="#ef8c23" fill-rule="evenodd"/><path d="M92,75c0-.35.5-.32.84-.41C92.86,74.94,92.36,74.91,92,75Z" fill="#ef8c23" fill-rule="evenodd"/><path d="M58.79,79.86c0-.34.27-.2.29,0C59.07,80.17,58.81,80,58.79,79.86Z" fill="#ef8c23" fill-rule="evenodd"/><path d="M60,79.7c0-.35.51-.32.85-.41C60.81,79.64,60.3,79.61,60,79.7Z" fill="#ef8c23" fill-rule="evenodd"/><path d="M57.39,80.65c-.17-.13.16-.4.26-.33S57.49,80.72,57.39,80.65Z" fill="#ef8c23" fill-rule="evenodd"/><path d="M56,81.15c-.17-.13.16-.4.26-.33S56.06,81.22,56,81.15Z" fill="#ef8c23" fill-rule="evenodd"/><path d="M73.27,76.07c1.94.34,4.76-.48,7.1-.67.67-.34,1.42.23.34.26l-6.19.84C74,76.51,73.09,77,73.27,76.07Z" fill="#ef8c23" fill-rule="evenodd"/><path d="M70.36,76.78c-.43,1-2.18.69-4,1.15-.95-.36,1.76-.55,1.73-.54A6.25,6.25,0,0,1,70.36,76.78Z" fill="#ef8c23" fill-rule="evenodd"/><path d="M71.58,76.91c1-1.18,1.61.59,0,0Z" fill="#ef8c23" fill-rule="evenodd"/><path d="M82.18,75.45c0-.28.33-.27.55-.37l.88-.12C83.75,75.59,82.58,75.23,82.18,75.45Z" fill="#ef8c23" fill-rule="evenodd"/><path d="M84.58,75.42c.31-.72,2-.39,2.9-.69C87.16,75.45,85.45,75.12,84.58,75.42Z" fill="#ef8c23" fill-rule="evenodd"/><path d="M63.42,78.63c0-.35.5-.32.84-.42l.88-.12C65.19,78.75,63.91,78.39,63.42,78.63Z" fill="#ef8c23" fill-rule="evenodd"/><path d="M88.74,75.15c0-.35.5-.32.84-.41l.88-.12C90.52,75.27,89.23,74.91,88.74,75.15Z" fill="#ef8c23" fill-rule="evenodd"/><path d="M61.4,79.21c0-.29.33-.28.54-.38l.89-.12C63,79.34,61.8,79,61.4,79.21Z" fill="#ef8c23" fill-rule="evenodd"/><path d="M92,75c0-.35.5-.32.84-.41C92.86,74.94,92.36,74.91,92,75Z" fill="#ef8c23" fill-rule="evenodd"/><path d="M58.79,79.86c0-.34.27-.2.29,0C59.07,80.17,58.81,80,58.79,79.86Z" fill="#ef8c23" fill-rule="evenodd"/><path d="M60,79.7c0-.35.51-.32.85-.41C60.81,79.64,60.3,79.61,60,79.7Z" fill="#ef8c23" fill-rule="evenodd"/><path d="M57.39,80.65c-.17-.13.16-.4.26-.33S57.49,80.72,57.39,80.65Z" fill="#ef8c23" fill-rule="evenodd"/><path d="M56,81.15c-.17-.13.16-.4.26-.33S56.06,81.22,56,81.15Z" fill="#ef8c23" fill-rule="evenodd"/><path d="M73.27,76.07c1.94.34,4.76-.48,7.1-.67.67-.34,1.42.23.34.26l-6.19.84C74,76.51,73.09,77,73.27,76.07Z" fill="#ef8c23" fill-rule="evenodd"/><path d="M70.36,76.78c-.43,1-2.18.69-4,1.15-.95-.36,1.76-.55,1.73-.54A6.25,6.25,0,0,1,70.36,76.78Z" fill="#ef8c23" fill-rule="evenodd"/><path d="M71.58,76.91c1-1.18,1.61.59,0,0Z" fill="#ef8c23" fill-rule="evenodd"/><path d="M82.18,75.45c0-.28.33-.27.55-.37l.88-.12C83.75,75.59,82.58,75.23,82.18,75.45Z" fill="#ef8c23" fill-rule="evenodd"/><path d="M84.58,75.42c.31-.72,2-.39,2.9-.69C87.16,75.45,85.45,75.12,84.58,75.42Z" fill="#ef8c23" fill-rule="evenodd"/><path d="M63.42,78.63c0-.35.5-.32.84-.42l.88-.12C65.19,78.75,63.91,78.39,63.42,78.63Z" fill="#ef8c23" fill-rule="evenodd"/><path d="M88.74,75.15c0-.35.5-.32.84-.41l.88-.12C90.52,75.27,89.23,74.91,88.74,75.15Z" fill="#ef8c23" fill-rule="evenodd"/><path d="M61.4,79.21c0-.29.33-.28.54-.38l.89-.12C63,79.34,61.8,79,61.4,79.21Z" fill="#ef8c23" fill-rule="evenodd"/><path d="M92,75c0-.35.5-.32.84-.41C92.86,74.94,92.36,74.91,92,75Z" fill="#ef8c23" fill-rule="evenodd"/><path d="M58.79,79.86c0-.34.27-.2.29,0C59.07,80.17,58.81,80,58.79,79.86Z" fill="#ef8c23" fill-rule="evenodd"/><path d="M60,79.7c0-.35.51-.32.85-.41C60.81,79.64,60.3,79.61,60,79.7Z" fill="#ef8c23" fill-rule="evenodd"/><path d="M57.39,80.65c-.17-.13.16-.4.26-.33S57.49,80.72,57.39,80.65Z" fill="#ef8c23" fill-rule="evenodd"/><path d="M56,81.15c-.17-.13.16-.4.26-.33S56.06,81.22,56,81.15Z" fill="#ef8c23" fill-rule="evenodd"/><path d="M69,80c.13.63-1,.27-1.44.5C67.74,79.45,68.13,80.25,69,80Z" fill="#ef8c23" fill-rule="evenodd"/><path d="M73.87,80.22c-.17-.14.16-.41.25-.34S74,80.29,73.87,80.22Z" fill="#ef8c23" fill-rule="evenodd"/><path d="M76.56,80.15c0-.29.33-.28.55-.38C77.14,80.06,76.78,80.05,76.56,80.15Z" fill="#ef8c23" fill-rule="evenodd"/><path d="M77.78,80.28c0-.35.5-.32.84-.42C78.62,80.21,78.12,80.19,77.78,80.28Z" fill="#ef8c23" fill-rule="evenodd"/><path d="M80.47,80.21c0-.29.33-.28.55-.38C81.05,80.12,80.69,80.11,80.47,80.21Z" fill="#ef8c23" fill-rule="evenodd"/><path d="M83.71,79.76c0,.68-1.44.32-2,.58C81.83,79.15,82.69,80.16,83.71,79.76Z" fill="#ef8c23" fill-rule="evenodd"/><path d="M85,80.19c-.06-.74,1-.22,1.17-.16.58-.25,2.35-.12.93.18C86.13,80.51,85.67,80.19,85,80.19Z" fill="#ef8c23" fill-rule="evenodd"/><path d="M88.58,80.3c0-.35.5-.33.84-.42C89.42,80.23,88.92,80.2,88.58,80.3Z" fill="#ef8c23" fill-rule="evenodd"/><path d="M90.39,80.35c-.18-.13.16-.41.25-.34S90.48,80.42,90.39,80.35Z" fill="#ef8c23" fill-rule="evenodd"/><path d="M69,80c.13.63-1,.27-1.44.5C67.74,79.45,68.13,80.25,69,80Z" fill="#ef8c23" fill-rule="evenodd"/><path d="M73.87,80.22c-.17-.14.16-.41.25-.34S74,80.29,73.87,80.22Z" fill="#ef8c23" fill-rule="evenodd"/><path d="M76.56,80.15c0-.29.33-.28.55-.38C77.14,80.06,76.78,80.05,76.56,80.15Z" fill="#ef8c23" fill-rule="evenodd"/><path d="M77.78,80.28c0-.35.5-.32.84-.42C78.62,80.21,78.12,80.19,77.78,80.28Z" fill="#ef8c23" fill-rule="evenodd"/><path d="M80.47,80.21c0-.29.33-.28.55-.38C81.05,80.12,80.69,80.11,80.47,80.21Z" fill="#ef8c23" fill-rule="evenodd"/><path d="M83.71,79.76c0,.68-1.44.32-2,.58C81.83,79.15,82.69,80.16,83.71,79.76Z" fill="#ef8c23" fill-rule="evenodd"/><path d="M85,80.19c-.06-.74,1-.22,1.17-.16.58-.25,2.35-.12.93.18C86.13,80.51,85.67,80.19,85,80.19Z" fill="#ef8c23" fill-rule="evenodd"/><path d="M88.58,80.3c0-.35.5-.33.84-.42C89.42,80.23,88.92,80.2,88.58,80.3Z" fill="#ef8c23" fill-rule="evenodd"/><path d="M90.39,80.35c-.18-.13.16-.41.25-.34S90.48,80.42,90.39,80.35Z" fill="#ef8c23" fill-rule="evenodd"/><path d="M69,80c.13.63-1,.27-1.44.5C67.74,79.45,68.13,80.25,69,80Z" fill="#ef8c23" fill-rule="evenodd"/><path d="M73.87,80.22c-.17-.14.16-.41.25-.34S74,80.29,73.87,80.22Z" fill="#ef8c23" fill-rule="evenodd"/><path d="M76.56,80.15c0-.29.33-.28.55-.38C77.14,80.06,76.78,80.05,76.56,80.15Z" fill="#ef8c23" fill-rule="evenodd"/><path d="M77.78,80.28c0-.35.5-.32.84-.42C78.62,80.21,78.12,80.19,77.78,80.28Z" fill="#ef8c23" fill-rule="evenodd"/><path d="M80.47,80.21c0-.29.33-.28.55-.38C81.05,80.12,80.69,80.11,80.47,80.21Z" fill="#ef8c23" fill-rule="evenodd"/><path d="M83.71,79.76c0,.68-1.44.32-2,.58C81.83,79.15,82.69,80.16,83.71,79.76Z" fill="#ef8c23" fill-rule="evenodd"/><path d="M85,80.19c-.06-.74,1-.22,1.17-.16.58-.25,2.35-.12.93.18C86.13,80.51,85.67,80.19,85,80.19Z" fill="#ef8c23" fill-rule="evenodd"/><path d="M88.58,80.3c0-.35.5-.33.84-.42C89.42,80.23,88.92,80.2,88.58,80.3Z" fill="#ef8c23" fill-rule="evenodd"/><path d="M90.39,80.35c-.18-.13.16-.41.25-.34S90.48,80.42,90.39,80.35Z" fill="#ef8c23" fill-rule="evenodd"/><path d="M69,80c.13.63-1,.27-1.44.5C67.74,79.45,68.13,80.25,69,80Z" fill="#ef8c23" fill-rule="evenodd"/><path d="M73.87,80.22c-.17-.14.16-.41.25-.34S74,80.29,73.87,80.22Z" fill="#ef8c23" fill-rule="evenodd"/><path d="M76.56,80.15c0-.29.33-.28.55-.38C77.14,80.06,76.78,80.05,76.56,80.15Z" fill="#ef8c23" fill-rule="evenodd"/><path d="M77.78,80.28c0-.35.5-.32.84-.42C78.62,80.21,78.12,80.19,77.78,80.28Z" fill="#ef8c23" fill-rule="evenodd"/><path d="M80.47,80.21c0-.29.33-.28.55-.38C81.05,80.12,80.69,80.11,80.47,80.21Z" fill="#ef8c23" fill-rule="evenodd"/><path d="M83.71,79.76c0,.68-1.44.32-2,.58C81.83,79.15,82.69,80.16,83.71,79.76Z" fill="#ef8c23" fill-rule="evenodd"/><path d="M85,80.19c-.06-.74,1-.22,1.17-.16.58-.25,2.35-.12.93.18C86.13,80.51,85.67,80.19,85,80.19Z" fill="#ef8c23" fill-rule="evenodd"/><path d="M88.58,80.3c0-.35.5-.33.84-.42C89.42,80.23,88.92,80.2,88.58,80.3Z" fill="#ef8c23" fill-rule="evenodd"/><path d="M90.39,80.35c-.18-.13.16-.41.25-.34S90.48,80.42,90.39,80.35Z" fill="#ef8c23" fill-rule="evenodd"/><path d="M69,80c.13.63-1,.27-1.44.5C67.74,79.45,68.13,80.25,69,80Z" fill="#ef8c23" fill-rule="evenodd"/><path d="M73.87,80.22c-.17-.14.16-.41.25-.34S74,80.29,73.87,80.22Z" fill="#ef8c23" fill-rule="evenodd"/><path d="M76.56,80.15c0-.29.33-.28.55-.38C77.14,80.06,76.78,80.05,76.56,80.15Z" fill="#ef8c23" fill-rule="evenodd"/><path d="M77.78,80.28c0-.35.5-.32.84-.42C78.62,80.21,78.12,80.19,77.78,80.28Z" fill="#ef8c23" fill-rule="evenodd"/><path d="M80.47,80.21c0-.29.33-.28.55-.38C81.05,80.12,80.69,80.11,80.47,80.21Z" fill="#ef8c23" fill-rule="evenodd"/><path d="M83.71,79.76c0,.68-1.44.32-2,.58C81.83,79.15,82.69,80.16,83.71,79.76Z" fill="#ef8c23" fill-rule="evenodd"/><path d="M85,80.19c-.06-.74,1-.22,1.17-.16.58-.25,2.35-.12.93.18C86.13,80.51,85.67,80.19,85,80.19Z" fill="#ef8c23" fill-rule="evenodd"/><path d="M88.58,80.3c0-.35.5-.33.84-.42C89.42,80.23,88.92,80.2,88.58,80.3Z" fill="#ef8c23" fill-rule="evenodd"/><path d="M90.39,80.35c-.18-.13.16-.41.25-.34S90.48,80.42,90.39,80.35Z" fill="#ef8c23" fill-rule="evenodd"/><path d="M69,80c.13.63-1,.27-1.44.5C67.74,79.45,68.13,80.25,69,80Z" fill="#ef8c23" fill-rule="evenodd"/><path d="M73.87,80.22c-.17-.14.16-.41.25-.34S74,80.29,73.87,80.22Z" fill="#ef8c23" fill-rule="evenodd"/><path d="M76.56,80.15c0-.29.33-.28.55-.38C77.14,80.06,76.78,80.05,76.56,80.15Z" fill="#ef8c23" fill-rule="evenodd"/><path d="M77.78,80.28c0-.35.5-.32.84-.42C78.62,80.21,78.12,80.19,77.78,80.28Z" fill="#ef8c23" fill-rule="evenodd"/><path d="M80.47,80.21c0-.29.33-.28.55-.38C81.05,80.12,80.69,80.11,80.47,80.21Z" fill="#ef8c23" fill-rule="evenodd"/><path d="M83.71,79.76c0,.68-1.44.32-2,.58C81.83,79.15,82.69,80.16,83.71,79.76Z" fill="#ef8c23" fill-rule="evenodd"/><path d="M85,80.19c-.06-.74,1-.22,1.17-.16.58-.25,2.35-.12.93.18C86.13,80.51,85.67,80.19,85,80.19Z" fill="#ef8c23" fill-rule="evenodd"/><path d="M88.58,80.3c0-.35.5-.33.84-.42C89.42,80.23,88.92,80.2,88.58,80.3Z" fill="#ef8c23" fill-rule="evenodd"/><path d="M90.39,80.35c-.18-.13.16-.41.25-.34S90.48,80.42,90.39,80.35Z" fill="#ef8c23" fill-rule="evenodd"/><path d="M69,80c.13.63-1,.27-1.44.5C67.74,79.45,68.13,80.25,69,80Z" fill="#ef8c23" fill-rule="evenodd"/><path d="M73.87,80.22c-.17-.14.16-.41.25-.34S74,80.29,73.87,80.22Z" fill="#ef8c23" fill-rule="evenodd"/><path d="M76.56,80.15c0-.29.33-.28.55-.38C77.14,80.06,76.78,80.05,76.56,80.15Z" fill="#ef8c23" fill-rule="evenodd"/><path d="M77.78,80.28c0-.35.5-.32.84-.42C78.62,80.21,78.12,80.19,77.78,80.28Z" fill="#ef8c23" fill-rule="evenodd"/><path d="M80.47,80.21c0-.29.33-.28.55-.38C81.05,80.12,80.69,80.11,80.47,80.21Z" fill="#ef8c23" fill-rule="evenodd"/><path d="M83.71,79.76c0,.68-1.44.32-2,.58C81.83,79.15,82.69,80.16,83.71,79.76Z" fill="#ef8c23" fill-rule="evenodd"/><path d="M85,80.19c-.06-.74,1-.22,1.17-.16.58-.25,2.35-.12.93.18C86.13,80.51,85.67,80.19,85,80.19Z" fill="#ef8c23" fill-rule="evenodd"/><path d="M88.58,80.3c0-.35.5-.33.84-.42C89.42,80.23,88.92,80.2,88.58,80.3Z" fill="#ef8c23" fill-rule="evenodd"/><path d="M90.39,80.35c-.18-.13.16-.41.25-.34S90.48,80.42,90.39,80.35Z" fill="#ef8c23" fill-rule="evenodd"/><path d="M69,80c.13.63-1,.27-1.44.5C67.74,79.45,68.13,80.25,69,80Z" fill="#ef8c23" fill-rule="evenodd"/><path d="M73.87,80.22c-.17-.14.16-.41.25-.34S74,80.29,73.87,80.22Z" fill="#ef8c23" fill-rule="evenodd"/><path d="M76.56,80.15c0-.29.33-.28.55-.38C77.14,80.06,76.78,80.05,76.56,80.15Z" fill="#ef8c23" fill-rule="evenodd"/><path d="M77.78,80.28c0-.35.5-.32.84-.42C78.62,80.21,78.12,80.19,77.78,80.28Z" fill="#ef8c23" fill-rule="evenodd"/><path d="M80.47,80.21c0-.29.33-.28.55-.38C81.05,80.12,80.69,80.11,80.47,80.21Z" fill="#ef8c23" fill-rule="evenodd"/><path d="M83.71,79.76c0,.68-1.44.32-2,.58C81.83,79.15,82.69,80.16,83.71,79.76Z" fill="#ef8c23" fill-rule="evenodd"/><path d="M85,80.19c-.06-.74,1-.22,1.17-.16.58-.25,2.35-.12.93.18C86.13,80.51,85.67,80.19,85,80.19Z" fill="#ef8c23" fill-rule="evenodd"/><path d="M88.58,80.3c0-.35.5-.33.84-.42C89.42,80.23,88.92,80.2,88.58,80.3Z" fill="#ef8c23" fill-rule="evenodd"/><path d="M90.39,80.35c-.18-.13.16-.41.25-.34S90.48,80.42,90.39,80.35Z" fill="#ef8c23" fill-rule="evenodd"/><path d="M70.44,53s-.08-.05-.06-.07S70.46,53,70.44,53Z" fill="#2c3439" fill-rule="evenodd"/><path d="M70.41,53c-.07,0,0-.07,0-.07S70.45,53,70.41,53Z" fill="#2c3439" fill-rule="evenodd"/><path d="M90.62,57H9.38V14.8A4.81,4.81,0,0,1,14.19,10H85.81a4.81,4.81,0,0,1,4.81,4.81ZM11.38,55H88.62V14.8A2.81,2.81,0,0,0,85.81,12H14.19a2.81,2.81,0,0,0-2.81,2.81Z" fill="#2c3439"/><path d="M96.19,84.65,92.93,72.37l-.38-1.43-.46-1.74L88.85,57c-25.43-.06-71.52-.13-77.7,0L3.81,84.65l-1.93-.51,3.44-13h0A8.48,8.48,0,0,0,7.13,65l0-.52,2.4-9.06.19-.19c.41-.41.41-.41,40.4-.36,19.79,0,39.56.07,39.56.07h.76L94.1,69h0a4,4,0,0,0,.79,3.56l.35.42,2.88,11.2Z" fill="#2c3439"/><path d="M91.06,73.34,9.23,73.22l3.39-14.47,74.74.36Zm-79.3-2.12,76.71.12L85.81,61.1,14.2,60.76Z" fill="#2c3439"/><path d="M55.22,82.5H40.66V73.65H55.22ZM42.16,81H53.72V75.15H42.16Z" fill="#2c3439"/><path d="M2.9,85.15H97.12a0,0,0,0,1,0,0v2.36a1.5,1.5,0,0,1-1.5,1.5H4.4a1.5,1.5,0,0,1-1.5-1.5V85.15a0,0,0,0,1,0,0Z" fill="#ef8c23"/><path d="M95.63,90H4.39a2.5,2.5,0,0,1-2.49-2.5V84.15H98.12v3.36A2.5,2.5,0,0,1,95.63,90ZM3.89,86.15v1.36a.5.5,0,0,0,.5.5H95.63a.5.5,0,0,0,.5-.5V86.15Z" fill="#2c3439"/></svg>