<svg id="bf1ae0fa-97da-404d-a7a2-819fd59e26ae" data-name="Layer 1" xmlns="http://www.w3.org/2000/svg" width="100" height="100" viewBox="0 0 100 100"><title>icons</title><path d="M91,59.94,24.42,55.53l-1.8-1.3a7.74,7.74,0,0,0-6.94-1L10.13,55,9.79,17.7a4.82,4.82,0,0,1,4.81-4.82H66.5l.26.19a4.66,4.66,0,0,0,5.42,0l.26-.19H86.22A4.82,4.82,0,0,1,91,17.69ZM25.12,53.57,89,57.8V17.69a2.82,2.82,0,0,0-2.82-2.81H73.07a6.66,6.66,0,0,1-7.2,0H14.6a2.81,2.81,0,0,0-2.81,2.81l.31,34.57,3-1a9.74,9.74,0,0,1,8.73,1.33Z" fill="#2c3439"/><path d="M96.6,87.55,89.26,59.87c-25.42-.06-71.52-.14-77.69,0L4.23,87.55,2.29,87l7.6-28.69.19-.19c.41-.41.41-.41,40.4-.36,19.79,0,39.56.07,39.56.07h.77L98.53,87Z" fill="#2c3439"/><path d="M91.47,76.24,9.65,76.12,13,61.64,87.77,62Zm-79.3-2.12,76.71.11L86.23,64l-71.61-.35Z" fill="#2c3439"/><path d="M55.63,85.4H41.07V76.54H55.63ZM42.57,83.9H54.13V78H42.57Z" fill="#2c3439"/><path d="M96,91.91H4.81a1.5,1.5,0,0,1-1.5-1.5V88.05l47.1-.93,47.12.93v2.36A1.49,1.49,0,0,1,96,91.91Z" fill="#ef8c23"/><path d="M96,92.91H4.8a2.49,2.49,0,0,1-2.48-2.5V87.05l48.62-.81,47.59.81v3.36A2.5,2.5,0,0,1,96,92.91ZM4.31,89.05v1.36a.5.5,0,0,0,.49.5H96a.5.5,0,0,0,.5-.5V89.05L51.12,87.71Z" fill="#2c3439"/></svg>