<svg xmlns="http://www.w3.org/2000/svg" viewBox="0 0 100 100" width="100" height="100">
  <!-- Tablet body -->
  <rect x="14" y="6" width="72" height="88" rx="9" ry="9" fill="#1e293b"/>
  <!-- Screen -->
  <rect x="20" y="14" width="60" height="68" rx="4" ry="4" fill="#84cc16" opacity="0.12"/>
  <rect x="20" y="14" width="60" height="68" rx="4" ry="4" fill="none" stroke="#84cc16" stroke-width="1.5" opacity="0.6"/>
  <!-- Top camera -->
  <circle cx="50" cy="10" r="2" fill="#84cc16" opacity="0.7"/>
  <!-- Home button bottom -->
  <circle cx="50" cy="92" r="3.5" fill="#1e3a1e" stroke="#84cc16" stroke-width="1.5" opacity="0.8"/>
  <!-- Screen content -->
  <rect x="27" y="22" width="46" height="3" rx="1.5" fill="#84cc16" opacity="0.5"/>
  <rect x="27" y="29" width="30" height="2.5" rx="1.25" fill="#84cc16" opacity="0.3"/>
  <!-- App grid -->
  <rect x="27" y="36" width="13" height="13" rx="3" fill="#84cc16" opacity="0.2"/>
  <rect x="44" y="36" width="13" height="13" rx="3" fill="#84cc16" opacity="0.2"/>
  <rect x="61" y="36" width="13" height="13" rx="3" fill="#84cc16" opacity="0.2"/>
  <rect x="27" y="53" width="13" height="13" rx="3" fill="#84cc16" opacity="0.15"/>
  <rect x="44" y="53" width="13" height="13" rx="3" fill="#84cc16" opacity="0.15"/>
  <rect x="61" y="53" width="13" height="13" rx="3" fill="#84cc16" opacity="0.15"/>
  <!-- Bottom bar -->
  <rect x="27" y="72" width="46" height="6" rx="3" fill="#65a30d" opacity="0.3"/>
</svg>
