<svg id="f4ba421f-39c9-49f3-a6b2-3057da103fde" data-name="Layer 1" xmlns="http://www.w3.org/2000/svg" width="100" height="100" viewBox="0 0 100 100"><title>icons</title><rect x="34.89" y="1.53" width="1.39" height="97.08" fill="#ef8c23"/><rect x="43.92" y="3.73" width="2.84" height="94.88" fill="#ef8c23"/><rect x="41.34" y="1.53" width="1.39" height="97.08" fill="#ef8c23"/><rect x="38.1" y="1.53" width="0.7" height="97.08" fill="#ef8c23"/><rect x="39.86" y="1.53" width="0.29" height="97.08" fill="#ef8c23"/><path d="M37.52,1.16h25a0,0,0,0,1,0,0V2.57a3.82,3.82,0,0,1-3.82,3.82H41.34a3.82,3.82,0,0,1-3.82-3.82V1.16A0,0,0,0,1,37.52,1.16Z" fill="#2c3439"/><path d="M70,99.84H30.05a5.76,5.76,0,0,1-5.76-5.75V6.4A5.76,5.76,0,0,1,30.05.65H70A5.76,5.76,0,0,1,75.71,6.4V94.09A5.76,5.76,0,0,1,70,99.84ZM30.05,2.65A3.76,3.76,0,0,0,26.29,6.4V94.09a3.76,3.76,0,0,0,3.76,3.75H70a3.76,3.76,0,0,0,3.76-3.75V6.4A3.76,3.76,0,0,0,70,2.65Z" fill="#2c3439"/></svg>