<?xml version="1.0" encoding="utf-8"?>
<!-- Generator: Adobe Illustrator 26.0.1, SVG Export Plug-In . SVG Version: 6.00 Build 0)  -->
<svg version="1.1" id="Layer_1" xmlns="http://www.w3.org/2000/svg" xmlns:xlink="http://www.w3.org/1999/xlink" x="0px" y="0px"
	 width="100px" height="100px" viewBox="0 0 100 100" style="enable-background:new 0 0 100 100;" xml:space="preserve">
<style type="text/css">
	.st0{fill:#2C3439;}
	.st1{opacity:0.5;fill:url(#SVGID_1_);}
	.st2{opacity:0.5;fill:url(#SVGID_00000134236320708098280720000011823915257104242330_);}
	.st3{fill:url(#SVGID_00000181066916094420231040000006536051205522313119_);}
</style>
<g>
	<g>
		<g>
			<path class="st0" d="M47.3,7.3H30.8c-2,0-3.7-1.6-3.7-3.7V2.3H51v1.4C51,5.7,49.4,7.3,47.3,7.3z"/>
		</g>
	</g>
</g>
<g>
	<path class="st0" d="M58.1,96.7H20c-3,0-5.5-2.5-5.5-5.5V7.3c0-3,2.5-5.5,5.5-5.5h38.2c3,0,5.5,2.5,5.5,5.5v83.9
		C63.6,94.2,61.2,96.7,58.1,96.7z M20,3.7c-2,0-3.6,1.6-3.6,3.6v83.9c0,2,1.6,3.6,3.6,3.6h38.2c2,0,3.6-1.6,3.6-3.6V7.3
		c0-2-1.6-3.6-3.6-3.6H20z"/>
</g>
<linearGradient id="SVGID_1_" gradientUnits="userSpaceOnUse" x1="61.29" y1="20.8439" x2="61.0675" y2="112.5044">
	<stop  offset="0" style="stop-color:#FFFFFF"/>
	<stop  offset="7.030964e-03" style="stop-color:#FFFFFF;stop-opacity:0.993"/>
	<stop  offset="1" style="stop-color:#FFFFFF;stop-opacity:0"/>
</linearGradient>
<path class="st1" d="M80.9,98.2H41.6c-2.6,0-4.7-2.1-4.7-4.7V12.8c0-2.6,2.1-4.7,4.7-4.7h39.3c2.6,0,4.7,2.1,4.7,4.7v80.7
	C85.5,96.1,83.4,98.2,80.9,98.2z"/>
<radialGradient id="SVGID_00000087376161845477024990000000830565381647758746_" cx="50.3428" cy="40.6885" r="36.1906" gradientTransform="matrix(1.0919 0 0 1.7652 6.8152 -19.0448)" gradientUnits="userSpaceOnUse">
	<stop  offset="0" style="stop-color:#231F20;stop-opacity:0"/>
	<stop  offset="0.3825" style="stop-color:#252122;stop-opacity:0.3825"/>
	<stop  offset="0.5203" style="stop-color:#2C2829;stop-opacity:0.5203"/>
	<stop  offset="0.6185" style="stop-color:#373334;stop-opacity:0.6185"/>
	<stop  offset="0.6979" style="stop-color:#484445;stop-opacity:0.6979"/>
	<stop  offset="0.766" style="stop-color:#5D5A5B;stop-opacity:0.766"/>
	<stop  offset="0.8262" style="stop-color:#787676;stop-opacity:0.8262"/>
	<stop  offset="0.8807" style="stop-color:#989697;stop-opacity:0.8807"/>
	<stop  offset="0.9308" style="stop-color:#BDBCBC;stop-opacity:0.9308"/>
	<stop  offset="0.9754" style="stop-color:#E5E5E5;stop-opacity:0.9754"/>
	<stop  offset="1" style="stop-color:#FFFFFF"/>
</radialGradient>
<path style="opacity:0.5;fill:url(#SVGID_00000087376161845477024990000000830565381647758746_);" d="M80.9,98.2H41.6
	c-2.6,0-4.7-2.1-4.7-4.7V12.8c0-2.6,2.1-4.7,4.7-4.7h39.3c2.6,0,4.7,2.1,4.7,4.7v80.7C85.5,96.1,83.4,98.2,80.9,98.2z"/>
<linearGradient id="SVGID_00000160880904980762439610000009948145298702888894_" gradientUnits="userSpaceOnUse" x1="61.4222" y1="6.4065" x2="60.9772" y2="105.1962">
	<stop  offset="1.117318e-02" style="stop-color:#EE8B22"/>
	<stop  offset="0.9888" style="stop-color:#000000"/>
</linearGradient>
<path style="fill:url(#SVGID_00000160880904980762439610000009948145298702888894_);" d="M80.5,8.3c2.6,0,4.8,1.9,4.8,4.1v81.4
	c0,2.3-2.1,4.1-4.8,4.1H41.9c-2.6,0-4.8-1.9-4.8-4.1V12.5c0-2.3,2.1-4.1,4.8-4.1H80.5 M80.5,8.1H41.9c-2.8,0-5,1.9-5,4.3v81.4
	c0,2.4,2.2,4.3,5,4.3h38.6c2.8,0,5-1.9,5-4.3V12.5C85.5,10.1,83.3,8.1,80.5,8.1L80.5,8.1z"/>
</svg>
