<svg id="a217abc3-83ac-4e5b-9ba1-82cfefb0a8b6" data-name="Layer 1" xmlns="http://www.w3.org/2000/svg" width="100" height="100" viewBox="0 0 100 100"><title>icons</title><path d="M37.82,88.5c-.69-2-.29-15.5,1.29-16.86,1-.85,4.26.58,5,2.3,1.29,2.92,0,5.17.89,8.3s2.8,2.48,4-.62a31.14,31.14,0,0,0,.31-5.15C49,74.32,46.73,60,45.73,53.38c-.88-5.87,3.19-7.8,4.31-6.27,2.4,3.26,7.35,28.12,7.35,28.12l-.67-7c.19-2.48,6.53-.77,7.18,1l1.36,6.58A54.64,54.64,0,0,1,65,69.64c.08-1,4.91.46,6.05,2.3a45.63,45.63,0,0,1,2.09,4.49,28,28,0,0,1-.74-4.22c.42-.55,4.27,1.79,5.42,3.8,3.73,6.5,2,13.35.36,20.75a20.36,20.36,0,0,1-6.06,10.39,3.2,3.2,0,0,1-2.41.84l-16.46-1.25a3.6,3.6,0,0,1-2.14-1C45.21,100.35,40.33,95.8,37.82,88.5Z" fill="#ef8c23"/><path d="M37.52.91h25a0,0,0,0,1,0,0V2.32a3.82,3.82,0,0,1-3.82,3.82H41.34a3.82,3.82,0,0,1-3.82-3.82V.91A0,0,0,0,1,37.52.91Z" fill="#2c3439"/><path d="M70,99.6H30a5.76,5.76,0,0,1-5.75-5.75V6.15A5.76,5.76,0,0,1,30,.4H70a5.76,5.76,0,0,1,5.75,5.75v87.7A5.76,5.76,0,0,1,70,99.6ZM30,2.4a3.76,3.76,0,0,0-3.75,3.75v87.7A3.76,3.76,0,0,0,30,97.6H70a3.76,3.76,0,0,0,3.75-3.75V6.15A3.76,3.76,0,0,0,70,2.4Z" fill="#2c3439"/><path d="M41.55,48.94a7.3,7.3,0,1,1,12.28,5.85c.18.7.37,1.41.55,2.13a9.28,9.28,0,1,0-8.89,1.24c-.13-.84-.25-1.64-.37-2.39A7.3,7.3,0,0,1,41.55,48.94Z" fill="#ef8c23"/><path d="M53.56,22.54a1.41,1.41,0,0,1,2.44,0l3.45,6,3.45,6a1.41,1.41,0,0,1-1.23,2.11H47.88a1.41,1.41,0,0,1-1.22-2.11l3.45-6Z" fill="#ef8c23"/><path d="M61.67,37.4H47.88A2.21,2.21,0,0,1,46,34.09l6.9-11.94A2.19,2.19,0,0,1,54.78,21h0a2.17,2.17,0,0,1,1.91,1.11l6.9,11.94a2.21,2.21,0,0,1-1.92,3.31ZM54.78,22.63a.62.62,0,0,0-.53.31l-6.9,12a.62.62,0,0,0,.53.92H61.67a.64.64,0,0,0,.54-.31.6.6,0,0,0,0-.61l-6.9-11.95A.6.6,0,0,0,54.78,22.63Z" fill="#2c3439"/><path d="M54.79,34a.81.81,0,0,1-.84-.86.8.8,0,0,1,.82-.88.87.87,0,0,1,0,1.74Zm-.51-2.87L54,24.42l1.35,0-.12,6.75Z" fill="#2c3439"/></svg>