<?xml version="1.0" encoding="utf-8"?>
<!-- Generator: Adobe Illustrator 26.0.1, SVG Export Plug-In . SVG Version: 6.00 Build 0)  -->
<svg version="1.1" id="Layer_1" xmlns="http://www.w3.org/2000/svg" xmlns:xlink="http://www.w3.org/1999/xlink" x="0px" y="0px"
	 width="100px" height="100px" viewBox="0 0 100 100" style="enable-background:new 0 0 100 100;" xml:space="preserve">
<style type="text/css">
	.st0{fill:#EE8B22;}
	.st1{fill:#2C3439;}
</style>
<path class="st0" d="M64.6,98H26.9c-2.6,0-4.7-2.1-4.7-4.7V6.8c0-2.6,2.1-4.7,4.7-4.7h37.7c2.6,0,4.7,2.1,4.7,4.7v86.4
	C69.3,95.8,67.2,98,64.6,98z"/>
<g>
	<g>
		<g>
			<g>
				<path class="st1" d="M54.3,6.4H37.1c-2.1,0-3.8-1.7-3.8-3.8V1.1h24.8v1.4C58.1,4.7,56.4,6.4,54.3,6.4z"/>
			</g>
		</g>
	</g>
	<g>
		<path class="st1" d="M65.6,99.4H25.9c-3.2,0-5.7-2.6-5.7-5.7V6.4c0-3.2,2.6-5.7,5.7-5.7h39.7c3.2,0,5.7,2.6,5.7,5.7v87.3
			C71.3,96.8,68.7,99.4,65.6,99.4z M25.9,2.6c-2.1,0-3.7,1.7-3.7,3.7v87.3c0,2.1,1.7,3.7,3.7,3.7h39.7c2.1,0,3.7-1.7,3.7-3.7V6.4
			c0-2.1-1.7-3.7-3.7-3.7H25.9z"/>
	</g>
</g>
<g>
	<g>
		<g>
			<path class="st0" d="M43.7,42.5c0.5-0.9,1.9-0.9,2.4,0l3.4,5.9l3.4,5.9c0.5,0.9-0.1,2.1-1.2,2.1h-6.9H38c-1.1,0-1.8-1.2-1.2-2.1
				l3.4-5.9L43.7,42.5z"/>
		</g>
		<g>
			<path class="st1" d="M51.8,57.3H38c-0.8,0-1.5-0.4-1.9-1.1c-0.4-0.7-0.4-1.5,0-2.2L43,42.1c0.4-0.7,1.1-1.1,1.9-1.1c0,0,0,0,0,0
				c0.8,0,1.5,0.4,1.9,1.1L53.7,54c0.4,0.7,0.4,1.5,0,2.2C53.3,56.9,52.5,57.3,51.8,57.3z M44.9,42.6c-0.1,0-0.4,0-0.5,0.3
				l-6.9,11.9c-0.2,0.3-0.1,0.5,0,0.6c0.1,0.1,0.2,0.3,0.5,0.3h13.7c0.3,0,0.5-0.2,0.5-0.3c0.1-0.1,0.2-0.3,0-0.6l-6.9-11.9
				C45.3,42.6,45,42.6,44.9,42.6z"/>
		</g>
	</g>
	<g>
		<g>
			<path class="st1" d="M44.9,53.9c-0.5,0-0.8-0.4-0.8-0.9c0-0.5,0.3-0.9,0.8-0.9c0.5,0,0.8,0.4,0.8,0.9
				C45.7,53.5,45.4,53.9,44.9,53.9z M44.4,51.1l-0.3-6.7l1.3,0l-0.1,6.7L44.4,51.1z"/>
		</g>
	</g>
</g>
</svg>
