<svg id="ec542385-b2b0-4b28-8bf7-c3a134265541" data-name="Layer 1" xmlns="http://www.w3.org/2000/svg" width="100" height="100" viewBox="0 0 100 100"><title>icons</title><rect x="22.89" y="0.35" width="1.39" height="97.65" fill="#ef8c23"/><rect x="31.92" y="2.57" width="2.84" height="95.43" fill="#ef8c23"/><rect x="29.34" y="0.35" width="1.39" height="97.65" fill="#ef8c23"/><rect x="26.1" y="0.35" width="0.7" height="97.65" fill="#ef8c23"/><rect x="27.86" y="0.35" width="0.29" height="97.65" fill="#ef8c23"/><rect x="39.04" y="6.37" width="18.26" height="1.97" rx="0.98" fill="#2c3439"/><path d="M56.32,8.72H40A1.37,1.37,0,0,1,40,6H56.32a1.37,1.37,0,0,1,0,2.74ZM40,6.76a.59.59,0,0,0-.6.59A.6.6,0,0,0,40,8H56.32a.6.6,0,0,0,.6-.6.59.59,0,0,0-.6-.59Z" fill="#2c3439"/><circle cx="59.96" cy="7.41" r="1.04" fill="#2c3439"/><path d="M60,8.79a1.39,1.39,0,1,1,1.38-1.38A1.38,1.38,0,0,1,60,8.79Zm0-2.08a.7.7,0,1,0,.69.7A.69.69,0,0,0,60,6.71Z" fill="#2c3439"/><path d="M80.48,0h-61a5.84,5.84,0,0,0-5.83,5.83v88.3A5.84,5.84,0,0,0,19.52,100h61a5.84,5.84,0,0,0,5.83-5.83V5.85A5.84,5.84,0,0,0,80.48,0Zm3.33,5.83v88.3a3.34,3.34,0,0,1-3.33,3.33h-61a3.34,3.34,0,0,1-3.33-3.33V5.85a3.34,3.34,0,0,1,3.33-3.33h61A3.34,3.34,0,0,1,83.81,5.85Z" fill="#2c3439"/><circle cx="50" cy="90.6" r="3.56" fill="#2c3439"/></svg>