<svg id="a95be816-edf6-4f98-a661-5249f6b6ad93" data-name="Layer 1" xmlns="http://www.w3.org/2000/svg" width="100" height="100" viewBox="0 0 100 100"><title>icons</title><path d="M29,48.62A6.09,6.09,0,1,1,39.19,53.5c.16.58.31,1.17.46,1.78a7.74,7.74,0,1,0-7.42,1c-.1-.7-.21-1.36-.3-2A6.11,6.11,0,0,1,29,48.62Z" fill="#ef8c23"/><path d="M39,26.6a1.17,1.17,0,0,1,2,0l2.88,5,2.88,5a1.18,1.18,0,0,1-1,1.77H34.23a1.18,1.18,0,0,1-1-1.77l2.88-5Z" fill="#ef8c23"/><path d="M45.74,39H34.23a1.81,1.81,0,0,1-1.59-.92,1.79,1.79,0,0,1,0-1.84l5.75-10A1.83,1.83,0,0,1,40,25.34h0a1.84,1.84,0,0,1,1.6.92l5.75,10a1.79,1.79,0,0,1,0,1.84A1.81,1.81,0,0,1,45.74,39ZM40,26.67a.51.51,0,0,0-.44.26l-5.75,10a.47.47,0,0,0,0,.51.48.48,0,0,0,.44.26H45.74a.5.5,0,0,0,.44-.26.47.47,0,0,0,0-.51l-5.75-10A.52.52,0,0,0,40,26.67Z" fill="#2c3439"/><path d="M40,36.19a.73.73,0,0,1,0-1.46.73.73,0,0,1,0,1.46Zm-.43-2.4-.23-5.63,1.13,0-.1,5.64Z" fill="#2c3439"/><rect x="39.04" y="6.37" width="18.26" height="1.97" rx="0.98" fill="#2c3439"/><path d="M56.32,8.72H40A1.37,1.37,0,0,1,40,6H56.32a1.37,1.37,0,0,1,0,2.74ZM40,6.76a.59.59,0,0,0-.6.59A.6.6,0,0,0,40,8H56.32a.6.6,0,0,0,.6-.6.59.59,0,0,0-.6-.59Z" fill="#2c3439"/><circle cx="59.96" cy="7.41" r="1.04" fill="#2c3439"/><path d="M60,8.79a1.39,1.39,0,1,1,1.38-1.38A1.38,1.38,0,0,1,60,8.79Zm0-2.08a.7.7,0,1,0,.69.7A.69.69,0,0,0,60,6.71Z" fill="#2c3439"/><path d="M80.48,0h-61a5.84,5.84,0,0,0-5.83,5.83v88.3A5.84,5.84,0,0,0,19.52,100h61a5.84,5.84,0,0,0,5.83-5.83V5.85A5.84,5.84,0,0,0,80.48,0Zm3.33,5.83v88.3a3.34,3.34,0,0,1-3.33,3.33h-61a3.34,3.34,0,0,1-3.33-3.33V5.85a3.34,3.34,0,0,1,3.33-3.33h61A3.34,3.34,0,0,1,83.81,5.85Z" fill="#2c3439"/><circle cx="50" cy="90.6" r="3.56" fill="#2c3439"/><path d="M25.83,81.63c-.57-1.67-.23-12.94,1.08-14.07.83-.71,3.56.48,4.19,1.92,1.08,2.43,0,4.31.75,6.92s2.34,2.07,3.31-.52a25.56,25.56,0,0,0,.26-4.3c-.29-1.78-2.15-13.71-3-19.26-.74-4.89,2.66-6.5,3.59-5.23,2,2.72,6.14,23.46,6.14,23.46l-.57-5.83c.16-2.07,5.46-.65,6,.84l1.13,5.49a44.35,44.35,0,0,1-.23-5.16c.07-.88,4.1.39,5,1.92a36.56,36.56,0,0,1,1.75,3.74A23.21,23.21,0,0,1,54.68,68c.35-.47,3.56,1.49,4.52,3.16,3.12,5.43,1.67,11.15.3,17.32a17,17,0,0,1-5,8.67,2.73,2.73,0,0,1-2,.7l-13.73-1A3,3,0,0,1,36.92,96C32,91.52,27.93,87.71,25.83,81.63Z" fill="#ef8c23"/></svg>